<svg width="24" height="24" viewBox="0 0 24 24" fill="none" xmlns="http://www.w3.org/2000/svg">
<path d="M7.19955 5.17781C7.2981 5.0803 7.37537 4.96342 7.42649 4.83455C7.47762 4.70568 7.50149 4.56762 7.4966 4.42907C7.49171 4.29052 7.45817 4.15448 7.39809 4.02954C7.33801 3.90459 7.25269 3.79345 7.14752 3.70312C6.61825 3.25143 5.94583 3.00226 5.25002 3L5.09674 3.00422H5.07424C3.48752 3.10078 2.25002 4.47891 2.2533 6.14062C2.2533 7.03125 2.6283 7.50281 2.92455 7.88016C3.00768 7.98565 3.1119 8.07265 3.23054 8.13561C3.34919 8.19856 3.47965 8.23608 3.61361 8.24578C3.6258 8.24578 3.64643 8.24813 3.70736 8.24813C3.82786 8.24795 3.94708 8.2234 4.05785 8.17595C4.16861 8.1285 4.26863 8.05914 4.3519 7.97203L7.19955 5.17781Z" fill="#888888"/>
<path d="M18.9276 3.00515L18.7743 3.00046H18.7499C18.0535 3.00227 17.3803 3.25147 16.8506 3.70359C16.7455 3.79391 16.6604 3.905 16.6004 4.02986C16.5404 4.15471 16.5069 4.29064 16.502 4.42908C16.4971 4.56751 16.5209 4.70546 16.572 4.83424C16.623 4.96302 16.7001 5.07983 16.7985 5.17734L19.6471 7.97344C19.7306 8.06086 19.8309 8.13044 19.942 8.17798C20.0531 8.22551 20.1727 8.25001 20.2935 8.25C20.3535 8.25 20.3742 8.25 20.3873 8.24766C20.5212 8.2379 20.6515 8.20034 20.7701 8.13739C20.8887 8.07444 20.9928 7.98747 21.0759 7.88203C21.374 7.50469 21.7453 7.03453 21.7471 6.1425C21.7499 4.4789 20.5124 3.10077 18.9276 3.00515Z" fill="#888888"/>
<path d="M12.0033 4.5C7.45643 4.5 3.7533 8.20078 3.7533 12.75C3.75169 14.6788 4.4289 16.5467 5.66627 18.0262L3.97315 19.7198C3.90185 19.7891 3.84503 19.8719 3.806 19.9633C3.76697 20.0547 3.74651 20.153 3.74581 20.2524C3.7451 20.3518 3.76417 20.4504 3.8019 20.5424C3.83963 20.6344 3.89526 20.7179 3.96558 20.7882C4.03589 20.8585 4.11947 20.9141 4.21146 20.9518C4.30346 20.9895 4.40202 21.0085 4.50144 21.0077C4.60085 21.007 4.69912 20.9865 4.79053 20.9474C4.88195 20.9083 4.96468 20.8515 5.03393 20.7802L6.72705 19.087C8.20745 20.323 10.0748 21 12.0033 21C13.9318 21 15.7992 20.323 17.2796 19.087L18.9731 20.7802C19.0424 20.8515 19.1251 20.9083 19.2165 20.9474C19.308 20.9865 19.4062 21.007 19.5056 21.0077C19.6051 21.0085 19.7036 20.9895 19.7956 20.9518C19.8876 20.9141 19.9712 20.8585 20.0415 20.7882C20.1118 20.7179 20.1674 20.6344 20.2052 20.5424C20.2429 20.4504 20.262 20.3518 20.2613 20.2524C20.2606 20.153 20.2401 20.0547 20.2011 19.9633C20.162 19.8719 20.1052 19.7891 20.0339 19.7198L18.3403 18.0262C19.5779 16.5468 20.2552 14.6788 20.2533 12.75C20.2533 8.20312 16.5525 4.5 12.0033 4.5ZM12.7533 12.75C12.7533 12.9489 12.6743 13.1397 12.5336 13.2803C12.393 13.421 12.2022 13.5 12.0033 13.5H8.2533C8.05439 13.5 7.86363 13.421 7.72297 13.2803C7.58232 13.1397 7.5033 12.9489 7.5033 12.75C7.5033 12.5511 7.58232 12.3603 7.72297 12.2197C7.86363 12.079 8.05439 12 8.2533 12H11.2533V7.5C11.2533 7.30109 11.3323 7.11032 11.473 6.96967C11.6136 6.82902 11.8044 6.75 12.0033 6.75C12.2022 6.75 12.393 6.82902 12.5336 6.96967C12.6743 7.11032 12.7533 7.30109 12.7533 7.5V12.75Z" fill="#888888"/>
</svg>
