<svg width="24" height="24" viewBox="0 0 24 24" fill="none" xmlns="http://www.w3.org/2000/svg">
<g clip-path="url(#clip0)">
<path d="M12 3.75C11.5941 3.75 11.2228 4.095 11.25 4.5L11.625 14.625C11.625 14.7245 11.6645 14.8198 11.7348 14.8902C11.8052 14.9605 11.9005 15 12 15C12.0995 15 12.1948 14.9605 12.2652 14.8902C12.3355 14.8198 12.375 14.7245 12.375 14.625L12.75 4.5C12.7772 4.095 12.4059 3.75 12 3.75Z" stroke="#888888" stroke-linecap="round" stroke-linejoin="round"/>
<path d="M12 20.25C12.4142 20.25 12.75 19.9142 12.75 19.5C12.75 19.0858 12.4142 18.75 12 18.75C11.5858 18.75 11.25 19.0858 11.25 19.5C11.25 19.9142 11.5858 20.25 12 20.25Z" stroke="#888888" stroke-width="32" stroke-linecap="round" stroke-linejoin="round"/>
</g>
<defs>
<clipPath id="clip0">
<rect width="24" height="24" fill="white"/>
</clipPath>
</defs>
</svg>
