<svg width="24" height="24" viewBox="0 0 24 24" fill="none" xmlns="http://www.w3.org/2000/svg">
<path fill-rule="evenodd" clip-rule="evenodd" d="M9.19069 3.23557C9.67117 3.03483 10.1867 2.93147 10.7074 2.93147C11.2282 2.93147 11.7437 3.03483 12.2242 3.23557C12.7047 3.4363 13.1406 3.73041 13.5065 4.10084C13.8725 4.47128 14.1613 4.91068 14.3562 5.39356C14.5505 5.87504 14.6476 6.39021 14.6419 6.90937L14.6358 15.7493L14.6357 15.7549C14.6248 16.4448 14.3431 17.1028 13.8514 17.5868C13.3596 18.0709 12.6973 18.3422 12.0073 18.3422C11.3173 18.3422 10.655 18.0709 10.1632 17.5868C9.67148 17.1028 9.38977 16.4448 9.37887 15.7549L9.37878 15.749V9.00011C9.37878 8.5859 9.71456 8.25011 10.1288 8.25011C10.543 8.25011 10.8788 8.5859 10.8788 9.00011V15.7364C10.8848 16.0308 11.0056 16.3112 11.2155 16.5178C11.4266 16.7257 11.711 16.8422 12.0073 16.8422C12.3036 16.8422 12.588 16.7257 12.7991 16.5178C13.0091 16.3112 13.1299 16.0306 13.1358 15.7362L13.1419 6.89999L13.142 6.8957C13.1459 6.57351 13.0858 6.25375 12.9652 5.95495C12.8446 5.65615 12.6659 5.38427 12.4394 5.15505C12.213 4.92583 11.9433 4.74385 11.646 4.61964C11.3487 4.49543 11.0297 4.43147 10.7074 4.43147C10.3852 4.43147 10.0662 4.49543 9.76891 4.61964C9.4716 4.74385 9.2019 4.92583 8.97545 5.15505C8.749 5.38427 8.5703 5.65616 8.4497 5.95495C8.32911 6.25375 8.26903 6.57351 8.27294 6.8957L8.27299 6.90025V15.808L8.27291 15.8135C8.26577 16.3074 8.35688 16.7978 8.54095 17.2562C8.72502 17.7146 8.99839 18.1319 9.34515 18.4837C9.69191 18.8355 10.1051 19.1149 10.5608 19.3055C11.0165 19.4962 11.5056 19.5944 11.9996 19.5944C12.4935 19.5944 12.9826 19.4962 13.4383 19.3055C13.894 19.1149 14.3072 18.8355 14.654 18.4837C15.0007 18.1319 15.2741 17.7146 15.4582 17.2562C15.6422 16.7978 15.7334 16.3074 15.7262 15.8135L15.7261 15.808V7.48792C15.7261 7.07371 16.0619 6.73792 16.4761 6.73792C16.8903 6.73792 17.2261 7.07371 17.2261 7.48792V15.7974C17.2354 16.4882 17.1076 17.174 16.8501 17.8152C16.592 18.4581 16.2086 19.0432 15.7223 19.5366C15.236 20.03 14.6564 20.4218 14.0173 20.6893C13.3782 20.9567 12.6923 21.0944 11.9996 21.0944C11.3068 21.0944 10.6209 20.9567 9.9818 20.6893C9.34271 20.4218 8.76316 20.03 8.27684 19.5366C7.79052 19.0432 7.40714 18.4581 7.14898 17.8152C6.89152 17.174 6.76374 16.4882 6.77299 15.7974V6.90911C6.76732 6.39004 6.86443 5.87496 7.05872 5.39356C7.2536 4.91068 7.5424 4.47128 7.90837 4.10084C8.27434 3.73041 8.71021 3.4363 9.19069 3.23557Z" fill="#888888"/>
</svg>
