<svg width="24" height="24" viewBox="0 0 24 24" fill="none" xmlns="http://www.w3.org/2000/svg">
<path d="M12.9281 7.35932C12.8584 7.28966 12.7757 7.2344 12.6847 7.19669C12.5937 7.15899 12.4962 7.13959 12.3977 7.13959C12.2992 7.13959 12.2016 7.15899 12.1106 7.19669C12.0196 7.2344 11.9369 7.28966 11.8673 7.35932L7.49198 11.7346C7.42232 11.8043 7.36706 11.887 7.32935 11.978C7.29165 12.069 7.27225 12.1665 7.27225 12.265C7.27225 12.3635 7.29165 12.4611 7.32935 12.5521C7.36706 12.6431 7.42232 12.7258 7.49198 12.7954L11.2045 16.5079C11.2741 16.5776 11.3568 16.6328 11.4478 16.6705C11.5388 16.7082 11.6364 16.7276 11.7349 16.7276C11.8334 16.7276 11.9309 16.7082 12.0219 16.6705C12.1129 16.6328 12.1956 16.5776 12.2653 16.5079L16.6406 12.1326C16.7102 12.0629 16.7655 11.9803 16.8032 11.8893C16.8409 11.7982 16.8603 11.7007 16.8603 11.6022C16.8603 11.5037 16.8409 11.4062 16.8032 11.3151C16.7655 11.2241 16.7102 11.1415 16.6406 11.0718L12.9281 7.35932ZM10.2801 12.5301C10.1752 12.635 10.0416 12.7065 9.8961 12.7355C9.7506 12.7645 9.59978 12.7496 9.4627 12.6929C9.32563 12.6361 9.20847 12.54 9.12603 12.4167C9.0436 12.2933 8.9996 12.1483 8.9996 11.9999C8.9996 11.8516 9.0436 11.7066 9.12603 11.5832C9.20847 11.4599 9.32563 11.3637 9.4627 11.307C9.59978 11.2502 9.7506 11.2354 9.8961 11.2644C10.0416 11.2934 10.1752 11.3648 10.2801 11.4698C10.4207 11.6104 10.4996 11.8011 10.4996 11.9999C10.4996 12.1988 10.4207 12.3895 10.2801 12.5301ZM12.5301 14.7801C12.4252 14.885 12.2916 14.9565 12.1461 14.9855C12.0006 15.0145 11.8498 14.9996 11.7127 14.9429C11.5756 14.8861 11.4585 14.79 11.376 14.6667C11.2936 14.5433 11.2496 14.3983 11.2496 14.2499C11.2496 14.1016 11.2936 13.9566 11.376 13.8332C11.4585 13.7099 11.5756 13.6137 11.7127 13.557C11.8498 13.5002 12.0006 13.4854 12.1461 13.5144C12.2916 13.5434 12.4252 13.6148 12.5301 13.7198C12.6707 13.8604 12.7496 14.0511 12.7496 14.2499C12.7496 14.4488 12.6707 14.6394 12.5301 14.7801ZM12.5301 10.2801C12.4252 10.385 12.2916 10.4565 12.1461 10.4855C12.0006 10.5145 11.8498 10.4996 11.7127 10.4429C11.5756 10.3861 11.4585 10.29 11.376 10.1667C11.2936 10.0433 11.2496 9.8983 11.2496 9.74994C11.2496 9.60158 11.2936 9.45656 11.376 9.33321C11.4585 9.20986 11.5756 9.11373 11.7127 9.05698C11.8498 9.00023 12.0006 8.98541 12.1461 9.01439C12.2916 9.04337 12.4252 9.11484 12.5301 9.21978C12.6707 9.36042 12.7496 9.55111 12.7496 9.74994C12.7496 9.94877 12.6707 10.1395 12.5301 10.2801ZM14.7801 12.5301C14.6752 12.635 14.5416 12.7065 14.3961 12.7355C14.2506 12.7645 14.0998 12.7496 13.9627 12.6929C13.8256 12.6361 13.7085 12.54 13.626 12.4167C13.5436 12.2933 13.4996 12.1483 13.4996 11.9999C13.4996 11.8516 13.5436 11.7066 13.626 11.5832C13.7085 11.4599 13.8256 11.3637 13.9627 11.307C14.0998 11.2502 14.2506 11.2354 14.3961 11.2644C14.5416 11.2934 14.6752 11.3648 14.7801 11.4698C14.9207 11.6104 14.9996 11.8011 14.9996 11.9999C14.9996 12.1988 14.9207 12.3895 14.7801 12.5301Z" fill="#888888"/>
<path d="M21.8254 2.17446C20.9085 1.26211 19.6677 0.749939 18.3742 0.749939C17.0808 0.749939 15.8399 1.26211 14.9231 2.17446L11.6531 5.45056C11.623 5.48078 11.6042 5.52032 11.5996 5.56268C11.5951 5.60503 11.6051 5.64768 11.628 5.68359C11.6509 5.71949 11.6854 5.74653 11.7257 5.76023C11.7661 5.77394 11.8099 5.7735 11.8499 5.75899C12.0246 5.6888 12.2099 5.64855 12.3979 5.63993C12.6935 5.63918 12.9863 5.69703 13.2594 5.81016C13.5324 5.92329 13.7804 6.08943 13.9888 6.29899L17.7009 10.011C17.9104 10.2195 18.0766 10.4674 18.1897 10.7405C18.3028 11.0136 18.3607 11.3064 18.3599 11.602C18.3514 11.79 18.3111 11.9753 18.2409 12.1499C18.2264 12.19 18.2259 12.2338 18.2396 12.2741C18.2533 12.3145 18.2804 12.3489 18.3163 12.3718C18.3522 12.3948 18.3948 12.4048 18.4372 12.4002C18.4795 12.3957 18.5191 12.3768 18.5493 12.3468L21.8254 9.07681C22.7377 8.15993 23.2499 6.9191 23.2499 5.62564C23.2499 4.33217 22.7377 3.09134 21.8254 2.17446Z" fill="#888888"/>
<path d="M11.9222 18.1326C11.6269 18.1332 11.3344 18.0755 11.0614 17.9629C10.7884 17.8503 10.5403 17.6849 10.3312 17.4763L6.61921 13.7624C6.43691 13.5803 6.28737 13.3682 6.17718 13.1352C5.96202 12.6806 6.11202 11.9634 6.29343 11.4056C6.30544 11.3657 6.30382 11.3229 6.28883 11.284C6.27384 11.2452 6.24633 11.2124 6.21064 11.1909C6.17496 11.1694 6.13313 11.1604 6.09176 11.1653C6.05039 11.1702 6.01183 11.1888 5.98218 11.2181L2.36202 14.8293C1.44671 15.7446 0.932495 16.986 0.932495 18.2805C0.932495 19.5749 1.44671 20.8163 2.36202 21.7316C3.27733 22.647 4.51875 23.1612 5.8132 23.1612C7.10764 23.1612 8.34906 22.647 9.26437 21.7316L12.6745 18.3154C12.7047 18.2852 12.7236 18.2455 12.7282 18.2031C12.7328 18.1606 12.7227 18.1179 12.6997 18.0819C12.6767 18.046 12.6421 18.0189 12.6016 18.0053C12.5612 17.9917 12.5173 17.9922 12.4772 18.007C12.2812 18.081 12.0834 18.1326 11.9222 18.1326Z" fill="#888888"/>
</svg>
