<svg width="24" height="24" viewBox="0 0 24 24" fill="none" xmlns="http://www.w3.org/2000/svg">
<path d="M21.8906 8.25007C21.6599 8.24257 21.4308 8.29212 21.2238 8.39433C21.0167 8.49654 20.8381 8.64825 20.7038 8.83601C20.6923 8.85235 20.676 8.86463 20.6572 8.87107C20.6383 8.87751 20.6179 8.87777 20.5989 8.87181C20.5798 8.86586 20.5632 8.85399 20.5514 8.83794C20.5396 8.8219 20.5332 8.8025 20.5331 8.78257V7.0646C20.5331 6.09194 19.7672 5.27351 18.795 5.25054C18.5574 5.24453 18.3209 5.28615 18.0996 5.37295C17.8783 5.45974 17.6766 5.58995 17.5064 5.75591C17.3362 5.92187 17.201 6.12021 17.1086 6.33925C17.0163 6.5583 16.9687 6.79361 16.9688 7.03132V10.8751C16.9688 10.8999 16.9589 10.9238 16.9413 10.9414C16.9237 10.9589 16.8999 10.9688 16.875 10.9688H7.125C7.10014 10.9688 7.07629 10.9589 7.05871 10.9414C7.04113 10.9238 7.03125 10.8999 7.03125 10.8751V7.0646C7.03125 6.09194 6.26531 5.27351 5.29313 5.25054C5.05564 5.24479 4.81941 5.2866 4.59833 5.3735C4.37725 5.46041 4.17578 5.59066 4.00579 5.75659C3.83579 5.92253 3.70071 6.12078 3.60848 6.3397C3.51625 6.55862 3.46874 6.79377 3.46875 7.03132V8.78351C3.4687 8.80344 3.46231 8.82283 3.45049 8.83888C3.43867 8.85493 3.42204 8.86679 3.40302 8.87275C3.384 8.87871 3.36358 8.87845 3.34471 8.87201C3.32585 8.86557 3.30953 8.85329 3.29813 8.83694C3.16368 8.64874 2.98481 8.49668 2.77741 8.39429C2.57002 8.29191 2.34054 8.24236 2.10938 8.25007C1.34531 8.27398 0.75 8.92085 0.75 9.68538V14.3129C0.75 15.0774 1.34719 15.7243 2.10938 15.7482C2.34014 15.7557 2.56919 15.7061 2.77623 15.6039C2.98326 15.5017 3.16188 15.35 3.29625 15.1623C3.30738 15.145 3.32388 15.1318 3.34322 15.1248C3.36255 15.1179 3.38365 15.1174 3.40325 15.1236C3.42286 15.1298 3.43989 15.1422 3.45173 15.159C3.46356 15.1759 3.46954 15.1961 3.46875 15.2166V16.9355C3.46875 17.9063 4.23469 18.7266 5.20687 18.7501C5.4444 18.7558 5.68067 18.714 5.90178 18.6271C6.12289 18.5401 6.32438 18.4098 6.49438 18.2438C6.66438 18.0779 6.79946 17.8796 6.89166 17.6606C6.98386 17.4416 7.03132 17.2064 7.03125 16.9688V13.1251C7.03125 13.1002 7.04113 13.0764 7.05871 13.0588C7.07629 13.0412 7.10014 13.0313 7.125 13.0313H16.875C16.8999 13.0313 16.9237 13.0412 16.9413 13.0588C16.9589 13.0764 16.9688 13.1002 16.9688 13.1251V16.9355C16.9688 17.9082 17.7347 18.7266 18.7069 18.7496C18.9444 18.7554 19.1806 18.7135 19.4017 18.6266C19.6228 18.5397 19.8242 18.4095 19.9942 18.2435C20.1642 18.0776 20.2993 17.8794 20.3915 17.6604C20.4837 17.4415 20.5313 17.2064 20.5312 16.9688V15.2166C20.5313 15.1967 20.5377 15.1773 20.5495 15.1613C20.5613 15.1452 20.578 15.1333 20.597 15.1274C20.616 15.1214 20.6364 15.1217 20.6553 15.1281C20.6741 15.1346 20.6905 15.1469 20.7019 15.1632C20.8363 15.3514 21.0152 15.5035 21.2226 15.6058C21.43 15.7082 21.6595 15.7578 21.8906 15.7501C22.6547 15.7262 23.25 15.0793 23.25 14.3148V9.68632C23.25 8.92179 22.6528 8.27491 21.8906 8.25007Z" fill="#888888"/>
</svg>
