<svg width="24" height="24" viewBox="0 0 24 24" fill="none" xmlns="http://www.w3.org/2000/svg">
<path d="M13.7928 5.09052L10.9536 5.91505" stroke="#888888" stroke-linecap="round" stroke-linejoin="round"/>
<path d="M14.8656 7.31757L12.4515 9.02382" stroke="#888888" stroke-linecap="round" stroke-linejoin="round"/>
<path d="M16.6821 9.1344L14.9758 11.5485" stroke="#888888" stroke-linecap="round" stroke-linejoin="round"/>
<path d="M18.9093 10.207L18.0848 13.0463" stroke="#888888" stroke-linecap="round" stroke-linejoin="round"/>
<path d="M12 21C16.9706 21 21 16.9706 21 12C21 7.02944 16.9706 3 12 3C7.02944 3 3 7.02944 3 12C3 16.9706 7.02944 21 12 21Z" stroke="#888888" stroke-linecap="round" stroke-linejoin="round"/>
<path d="M20.2942 11.9554C18.1255 11.7809 16.0934 10.8268 14.574 9.26956C13.0546 7.71231 12.1507 5.65737 12.0297 3.48505" stroke="#888888" stroke-linecap="round" stroke-linejoin="round"/>
<path d="M5.08777 13.7958L5.9123 10.9566" stroke="#888888" stroke-linecap="round" stroke-linejoin="round"/>
<path d="M7.31506 14.8683L9.02131 12.4543" stroke="#888888" stroke-linecap="round" stroke-linejoin="round"/>
<path d="M9.13165 16.6851L11.5457 14.9789" stroke="#888888" stroke-linecap="round" stroke-linejoin="round"/>
<path d="M10.2043 18.9121L13.0435 18.0875" stroke="#888888" stroke-linecap="round" stroke-linejoin="round"/>
<path d="M11.9531 20.3255C11.7852 18.1517 10.8339 16.1126 9.27595 14.5873C7.71797 13.062 5.65924 12.1541 3.4823 12.0324" stroke="#888888" stroke-linecap="round" stroke-linejoin="round"/>
</svg>
