<svg width="24" height="24" viewBox="0 0 24 24" fill="none" xmlns="http://www.w3.org/2000/svg">
<path d="M20.8125 13.8595L20.7905 12.6374C20.1712 12.6229 19.5547 12.5487 18.9497 12.4157L18.7153 13.229C18.693 13.3136 18.6539 13.3929 18.6004 13.4622C18.547 13.5315 18.4802 13.5894 18.404 13.6325C18.3278 13.6756 18.2438 13.7031 18.1568 13.7132C18.0699 13.7233 17.9818 13.716 17.8977 13.6916C17.8137 13.6671 17.7354 13.6261 17.6674 13.571C17.5994 13.5159 17.5431 13.4477 17.5019 13.3704C17.4607 13.2932 17.4353 13.2085 17.4273 13.1214C17.4193 13.0342 17.4288 12.9463 17.4553 12.8629L17.6897 12.0482C17.1014 11.8325 16.5355 11.5601 15.9998 11.2349L15.5105 11.9273C15.41 12.0694 15.2572 12.1659 15.0857 12.1954C14.9141 12.2249 14.7379 12.185 14.5957 12.0845C14.4535 11.9841 14.3571 11.8313 14.3276 11.6597C14.2981 11.4882 14.338 11.3119 14.4384 11.1698L14.9264 10.4793C14.4102 10.0605 13.939 9.58923 13.5202 9.07306L12.8302 9.56243C12.7598 9.61217 12.6803 9.64756 12.5962 9.66657C12.5121 9.68559 12.4251 9.68786 12.3402 9.67325C12.2553 9.65865 12.174 9.62746 12.1011 9.58146C12.0282 9.53546 11.9651 9.47556 11.9154 9.40517C11.8657 9.33478 11.8303 9.25528 11.8113 9.17121C11.7922 9.08714 11.79 9.00016 11.8046 8.91521C11.8341 8.74366 11.9305 8.59085 12.0727 8.4904L12.7636 8.00196C12.4376 7.46641 12.1648 6.90028 11.9489 6.31165L11.137 6.54603C11.0543 6.57006 10.9676 6.57756 10.8819 6.5681C10.7963 6.55864 10.7133 6.53239 10.6378 6.49087C10.5623 6.44934 10.4957 6.39335 10.4418 6.32608C10.3879 6.25882 10.3478 6.1816 10.3238 6.09884C10.2997 6.01607 10.2922 5.92939 10.3017 5.84372C10.3111 5.75806 10.3374 5.6751 10.3789 5.59958C10.4204 5.52406 10.4764 5.45746 10.5437 5.40358C10.611 5.3497 10.6882 5.30959 10.7709 5.28556L11.5819 5.05118C11.472 4.54832 11.4026 4.03747 11.3742 3.52353C11.3689 3.42978 11.3652 3.33603 11.363 3.24228L10.5089 3.22681C10.337 3.22361 10.1732 3.15307 10.0527 3.03034C9.93228 2.90761 9.86481 2.74251 9.86484 2.57056C8.13672 2.9536 6.54547 3.79986 5.26177 5.01857C3.97807 6.23728 3.05035 7.78246 2.57812 9.48837C2.76608 9.5001 2.94274 9.58212 3.07301 9.71812C3.20328 9.85412 3.27761 10.0341 3.28125 10.2224L3.30188 11.3676C3.37594 11.3699 3.45 11.3727 3.52359 11.377C4.03754 11.4053 4.54838 11.4748 5.05125 11.5846L5.28562 10.7737C5.33417 10.6065 5.44713 10.4655 5.59965 10.3817C5.75217 10.2978 5.93176 10.2779 6.09891 10.3265C6.26605 10.375 6.40707 10.488 6.49094 10.6405C6.5748 10.793 6.59464 10.9726 6.54609 11.1398L6.31172 11.9517C6.89939 12.1676 7.46457 12.4405 7.99922 12.7663L8.48438 12.0754C8.58483 11.9332 8.73764 11.8368 8.90919 11.8073C9.08074 11.7778 9.25698 11.8177 9.39914 11.9181C9.5413 12.0186 9.63773 12.1714 9.66723 12.3429C9.69672 12.5145 9.65686 12.6907 9.55641 12.8329L9.06938 13.5234C9.32743 13.7328 9.57448 13.9554 9.80953 14.1904C10.0446 14.4253 10.2672 14.6724 10.4766 14.9306L11.167 14.4426C11.3093 14.3421 11.4857 14.3023 11.6573 14.3319C11.829 14.3615 11.9818 14.458 12.0823 14.6003C12.1827 14.7426 12.2225 14.919 12.193 15.0906C12.1634 15.2622 12.0668 15.4151 11.9245 15.5156L11.2327 16.0045C11.558 16.54 11.8307 17.1057 12.0469 17.6938L12.8616 17.4571C13.0287 17.4086 13.2083 17.4284 13.3608 17.5123C13.5133 17.5961 13.6263 17.7372 13.6748 17.9043C13.7234 18.0715 13.7036 18.251 13.6197 18.4036C13.5358 18.5561 13.3948 18.669 13.2277 18.7176L12.4144 18.952C12.5438 19.5419 12.6176 20.1426 12.6347 20.7463L13.4911 20.7618C13.6899 20.7654 13.8792 20.8478 14.0173 20.9909C14.1554 21.134 14.231 21.3261 14.2275 21.5249C14.2272 21.5436 14.2259 21.5622 14.2238 21.5807C15.954 21.1687 17.5385 20.2913 18.8059 19.0434C20.0733 17.7956 20.9751 16.2248 21.4139 14.5012C21.252 14.4876 21.1009 14.4145 20.9898 14.296C20.8787 14.1774 20.8155 14.0219 20.8125 13.8595Z" fill="#888888"/>
<path d="M14.1324 2.6343C14.1299 2.80664 14.0598 2.97109 13.9371 3.09212C13.8144 3.21316 13.649 3.28107 13.4766 3.28117H13.4649L12.6769 3.26711C12.6793 3.32852 12.6816 3.38992 12.6849 3.45133C12.708 3.86585 12.7619 4.27808 12.8462 4.68461L13.6098 4.46242C13.7715 4.42871 13.94 4.45722 14.0816 4.54228C14.2232 4.62733 14.3275 4.76266 14.3737 4.92125C14.4199 5.07985 14.4047 5.25004 14.3309 5.39786C14.2571 5.54567 14.1304 5.66023 13.9758 5.71867L13.2132 5.94039C13.3837 6.39025 13.5927 6.82452 13.838 7.23836L14.4868 6.77992C14.5572 6.73019 14.6367 6.6948 14.7207 6.67578C14.8048 6.65677 14.8918 6.6545 14.9767 6.6691C15.0617 6.68371 15.1429 6.7149 15.2158 6.7609C15.2887 6.80689 15.3518 6.8668 15.4016 6.93719C15.4513 7.00758 15.4867 7.08708 15.5057 7.17114C15.5247 7.25521 15.527 7.3422 15.5124 7.42714C15.4978 7.51209 15.4666 7.59332 15.4206 7.66621C15.3746 7.7391 15.3147 7.80222 15.2443 7.85195L14.5946 8.31086C14.7587 8.50867 14.9324 8.69914 15.1158 8.88227C15.2987 9.06555 15.4908 9.23852 15.6877 9.40258L16.1462 8.75383C16.1962 8.68344 16.2596 8.62359 16.3327 8.5777C16.4059 8.5318 16.4873 8.50077 16.5725 8.48636C16.6576 8.47195 16.7447 8.47446 16.8289 8.49373C16.9131 8.513 16.9926 8.54866 17.063 8.59867C17.1334 8.64869 17.1933 8.71208 17.2392 8.78522C17.2851 8.85837 17.3161 8.93984 17.3305 9.02498C17.3449 9.11012 17.3424 9.19726 17.3231 9.28143C17.3039 9.36561 17.2682 9.44516 17.2182 9.51555L16.7607 10.1624C17.1745 10.4075 17.6086 10.6166 18.0582 10.7873L18.2813 10.0241C18.3299 9.85699 18.4428 9.71598 18.5953 9.63211C18.7479 9.54825 18.9274 9.52841 19.0946 9.57695C19.2617 9.6255 19.4028 9.73846 19.4866 9.89098C19.5705 10.0435 19.5903 10.2231 19.5418 10.3902L19.3201 11.1524C19.7977 11.2518 20.2832 11.3091 20.7708 11.3235L20.7633 10.9016C20.7603 10.7277 20.8265 10.5596 20.9474 10.4344C21.0683 10.3093 21.2339 10.2372 21.4079 10.2341H21.4196C21.4603 10.2344 21.501 10.2384 21.541 10.2459C21.1836 8.38734 20.293 6.67301 18.9779 5.31202C17.6627 3.95104 15.9799 3.00222 14.1348 2.58133C14.1319 2.60008 14.1329 2.61695 14.1324 2.6343Z" fill="#888888"/>
<path d="M9.77056 21.4476C9.77413 21.2488 9.85653 21.0595 9.99964 20.9214C10.1427 20.7833 10.3348 20.7077 10.5337 20.7112L11.3193 20.7248C11.3025 20.2529 11.2457 19.7832 11.1496 19.3209L10.3874 19.5421C10.3046 19.5662 10.2179 19.5737 10.1322 19.5642C10.0465 19.5547 9.96355 19.5285 9.88801 19.4869C9.81247 19.4454 9.74585 19.3893 9.69196 19.322C9.63807 19.2548 9.59796 19.1775 9.57392 19.0947C9.54988 19.0119 9.54239 18.9252 9.55186 18.8395C9.56134 18.7538 9.5876 18.6708 9.62914 18.5953C9.67069 18.5197 9.72671 18.4531 9.794 18.3992C9.8613 18.3453 9.93855 18.3052 10.0213 18.2812L10.7812 18.0609C10.6107 17.6112 10.4016 17.1771 10.1563 16.7634L9.50947 17.2209C9.43907 17.2706 9.35958 17.306 9.27551 17.325C9.19144 17.344 9.10446 17.3463 9.01951 17.3317C8.93457 17.3171 8.85333 17.2859 8.78044 17.2399C8.70755 17.1939 8.64444 17.134 8.5947 17.0636C8.54496 16.9932 8.50958 16.9137 8.49056 16.8297C8.47155 16.7456 8.46927 16.6586 8.48388 16.5737C8.49848 16.4887 8.52967 16.4075 8.57567 16.3346C8.62167 16.2617 8.68158 16.1986 8.75197 16.1489L9.40072 15.6904C9.23665 15.4926 9.06368 15.3014 8.8804 15.1185C8.69712 14.9357 8.5054 14.7614 8.309 14.5973L7.85009 15.247C7.74964 15.3891 7.59683 15.4856 7.42528 15.5151C7.25373 15.5446 7.07749 15.5047 6.93532 15.4042C6.79316 15.3038 6.69673 15.151 6.66724 14.9794C6.63774 14.8079 6.67761 14.6316 6.77806 14.4895L7.2365 13.8407C6.82276 13.5952 6.38847 13.3862 5.93853 13.2159L5.71868 13.9785C5.67014 14.1457 5.55715 14.2868 5.40459 14.3707C5.25203 14.4546 5.07238 14.4745 4.90517 14.426C4.73796 14.3774 4.59688 14.2644 4.51297 14.1119C4.42906 13.9593 4.4092 13.7797 4.45775 13.6124L4.67947 12.8489C4.27298 12.7644 3.86073 12.7105 3.44618 12.6876C3.40447 12.6853 3.36228 12.6839 3.32056 12.682L3.32806 13.1784C3.33157 13.3772 3.25597 13.5693 3.11787 13.7124C2.97977 13.8555 2.79049 13.9379 2.59165 13.9415H2.57806C2.51574 13.9412 2.4537 13.9332 2.39337 13.9176C2.74663 15.7771 3.63347 17.4935 4.9457 18.8575C6.25793 20.2215 7.9388 21.1741 9.78322 21.599C9.77379 21.5491 9.76955 21.4984 9.77056 21.4476Z" fill="#888888"/>
</svg>
