<svg width="24" height="24" viewBox="0 0 24 24" fill="none" xmlns="http://www.w3.org/2000/svg">
<path d="M18.1875 21C17.3346 21 16.5008 20.747 15.7916 20.2732C15.0824 19.7993 14.5297 19.1258 14.2033 18.3378C13.8769 17.5498 13.7915 16.6827 13.9579 15.8461C14.1243 15.0096 14.535 14.2412 15.1381 13.6381C15.7412 13.035 16.5096 12.6242 17.3462 12.4578C18.1827 12.2914 19.0498 12.3768 19.8378 12.7032C20.6258 13.0296 21.2994 13.5824 21.7732 14.2916C22.2471 15.0008 22.5 15.8345 22.5 16.6875C22.4988 17.8308 22.044 18.927 21.2355 19.7355C20.427 20.544 19.3309 20.9987 18.1875 21ZM18.1875 13.875C17.6312 13.875 17.0875 14.0399 16.625 14.349C16.1624 14.658 15.802 15.0973 15.5891 15.6112C15.3762 16.1251 15.3205 16.6906 15.429 17.2362C15.5376 17.7817 15.8054 18.2829 16.1988 18.6762C16.5921 19.0695 17.0932 19.3374 17.6388 19.4459C18.1844 19.5545 18.7499 19.4988 19.2638 19.2859C19.7777 19.073 20.217 18.7125 20.526 18.25C20.8351 17.7875 21 17.2437 21 16.6875C20.9991 15.9418 20.7025 15.227 20.1753 14.6997C19.648 14.1724 18.9332 13.8758 18.1875 13.875Z" fill="#888888"/>
<path d="M5.81244 21C4.95951 21 4.12573 20.747 3.41654 20.2732C2.70736 19.7993 2.15461 19.1258 1.82821 18.3378C1.50181 17.5498 1.41641 16.6827 1.5828 15.8461C1.7492 15.0096 2.15993 14.2412 2.76304 13.6381C3.36616 13.035 4.13457 12.6242 4.97111 12.4578C5.80766 12.2914 6.67476 12.3768 7.46276 12.7032C8.25077 13.0296 8.92429 13.5824 9.39815 14.2916C9.87202 15.0008 10.1249 15.8345 10.1249 16.6875C10.1237 17.8308 9.66895 18.927 8.86047 19.7355C8.05199 20.544 6.95581 20.9987 5.81244 21ZM5.81244 13.875C5.25618 13.875 4.71241 14.0399 4.2499 14.349C3.78739 14.658 3.4269 15.0973 3.21403 15.6112C3.00116 16.1251 2.94546 16.6906 3.05398 17.2362C3.1625 17.7817 3.43037 18.2829 3.8237 18.6762C4.21704 19.0695 4.71818 19.3374 5.26375 19.4459C5.80932 19.5545 6.37482 19.4988 6.88874 19.2859C7.40265 19.073 7.84191 18.7125 8.15095 18.25C8.45999 17.7875 8.62494 17.2437 8.62494 16.6875C8.62407 15.9418 8.32748 15.227 7.80022 14.6997C7.27296 14.1724 6.5581 13.8758 5.81244 13.875Z" fill="#888888"/>
<path d="M15.0002 5.99999C15.1978 6.00068 15.3935 5.96219 15.5761 5.88676C15.7587 5.81133 15.9246 5.70044 16.0641 5.56052C16.2035 5.4206 16.3139 5.25441 16.3888 5.07157C16.4636 4.88874 16.5015 4.69287 16.5002 4.4953C16.5024 4.29872 16.4654 4.10368 16.3913 3.92158C16.3172 3.73948 16.2076 3.57397 16.0688 3.43474C15.93 3.29552 15.7648 3.18536 15.583 3.11071C15.4011 3.03606 15.2062 2.99842 15.0096 2.99999C14.8126 2.99937 14.6174 3.03756 14.4352 3.11237C14.253 3.18719 14.0873 3.29716 13.9475 3.43601C13.8078 3.57487 13.6968 3.73988 13.6209 3.92163C13.5449 4.10339 13.5055 4.29832 13.5049 4.4953C13.5043 4.69229 13.5425 4.88746 13.6173 5.06969C13.6921 5.25191 13.8021 5.41761 13.9409 5.55734C14.0798 5.69706 14.2448 5.80807 14.4265 5.88402C14.6083 5.95997 14.8032 5.99938 15.0002 5.99999Z" fill="#888888"/>
<path d="M17.2289 8.99997H15.1776C15.144 8.99998 15.111 8.99093 15.082 8.97378C15.0531 8.95662 15.0293 8.93199 15.0131 8.90247L13.5253 6.17575C13.4205 5.97312 13.2694 5.79801 13.0843 5.66461C12.8992 5.53121 12.6854 5.44327 12.46 5.40789C12.2346 5.37252 12.004 5.39071 11.787 5.461C11.5699 5.53129 11.3725 5.65169 11.2106 5.81247L7.93594 9.11247C7.66083 9.39327 7.50467 9.76939 7.5 10.1625C7.5 10.9781 8.09062 11.2687 8.36719 11.4328C9.70312 12.2025 10.6439 12.7654 11.16 13.0781C11.1874 13.0948 11.2101 13.1183 11.2259 13.1463C11.2416 13.1743 11.2499 13.2058 11.25 13.2379V16.4779C11.25 16.8815 11.5603 17.2279 11.9639 17.2481C12.0652 17.253 12.1665 17.2373 12.2616 17.2019C12.3566 17.1665 12.4436 17.1122 12.517 17.0423C12.5905 16.9723 12.6491 16.8882 12.6891 16.795C12.7291 16.7018 12.7499 16.6014 12.75 16.5V12.4687C12.7501 12.3497 12.7218 12.2323 12.6675 12.1263C12.6132 12.0204 12.5345 11.9288 12.4378 11.8593L10.7034 10.612C10.6817 10.5964 10.6635 10.5764 10.6501 10.5532C10.6367 10.53 10.6285 10.5042 10.6259 10.4776C10.6233 10.4509 10.6265 10.424 10.6352 10.3987C10.6439 10.3734 10.6579 10.3502 10.6762 10.3308L12.645 8.23122C12.6652 8.20962 12.6902 8.1931 12.718 8.18301C12.7458 8.17291 12.7755 8.16953 12.8049 8.17315C12.8342 8.17676 12.8623 8.18725 12.8868 8.20378C12.9113 8.22031 12.9316 8.2424 12.9459 8.26825L13.9687 10.1142C14.0337 10.2312 14.1289 10.3287 14.2443 10.3965C14.3597 10.4644 14.4911 10.5001 14.625 10.5H17.25C17.3516 10.5001 17.4522 10.4796 17.5456 10.4396C17.639 10.3997 17.7234 10.3412 17.7935 10.2677C17.8636 10.1942 17.9181 10.1072 17.9536 10.012C17.9891 9.91679 18.0049 9.81536 18 9.71388C17.9803 9.31028 17.6325 8.99997 17.2289 8.99997Z" fill="#888888"/>
</svg>
