<svg width="24" height="24" viewBox="0 0 24 24" fill="none" xmlns="http://www.w3.org/2000/svg">
<path d="M18.1875 7.53621C18.1924 7.40711 18.1706 7.27838 18.1234 7.15811C18.0762 7.03784 18.0047 6.92862 17.9133 6.8373L12.6633 1.5873C12.5322 1.45607 12.3651 1.36667 12.1832 1.33042C12.0013 1.29418 11.8128 1.3127 11.6414 1.38366C11.47 1.45462 11.3235 1.57483 11.2205 1.72906C11.1174 1.88329 11.0625 2.06463 11.0625 2.25012V9.96199L7.3594 6.78809C7.16964 6.63395 6.92718 6.56004 6.6837 6.5821C6.44023 6.60416 6.21501 6.72046 6.05605 6.9062C5.89709 7.09193 5.81697 7.33242 5.83278 7.57638C5.84858 7.82033 5.95905 8.04847 6.14065 8.21215L10.5596 12.0001L6.14065 15.7881C6.04351 15.867 5.96316 15.9645 5.90432 16.075C5.84548 16.1854 5.80935 16.3065 5.79805 16.4312C5.78676 16.5558 5.80053 16.6814 5.83856 16.8006C5.87658 16.9199 5.93809 17.0303 6.01946 17.1253C6.10083 17.2204 6.20041 17.2982 6.31233 17.3542C6.42425 17.4102 6.54625 17.4432 6.67112 17.4513C6.796 17.4594 6.92124 17.4424 7.03945 17.4013C7.15765 17.3603 7.26644 17.2959 7.3594 17.2121L11.0625 14.0382V21.7501C11.0626 21.9355 11.1176 22.1167 11.2206 22.2709C11.3236 22.425 11.47 22.5451 11.6413 22.6161C11.8126 22.687 12.001 22.7056 12.1829 22.6694C12.3647 22.6333 12.5317 22.544 12.6628 22.4129L17.9128 17.1629C18.0042 17.0715 18.0756 16.9623 18.1227 16.842C18.1698 16.7217 18.1915 16.5929 18.1865 16.4638C18.1815 16.3347 18.1498 16.2081 18.0935 16.0918C18.0373 15.9755 17.9575 15.8721 17.8594 15.7881L13.4405 12.0001L17.8594 8.21215C17.9577 8.1282 18.0377 8.02481 18.0941 7.90849C18.1506 7.79216 18.1824 7.66542 18.1875 7.53621ZM15.871 16.5531L12.9375 19.487V14.0387L15.871 16.5531ZM12.9375 9.96199V4.51324L15.8714 7.44715L12.9375 9.96199Z" fill="#888888"/>
</svg>
