<svg width="24" height="24" viewBox="0 0 24 24" fill="none" xmlns="http://www.w3.org/2000/svg">
<path d="M21.7289 12.7561H18.75V10.4967C18.75 10.3617 18.7458 10.2294 18.7373 10.0997C20.1234 8.79281 20.2491 7.07016 20.25 5.27156C20.25 4.86797 19.9387 4.52156 19.5352 4.50234C19.4339 4.49759 19.3328 4.5134 19.2379 4.54881C19.1429 4.58422 19.0562 4.63851 18.9828 4.70838C18.9094 4.77825 18.851 4.86227 18.8109 4.95536C18.7709 5.04845 18.7502 5.14868 18.75 5.25C18.75 6.5625 18.6628 7.50703 18.2859 8.2425C17.385 6.31359 15.2025 5.24672 12 5.24672C10.1344 5.24672 8.52234 5.67469 7.33922 6.48375C6.64078 6.96141 6.11109 7.55766 5.75953 8.25188C5.34375 7.53047 5.25 6.60938 5.25 5.27156C5.25 4.86797 4.94062 4.52156 4.5375 4.50094C4.43597 4.49586 4.33448 4.51146 4.23917 4.54681C4.14387 4.58216 4.05675 4.63652 3.98309 4.70657C3.90944 4.77663 3.8508 4.86093 3.81073 4.95435C3.77066 5.04776 3.75 5.14835 3.75 5.25C3.75 7.01391 3.87234 8.7061 5.27062 10.0139C5.25718 10.172 5.25031 10.333 5.25 10.4967V12.7561H2.27109C1.8675 12.7561 1.52109 13.0664 1.50093 13.47C1.49604 13.5715 1.51183 13.6729 1.54732 13.7681C1.58282 13.8633 1.63729 13.9503 1.70742 14.0238C1.77756 14.0973 1.8619 14.1558 1.95533 14.1958C2.04876 14.2357 2.14933 14.2562 2.25093 14.2561H5.25093V15C5.25024 15.8624 5.41559 16.7169 5.73797 17.5167C4.53468 18.5925 3.75843 19.7813 3.75 21.7191C3.75 22.1288 4.06031 22.4831 4.47 22.4995C4.57094 22.5036 4.67167 22.4872 4.76612 22.4513C4.86058 22.4155 4.94681 22.3609 5.01966 22.2909C5.09251 22.2209 5.15046 22.1369 5.19004 22.044C5.22962 21.951 5.25001 21.851 5.25 21.75C5.25 20.4534 5.67656 19.6542 6.47672 18.8756C7.39943 20.189 8.75894 21.1317 10.3125 21.5353C10.4233 21.5639 10.5392 21.5668 10.6513 21.5437C10.7634 21.5206 10.8688 21.4722 10.9592 21.4021C11.0497 21.332 11.123 21.2421 11.1734 21.1394C11.2238 21.0366 11.25 20.9237 11.25 20.8092V9.02109C11.25 8.6175 11.5603 8.2711 11.9639 8.25094C12.0653 8.24605 12.1667 8.26181 12.2618 8.29724C12.3569 8.33268 12.4439 8.38707 12.5174 8.4571C12.5909 8.52714 12.6494 8.61137 12.6894 8.70469C12.7294 8.79801 12.75 8.89848 12.75 9V20.8092C12.75 20.9237 12.7762 21.0366 12.8266 21.1394C12.877 21.2421 12.9503 21.332 13.0408 21.4021C13.1312 21.4722 13.2366 21.5206 13.3487 21.5437C13.4608 21.5668 13.5767 21.5639 13.6875 21.5353C15.2408 21.1315 16.6001 20.1889 17.5228 18.8756C18.3197 19.6509 18.7458 20.4469 18.7495 21.7327C18.7478 21.9266 18.8201 22.1139 18.9516 22.2564C19.0831 22.399 19.2639 22.4861 19.4573 22.5C19.5594 22.5058 19.6615 22.4907 19.7575 22.4556C19.8534 22.4206 19.9412 22.3662 20.0155 22.296C20.0897 22.2258 20.1488 22.1411 20.1891 22.0472C20.2294 21.9533 20.2502 21.8522 20.25 21.75C20.25 19.7963 19.4719 18.5986 18.263 17.5167C18.5853 16.7169 18.7507 15.8624 18.75 15V14.2561H21.75C21.8516 14.2562 21.9522 14.2357 22.0456 14.1958C22.139 14.1558 22.2234 14.0973 22.2935 14.0238C22.3636 13.9503 22.4181 13.8633 22.4536 13.7681C22.4891 13.6729 22.5049 13.5715 22.5 13.47C22.4803 13.0664 22.1325 12.7561 21.7289 12.7561Z" fill="#888888"/>
<path d="M15.0651 4.875L15.0801 4.87922C15.7162 5.05734 16.2553 4.38469 15.9333 3.80813C15.5441 3.10888 14.9752 2.52626 14.2854 2.12048C13.5957 1.71471 12.8101 1.5005 12.0098 1.5H11.9901C11.1818 1.50055 10.3886 1.71911 9.69405 2.13266C8.99952 2.54622 8.42939 3.13944 8.04374 3.84984C7.72311 4.43953 8.28467 5.11547 8.92686 4.92141C9.85076 4.64016 10.8858 4.49672 12 4.49672C13.1292 4.49672 14.1604 4.62422 15.0651 4.875Z" fill="#888888"/>
</svg>
