<svg width="24" height="24" viewBox="0 0 24 24" fill="none" xmlns="http://www.w3.org/2000/svg">
<path d="M22.0097 5.64951C21.9557 5.54448 21.8776 5.45368 21.7819 5.38452C21.6861 5.31536 21.5754 5.26978 21.4587 5.25151C21.342 5.23323 21.2227 5.24278 21.1104 5.27936C20.9981 5.31594 20.896 5.37852 20.8125 5.46201L17.9325 8.34389C17.7911 8.48321 17.6006 8.56132 17.4021 8.56132C17.2036 8.56132 17.0131 8.48321 16.8717 8.34389L15.6267 7.09701C15.557 7.02737 15.5018 6.94468 15.4641 6.85368C15.4264 6.76267 15.407 6.66513 15.407 6.56662C15.407 6.46812 15.4264 6.37058 15.4641 6.27957C15.5018 6.18857 15.557 6.10588 15.6267 6.03623L18.4945 3.16795C18.5805 3.08199 18.6443 2.97642 18.6804 2.86034C18.7165 2.74425 18.7238 2.62112 18.7018 2.50157C18.6797 2.38201 18.629 2.26961 18.5538 2.17403C18.4787 2.07846 18.3814 2.00259 18.2705 1.95295C16.1044 0.984514 13.4006 1.48983 11.6958 3.18201C10.2473 4.62014 9.81562 6.86733 10.5122 9.34748C10.5497 9.47974 10.55 9.61981 10.5128 9.75219C10.4757 9.88456 10.4026 10.0041 10.3017 10.0975L2.49797 17.2248C2.19396 17.4978 1.94874 17.8298 1.77728 18.2007C1.60581 18.5715 1.5117 18.9734 1.50067 19.3818C1.48964 19.7902 1.56193 20.1966 1.71313 20.5762C1.86434 20.9558 2.09128 21.3005 2.38012 21.5895C2.66895 21.8785 3.01363 22.1056 3.39313 22.2569C3.77262 22.4083 4.17898 22.4808 4.5874 22.4699C4.99583 22.4591 5.39776 22.3651 5.76869 22.1938C6.13961 22.0225 6.47175 21.7775 6.74484 21.4736L13.9486 13.6525C14.0407 13.5529 14.1581 13.4803 14.2884 13.4426C14.4187 13.4048 14.5568 13.4033 14.6878 13.4383C15.3939 13.6317 16.1223 13.7321 16.8544 13.7369C18.42 13.7369 19.7939 13.2301 20.7848 12.2537C22.62 10.4458 22.8998 7.3792 22.0097 5.64951ZM4.66313 20.9603C4.35441 20.994 4.04284 20.931 3.77142 20.7801C3.5 20.6292 3.28212 20.3978 3.14784 20.1177C3.01356 19.8377 2.9695 19.5229 3.02174 19.2168C3.07399 18.9107 3.21996 18.6283 3.43952 18.4087C3.65907 18.189 3.94138 18.043 4.24749 17.9906C4.5536 17.9383 4.86841 17.9822 5.14848 18.1164C5.42855 18.2506 5.66006 18.4684 5.81108 18.7397C5.96209 19.0111 6.02515 19.3227 5.99156 19.6314C5.95461 19.9711 5.80278 20.288 5.56121 20.5296C5.31964 20.7713 5.0028 20.9232 4.66313 20.9603Z" fill="#888888"/>
</svg>
