<svg width="24" height="24" viewBox="0 0 24 24" fill="none" xmlns="http://www.w3.org/2000/svg">
<path d="M14.25 17.9999V16.8749C14.25 15.5155 15.7284 14.2297 16.6875 13.3124C18.0394 12.0201 18.75 10.2838 18.75 8.2499C18.75 4.4999 15.7627 1.4999 12 1.4999C11.1129 1.49743 10.234 1.67033 9.41396 2.00868C8.59389 2.34702 7.8488 2.84413 7.22151 3.47142C6.59422 4.0987 6.09711 4.8438 5.75877 5.66387C5.42043 6.48393 5.24752 7.36279 5.25 8.2499C5.25 10.2112 5.99109 12.0651 7.3125 13.3124C8.2664 14.2129 9.75 15.5015 9.75 16.8749V17.9999" stroke="#888888" stroke-linecap="round" stroke-linejoin="round"/>
<path d="M10.5 22.5H13.5" stroke="#888888" stroke-linecap="round" stroke-linejoin="round"/>
<path d="M9.75 20.25H14.25" stroke="#888888" stroke-linecap="round" stroke-linejoin="round"/>
<path d="M12 18V12" stroke="#888888" stroke-linecap="round" stroke-linejoin="round"/>
<path d="M13.7812 11.25C13.7812 11.25 12.773 12 12 12C11.227 12 10.2188 11.25 10.2188 11.25" stroke="#888888" stroke-linecap="round" stroke-linejoin="round"/>
</svg>
