<svg width="24" height="24" viewBox="0 0 24 24" fill="none" xmlns="http://www.w3.org/2000/svg">
<path d="M18.75 1.5H5.25C4.65326 1.5 4.08097 1.73705 3.65901 2.15901C3.23705 2.58097 3 3.15326 3 3.75V18.75C2.99998 19.0663 3.06678 19.3791 3.19603 19.6678C3.32528 19.9565 3.51405 20.2146 3.75 20.4253V21.2812C3.75 21.6045 3.8784 21.9145 4.10696 22.143C4.33552 22.3716 4.64552 22.5 4.96875 22.5H6.28125C6.60448 22.5 6.91448 22.3716 7.14304 22.143C7.3716 21.9145 7.5 21.6045 7.5 21.2812V21H16.5V21.2812C16.5 21.6045 16.6284 21.9145 16.857 22.143C17.0855 22.3716 17.3955 22.5 17.7188 22.5H19.0312C19.3545 22.5 19.6645 22.3716 19.893 22.143C20.1216 21.9145 20.25 21.6045 20.25 21.2812V20.4253C20.4859 20.2146 20.6747 19.9565 20.804 19.6678C20.9332 19.3791 21 19.0663 21 18.75V3.75C21 3.15326 20.7629 2.58097 20.341 2.15901C19.919 1.73705 19.3467 1.5 18.75 1.5ZM6.91266 18.7416C6.60394 18.7752 6.29241 18.7121 6.02106 18.5611C5.7497 18.4101 5.53189 18.1787 5.39768 17.8986C5.26348 17.6186 5.21949 17.3038 5.2718 16.9977C5.32411 16.6916 5.47013 16.4093 5.68971 16.1897C5.90929 15.9701 6.19161 15.8241 6.4977 15.7718C6.8038 15.7195 7.11859 15.7635 7.39863 15.8977C7.67867 16.0319 7.91015 16.2497 8.06113 16.5211C8.21212 16.7924 8.27516 17.1039 8.24156 17.4127C8.20459 17.7524 8.05269 18.0694 7.81103 18.311C7.56936 18.5527 7.25242 18.7046 6.91266 18.7416ZM11.0625 13.5H5.25C5.05109 13.5 4.86032 13.421 4.71967 13.2803C4.57902 13.1397 4.5 12.9489 4.5 12.75V6.75C4.5 6.55109 4.57902 6.36032 4.71967 6.21967C4.86032 6.07902 5.05109 6 5.25 6H11.0625C11.1122 6 11.1599 6.01975 11.1951 6.05492C11.2302 6.09008 11.25 6.13777 11.25 6.1875V13.3125C11.25 13.3622 11.2302 13.4099 11.1951 13.4451C11.1599 13.4802 11.1122 13.5 11.0625 13.5ZM12 4.5H5.27156C4.86844 4.5 4.52156 4.19062 4.50094 3.78797C4.49579 3.68641 4.51135 3.58486 4.54667 3.4895C4.58199 3.39414 4.63633 3.30696 4.7064 3.23326C4.77646 3.15956 4.86078 3.10087 4.95423 3.06077C5.04768 3.02067 5.14831 3 5.25 3H18.7284C19.1316 3 19.4784 3.30938 19.4991 3.71203C19.5042 3.81359 19.4887 3.91514 19.4533 4.0105C19.418 4.10586 19.3637 4.19304 19.2936 4.26674C19.2235 4.34044 19.1392 4.39913 19.0458 4.43923C18.9523 4.47933 18.8517 4.5 18.75 4.5H12ZM12.9375 6H18.75C18.9489 6 19.1397 6.07902 19.2803 6.21967C19.421 6.36032 19.5 6.55109 19.5 6.75V12.75C19.5 12.9489 19.421 13.1397 19.2803 13.2803C19.1397 13.421 18.9489 13.5 18.75 13.5H12.9375C12.8878 13.5 12.8401 13.4802 12.8049 13.4451C12.7698 13.4099 12.75 13.3622 12.75 13.3125V6.1875C12.75 6.13777 12.7698 6.09008 12.8049 6.05492C12.8401 6.01975 12.8878 6 12.9375 6ZM15.7584 17.4127C15.7248 17.1039 15.7879 16.7924 15.9389 16.5211C16.0899 16.2497 16.3213 16.0319 16.6014 15.8977C16.8814 15.7635 17.1962 15.7195 17.5023 15.7718C17.8084 15.8241 18.0907 15.9701 18.3103 16.1897C18.5299 16.4093 18.6759 16.6916 18.7282 16.9977C18.7805 17.3038 18.7365 17.6186 18.6023 17.8986C18.4681 18.1787 18.2503 18.4101 17.9789 18.5611C17.7076 18.7121 17.3961 18.7752 17.0873 18.7416C16.7476 18.7046 16.4306 18.5527 16.189 18.311C15.9473 18.0694 15.7954 17.7524 15.7584 17.4127Z" fill="#888888"/>
</svg>
