<svg width="24" height="24" viewBox="0 0 24 24" fill="none" xmlns="http://www.w3.org/2000/svg">
<path d="M8.25 19.5V22.5" stroke="#888888" stroke-linecap="round" stroke-linejoin="round"/>
<path d="M3.75 1.5H12.75C13.1478 1.5 13.5294 1.65804 13.8107 1.93934C14.092 2.22064 14.25 2.60218 14.25 3V22.3125C14.25 22.3622 14.2302 22.4099 14.1951 22.4451C14.1599 22.4802 14.1122 22.5 14.0625 22.5H2.25V3C2.25 2.60218 2.40804 2.22064 2.68934 1.93934C2.97064 1.65804 3.35218 1.5 3.75 1.5V1.5Z" stroke="#888888" stroke-linecap="round" stroke-linejoin="round"/>
<path d="M15 9H20.25C20.6478 9 21.0294 9.15804 21.3107 9.43934C21.592 9.72064 21.75 10.1022 21.75 10.5V22.5H14.25V9.75C14.25 9.55109 14.329 9.36032 14.4697 9.21967C14.6103 9.07902 14.8011 9 15 9Z" stroke="#888888" stroke-linecap="round" stroke-linejoin="round"/>
<path d="M4.59748 20.2441C4.44215 20.2644 4.28435 20.2356 4.14624 20.1616C4.00814 20.0877 3.89664 19.9724 3.82742 19.8319C3.75819 19.6913 3.73471 19.5327 3.76026 19.3781C3.78581 19.2235 3.85911 19.0809 3.96988 18.9701C4.08066 18.8593 4.22333 18.786 4.37789 18.7605C4.53244 18.7349 4.69112 18.7584 4.83165 18.8276C4.97217 18.8969 5.0875 19.0084 5.16143 19.1465C5.23537 19.2846 5.2642 19.4424 5.24388 19.5977C5.22245 19.7616 5.14745 19.9139 5.03055 20.0308C4.91365 20.1477 4.7614 20.2227 4.59748 20.2441Z" fill="#888888"/>
<path d="M4.59748 16.4941C4.44215 16.5144 4.28435 16.4856 4.14624 16.4116C4.00814 16.3377 3.89664 16.2224 3.82742 16.0819C3.75819 15.9413 3.73471 15.7827 3.76026 15.6281C3.78581 15.4735 3.85911 15.3309 3.96988 15.2201C4.08066 15.1093 4.22333 15.036 4.37789 15.0105C4.53244 14.9849 4.69112 15.0084 4.83165 15.0776C4.97217 15.1469 5.0875 15.2584 5.16143 15.3965C5.23537 15.5346 5.2642 15.6924 5.24388 15.8477C5.22245 16.0116 5.14745 16.1639 5.03055 16.2808C4.91365 16.3977 4.7614 16.4727 4.59748 16.4941Z" fill="#888888"/>
<path d="M4.59748 12.7441C4.44215 12.7644 4.28435 12.7356 4.14624 12.6616C4.00814 12.5877 3.89664 12.4724 3.82742 12.3319C3.75819 12.1913 3.73471 12.0327 3.76026 11.8781C3.78581 11.7235 3.85911 11.5809 3.96988 11.4701C4.08066 11.3593 4.22333 11.286 4.37789 11.2605C4.53244 11.2349 4.69112 11.2584 4.83165 11.3276C4.97217 11.3969 5.0875 11.5083 5.16143 11.6465C5.23537 11.7846 5.2642 11.9424 5.24388 12.0977C5.22245 12.2616 5.14745 12.4139 5.03055 12.5308C4.91365 12.6477 4.7614 12.7226 4.59748 12.7441Z" fill="#888888"/>
<path d="M4.59748 8.99409C4.44215 9.0144 4.28435 8.98557 4.14624 8.91164C4.00814 8.8377 3.89664 8.72238 3.82742 8.58185C3.75819 8.44133 3.73471 8.28265 3.76026 8.1281C3.78581 7.97354 3.85911 7.83087 3.96988 7.7201C4.08066 7.60933 4.22333 7.53602 4.37789 7.51047C4.53244 7.48492 4.69112 7.50841 4.83165 7.57763C4.97217 7.64686 5.0875 7.75835 5.16143 7.89646C5.23537 8.03456 5.2642 8.19236 5.24388 8.34768C5.22245 8.51161 5.14745 8.66385 5.03055 8.78075C4.91365 8.89765 4.7614 8.97265 4.59748 8.99409Z" fill="#888888"/>
<path d="M4.59748 5.2441C4.44215 5.26441 4.28435 5.23558 4.14624 5.16165C4.00814 5.08771 3.89664 4.97239 3.82742 4.83186C3.75819 4.69133 3.73471 4.53266 3.76026 4.3781C3.78581 4.22354 3.85911 4.08087 3.96988 3.9701C4.08066 3.85933 4.22333 3.78602 4.37789 3.76047C4.53244 3.73492 4.69112 3.75841 4.83165 3.82763C4.97217 3.89686 5.0875 4.00835 5.16143 4.14646C5.23537 4.28457 5.2642 4.44236 5.24388 4.59769C5.22245 4.76161 5.14745 4.91386 5.03055 5.03076C4.91365 5.14766 4.7614 5.22266 4.59748 5.2441Z" fill="#888888"/>
<path d="M8.34747 16.4941C8.19214 16.5144 8.03435 16.4856 7.89624 16.4116C7.75813 16.3377 7.64664 16.2224 7.57742 16.0819C7.50819 15.9413 7.48471 15.7827 7.51026 15.6281C7.53581 15.4735 7.60911 15.3309 7.71988 15.2201C7.83065 15.1093 7.97333 15.036 8.12788 15.0105C8.28244 14.9849 8.44111 15.0084 8.58164 15.0776C8.72217 15.1469 8.83749 15.2584 8.91142 15.3965C8.98536 15.5346 9.01419 15.6924 8.99387 15.8477C8.97244 16.0116 8.89744 16.1639 8.78054 16.2808C8.66364 16.3977 8.51139 16.4727 8.34747 16.4941Z" fill="#888888"/>
<path d="M8.34747 12.7441C8.19214 12.7644 8.03435 12.7356 7.89624 12.6616C7.75813 12.5877 7.64664 12.4724 7.57742 12.3319C7.50819 12.1913 7.48471 12.0327 7.51026 11.8781C7.53581 11.7235 7.60911 11.5809 7.71988 11.4701C7.83065 11.3593 7.97333 11.286 8.12788 11.2605C8.28244 11.2349 8.44111 11.2584 8.58164 11.3276C8.72217 11.3969 8.83749 11.5083 8.91142 11.6465C8.98536 11.7846 9.01419 11.9424 8.99387 12.0977C8.97244 12.2616 8.89744 12.4139 8.78054 12.5308C8.66364 12.6477 8.51139 12.7226 8.34747 12.7441Z" fill="#888888"/>
<path d="M8.34747 8.99409C8.19214 9.0144 8.03435 8.98557 7.89624 8.91164C7.75813 8.8377 7.64664 8.72238 7.57742 8.58185C7.50819 8.44133 7.48471 8.28265 7.51026 8.1281C7.53581 7.97354 7.60911 7.83087 7.71988 7.7201C7.83065 7.60933 7.97333 7.53602 8.12788 7.51047C8.28244 7.48492 8.44111 7.50841 8.58164 7.57763C8.72217 7.64686 8.83749 7.75835 8.91142 7.89646C8.98536 8.03456 9.01419 8.19236 8.99387 8.34768C8.97244 8.51161 8.89744 8.66385 8.78054 8.78075C8.66364 8.89765 8.51139 8.97265 8.34747 8.99409Z" fill="#888888"/>
<path d="M8.34747 5.2441C8.19214 5.26441 8.03435 5.23558 7.89624 5.16165C7.75813 5.08771 7.64664 4.97239 7.57742 4.83186C7.50819 4.69133 7.48471 4.53266 7.51026 4.3781C7.53581 4.22354 7.60911 4.08087 7.71988 3.9701C7.83065 3.85933 7.97333 3.78602 8.12788 3.76047C8.28244 3.73492 8.44111 3.75841 8.58164 3.82763C8.72217 3.89686 8.83749 4.00835 8.91142 4.14646C8.98536 4.28457 9.01419 4.44236 8.99387 4.59769C8.97244 4.76161 8.89744 4.91386 8.78054 5.03076C8.66364 5.14766 8.51139 5.22266 8.34747 5.2441Z" fill="#888888"/>
<path d="M12.0975 20.2441C11.9421 20.2644 11.7843 20.2356 11.6462 20.1616C11.5081 20.0877 11.3966 19.9724 11.3274 19.8319C11.2582 19.6913 11.2347 19.5327 11.2603 19.3781C11.2858 19.2235 11.3591 19.0809 11.4699 18.9701C11.5807 18.8593 11.7233 18.786 11.8779 18.7605C12.0324 18.7349 12.1911 18.7584 12.3316 18.8276C12.4722 18.8969 12.5875 19.0084 12.6614 19.1465C12.7354 19.2846 12.7642 19.4424 12.7439 19.5977C12.7224 19.7616 12.6474 19.9139 12.5305 20.0308C12.4136 20.1477 12.2614 20.2227 12.0975 20.2441Z" fill="#888888"/>
<path d="M12.0975 16.4941C11.9421 16.5144 11.7843 16.4856 11.6462 16.4116C11.5081 16.3377 11.3966 16.2224 11.3274 16.0819C11.2582 15.9413 11.2347 15.7827 11.2603 15.6281C11.2858 15.4735 11.3591 15.3309 11.4699 15.2201C11.5807 15.1093 11.7233 15.036 11.8779 15.0105C12.0324 14.9849 12.1911 15.0084 12.3316 15.0776C12.4722 15.1469 12.5875 15.2584 12.6614 15.3965C12.7354 15.5346 12.7642 15.6924 12.7439 15.8477C12.7224 16.0116 12.6474 16.1639 12.5305 16.2808C12.4136 16.3977 12.2614 16.4727 12.0975 16.4941Z" fill="#888888"/>
<path d="M12.0975 12.7441C11.9421 12.7644 11.7843 12.7356 11.6462 12.6616C11.5081 12.5877 11.3966 12.4724 11.3274 12.3319C11.2582 12.1913 11.2347 12.0327 11.2603 11.8781C11.2858 11.7235 11.3591 11.5809 11.4699 11.4701C11.5807 11.3593 11.7233 11.286 11.8779 11.2605C12.0324 11.2349 12.1911 11.2584 12.3316 11.3276C12.4722 11.3969 12.5875 11.5083 12.6614 11.6465C12.7354 11.7846 12.7642 11.9424 12.7439 12.0977C12.7224 12.2616 12.6474 12.4139 12.5305 12.5308C12.4136 12.6477 12.2614 12.7226 12.0975 12.7441Z" fill="#888888"/>
<path d="M12.5312 8.78074C12.8232 8.48876 12.822 8.01419 12.5286 7.72075C12.2351 7.4273 11.7606 7.42612 11.4686 7.71809C11.1766 8.01007 11.1778 8.48465 11.4712 8.77809C11.7647 9.07153 12.2392 9.07272 12.5312 8.78074Z" fill="#888888"/>
<path d="M12.0975 5.2441C11.9421 5.26441 11.7843 5.23558 11.6462 5.16165C11.5081 5.08771 11.3966 4.97239 11.3274 4.83186C11.2582 4.69133 11.2347 4.53266 11.2603 4.3781C11.2858 4.22354 11.3591 4.08087 11.4699 3.9701C11.5807 3.85933 11.7233 3.78602 11.8779 3.76047C12.0324 3.73492 12.1911 3.75841 12.3316 3.82763C12.4722 3.89686 12.5875 4.00835 12.6614 4.14646C12.7354 4.28457 12.7642 4.44236 12.7439 4.59769C12.7224 4.76161 12.6474 4.91386 12.5305 5.03076C12.4136 5.14766 12.2614 5.22266 12.0975 5.2441Z" fill="#888888"/>
<path d="M18.75 18.75C18.6017 18.75 18.4567 18.794 18.3333 18.8764C18.21 18.9588 18.1139 19.0759 18.0571 19.213C18.0003 19.35 17.9855 19.5008 18.0144 19.6463C18.0434 19.7918 18.1148 19.9254 18.2197 20.0303C18.3246 20.1352 18.4582 20.2067 18.6037 20.2356C18.7492 20.2645 18.9 20.2497 19.037 20.1929C19.1741 20.1362 19.2912 20.04 19.3736 19.9167C19.456 19.7933 19.5 19.6483 19.5 19.5C19.5 19.3011 19.421 19.1103 19.2803 18.9697C19.1397 18.829 18.9489 18.75 18.75 18.75Z" fill="#888888"/>
<path d="M18.75 15C18.6017 15 18.4567 15.044 18.3333 15.1264C18.21 15.2088 18.1139 15.3259 18.0571 15.463C18.0003 15.6 17.9855 15.7508 18.0144 15.8963C18.0434 16.0418 18.1148 16.1754 18.2197 16.2803C18.3246 16.3852 18.4582 16.4567 18.6037 16.4856C18.7492 16.5145 18.9 16.4997 19.037 16.4429C19.1741 16.3862 19.2912 16.29 19.3736 16.1667C19.456 16.0433 19.5 15.8983 19.5 15.75C19.5 15.5511 19.421 15.3603 19.2803 15.2197C19.1397 15.079 18.9489 15 18.75 15Z" fill="#888888"/>
<path d="M18.75 11.25C18.6017 11.25 18.4567 11.294 18.3333 11.3764C18.21 11.4588 18.1139 11.5759 18.0571 11.713C18.0003 11.85 17.9855 12.0008 18.0144 12.1463C18.0434 12.2918 18.1148 12.4254 18.2197 12.5303C18.3246 12.6352 18.4582 12.7067 18.6037 12.7356C18.7492 12.7645 18.9 12.7497 19.037 12.6929C19.1741 12.6362 19.2912 12.54 19.3736 12.4167C19.456 12.2933 19.5 12.1483 19.5 12C19.5 11.8011 19.421 11.6103 19.2803 11.4697C19.1397 11.329 18.9489 11.25 18.75 11.25Z" fill="#888888"/>
<path d="M15.75 18.75C15.6017 18.75 15.4567 18.794 15.3333 18.8764C15.21 18.9588 15.1139 19.0759 15.0571 19.213C15.0003 19.35 14.9855 19.5008 15.0144 19.6463C15.0434 19.7918 15.1148 19.9254 15.2197 20.0303C15.3246 20.1352 15.4582 20.2067 15.6037 20.2356C15.7492 20.2645 15.9 20.2497 16.037 20.1929C16.1741 20.1362 16.2912 20.04 16.3736 19.9167C16.456 19.7933 16.5 19.6483 16.5 19.5C16.5 19.3011 16.421 19.1103 16.2803 18.9697C16.1397 18.829 15.9489 18.75 15.75 18.75Z" fill="#888888"/>
<path d="M15.75 15C15.6017 15 15.4567 15.044 15.3333 15.1264C15.21 15.2088 15.1139 15.3259 15.0571 15.463C15.0003 15.6 14.9855 15.7508 15.0144 15.8963C15.0434 16.0418 15.1148 16.1754 15.2197 16.2803C15.3246 16.3852 15.4582 16.4567 15.6037 16.4856C15.7492 16.5145 15.9 16.4997 16.037 16.4429C16.1741 16.3862 16.2912 16.29 16.3736 16.1667C16.456 16.0433 16.5 15.8983 16.5 15.75C16.5 15.5511 16.421 15.3603 16.2803 15.2197C16.1397 15.079 15.9489 15 15.75 15Z" fill="#888888"/>
<path d="M15.75 11.25C15.6017 11.25 15.4567 11.294 15.3333 11.3764C15.21 11.4588 15.1139 11.5759 15.0571 11.713C15.0003 11.85 14.9855 12.0008 15.0144 12.1463C15.0434 12.2918 15.1148 12.4254 15.2197 12.5303C15.3246 12.6352 15.4582 12.7067 15.6037 12.7356C15.7492 12.7645 15.9 12.7497 16.037 12.6929C16.1741 12.6362 16.2912 12.54 16.3736 12.4167C16.456 12.2933 16.5 12.1483 16.5 12C16.5 11.8011 16.421 11.6103 16.2803 11.4697C16.1397 11.329 15.9489 11.25 15.75 11.25Z" fill="#888888"/>
</svg>
