<svg width="24" height="24" viewBox="0 0 24 24" fill="none" xmlns="http://www.w3.org/2000/svg">
<path d="M22.5 6C22.5 5.20435 22.1839 4.44129 21.6213 3.87868C21.0587 3.31607 20.2956 2.99999 19.5 2.99999H18.75V2.27109C18.75 1.86749 18.4397 1.52109 18.0361 1.50093C17.9347 1.49604 17.8333 1.5118 17.7382 1.54724C17.6431 1.58267 17.5561 1.63706 17.4826 1.7071C17.4091 1.77713 17.3506 1.86136 17.3106 1.95468C17.2706 2.048 17.25 2.14847 17.25 2.24999V2.99999H6.75V2.27109C6.75 1.86749 6.43969 1.52109 6.03609 1.50093C5.93469 1.49604 5.83334 1.5118 5.7382 1.54724C5.64307 1.58267 5.55611 1.63706 5.48261 1.7071C5.40911 1.77713 5.3506 1.86136 5.31062 1.95468C5.27063 2.048 5.25001 2.14847 5.25 2.24999V2.99999H4.5C3.70435 2.99999 2.94129 3.31607 2.37868 3.87868C1.81607 4.44129 1.5 5.20435 1.5 6V6.5625C1.5 6.61223 1.51975 6.65992 1.55492 6.69508C1.59008 6.73025 1.63777 6.75 1.6875 6.75H22.3125C22.3622 6.75 22.4099 6.73025 22.4451 6.69508C22.4802 6.65992 22.5 6.61223 22.5 6.5625V6Z" fill="#888888"/>
<path d="M1.5 19.5C1.5 20.2956 1.81607 21.0587 2.37868 21.6213C2.94129 22.1839 3.70435 22.5 4.5 22.5H19.5C20.2956 22.5 21.0587 22.1839 21.6213 21.6213C22.1839 21.0587 22.5 20.2956 22.5 19.5V8.4375C22.5 8.38777 22.4802 8.34008 22.4451 8.30492C22.4099 8.26975 22.3622 8.25 22.3125 8.25H1.6875C1.63777 8.25 1.59008 8.26975 1.55492 8.30492C1.51975 8.34008 1.5 8.38777 1.5 8.4375V19.5Z" fill="#888888"/>
</svg>
