<svg width="24" height="24" viewBox="0 0 24 24" fill="none" xmlns="http://www.w3.org/2000/svg">
<path d="M22.5 6C22.5 5.20435 22.1839 4.44129 21.6213 3.87868C21.0587 3.31607 20.2956 2.99999 19.5 2.99999H18.75V2.27109C18.75 1.86749 18.4397 1.52109 18.0361 1.50093C17.9347 1.49604 17.8333 1.5118 17.7382 1.54724C17.6431 1.58267 17.5561 1.63706 17.4826 1.7071C17.4091 1.77713 17.3506 1.86136 17.3106 1.95468C17.2706 2.048 17.25 2.14847 17.25 2.24999V2.99999H6.75V2.27109C6.75 1.86749 6.43969 1.52109 6.03609 1.50093C5.93469 1.49604 5.83334 1.5118 5.7382 1.54724C5.64307 1.58267 5.55611 1.63706 5.48261 1.7071C5.40911 1.77713 5.3506 1.86136 5.31062 1.95468C5.27063 2.048 5.25001 2.14847 5.25 2.24999V2.99999H4.5C3.70435 2.99999 2.94129 3.31607 2.37868 3.87868C1.81607 4.44129 1.5 5.20435 1.5 6V6.5625C1.5 6.61223 1.51975 6.65992 1.55492 6.69508C1.59008 6.73025 1.63777 6.75 1.6875 6.75H22.3125C22.3622 6.75 22.4099 6.73025 22.4451 6.69508C22.4802 6.65992 22.5 6.61223 22.5 6.5625V6Z" fill="#888888"/>
<path d="M1.5 19.5C1.5 20.2956 1.81607 21.0587 2.37868 21.6213C2.94129 22.1839 3.70435 22.5 4.5 22.5H19.5C20.2956 22.5 21.0587 22.1839 21.6213 21.6213C22.1839 21.0587 22.5 20.2956 22.5 19.5V8.39062C22.5 8.35333 22.4852 8.31756 22.4588 8.29119C22.4324 8.26482 22.3967 8.25 22.3594 8.25H1.64062C1.60333 8.25 1.56756 8.26482 1.54119 8.29119C1.51482 8.31756 1.5 8.35333 1.5 8.39062V19.5ZM17.625 9.75C17.8475 9.75 18.065 9.81598 18.25 9.9396C18.435 10.0632 18.5792 10.2389 18.6644 10.4445C18.7495 10.65 18.7718 10.8762 18.7284 11.0945C18.685 11.3127 18.5778 11.5132 18.4205 11.6705C18.2632 11.8278 18.0627 11.935 17.8445 11.9784C17.6262 12.0218 17.4 11.9995 17.1945 11.9144C16.9889 11.8292 16.8132 11.685 16.6896 11.5C16.566 11.315 16.5 11.0975 16.5 10.875C16.5 10.5766 16.6185 10.2905 16.8295 10.0795C17.0405 9.86853 17.3266 9.75 17.625 9.75ZM17.625 13.5C17.8475 13.5 18.065 13.566 18.25 13.6896C18.435 13.8132 18.5792 13.9889 18.6644 14.1945C18.7495 14.4 18.7718 14.6262 18.7284 14.8445C18.685 15.0627 18.5778 15.2632 18.4205 15.4205C18.2632 15.5778 18.0627 15.685 17.8445 15.7284C17.6262 15.7718 17.4 15.7495 17.1945 15.6644C16.9889 15.5792 16.8132 15.435 16.6896 15.25C16.566 15.065 16.5 14.8475 16.5 14.625C16.5 14.3266 16.6185 14.0405 16.8295 13.8295C17.0405 13.6185 17.3266 13.5 17.625 13.5ZM13.875 9.75C14.0975 9.75 14.315 9.81598 14.5 9.9396C14.685 10.0632 14.8292 10.2389 14.9144 10.4445C14.9995 10.65 15.0218 10.8762 14.9784 11.0945C14.935 11.3127 14.8278 11.5132 14.6705 11.6705C14.5132 11.8278 14.3127 11.935 14.0945 11.9784C13.8762 12.0218 13.65 11.9995 13.4445 11.9144C13.2389 11.8292 13.0632 11.685 12.9396 11.5C12.816 11.315 12.75 11.0975 12.75 10.875C12.75 10.5766 12.8685 10.2905 13.0795 10.0795C13.2905 9.86853 13.5766 9.75 13.875 9.75ZM13.875 13.5C14.0975 13.5 14.315 13.566 14.5 13.6896C14.685 13.8132 14.8292 13.9889 14.9144 14.1945C14.9995 14.4 15.0218 14.6262 14.9784 14.8445C14.935 15.0627 14.8278 15.2632 14.6705 15.4205C14.5132 15.5778 14.3127 15.685 14.0945 15.7284C13.8762 15.7718 13.65 15.7495 13.4445 15.6644C13.2389 15.5792 13.0632 15.435 12.9396 15.25C12.816 15.065 12.75 14.8475 12.75 14.625C12.75 14.3266 12.8685 14.0405 13.0795 13.8295C13.2905 13.6185 13.5766 13.5 13.875 13.5ZM13.875 17.25C14.0975 17.25 14.315 17.316 14.5 17.4396C14.685 17.5632 14.8292 17.7389 14.9144 17.9445C14.9995 18.15 15.0218 18.3762 14.9784 18.5945C14.935 18.8127 14.8278 19.0132 14.6705 19.1705C14.5132 19.3278 14.3127 19.435 14.0945 19.4784C13.8762 19.5218 13.65 19.4995 13.4445 19.4144C13.2389 19.3292 13.0632 19.185 12.9396 19C12.816 18.815 12.75 18.5975 12.75 18.375C12.75 18.0766 12.8685 17.7905 13.0795 17.5795C13.2905 17.3685 13.5766 17.25 13.875 17.25ZM10.125 13.5C10.3475 13.5 10.565 13.566 10.75 13.6896C10.935 13.8132 11.0792 13.9889 11.1644 14.1945C11.2495 14.4 11.2718 14.6262 11.2284 14.8445C11.185 15.0627 11.0778 15.2632 10.9205 15.4205C10.7632 15.5778 10.5627 15.685 10.3445 15.7284C10.1262 15.7718 9.90005 15.7495 9.69448 15.6644C9.48891 15.5792 9.31321 15.435 9.1896 15.25C9.06598 15.065 9 14.8475 9 14.625C9 14.3266 9.11853 14.0405 9.3295 13.8295C9.54048 13.6185 9.82663 13.5 10.125 13.5ZM10.125 17.25C10.3475 17.25 10.565 17.316 10.75 17.4396C10.935 17.5632 11.0792 17.7389 11.1644 17.9445C11.2495 18.15 11.2718 18.3762 11.2284 18.5945C11.185 18.8127 11.0778 19.0132 10.9205 19.1705C10.7632 19.3278 10.5627 19.435 10.3445 19.4784C10.1262 19.5218 9.90005 19.4995 9.69448 19.4144C9.48891 19.3292 9.31321 19.185 9.1896 19C9.06598 18.815 9 18.5975 9 18.375C9 18.0766 9.11853 17.7905 9.3295 17.5795C9.54048 17.3685 9.82663 17.25 10.125 17.25ZM6.375 13.5C6.5975 13.5 6.81501 13.566 7.00002 13.6896C7.18502 13.8132 7.32922 13.9889 7.41436 14.1945C7.49951 14.4 7.52179 14.6262 7.47838 14.8445C7.43498 15.0627 7.32783 15.2632 7.1705 15.4205C7.01316 15.5778 6.81271 15.685 6.59448 15.7284C6.37625 15.7718 6.15005 15.7495 5.94448 15.6644C5.73891 15.5792 5.56321 15.435 5.4396 15.25C5.31598 15.065 5.25 14.8475 5.25 14.625C5.25 14.3266 5.36853 14.0405 5.5795 13.8295C5.79048 13.6185 6.07663 13.5 6.375 13.5ZM6.375 17.25C6.5975 17.25 6.81501 17.316 7.00002 17.4396C7.18502 17.5632 7.32922 17.7389 7.41436 17.9445C7.49951 18.15 7.52179 18.3762 7.47838 18.5945C7.43498 18.8127 7.32783 19.0132 7.1705 19.1705C7.01316 19.3278 6.81271 19.435 6.59448 19.4784C6.37625 19.5218 6.15005 19.4995 5.94448 19.4144C5.73891 19.3292 5.56321 19.185 5.4396 19C5.31598 18.815 5.25 18.5975 5.25 18.375C5.25 18.0766 5.36853 17.7905 5.5795 17.5795C5.79048 17.3685 6.07663 17.25 6.375 17.25Z" fill="#888888"/>
</svg>
