<svg width="24" height="24" viewBox="0 0 24 24" fill="none" xmlns="http://www.w3.org/2000/svg">
<path d="M16.0514 11.167L12.5766 15.3431C12.5062 15.4277 12.4181 15.4958 12.3184 15.5425C12.2188 15.5892 12.1101 15.6135 12 15.6135C11.89 15.6135 11.7813 15.5892 11.6816 15.5425C11.582 15.4958 11.4938 15.4277 11.4234 15.3431L7.9486 11.167C7.85753 11.0575 7.79953 10.9243 7.78138 10.7831C7.76323 10.6418 7.78569 10.4983 7.84612 10.3693C7.90655 10.2403 8.00246 10.1312 8.12263 10.0547C8.2428 9.97828 8.38226 9.93761 8.52469 9.9375H15.4753C15.6178 9.93761 15.7572 9.97828 15.8774 10.0547C15.9976 10.1312 16.0935 10.2403 16.1539 10.3693C16.2143 10.4983 16.2368 10.6418 16.2186 10.7831C16.2005 10.9243 16.1425 11.0575 16.0514 11.167Z" fill="#888888"/>
<path d="M21 12C21 7.03125 16.9688 3 12 3C7.03125 3 3 7.03125 3 12C3 16.9688 7.03125 21 12 21C16.9688 21 21 16.9688 21 12Z" stroke="#888888" stroke-miterlimit="10"/>
</svg>
