<svg width="24" height="24" viewBox="0 0 24 24" fill="none" xmlns="http://www.w3.org/2000/svg">
<path d="M22.125 4.5H19.875C19.6679 4.5 19.5 4.66789 19.5 4.875V19.125C19.5 19.3321 19.6679 19.5 19.875 19.5H22.125C22.3321 19.5 22.5 19.3321 22.5 19.125V4.875C22.5 4.66789 22.3321 4.5 22.125 4.5Z" stroke="#888888" stroke-linejoin="round"/>
<path d="M16.125 8.25H13.875C13.6679 8.25 13.5 8.41789 13.5 8.625V19.125C13.5 19.3321 13.6679 19.5 13.875 19.5H16.125C16.3321 19.5 16.5 19.3321 16.5 19.125V8.625C16.5 8.41789 16.3321 8.25 16.125 8.25Z" stroke="#888888" stroke-linejoin="round"/>
<path d="M10.125 11.25H7.875C7.66789 11.25 7.5 11.4179 7.5 11.625V19.125C7.5 19.3321 7.66789 19.5 7.875 19.5H10.125C10.3321 19.5 10.5 19.3321 10.5 19.125V11.625C10.5 11.4179 10.3321 11.25 10.125 11.25Z" stroke="#888888" stroke-linejoin="round"/>
<path d="M4.125 14.25H1.875C1.66789 14.25 1.5 14.4179 1.5 14.625V19.125C1.5 19.3321 1.66789 19.5 1.875 19.5H4.125C4.33211 19.5 4.5 19.3321 4.5 19.125V14.625C4.5 14.4179 4.33211 14.25 4.125 14.25Z" stroke="#888888" stroke-linejoin="round"/>
</svg>
