<svg width="24" height="24" viewBox="0 0 24 24" fill="none" xmlns="http://www.w3.org/2000/svg">
<path d="M20.2031 15.0281C20.1563 14.8594 20.2594 14.625 20.3578 14.4562C20.3879 14.406 20.4208 14.3575 20.4563 14.3109C21.2983 13.0598 21.7486 11.5862 21.75 10.0781C21.7641 5.75625 18.1172 2.25 13.6078 2.25C9.675 2.25 6.39375 4.92656 5.625 8.47969C5.51 9.00632 5.45185 9.54377 5.45156 10.0828C5.45156 14.4094 8.95782 18.0094 13.4672 18.0094C14.1844 18.0094 15.15 17.7937 15.6797 17.6484C16.2094 17.5031 16.7344 17.3109 16.8703 17.2594C17.0097 17.2068 17.1573 17.1798 17.3063 17.1797C17.4687 17.1791 17.6297 17.2109 17.7797 17.2734L20.4375 18.2156C20.4958 18.2403 20.5574 18.2561 20.6203 18.2625C20.7198 18.2625 20.8152 18.223 20.8855 18.1527C20.9558 18.0823 20.9953 17.987 20.9953 17.8875C20.9921 17.8446 20.9842 17.8022 20.9719 17.7609L20.2031 15.0281Z" stroke="#888888" stroke-miterlimit="10" stroke-linecap="round"/>
<path d="M3.11532 10.875C2.50052 11.9795 2.20311 13.2325 2.25597 14.4954C2.30883 15.7584 2.7099 16.9821 3.41485 18.0314C3.52313 18.195 3.58407 18.3216 3.56532 18.4064C3.54657 18.4912 3.0061 21.3065 3.0061 21.3065C2.9931 21.3724 2.99803 21.4406 3.02037 21.5039C3.04272 21.5673 3.08166 21.6234 3.13313 21.6665C3.2018 21.7213 3.2872 21.7507 3.375 21.75C3.42193 21.7501 3.46837 21.7405 3.51141 21.7219L6.14625 20.6906C6.3276 20.6191 6.52989 20.6225 6.70875 20.7C7.59657 21.0459 8.57813 21.2625 9.56016 21.2625C10.8779 21.2639 12.1726 20.9163 13.3125 20.2551" stroke="#888888" stroke-miterlimit="10" stroke-linecap="round"/>
</svg>
