<svg width="24" height="24" viewBox="0 0 24 24" fill="none" xmlns="http://www.w3.org/2000/svg">
<path d="M3.60133 22.5C3.28253 22.4985 2.97732 22.3707 2.75263 22.1445C2.52794 21.9183 2.40212 21.6123 2.40274 21.2934C2.40553 21.1723 2.42445 21.052 2.45899 20.9358L3.32243 17.8125C3.35852 17.6972 3.31774 17.5809 3.26477 17.4891L3.25446 17.4703C3.25071 17.4642 3.2329 17.4394 3.22024 17.4211C3.20758 17.4028 3.19305 17.3831 3.17993 17.3639L3.17102 17.3513C2.08078 15.6988 1.49972 13.7627 1.49993 11.783C1.49149 9.08344 2.54758 6.53297 4.47462 4.59797C6.46868 2.60016 9.13587 1.5 11.9915 1.5C14.414 1.4988 16.7646 2.3228 18.6562 3.83625C20.5054 5.32453 21.7907 7.39875 22.2754 9.68063C22.4246 10.3738 22.4997 11.0809 22.4995 11.79C22.4995 14.5523 21.4382 17.1469 19.5107 19.0964C17.5663 21.0652 14.9554 22.1461 12.1593 22.1461C11.1749 22.1461 9.9154 21.8948 9.31071 21.7242C8.58321 21.5208 7.89368 21.2555 7.81774 21.2273C7.73738 21.1966 7.65208 21.1807 7.56602 21.1805C7.47269 21.1799 7.3802 21.1982 7.29415 21.2344L7.2543 21.2498L4.09118 22.3927C3.93582 22.4581 3.7698 22.4944 3.60133 22.5Z" fill="#888888"/>
</svg>
