<svg width="24" height="24" viewBox="0 0 24 24" fill="none" xmlns="http://www.w3.org/2000/svg">
<path d="M21 21.7501C20.9015 21.7503 20.8039 21.7309 20.7129 21.6932C20.6219 21.6554 20.5393 21.6001 20.4698 21.5302L2.46983 3.53025C2.33511 3.38845 2.26112 3.19964 2.26362 3.00407C2.26612 2.8085 2.34493 2.62164 2.48323 2.48334C2.62153 2.34504 2.80839 2.26624 3.00396 2.26373C3.19953 2.26123 3.38834 2.33522 3.53014 2.46994L21.5301 20.4699C21.635 20.5748 21.7063 20.7084 21.7352 20.8539C21.7642 20.9993 21.7493 21.1501 21.6926 21.2871C21.6358 21.4241 21.5397 21.5412 21.4165 21.6236C21.2932 21.706 21.1483 21.75 21 21.7501Z" fill="#888888"/>
<path d="M1.815 9.22384C0.627656 10.3067 0 11.7851 0 13.4998C0 15.1873 0.674063 16.7285 1.89797 17.8399C3.07687 18.9105 4.66687 19.4998 6.375 19.4998H15.4125C15.4867 19.4998 15.5593 19.4779 15.621 19.4367C15.6827 19.3955 15.7308 19.3369 15.7592 19.2683C15.7876 19.1998 15.7951 19.1243 15.7806 19.0515C15.7661 18.9787 15.7303 18.9119 15.6778 18.8595L4.72875 7.9104C4.68065 7.8622 4.62033 7.82801 4.55426 7.81149C4.48819 7.79497 4.41888 7.79676 4.35375 7.81665C3.375 8.11618 2.50313 8.59572 1.815 9.22384Z" fill="#888888"/>
<path d="M22.3402 18.3387C23.4262 17.4739 24 16.19 24 14.6248C24 11.9262 22.0312 10.3789 19.8956 9.90218C19.7551 9.87017 19.6269 9.79837 19.5261 9.69538C19.4254 9.59238 19.3564 9.46255 19.3275 9.3214C18.9675 7.60202 18.1814 6.12686 17.0222 5.0089C15.6729 3.7118 13.8716 2.99118 12 2.99983C10.5412 2.99983 9.18185 3.42171 8.03341 4.22327C7.98793 4.25438 7.94986 4.29514 7.92192 4.34263C7.89397 4.39013 7.87684 4.4432 7.87174 4.49807C7.86664 4.55293 7.87369 4.60825 7.8924 4.66009C7.9111 4.71192 7.941 4.75899 7.97997 4.79796L21.6412 18.4592C21.7033 18.5212 21.7851 18.5596 21.8724 18.5676C21.9598 18.5755 22.0472 18.5526 22.1194 18.5028C22.1953 18.4503 22.2689 18.3956 22.3402 18.3387Z" fill="#888888"/>
</svg>
