<svg width="24" height="24" viewBox="0 0 24 24" fill="none" xmlns="http://www.w3.org/2000/svg">
<path d="M21.4077 11.3564L20.1852 11.1595C20.1063 11.1462 20.0337 11.108 19.978 11.0505C19.9223 10.9929 19.8865 10.9191 19.8758 10.8398C19.8524 10.6898 19.829 10.5393 19.7962 10.394C19.7803 10.316 19.7894 10.235 19.8222 10.1624C19.8551 10.0899 19.9099 10.0295 19.979 9.98994L21.0613 9.38901C21.1432 9.34712 21.207 9.27673 21.2407 9.1911C21.2744 9.10546 21.2756 9.01048 21.2441 8.92401L21.0566 8.40838C21.0253 8.32168 20.9628 8.2497 20.8814 8.2064C20.8 8.16309 20.7054 8.15155 20.616 8.17401L19.4024 8.40838C19.3235 8.42365 19.2418 8.41318 19.1693 8.37849C19.0968 8.3438 19.0374 8.28675 18.9998 8.21573C18.9294 8.08448 18.8544 7.95307 18.7747 7.82151C18.7327 7.7531 18.7132 7.67318 18.7191 7.59308C18.725 7.51299 18.7559 7.43678 18.8076 7.37526L19.618 6.44057C19.6809 6.37369 19.717 6.28608 19.7196 6.19433C19.7222 6.10259 19.6911 6.01308 19.6321 5.94276L19.281 5.52088C19.2225 5.44993 19.1396 5.40336 19.0486 5.39027C18.9576 5.37718 18.8649 5.39851 18.7888 5.4501L17.7252 6.08901C17.6568 6.12952 17.5774 6.14727 17.4983 6.13969C17.4192 6.13211 17.3445 6.09959 17.2851 6.04682C17.1726 5.94791 17.0554 5.84948 16.9382 5.75526C16.8759 5.70573 16.8309 5.63766 16.8098 5.56089C16.7888 5.48411 16.7927 5.40263 16.821 5.32823L17.2616 4.16807C17.2991 4.0839 17.3043 3.98887 17.2762 3.90112C17.2481 3.81336 17.1887 3.73902 17.1093 3.69229L16.6312 3.41526C16.5514 3.36995 16.4577 3.35546 16.368 3.37456C16.2782 3.39365 16.1986 3.44499 16.1441 3.51885L15.3641 4.49573C15.3206 4.55721 15.2575 4.60221 15.1852 4.62347C15.113 4.64473 15.0356 4.64101 14.9657 4.61291C14.9657 4.61291 14.7032 4.5051 14.5063 4.43901C14.4308 4.41384 14.3653 4.3653 14.3192 4.30042C14.2731 4.23553 14.2488 4.15766 14.2499 4.07807L14.2687 2.83823C14.2742 2.74601 14.2458 2.65496 14.1888 2.58225C14.1318 2.50954 14.0501 2.4602 13.9593 2.44354L13.416 2.34979C13.3251 2.33404 13.2315 2.35208 13.1529 2.40051C13.0744 2.44895 13.0162 2.52443 12.9894 2.61276L12.5863 3.78698C12.5604 3.86266 12.5111 3.9281 12.4454 3.97372C12.3797 4.01934 12.3011 4.04277 12.2212 4.04057H11.7618C11.6819 4.04226 11.6036 4.01863 11.538 3.97308C11.4724 3.92752 11.4229 3.86238 11.3966 3.78698L10.9935 2.61276C10.9667 2.52443 10.9086 2.44895 10.83 2.40051C10.7514 2.35208 10.6579 2.33404 10.5669 2.34979L10.0237 2.44354C9.93279 2.4602 9.85116 2.50954 9.79417 2.58225C9.73717 2.65496 9.70876 2.74601 9.71428 2.83823L9.73303 4.07807C9.73416 4.15785 9.70982 4.23592 9.66354 4.30091C9.61726 4.36591 9.55145 4.41445 9.47569 4.43948C9.36787 4.48166 9.1335 4.57119 9.021 4.61338C8.88975 4.66026 8.73506 4.62276 8.6085 4.47698L7.83459 3.52354C7.77988 3.44998 7.70011 3.39902 7.61038 3.38028C7.52064 3.36153 7.42714 3.37631 7.34756 3.42182L6.86944 3.69885C6.78983 3.7447 6.72999 3.81837 6.70143 3.90568C6.67287 3.993 6.67762 4.08779 6.71475 4.17182L7.15537 5.33198C7.18326 5.40643 7.18694 5.48779 7.1659 5.56446C7.14486 5.64113 7.10017 5.70921 7.03819 5.75901C6.921 5.85276 6.80381 5.95166 6.69131 6.05057C6.63188 6.10334 6.55723 6.13586 6.47811 6.14344C6.399 6.15102 6.31953 6.13327 6.25116 6.09276L5.20303 5.44401C5.1265 5.39365 5.03419 5.37305 4.94352 5.38609C4.85284 5.39913 4.77008 5.44491 4.71084 5.51479L4.35975 5.93666C4.30077 6.00698 4.26962 6.09649 4.27221 6.18824C4.27481 6.27999 4.31095 6.3676 4.37381 6.43448L5.18428 7.36916C5.23698 7.43014 5.26863 7.50648 5.27454 7.58686C5.28045 7.66724 5.2603 7.74738 5.21709 7.81541C5.13741 7.94041 5.06241 8.07182 4.99209 8.20963C4.95386 8.2801 4.89434 8.33668 4.82202 8.37128C4.7497 8.40588 4.66829 8.41674 4.58944 8.40229L3.37584 8.16791C3.28644 8.14611 3.19213 8.15794 3.11088 8.20116C3.02963 8.24437 2.96711 8.31596 2.93522 8.40229L2.74772 8.91791C2.71625 9.00438 2.71747 9.09937 2.75114 9.18501C2.78481 9.27064 2.8486 9.34102 2.93053 9.38291L4.01147 9.98432C4.08126 10.0231 4.13671 10.0834 4.16963 10.1561C4.20255 10.2289 4.21119 10.3103 4.19428 10.3884C4.16616 10.5384 4.13803 10.6842 4.11459 10.8342C4.10334 10.9133 4.06736 10.9868 4.01179 11.0442C3.95622 11.1016 3.88392 11.14 3.80522 11.1539L2.58272 11.3507C2.49174 11.3619 2.40791 11.4057 2.34672 11.474C2.28554 11.5422 2.25114 11.6303 2.24991 11.722V12.2714C2.24877 12.3637 2.28234 12.4531 2.34398 12.5218C2.40561 12.5906 2.49081 12.6337 2.58272 12.6426L3.80522 12.8395C3.88415 12.8528 3.95677 12.891 4.01243 12.9485C4.0681 13.006 4.1039 13.0798 4.11459 13.1592C4.13803 13.3092 4.16147 13.4596 4.19428 13.6049C4.21014 13.683 4.20102 13.764 4.1682 13.8365C4.13538 13.9091 4.08054 13.9694 4.01147 14.009L2.92912 14.6109C2.8472 14.6528 2.7834 14.7232 2.74973 14.8088C2.71606 14.8944 2.71485 14.9894 2.74631 15.0759L2.93381 15.5915C2.96518 15.6782 3.02761 15.7502 3.10902 15.7935C3.19043 15.8368 3.28501 15.8483 3.37444 15.8259L4.58803 15.5915C4.66693 15.5762 4.74865 15.5867 4.82115 15.6214C4.89364 15.6561 4.95307 15.7131 4.99069 15.7842C5.061 15.9154 5.136 16.0468 5.21569 16.1784C5.25776 16.2468 5.27723 16.3267 5.27134 16.4068C5.26545 16.4869 5.2345 16.5631 5.18287 16.6246L4.37241 17.5603C4.30955 17.6271 4.2734 17.7147 4.27081 17.8065C4.26822 17.8982 4.29936 17.9877 4.35834 18.0581L4.70944 18.4799C4.76794 18.5509 4.85081 18.5975 4.94184 18.6106C5.03286 18.6236 5.1255 18.6023 5.20162 18.5507L6.26522 17.9118C6.33359 17.8713 6.41306 17.8536 6.49218 17.8611C6.57129 17.8687 6.64595 17.9012 6.70537 17.954C6.81787 18.0529 6.93506 18.1514 7.05225 18.2456C7.11458 18.2951 7.15954 18.3632 7.1806 18.4399C7.20167 18.5167 7.19776 18.5982 7.16944 18.6726L6.72881 19.8328C6.69192 19.917 6.68729 20.0119 6.71581 20.0994C6.74433 20.1869 6.80401 20.2608 6.8835 20.3071L7.36162 20.5842C7.44142 20.6295 7.53506 20.644 7.62481 20.6249C7.71457 20.6058 7.79421 20.5544 7.84866 20.4806L8.63569 19.5131C8.73412 19.3912 8.8935 19.3396 9.02006 19.3912C9.17944 19.4568 9.28725 19.4943 9.48412 19.5604C9.55989 19.5854 9.6257 19.634 9.67198 19.699C9.71826 19.764 9.7426 19.842 9.74147 19.9218L9.72272 21.1617C9.7172 21.2539 9.74561 21.3449 9.8026 21.4176C9.8596 21.4903 9.94123 21.5397 10.0321 21.5564L10.5754 21.6501C10.6663 21.6659 10.7599 21.6478 10.8384 21.5994C10.917 21.5509 10.9752 21.4755 11.0019 21.3871L11.4051 20.2153C11.4309 20.1396 11.4803 20.0741 11.546 20.0285C11.6117 19.9829 11.6903 19.9595 11.7702 19.9617H12.2296C12.3094 19.96 12.3878 19.9836 12.4534 20.0292C12.519 20.0747 12.5684 20.1399 12.5947 20.2153L12.9979 21.3871C13.0247 21.4755 13.0828 21.5509 13.1614 21.5994C13.2399 21.6478 13.3335 21.6659 13.4244 21.6501L13.9677 21.5564C14.0586 21.5397 14.1402 21.4903 14.1972 21.4176C14.2542 21.3449 14.2826 21.2539 14.2771 21.1617L14.2583 19.9218C14.2572 19.842 14.2816 19.764 14.3278 19.699C14.3741 19.634 14.4399 19.5854 14.5157 19.5604C14.7126 19.4943 14.8438 19.4428 14.9657 19.3959C15.0876 19.349 15.2376 19.349 15.3548 19.4943L16.1516 20.4759C16.2063 20.55 16.2864 20.6014 16.3766 20.6202C16.4668 20.6391 16.5607 20.6241 16.6405 20.5781L17.1187 20.301C17.1987 20.2552 17.2588 20.1813 17.2874 20.0937C17.316 20.006 17.311 19.9108 17.2733 19.8267L16.8327 18.6665C16.8049 18.592 16.8012 18.5106 16.8222 18.4338C16.8433 18.3571 16.8879 18.2889 16.9499 18.239C17.0671 18.1453 17.1843 18.0468 17.2968 17.9479C17.3562 17.8951 17.4309 17.8626 17.51 17.855C17.5891 17.8475 17.6686 17.8652 17.7369 17.9057L18.7968 18.5465C18.8733 18.5969 18.9656 18.6175 19.0563 18.6044C19.147 18.5914 19.2297 18.5456 19.289 18.4757L19.6401 18.0539C19.699 17.9835 19.7302 17.894 19.7276 17.8023C19.725 17.7105 19.6889 17.6229 19.626 17.556L18.8155 16.6214C18.7628 16.5604 18.7312 16.484 18.7253 16.4037C18.7194 16.3233 18.7395 16.2431 18.7827 16.1751C18.8624 16.0485 18.9374 15.9171 19.0077 15.7809C19.0459 15.7104 19.1055 15.6538 19.1778 15.6192C19.2501 15.5846 19.3315 15.5738 19.4104 15.5882L20.624 15.8226C20.7134 15.8444 20.8077 15.8326 20.8889 15.7894C20.9702 15.7461 21.0327 15.6746 21.0646 15.5882L21.2521 15.0726C21.2836 14.9861 21.2823 14.8911 21.2487 14.8055C21.215 14.7199 21.1512 14.6495 21.0693 14.6076L19.9869 14.0067C19.9171 13.9678 19.8617 13.9076 19.8288 13.8348C19.7959 13.7621 19.7872 13.6807 19.8041 13.6026C19.8323 13.4526 19.8604 13.3068 19.8838 13.1568C19.8951 13.0777 19.931 13.0042 19.9866 12.9468C20.0422 12.8893 20.1145 12.851 20.1932 12.8371L21.4157 12.6403C21.5067 12.629 21.5905 12.5853 21.6517 12.517C21.7129 12.4488 21.7473 12.3607 21.7485 12.269V11.7187C21.7434 11.6279 21.7064 11.5417 21.6441 11.4755C21.5818 11.4092 21.4981 11.367 21.4077 11.3564ZM11.9999 5.24994C13.4971 5.24931 14.9519 5.74707 16.1349 6.66473C17.3179 7.5824 18.1617 8.86775 18.5333 10.3181C18.561 10.4287 18.5631 10.5441 18.5394 10.6556C18.5157 10.7672 18.4669 10.8718 18.3968 10.9617C18.3266 11.0515 18.2368 11.1242 18.1344 11.1741C18.0319 11.2241 17.9194 11.25 17.8054 11.2499H12.8722C12.7398 11.25 12.6096 11.2149 12.4951 11.1483C12.3806 11.0817 12.2857 10.9859 12.2202 10.8707L9.77803 6.57182C9.72116 6.47188 9.68804 6.3602 9.68122 6.24541C9.67439 6.13062 9.69406 6.0158 9.73868 5.90983C9.78331 5.80385 9.85171 5.70956 9.93859 5.63423C10.0255 5.55891 10.1285 5.50457 10.2397 5.47541C10.8143 5.32468 11.4059 5.24889 11.9999 5.24994ZM5.24991 11.9999C5.24906 11.0961 5.42974 10.2014 5.78121 9.3687C6.13268 8.53604 6.6478 7.78244 7.296 7.1526C7.37785 7.07157 7.47726 7.01048 7.58653 6.97406C7.6958 6.93765 7.81199 6.92689 7.92608 6.94262C8.04018 6.95835 8.14912 7.00015 8.24446 7.06477C8.3398 7.12939 8.41897 7.2151 8.47584 7.31526L10.9246 11.6249C10.9893 11.7382 11.0233 11.8664 11.0233 11.9969C11.0233 12.1274 10.9893 12.2556 10.9246 12.3689L8.45569 16.6673C8.39837 16.7672 8.31883 16.8525 8.22323 16.9167C8.12763 16.9808 8.01854 17.0221 7.90441 17.0374C7.79027 17.0526 7.67417 17.0413 7.56508 17.0045C7.456 16.9676 7.35687 16.9061 7.27537 16.8248C6.63349 16.196 6.12368 15.4452 5.77586 14.6167C5.42804 13.7882 5.24923 12.8985 5.24991 11.9999ZM11.9999 18.7499C11.3956 18.7515 10.7937 18.6735 10.2097 18.5179C10.0985 18.4884 9.99564 18.4336 9.90898 18.3579C9.82232 18.2822 9.75425 18.1876 9.71002 18.0814C9.66579 17.9751 9.64659 17.8602 9.65391 17.7453C9.66124 17.6305 9.69488 17.5189 9.75225 17.4192L12.2169 13.1278C12.2829 13.0136 12.3777 12.9188 12.4919 12.853C12.6062 12.7871 12.7357 12.7526 12.8676 12.7528H17.8077C17.9217 12.7528 18.0341 12.7788 18.1366 12.8287C18.239 12.8787 18.3287 12.9514 18.3988 13.0412C18.4689 13.1311 18.5177 13.2357 18.5413 13.3472C18.5649 13.4587 18.5629 13.5741 18.5352 13.6846C18.1628 15.1347 17.3184 16.4195 16.1351 17.3366C14.9519 18.2538 13.497 18.751 11.9999 18.7499Z" fill="#888888"/>
</svg>
