<svg width="24" height="24" viewBox="0 0 24 24" fill="none" xmlns="http://www.w3.org/2000/svg">
<path d="M19.6453 15.8178C19.628 15.7966 19.6062 15.7795 19.5815 15.7678C19.5567 15.7561 19.5297 15.75 19.5023 15.75C19.475 15.75 19.448 15.7561 19.4232 15.7678C19.3985 15.7795 19.3767 15.7966 19.3594 15.8178C18.8672 16.399 17.25 17.9998 17.25 19.4581C17.25 20.7237 18.2578 21.7498 19.5 21.7498C20.7422 21.7498 21.75 20.7186 21.75 19.4581C21.75 17.9998 20.1422 16.399 19.6453 15.8178Z" stroke="#888888" stroke-miterlimit="10"/>
<path d="M18.1406 13.4954L7.29422 2.73571C7.13744 2.57839 6.95115 2.45357 6.74603 2.36839C6.54092 2.28322 6.321 2.23938 6.0989 2.23938C5.8768 2.23938 5.65689 2.28322 5.45177 2.36839C5.24665 2.45357 5.06036 2.57839 4.90359 2.73571L4.66218 2.97712C4.50486 3.13389 4.38004 3.32018 4.29487 3.5253C4.2097 3.73042 4.16585 3.95033 4.16585 4.17243C4.16585 4.39453 4.2097 4.61444 4.29487 4.81956C4.38004 5.02468 4.50486 5.21097 4.66218 5.36774L7.1414 7.84696L9.81328 5.17509L2.64047 12.3376C2.51665 12.4607 2.41866 12.6073 2.35222 12.7688C2.28578 12.9303 2.25223 13.1034 2.25354 13.278C2.25485 13.4527 2.29099 13.6253 2.35984 13.7857C2.4287 13.9462 2.52888 14.0913 2.65453 14.2126L8.80453 20.1188C9.05011 20.354 9.37721 20.4848 9.71719 20.4839C10.0572 20.4831 10.3836 20.3505 10.628 20.1141C12.3998 18.3985 16.1733 14.747 16.567 14.3532C16.8389 14.0813 17.4202 14.0204 17.9123 14.0204H17.9264C17.9873 14.0205 18.0468 14.0024 18.0973 13.9684C18.1478 13.9345 18.1871 13.8863 18.2101 13.8299C18.2331 13.7736 18.2387 13.7117 18.2264 13.6521C18.214 13.5925 18.1841 13.5379 18.1406 13.4954V13.4954Z" stroke="#888888" stroke-miterlimit="10"/>
</svg>
