<svg width="24" height="24" viewBox="0 0 24 24" fill="none" xmlns="http://www.w3.org/2000/svg">
<path d="M4.5 9.75H2.25C1.8375 9.75 1.5 9.4125 1.5 9C1.5 8.5875 1.8375 8.25 2.25 8.25H4.5C4.9125 8.25 5.25 8.5875 5.25 9C5.25 9.4125 4.9125 9.75 4.5 9.75Z" fill="#888888"/>
<path d="M5.81718 6.56719C5.62031 6.56719 5.42812 6.4875 5.2875 6.34687L3.69844 4.75781C3.40781 4.46719 3.40781 3.98906 3.69844 3.69844C3.98906 3.40781 4.46719 3.40781 4.75781 3.69844L6.34687 5.2875C6.64218 5.57813 6.64218 6.05625 6.34687 6.34687C6.20624 6.4875 6.01874 6.56719 5.81718 6.56719Z" fill="#888888"/>
<path d="M9 5.25C8.5875 5.25 8.25 4.9125 8.25 4.5V2.25C8.25 1.8375 8.5875 1.5 9 1.5C9.4125 1.5 9.75 1.8375 9.75 2.25V4.5C9.75 4.9125 9.4125 5.25 9 5.25Z" fill="#888888"/>
<path d="M12.1828 6.56719C11.7703 6.56719 11.4328 6.22969 11.4328 5.81719C11.4328 5.62031 11.5125 5.42813 11.6531 5.2875L13.2421 3.69844C13.5328 3.40781 14.0109 3.40781 14.3015 3.69844C14.5922 3.98906 14.5922 4.46719 14.3015 4.75781L12.7125 6.34687C12.5718 6.4875 12.3796 6.56719 12.1828 6.56719Z" fill="#888888"/>
<path d="M4.22812 14.5217C3.81562 14.5217 3.47812 14.1842 3.47812 13.7717C3.47812 13.5748 3.55781 13.3826 3.69843 13.242L5.28749 11.6529C5.57811 11.3623 6.05624 11.3623 6.34686 11.6529C6.63749 11.9435 6.63749 12.4217 6.34686 12.7123L4.7578 14.3013C4.61718 14.442 4.42499 14.5217 4.22812 14.5217Z" fill="#888888"/>
<path d="M10.9781 7.82817C10.1156 6.95161 8.70467 6.93755 7.82811 7.79536C6.95155 8.65317 6.93748 10.0688 7.7953 10.9454C7.80467 10.9547 7.81874 10.9688 7.82811 10.9782L9.67967 12.8297C9.82499 12.9751 10.0641 12.9751 10.2094 12.8297L12.8297 10.2094C12.975 10.0641 12.975 9.82505 12.8297 9.67974L10.9781 7.82817Z" fill="#888888"/>
<path d="M21.4219 18.2717L14.4187 11.2685C14.2734 11.1232 14.0344 11.1232 13.8891 11.2685L11.2687 13.8888C11.1234 14.0342 11.1234 14.2732 11.2687 14.4185L18.2719 21.4217C19.1344 22.2982 20.5453 22.3123 21.4219 21.4545C22.2984 20.592 22.3125 19.181 21.4547 18.3045C21.4453 18.2951 21.4359 18.281 21.4219 18.2717Z" fill="#888888"/>
</svg>
