<svg width="24" height="24" viewBox="0 0 24 24" fill="none" xmlns="http://www.w3.org/2000/svg">
<path d="M18 10.5V19.125C18 19.3712 17.9515 19.615 17.8573 19.8425C17.763 20.07 17.6249 20.2767 17.4508 20.4508C17.2767 20.6249 17.07 20.763 16.8425 20.8573C16.615 20.9515 16.3712 21 16.125 21H4.875C4.37772 21 3.90081 20.8025 3.54917 20.4508C3.19754 20.0992 3 19.6223 3 19.125V7.875C3 7.37772 3.19754 6.90081 3.54917 6.54917C3.90081 6.19754 4.37772 6 4.875 6H12.7256" stroke="#888888" stroke-linecap="round" stroke-linejoin="round"/>
<path d="M21.5596 2.49623C21.4911 2.42097 21.4081 2.36037 21.3155 2.31811C21.2229 2.27585 21.1227 2.25279 21.021 2.25034C20.9193 2.24789 20.8181 2.26609 20.7236 2.30384C20.6291 2.34159 20.5432 2.39811 20.4712 2.46998L19.8913 3.04701C19.821 3.11733 19.7816 3.21267 19.7816 3.31209C19.7816 3.4115 19.821 3.50685 19.8913 3.57716L20.4229 4.10779C20.4577 4.1428 20.4991 4.17057 20.5447 4.18953C20.5904 4.20848 20.6393 4.21824 20.6887 4.21824C20.738 4.21824 20.787 4.20848 20.8326 4.18953C20.8782 4.17057 20.9196 4.1428 20.9544 4.10779L21.5197 3.54529C21.8057 3.25982 21.8324 2.79482 21.5596 2.49623Z" fill="#888888"/>
<path d="M18.7188 4.2186L10.2569 12.6655C10.2056 12.7166 10.1683 12.78 10.1487 12.8497L9.75725 14.0155C9.74788 14.0471 9.74721 14.0807 9.75533 14.1127C9.76345 14.1446 9.78005 14.1738 9.80338 14.1972C9.82671 14.2205 9.8559 14.2371 9.88788 14.2452C9.91986 14.2533 9.95343 14.2527 9.98506 14.2433L11.1499 13.8519C11.2196 13.8322 11.283 13.7949 11.3341 13.7436L19.781 5.28079C19.8591 5.20181 19.903 5.09518 19.903 4.98407C19.903 4.87296 19.8591 4.76634 19.781 4.68735L19.3146 4.2186C19.2355 4.13974 19.1284 4.09546 19.0167 4.09546C18.905 4.09546 18.7979 4.13974 18.7188 4.2186Z" fill="#888888"/>
</svg>
