<svg width="24" height="24" viewBox="0 0 24 24" fill="none" xmlns="http://www.w3.org/2000/svg">
<path d="M20.6672 6.38897C20.6955 6.37246 20.719 6.34882 20.7353 6.3204C20.7516 6.29199 20.7602 6.25979 20.7602 6.22702C20.7602 6.19425 20.7516 6.16205 20.7353 6.13364C20.719 6.10522 20.6955 6.08158 20.6672 6.06507L13.5075 1.90538C13.0494 1.63984 12.5293 1.5 11.9998 1.5C11.4703 1.5 10.9501 1.63984 10.492 1.90538L3.33375 6.06507C3.30545 6.08158 3.28197 6.10522 3.26565 6.13364C3.24933 6.16205 3.24074 6.19425 3.24074 6.22702C3.24074 6.25979 3.24933 6.29199 3.26565 6.3204C3.28197 6.34882 3.30545 6.37246 3.33375 6.38897L11.9063 11.4318C11.9351 11.4488 11.9679 11.4577 12.0014 11.4577C12.0349 11.4577 12.0677 11.4488 12.0966 11.4318L20.6672 6.38897Z" fill="#888888"/>
<path d="M2.53125 7.66489C2.50266 7.64838 2.47022 7.63972 2.4372 7.63977C2.40418 7.63982 2.37177 7.64859 2.34323 7.66519C2.31469 7.6818 2.29104 7.70564 2.27467 7.73431C2.2583 7.76298 2.24979 7.79547 2.25 7.82849V15.9796C2.25071 16.3724 2.35424 16.7582 2.55029 17.0985C2.74634 17.4389 3.02809 17.722 3.3675 17.9197L10.9688 22.4774C10.9972 22.4938 11.0296 22.5025 11.0625 22.5025C11.0954 22.5025 11.1277 22.4939 11.1562 22.4774C11.1847 22.461 11.2083 22.4374 11.2248 22.4089C11.2413 22.3804 11.25 22.3481 11.25 22.3152V12.8582C11.25 12.8253 11.2413 12.793 11.2248 12.7645C11.2084 12.7361 11.1847 12.7124 11.1563 12.696L2.53125 7.66489Z" fill="#888888"/>
<path d="M12.75 12.8911V22.3129C12.75 22.3458 12.7587 22.3781 12.7752 22.4066C12.7917 22.4351 12.8153 22.4587 12.8438 22.4752C12.8723 22.4916 12.9047 22.5003 12.9375 22.5002C12.9704 22.5002 13.0028 22.4916 13.0312 22.4751L20.632 17.9175C20.9712 17.72 21.2528 17.4373 21.4489 17.0974C21.645 16.7574 21.7488 16.3721 21.75 15.9797V7.82856C21.7499 7.79571 21.7411 7.76346 21.7246 7.73505C21.7081 7.70663 21.6844 7.68306 21.656 7.66668C21.6275 7.6503 21.5952 7.64169 21.5623 7.64172C21.5295 7.64175 21.4972 7.65042 21.4688 7.66684L12.8438 12.7293C12.8153 12.7457 12.7917 12.7693 12.7753 12.7977C12.7588 12.8261 12.7501 12.8583 12.75 12.8911Z" fill="#888888"/>
</svg>
