<svg width="24" height="24" viewBox="0 0 24 24" fill="none" xmlns="http://www.w3.org/2000/svg">
<path d="M4.85062 10.5C5.61304 10.5006 6.35298 10.2417 6.94874 9.76594L8.89406 10.5577L9.21374 9.96563C9.27127 9.85969 9.3391 9.75967 9.41624 9.66703L10.0828 8.9911L8.15296 7.82203C8.297 7.13964 8.2261 6.42937 7.95 5.78892C7.6739 5.14846 7.20617 4.60927 6.61112 4.24549C6.01608 3.8817 5.32295 3.7112 4.62705 3.75742C3.93115 3.80364 3.26666 4.06432 2.72495 4.5036C2.18325 4.94289 1.79094 5.5392 1.60197 6.21055C1.413 6.8819 1.43666 7.5953 1.66968 8.25265C1.90271 8.91 2.33366 9.47902 2.90327 9.88146C3.47288 10.2839 4.15318 10.5 4.85062 10.5ZM4.85062 5.25C5.22146 5.25 5.58397 5.35997 5.89231 5.566C6.20065 5.77202 6.44098 6.06486 6.58289 6.40747C6.72481 6.75008 6.76194 7.12708 6.68959 7.4908C6.61724 7.85451 6.43867 8.1886 6.17644 8.45083C5.91422 8.71305 5.58013 8.89163 5.21641 8.96397C4.8527 9.03632 4.4757 8.99919 4.13309 8.85728C3.79047 8.71536 3.49764 8.47504 3.29161 8.1667C3.08558 7.85835 2.97562 7.49584 2.97562 7.125C2.97562 6.62772 3.17316 6.15081 3.52479 5.79918C3.87642 5.44755 4.35334 5.25 4.85062 5.25Z" fill="#888888"/>
<path d="M22.5 7.9218L22.2412 7.33212C22.0312 6.84368 21.5503 6.58212 20.7047 6.4954C20.2303 6.44852 19.4414 6.43727 18.3755 6.67399C17.438 6.88259 12.6501 7.99587 10.6434 9.4218C9.69421 10.0963 9.51561 11.0001 9.37499 11.7262C9.24467 12.389 9.14061 12.9126 8.53124 13.3668C7.82811 13.889 7.25295 14.1346 6.95717 14.2387C6.33179 13.7422 5.55015 13.4844 4.7521 13.5115C3.95406 13.5386 3.1917 13.8488 2.60144 14.3866C2.01119 14.9244 1.63155 15.6546 1.53048 16.4467C1.4294 17.2388 1.61347 18.041 2.04976 18.7098C2.48605 19.3786 3.14608 19.8703 3.91174 20.0969C4.6774 20.3236 5.49873 20.2704 6.22876 19.9468C6.95878 19.6233 7.54986 19.0505 7.89622 18.3311C8.24258 17.6116 8.32163 16.7924 8.11921 16.0199L22.5 7.9218ZM11.9756 11.9999C11.8273 11.9999 11.6823 11.9559 11.5589 11.8735C11.4356 11.7911 11.3395 11.674 11.2827 11.5369C11.2259 11.3999 11.2111 11.2491 11.24 11.1036C11.269 10.9581 11.3404 10.8245 11.4453 10.7196C11.5502 10.6147 11.6838 10.5433 11.8293 10.5143C11.9748 10.4854 12.1256 10.5003 12.2626 10.557C12.3997 10.6138 12.5168 10.7099 12.5992 10.8333C12.6816 10.9566 12.7256 11.1016 12.7256 11.2499C12.7256 11.3484 12.7062 11.4459 12.6685 11.5369C12.6308 11.6279 12.5756 11.7106 12.5059 11.7803C12.4363 11.8499 12.3536 11.9051 12.2626 11.9428C12.1716 11.9805 12.0741 11.9999 11.9756 11.9999ZM4.85061 18.7499C4.47977 18.7499 4.11726 18.64 3.80892 18.4339C3.50058 18.2279 3.26025 17.9351 3.11834 17.5925C2.97642 17.2498 2.93929 16.8728 3.01164 16.5091C3.08399 16.1454 3.26256 15.8113 3.52479 15.5491C3.78701 15.2869 4.1211 15.1083 4.48482 15.036C4.84853 14.9636 5.22553 15.0007 5.56814 15.1427C5.91075 15.2846 6.20359 15.5249 6.40962 15.8332C6.61564 16.1416 6.72561 16.5041 6.72561 16.8749C6.72561 17.3722 6.52807 17.8491 6.17644 18.2008C5.82481 18.5524 5.34789 18.7499 4.85061 18.7499Z" fill="#888888"/>
<path d="M16.1152 12.1813L12.1898 14.4397L13.485 15.0528L13.6547 15.1344C14.5313 15.5586 16.8628 16.6874 19.2436 16.828C19.4259 16.8388 19.5938 16.8439 19.7489 16.8439C20.7188 16.8425 21.2344 16.5936 21.5508 16.4061L22.5 15.7499L16.1152 12.1813Z" fill="#888888"/>
</svg>
