<svg width="24" height="24" viewBox="0 0 24 24" fill="none" xmlns="http://www.w3.org/2000/svg">
<path d="M13.987 11.6246C14.024 11.6247 14.0601 11.6138 14.0909 11.5934C14.1217 11.5729 14.1457 11.5439 14.16 11.5098C14.1744 11.4758 14.1783 11.4382 14.1714 11.402C14.1644 11.3657 14.147 11.3323 14.1211 11.3059L10.4461 7.569C10.42 7.54248 10.3866 7.52433 10.3501 7.51687C10.3136 7.50941 10.2758 7.51296 10.2413 7.52709C10.2069 7.54122 10.1775 7.56527 10.1567 7.59619C10.136 7.62711 10.125 7.6635 10.125 7.70072V11.0621C10.125 11.2113 10.1843 11.3544 10.2898 11.4599C10.3952 11.5654 10.5383 11.6246 10.6875 11.6246H13.987Z" fill="#888888"/>
<path d="M9.23438 12.5156C9.04184 12.3257 8.88886 12.0995 8.78427 11.85C8.67967 11.6006 8.62554 11.333 8.625 11.0625V6.75H5.25C4.45507 6.75235 3.69338 7.06917 3.13128 7.63128C2.56917 8.19338 2.25235 8.95507 2.25 9.75V20.25C2.25 21.0456 2.56607 21.8087 3.12868 22.3713C3.69129 22.9339 4.45435 23.25 5.25 23.25H12C12.7956 23.25 13.5587 22.9339 14.1213 22.3713C14.6839 21.8087 15 21.0456 15 20.25V13.125H10.6875C10.417 13.1246 10.1493 13.0706 9.89986 12.966C9.65043 12.8613 9.42423 12.7083 9.23438 12.5156Z" fill="#888888"/>
<path d="M17.4375 5.62462H20.737C20.774 5.62465 20.8101 5.61378 20.8409 5.59335C20.8717 5.57293 20.8957 5.54386 20.91 5.50982C20.9244 5.47577 20.9283 5.43825 20.9214 5.40196C20.9144 5.36568 20.897 5.33225 20.8711 5.30587L17.1961 1.569C17.17 1.54248 17.1366 1.52433 17.1001 1.51687C17.0636 1.50941 17.0258 1.51296 16.9913 1.52709C16.9569 1.54122 16.9275 1.56527 16.9067 1.59619C16.886 1.62711 16.875 1.6635 16.875 1.70072V5.06212C16.875 5.21131 16.9343 5.35438 17.0398 5.45987C17.1452 5.56536 17.2883 5.62462 17.4375 5.62462Z" fill="#888888"/>
<path d="M17.4375 7.125C16.8918 7.12083 16.3696 6.90219 15.9837 6.5163C15.5978 6.13041 15.3792 5.60822 15.375 5.0625V0.75H10.3125C9.56685 0.750868 8.85198 1.04746 8.32472 1.57472C7.79746 2.10198 7.50087 2.81685 7.5 3.5625V5.25H9.47437C9.72638 5.25101 9.97571 5.3018 10.208 5.39946C10.4403 5.49712 10.6511 5.63971 10.8281 5.81906L15.945 11.0222C16.302 11.3844 16.5013 11.873 16.4995 12.3816V18.75H18.9862C20.5102 18.75 21.7495 17.4881 21.7495 15.9375V7.125H17.4375Z" fill="#888888"/>
</svg>
