<svg width="24" height="24" viewBox="0 0 24 24" fill="none" xmlns="http://www.w3.org/2000/svg">
<path d="M12 0.75C7.4531 0.75 3.74997 4.45312 3.74997 9V18.683C3.74909 19.8839 4.22051 21.0371 5.06247 21.8934C5.4754 22.3221 5.97048 22.6631 6.51813 22.8962C7.06578 23.1293 7.65478 23.2496 8.24997 23.25C9.97778 23.25 11.399 22.5178 12.4743 21.0741C12.6843 20.7928 12.922 20.3831 13.1972 19.9092C13.9153 18.6731 14.8983 16.9809 16.1583 16.1245C17.3662 15.3037 18.3722 14.2711 19.0645 13.1377C19.852 11.8566 20.25 10.4644 20.25 9C20.25 4.45312 16.5492 0.75 12 0.75ZM16.5 9.375C16.3011 9.375 16.1103 9.29598 15.9696 9.15533C15.829 9.01468 15.75 8.82391 15.75 8.625C15.75 6.76406 14.0676 5.25 12 5.25C9.93231 5.25 8.24997 6.76406 8.24997 8.625V10.0509C9.5245 9.68344 10.9875 9.73594 11.2631 9.75C11.6747 9.75392 12.0773 9.87067 12.4271 10.0875C12.777 10.3044 13.0606 10.6131 13.2472 10.98C13.4338 11.3468 13.5162 11.7579 13.4854 12.1683C13.4545 12.5788 13.3117 12.9729 13.0725 13.3078C13.0584 13.327 13.0439 13.3458 13.0279 13.3641C12.2522 14.2547 11.3404 15.4959 11.2251 15.9422C11.1712 16.1308 11.0456 16.2908 10.8751 16.3879C10.7046 16.4849 10.5029 16.5113 10.3132 16.4614C10.1235 16.4115 9.96086 16.2892 9.86022 16.1209C9.75958 15.9525 9.72892 15.7513 9.77481 15.5606C10.0331 14.5791 11.5059 12.8325 11.8683 12.413C11.9429 12.2999 11.9854 12.1687 11.9914 12.0333C11.9975 11.8979 11.9667 11.7635 11.9024 11.6442C11.8381 11.5249 11.7428 11.4253 11.6264 11.3559C11.51 11.2865 11.377 11.2499 11.2415 11.25H11.2003C10.4222 11.2083 9.04919 11.2875 8.24997 11.6395V14.25C8.24997 14.4489 8.17095 14.6397 8.0303 14.7803C7.88965 14.921 7.69888 15 7.49997 15C7.30106 15 7.11029 14.921 6.96964 14.7803C6.82899 14.6397 6.74997 14.4489 6.74997 14.25V8.625C6.74997 5.93672 9.10497 3.75 12 3.75C14.895 3.75 17.25 5.93672 17.25 8.625C17.25 8.82391 17.171 9.01468 17.0303 9.15533C16.8896 9.29598 16.6989 9.375 16.5 9.375Z" fill="#888888"/>
</svg>
