<svg width="24" height="24" viewBox="0 0 24 24" fill="none" xmlns="http://www.w3.org/2000/svg">
<path d="M19.4245 4.58125C18.4513 3.59836 17.2934 2.81746 16.0174 2.2834C14.7414 1.74935 13.3725 1.47267 11.9893 1.46927C10.6061 1.46587 9.23579 1.7358 7.9572 2.26357C6.67862 2.79133 5.51691 3.56653 4.53882 4.54462C3.56073 5.52271 2.78553 6.68442 2.25777 7.963C1.73 9.24159 1.46007 10.6119 1.46347 11.9951C1.46688 13.3783 1.74355 14.7472 2.27761 16.0232C2.81166 17.2992 3.59256 18.4571 4.57546 19.4303C5.54872 20.4132 6.7066 21.1941 7.98257 21.7282C9.25855 22.2622 10.6275 22.5389 12.0107 22.5423C13.3939 22.5457 14.7642 22.2758 16.0428 21.748C17.3214 21.2202 18.4831 20.445 19.4612 19.467C20.4392 18.4889 21.2144 17.3272 21.7422 16.0486C22.27 14.77 22.5399 13.3997 22.5365 12.0165C22.5331 10.6333 22.2564 9.26434 21.7224 7.98837C21.1883 6.7124 20.4074 5.55452 19.4245 4.58125ZM2.99999 12.0058C2.99965 11.2092 3.10526 10.4162 3.31405 9.6475C3.65811 10.3881 4.1578 11.028 4.49764 11.7878C4.93686 12.7647 6.11624 12.4938 6.63702 13.3497C7.09921 14.1095 6.60561 15.0705 6.95155 15.8655C7.2028 16.4425 7.7953 16.5686 8.20405 16.9905C8.62171 17.4161 8.6128 17.9992 8.67655 18.5542C8.74849 19.2063 8.86517 19.8527 9.02577 20.4888C9.02577 20.4934 9.02577 20.4986 9.02952 20.5033C5.52186 19.2714 2.99999 15.9278 2.99999 12.0058ZM12 21.0058C11.4974 21.0056 10.9956 20.9636 10.5 20.8802C10.5051 20.7531 10.5075 20.6345 10.5201 20.552C10.634 19.8067 11.0072 19.0778 11.5106 18.52C12.008 17.9697 12.6895 17.5975 13.1095 16.9731C13.5211 16.3638 13.6444 15.5434 13.4747 14.8314C13.2248 13.7795 11.7956 13.4284 11.025 12.858C10.582 12.5298 10.1878 12.0227 9.60608 11.9814C9.33796 11.9627 9.11342 12.0203 8.84764 11.9519C8.60389 11.8886 8.41264 11.7573 8.15296 11.7916C7.6678 11.8553 7.36171 12.3738 6.84046 12.3034C6.34592 12.2373 5.83639 11.6584 5.72389 11.1873C5.57952 10.5817 6.05858 10.3853 6.57186 10.3314C6.78608 10.3089 7.02655 10.2845 7.23233 10.3633C7.50327 10.4636 7.63124 10.7289 7.87452 10.863C8.33061 11.1133 8.42296 10.7134 8.35311 10.3084C8.24858 9.70188 8.12671 9.45485 8.66764 9.03719C9.04264 8.74938 9.36327 8.54125 9.30327 8.02422C9.26764 7.72047 9.10124 7.58313 9.25639 7.28079C9.37405 7.05063 9.69702 6.84297 9.90749 6.70563C10.4508 6.35125 12.2348 6.3775 11.5059 5.38563C11.2917 5.09454 10.8966 4.57422 10.5216 4.50297C10.0528 4.41438 9.84468 4.9375 9.51796 5.16813C9.18046 5.40672 8.52327 5.67766 8.1853 5.30875C7.73061 4.81235 8.48671 4.64969 8.65405 4.30282C8.73139 4.1411 8.65405 3.91657 8.52374 3.70516C8.6928 3.63391 8.86467 3.56782 9.03936 3.50688C9.14884 3.58774 9.27871 3.63644 9.41436 3.6475C9.72796 3.66813 10.0237 3.49844 10.2975 3.71219C10.6012 3.94657 10.8201 4.24282 11.2233 4.31594C11.6133 4.38672 12.0262 4.15938 12.1228 3.76C12.1814 3.51719 12.1228 3.26079 12.0666 3.01C13.8197 3.02009 15.5312 3.54512 16.9884 4.51985C16.8947 4.48422 16.7826 4.48844 16.6444 4.55266C16.3598 4.68485 15.9567 5.02141 15.9234 5.35516C15.8855 5.73391 16.4442 5.78735 16.7095 5.78735C17.108 5.78735 17.5116 5.60922 17.3831 5.14891C17.3273 4.94922 17.2514 4.74157 17.1291 4.61594C17.4231 4.82002 17.7049 5.04134 17.9728 5.27875C17.9686 5.28297 17.9644 5.28672 17.9601 5.29141C17.6901 5.57266 17.3766 5.79532 17.1919 6.1375C17.0616 6.37844 16.9148 6.49282 16.6509 6.55516C16.5056 6.58938 16.3397 6.60204 16.2178 6.69954C15.8784 6.96672 16.0716 7.60891 16.3931 7.80157C16.7995 8.04485 17.4023 7.93047 17.7089 7.58313C17.9484 7.31125 18.0895 6.83922 18.5203 6.83969C18.71 6.8393 18.8921 6.91355 19.0275 7.04641C19.2056 7.2311 19.1705 7.4036 19.2084 7.63422C19.2755 8.04391 19.6369 7.82172 19.8567 7.615C20.017 7.9002 20.1615 8.19392 20.2898 8.49485C20.048 8.84313 19.8558 9.22282 19.274 8.81688C18.9258 8.5736 18.7116 8.22063 18.2742 8.11094C17.8922 8.01719 17.5008 8.11469 17.1234 8.17985C16.6945 8.25438 16.1859 8.28719 15.8606 8.61204C15.5461 8.92516 15.3797 9.34422 15.045 9.65875C14.3976 10.2681 14.1244 10.9333 14.5434 11.7948C14.9466 12.6231 15.7898 13.0727 16.6997 13.0136C17.5936 12.9541 18.5222 12.4356 18.4964 13.7345C18.487 14.1944 18.5831 14.5127 18.7242 14.9397C18.855 15.3334 18.8461 15.715 18.8761 16.1214C18.9046 16.5973 18.979 17.0693 19.0983 17.5309C18.2581 18.6127 17.1818 19.4881 15.9515 20.0904C14.7213 20.6926 13.3697 21.0057 12 21.0058Z" fill="#888888"/>
</svg>
