<svg width="24" height="24" viewBox="0 0 24 24" fill="none" xmlns="http://www.w3.org/2000/svg">
<path d="M16.1784 22.4997H12.8438C12.62 22.4997 12.4054 22.4108 12.2471 22.2526C12.0889 22.0944 12 21.8798 12 21.656V20.3571C12.0006 20.1576 11.9606 19.96 11.8823 19.7765C11.8041 19.593 11.6892 19.4274 11.5448 19.2897C11.1802 18.934 10.6505 18.7366 10.0969 18.7502C9.09562 18.7736 8.25 19.6549 8.25 20.6749V21.656C8.25 21.8798 8.16111 22.0944 8.00287 22.2526C7.84464 22.4108 7.63003 22.4997 7.40625 22.4997H4.10719C3.76481 22.4997 3.42578 22.4323 3.10946 22.3013C2.79314 22.1703 2.50573 21.9782 2.26363 21.7361C1.77469 21.2472 1.5 20.584 1.5 19.8926V16.5935C1.5 16.3697 1.58889 16.1551 1.74713 15.9969C1.90536 15.8386 2.11997 15.7497 2.34375 15.7497H3.64266C4.07203 15.7497 4.48969 15.566 4.81875 15.2341C5.00182 15.0496 5.14659 14.8307 5.24474 14.59C5.34288 14.3493 5.39246 14.0915 5.39062 13.8316C5.37656 12.8383 4.55906 11.9997 3.60516 11.9997H2.34375C2.11997 11.9997 1.90536 11.9108 1.74713 11.7526C1.58889 11.5944 1.5 11.3798 1.5 11.156V7.85693C1.5 7.51455 1.56744 7.17552 1.69846 6.8592C1.82948 6.54288 2.02153 6.25547 2.26363 6.01337C2.75257 5.52443 3.41572 5.24974 4.10719 5.24974H6.69656C6.79602 5.24974 6.8914 5.21023 6.96173 5.13991C7.03205 5.06958 7.07156 4.9742 7.07156 4.87474V4.57099C7.07156 4.16307 7.15281 3.75923 7.31057 3.38305C7.46832 3.00687 7.69943 2.66588 7.99039 2.37998C8.28135 2.09408 8.62635 1.86899 9.00524 1.71786C9.38413 1.56673 9.78933 1.49258 10.1972 1.49974C11.8608 1.5288 13.2141 2.9238 13.2141 4.60896V4.87474C13.2141 4.9742 13.2536 5.06958 13.3239 5.13991C13.3942 5.21023 13.4896 5.24974 13.5891 5.24974H16.1784C16.5161 5.24974 16.8505 5.31626 17.1625 5.44549C17.4745 5.57472 17.758 5.76414 17.9968 6.00293C18.2356 6.24173 18.425 6.52521 18.5543 6.83721C18.6835 7.14921 18.75 7.4836 18.75 7.8213V10.4107C18.75 10.5101 18.7895 10.6055 18.8598 10.6758C18.9302 10.7462 19.0255 10.7857 19.125 10.7857H19.3903C21.105 10.7857 22.5 12.1451 22.5 13.8157C22.5 15.5318 21.1223 16.9282 19.4288 16.9282H19.125C19.0255 16.9282 18.9302 16.9677 18.8598 17.038C18.7895 17.1083 18.75 17.2037 18.75 17.3032V19.9282C18.75 20.2659 18.6835 20.6003 18.5543 20.9123C18.425 21.2243 18.2356 21.5078 17.9968 21.7465C17.758 21.9853 17.4745 22.1748 17.1625 22.304C16.8505 22.4332 16.5161 22.4997 16.1784 22.4997Z" fill="#888888"/>
</svg>
