<svg width="24" height="24" viewBox="0 0 24 24" fill="none" xmlns="http://www.w3.org/2000/svg">
<path d="M20.2501 20.9996C20.1516 20.9998 20.054 20.9804 19.963 20.9427C19.872 20.905 19.7894 20.8496 19.7199 20.7798L3.21994 4.27976C3.08522 4.13797 3.01123 3.94915 3.01373 3.75358C3.01624 3.55801 3.09504 3.37115 3.23334 3.23285C3.37164 3.09455 3.5585 3.01575 3.75407 3.01325C3.94964 3.01074 4.13845 3.08473 4.28025 3.21945L20.7803 19.7194C20.8851 19.8243 20.9564 19.9579 20.9854 20.1034C21.0143 20.2488 20.9994 20.3996 20.9427 20.5366C20.8859 20.6736 20.7899 20.7907 20.6666 20.8731C20.5433 20.9555 20.3984 20.9995 20.2501 20.9996Z" fill="#888888"/>
<path d="M11.6249 14.8052L9.1973 12.3775C9.18339 12.3637 9.16551 12.3546 9.14616 12.3515C9.12682 12.3484 9.10699 12.3514 9.08946 12.3602C9.07193 12.3689 9.05757 12.3829 9.04841 12.4003C9.03925 12.4176 9.03575 12.4373 9.03839 12.4567C9.1364 13.0866 9.43213 13.6689 9.88284 14.1196C10.3336 14.5704 10.9159 14.8661 11.5457 14.9641C11.5651 14.9667 11.5849 14.9632 11.6022 14.9541C11.6195 14.9449 11.6335 14.9306 11.6423 14.913C11.651 14.8955 11.6541 14.8757 11.6509 14.8563C11.6478 14.837 11.6387 14.8191 11.6249 14.8052Z" fill="#888888"/>
<path d="M12.375 9.19479L14.8064 11.6253C14.8203 11.6393 14.8382 11.6485 14.8577 11.6517C14.8771 11.6549 14.8971 11.652 14.9147 11.6432C14.9324 11.6344 14.9468 11.6203 14.956 11.6029C14.9651 11.5854 14.9686 11.5655 14.9658 11.546C14.868 10.9154 14.5721 10.3322 14.1208 9.88088C13.6695 9.42959 13.0863 9.13365 12.4556 9.03589C12.4361 9.03287 12.4161 9.03611 12.3985 9.04513C12.381 9.05415 12.3667 9.0685 12.3577 9.08612C12.3488 9.10374 12.3457 9.12374 12.3488 9.14326C12.3519 9.16277 12.361 9.18081 12.375 9.19479Z" fill="#888888"/>
<path d="M23.0157 12.8137C23.1709 12.5702 23.2529 12.2872 23.2521 11.9984C23.2513 11.7096 23.1676 11.427 23.011 11.1844C21.7707 9.26624 20.1615 7.63687 18.3577 6.47203C16.3594 5.18203 14.1563 4.5 11.9851 4.5C10.8404 4.50157 9.70357 4.6882 8.6185 5.05266C8.58813 5.06276 8.56085 5.08046 8.53926 5.10409C8.51767 5.12771 8.50249 5.15647 8.49516 5.18763C8.48783 5.21878 8.48859 5.25129 8.49738 5.28207C8.50617 5.31284 8.52269 5.34085 8.54537 5.36344L10.7597 7.57781C10.7828 7.60086 10.8114 7.61751 10.8428 7.62614C10.8742 7.63477 10.9073 7.63508 10.9388 7.62703C11.6894 7.44411 12.4744 7.45752 13.2183 7.66595C13.9622 7.87438 14.64 8.27082 15.1862 8.81709C15.7325 9.36337 16.129 10.0411 16.3374 10.785C16.5458 11.5289 16.5592 12.3139 16.3763 13.0645C16.3683 13.096 16.3687 13.129 16.3773 13.1603C16.386 13.1916 16.4026 13.2202 16.4255 13.2431L19.6107 16.4306C19.6438 16.4638 19.6882 16.4834 19.7351 16.4855C19.7819 16.4875 19.8279 16.472 19.8638 16.4419C21.0899 15.3968 22.1523 14.1739 23.0157 12.8137Z" fill="#888888"/>
<path d="M12.0001 16.5002C11.3188 16.5002 10.6465 16.3456 10.0338 16.048C9.421 15.7504 8.88381 15.3175 8.46269 14.7821C8.04157 14.2466 7.74751 13.6225 7.60268 12.9569C7.45785 12.2913 7.46604 11.6014 7.62662 10.9394C7.63458 10.9079 7.63424 10.8749 7.62561 10.8436C7.61698 10.8123 7.60037 10.7838 7.5774 10.7608L4.44428 7.62628C4.41105 7.59302 4.36655 7.57346 4.31958 7.57146C4.27261 7.56946 4.22661 7.58518 4.19068 7.6155C3.0474 8.59097 1.98756 9.77785 1.01865 11.1649C0.849051 11.4083 0.755645 11.6967 0.750304 11.9933C0.744962 12.2899 0.827926 12.5814 0.988652 12.8308C2.22662 14.7682 3.81943 16.3999 5.59553 17.5488C7.59662 18.8439 9.74631 19.5002 11.9851 19.5002C13.1412 19.4971 14.2899 19.3144 15.3901 18.9588C15.4207 18.949 15.4483 18.9315 15.4702 18.9079C15.4921 18.8844 15.5076 18.8556 15.5152 18.8244C15.5228 18.7931 15.5222 18.7604 15.5135 18.7294C15.5048 18.6985 15.4883 18.6703 15.4655 18.6475L13.2404 16.4228C13.2174 16.3999 13.1889 16.3833 13.1576 16.3746C13.1263 16.366 13.0933 16.3657 13.0618 16.3736C12.7142 16.4579 12.3577 16.5003 12.0001 16.5002Z" fill="#888888"/>
</svg>
