<svg width="24" height="24" viewBox="0 0 24 24" fill="none" xmlns="http://www.w3.org/2000/svg">
<path d="M22.4789 4.49964H18.2105L18.6286 2.82807L20.4248 2.21636C20.8069 2.08651 21.0342 1.68057 20.9241 1.29245C20.896 1.19481 20.8485 1.10389 20.7842 1.02519C20.72 0.946495 20.6405 0.881663 20.5504 0.83463C20.4604 0.787597 20.3618 0.759343 20.2605 0.751582C20.1592 0.743821 20.0574 0.756714 19.9612 0.78948L17.7581 1.53948C17.6395 1.57994 17.5329 1.64949 17.448 1.74177C17.3632 1.83406 17.3028 1.94614 17.2725 2.06776L16.6645 4.49964H10.5211C10.1175 4.49964 9.77109 4.80995 9.75093 5.21354C9.74604 5.31495 9.7618 5.41629 9.79724 5.51143C9.83267 5.60657 9.88706 5.69352 9.9571 5.76702C10.0271 5.84052 10.1114 5.89904 10.2047 5.93902C10.298 5.97901 10.3985 5.99963 10.5 5.99964H10.6289L10.6758 6.40557C10.6868 6.50037 10.7323 6.58781 10.8036 6.65125C10.8749 6.71469 10.9671 6.7497 11.0625 6.74964C12.8906 6.74964 14.5153 7.26057 15.7556 8.22714C16.4455 8.75869 17.0047 9.44091 17.3906 10.2217C17.6066 10.6608 17.766 11.1256 17.865 11.6049C17.8847 11.6984 17.94 11.7804 18.0192 11.8337C18.6569 12.2664 19.1273 12.9042 19.3522 13.6413C19.5772 14.3783 19.5431 15.1701 19.2558 15.8851C19.2223 15.9679 19.2199 16.0599 19.2487 16.1443C19.4148 16.6202 19.4997 17.1206 19.5 17.6246C19.5 18.6718 19.1437 19.6698 18.4969 20.4348C18.1301 20.8714 17.6688 21.2188 17.1478 21.4506C17.0577 21.4903 16.9868 21.5639 16.9505 21.6554C16.7558 22.1626 16.4809 22.6352 16.1362 23.0551C16.1219 23.0721 16.1127 23.0929 16.1097 23.115C16.1068 23.1371 16.1102 23.1595 16.1195 23.1797C16.1289 23.2 16.1438 23.2171 16.1625 23.2291C16.1813 23.2412 16.203 23.2476 16.2253 23.2478H18.532C19.0968 23.2455 19.6402 23.0318 20.0554 22.6489C20.4705 22.2659 20.7272 21.7414 20.775 21.1787L22.3781 5.99964H22.5C22.6016 5.99975 22.7022 5.97923 22.7956 5.9393C22.889 5.89937 22.9734 5.84088 23.0435 5.76736C23.1136 5.69385 23.1681 5.60685 23.2036 5.51165C23.2391 5.41645 23.2549 5.31503 23.25 5.21354C23.2303 4.80995 22.8825 4.49964 22.4789 4.49964Z" fill="#888888"/>
<path d="M5.09484 15C5.24277 14.9993 5.38936 15.0279 5.52614 15.0843C5.66292 15.1406 5.78718 15.2235 5.89172 15.3281L6.61875 16.0552C6.63616 16.0726 6.65684 16.0864 6.67961 16.0959C6.70237 16.1053 6.72677 16.1101 6.75141 16.1101C6.77605 16.1101 6.80045 16.1053 6.82321 16.0959C6.84597 16.0864 6.86665 16.0726 6.88406 16.0552L7.60969 15.3281C7.71423 15.2235 7.83849 15.1406 7.97527 15.0843C8.11205 15.0279 8.25864 14.9993 8.40656 15H17.6213C17.6705 15.0005 17.7194 14.9913 17.765 14.9729C17.8107 14.9545 17.8523 14.9273 17.8875 14.8928C17.9227 14.8583 17.9507 14.8173 17.97 14.772C17.9893 14.7267 17.9995 14.678 18 14.6287V14.625C17.9995 14.1929 17.85 13.7742 17.5768 13.4395C17.3035 13.1048 16.9232 12.8745 16.5 12.7875C16.4616 11.3958 15.8906 10.2309 14.8355 9.4125C13.8595 8.65125 12.5555 8.25 11.0625 8.25H7.6875C4.48969 8.25 2.32359 10.0673 2.25 12.7875C1.82677 12.8745 1.44649 13.1048 1.17325 13.4395C0.90001 13.7742 0.750528 14.1929 0.75 14.625C0.75 14.7245 0.789509 14.8198 0.859835 14.8902C0.930161 14.9605 1.02554 15 1.125 15H5.09484Z" fill="#888888"/>
<path d="M8.71594 16.4998C8.66668 16.4997 8.61789 16.5094 8.57237 16.5282C8.52685 16.547 8.48548 16.5746 8.45063 16.6095L7.41281 17.6477C7.23701 17.8235 6.99859 17.9222 6.75 17.9222C6.50141 17.9222 6.263 17.8235 6.08719 17.6477L5.04938 16.6095C5.01452 16.5746 4.97315 16.547 4.92763 16.5282C4.88211 16.5094 4.83332 16.4997 4.78406 16.4998H1.53094C1.35476 16.499 1.18398 16.5605 1.04879 16.6735C0.913601 16.7865 0.82271 16.9436 0.792188 17.1171C0.764027 17.2849 0.749916 17.4547 0.75 17.6248C0.75 19.0587 1.74047 20.2268 2.96531 20.2498C3.07922 20.9585 3.35484 21.5988 3.76969 22.0999C4.38328 22.841 5.27531 23.2497 6.28125 23.2497H12.4688C13.4747 23.2497 14.3667 22.841 14.9803 22.099C15.3952 21.5979 15.6708 20.9576 15.7847 20.2488C17.0095 20.2268 18 19.0587 18 17.6238C18.0001 17.4537 17.986 17.2839 17.9578 17.1162C17.9271 16.9428 17.8361 16.7859 17.7009 16.6731C17.5658 16.5603 17.3951 16.4989 17.2191 16.4998H8.71594Z" fill="#888888"/>
</svg>
