<svg width="24" height="24" viewBox="0 0 24 24" fill="none" xmlns="http://www.w3.org/2000/svg">
<path d="M22.484 12.5953L20.984 5.47922C20.6943 3.92672 19.5787 3 18 3H5.99997C5.21247 3 4.54685 3.21984 4.02654 3.65344C3.50622 4.08703 3.16544 4.69922 3.01497 5.47641L1.51497 12.5953C1.50484 12.6462 1.49981 12.6981 1.49997 12.75V18C1.49997 18.7956 1.81604 19.5587 2.37865 20.1213C2.94126 20.6839 3.70432 21 4.49997 21H19.5C20.2956 21 21.0587 20.6839 21.6213 20.1213C22.1839 19.5587 22.5 18.7956 22.5 18V12.75C22.4998 12.698 22.4945 12.6462 22.484 12.5953ZM4.48404 5.77969C4.48404 5.775 4.48404 5.77078 4.48404 5.76656C4.65044 4.90266 5.13138 4.50094 5.99763 4.50094H18C18.8723 4.50094 19.3533 4.90172 19.5126 5.76234C19.5126 5.76844 19.515 5.77453 19.5159 5.78062L20.7783 11.775C20.784 11.8023 20.7835 11.8306 20.7769 11.8577C20.7704 11.8848 20.7578 11.9101 20.7402 11.9317C20.7226 11.9534 20.7004 11.9708 20.6752 11.9828C20.65 11.9948 20.6224 12.001 20.5945 12.0009H15C14.8022 11.9999 14.6122 12.0775 14.4715 12.2165C14.3309 12.3556 14.2512 12.5447 14.25 12.7425C14.25 13.3392 14.0129 13.9115 13.591 14.3335C13.169 14.7554 12.5967 14.9925 12 14.9925C11.4032 14.9925 10.8309 14.7554 10.409 14.3335C9.98703 13.9115 9.74997 13.3392 9.74997 12.7425C9.74948 12.6445 9.72969 12.5476 9.69174 12.4572C9.65378 12.3669 9.5984 12.2849 9.52875 12.2159C9.45911 12.147 9.37657 12.0924 9.28584 12.0554C9.19511 12.0183 9.09797 11.9995 8.99997 12H3.40544C3.37754 12 3.34998 11.9938 3.32477 11.9819C3.29957 11.9699 3.27735 11.9525 3.25974 11.9308C3.24214 11.9092 3.22958 11.8839 3.223 11.8567C3.21642 11.8296 3.21597 11.8014 3.22169 11.7741L4.48404 5.77969Z" fill="#888888"/>
</svg>
