<svg width="24" height="24" viewBox="0 0 24 24" fill="none" xmlns="http://www.w3.org/2000/svg">
<path d="M2.96626 9.46875C2.83978 9.4699 2.71526 9.43755 2.60532 9.375C2.52469 9.32968 2.45391 9.26873 2.39711 9.19572C2.34032 9.12271 2.29866 9.03911 2.27456 8.9498C2.25047 8.8605 2.24443 8.76728 2.25679 8.67562C2.26916 8.58395 2.29968 8.49567 2.34657 8.41594C3.25032 6.9075 6.00001 3.38672 12 3.38672C14.6002 3.38672 16.8806 4.06969 18.7749 5.41594C20.3339 6.52078 21.2077 7.77141 21.6239 8.37375C21.6767 8.44967 21.7138 8.53539 21.7329 8.62586C21.7521 8.71633 21.753 8.80971 21.7355 8.90052C21.718 8.99133 21.6826 9.07773 21.6312 9.15463C21.5798 9.23152 21.5136 9.29737 21.4364 9.34828C21.2786 9.45257 21.0865 9.49133 20.9006 9.45633C20.7147 9.42132 20.5498 9.31532 20.4408 9.16078C19.6875 8.0775 17.3906 4.78125 12 4.78125C6.73829 4.78125 4.35939 7.81453 3.58454 9.11531C3.52229 9.22394 3.43215 9.31397 3.32346 9.3761C3.21477 9.43823 3.09145 9.47022 2.96626 9.46875Z" fill="#888888"/>
<path d="M15.023 23.2497C14.9631 23.2504 14.9034 23.2437 14.8453 23.2296C10.493 22.1514 8.86779 17.8005 8.8017 17.6196L8.79139 17.5797C8.75576 17.4541 7.88248 14.4705 9.22311 12.723C9.83764 11.9261 10.7723 11.5174 12.0065 11.5174C13.154 11.5174 13.9819 11.8741 14.5509 12.6124C15.0197 13.2152 15.2072 13.9586 15.3886 14.6749C15.7697 16.1664 16.0448 16.9497 17.6287 17.0304C18.3244 17.0655 18.7814 16.6586 19.0406 16.3122C19.7414 15.3677 19.8633 13.8279 19.335 12.4685C18.6562 10.7139 16.2473 7.40598 12 7.40598C10.1869 7.40598 8.52092 7.98863 7.18498 9.08363C6.0792 9.99066 5.20311 11.2713 4.78123 12.5875C3.99889 15.0382 5.02498 18.8904 5.03483 18.9255C5.05878 19.0152 5.06455 19.1087 5.05178 19.2006C5.03901 19.2925 5.00797 19.381 4.96048 19.4607C4.91299 19.5404 4.85002 19.6098 4.77528 19.6649C4.70054 19.7199 4.61554 19.7593 4.52529 19.781C4.34298 19.8295 4.14893 19.8046 3.98473 19.7117C3.82052 19.6188 3.69924 19.4653 3.64686 19.2841C3.59998 19.1083 2.50404 14.9997 3.40779 12.1675C4.39217 9.09863 7.43014 6.00488 12.0014 6.00488C14.114 6.00488 16.11 6.72301 17.7759 8.0791C19.0659 9.13379 20.1197 10.5504 20.6709 11.9664C21.3717 13.7744 21.1837 15.8036 20.1933 17.1293C19.5333 18.0133 18.5934 18.4755 17.5523 18.4254C14.8401 18.2894 14.3526 16.3961 13.9973 15.0152C13.6317 13.5986 13.3978 12.9157 12.0014 12.9157C11.2345 12.9157 10.6959 13.1266 10.3608 13.5635C9.90373 14.1611 9.86811 15.0954 9.91873 15.7732C9.95197 16.2454 10.032 16.7132 10.1578 17.1696C10.2694 17.4508 11.722 21.0133 15.2011 21.8754C15.291 21.8967 15.3758 21.9356 15.4505 21.99C15.5253 22.0443 15.5885 22.113 15.6364 22.192C15.6844 22.271 15.7162 22.3587 15.73 22.4501C15.7438 22.5414 15.7393 22.6346 15.7167 22.7243C15.6742 22.8755 15.5835 23.0088 15.4582 23.1037C15.3329 23.1985 15.1801 23.2498 15.023 23.2497Z" fill="#888888"/>
<path d="M9.43635 22.9284C9.3388 22.9286 9.24221 22.9092 9.15233 22.8712C9.06245 22.8333 8.98114 22.7776 8.91323 22.7076C7.17135 20.8795 6.18604 18.8353 5.81526 16.2792V16.2656C5.60713 14.5734 5.91182 12.1776 7.40479 10.5304C8.50682 9.31496 10.056 8.69714 12.0014 8.69714C14.302 8.69714 16.1099 9.76683 17.2373 11.7857C18.0553 13.2525 18.2174 14.714 18.2217 14.774C18.2302 14.8665 18.2205 14.9598 18.193 15.0486C18.1654 15.1373 18.1207 15.2197 18.0612 15.2911C18.0018 15.3625 17.9288 15.4215 17.8466 15.4647C17.7643 15.5079 17.6744 15.5344 17.5818 15.5428C17.3951 15.563 17.2079 15.5091 17.0607 15.3925C16.9134 15.2759 16.8179 15.1062 16.7948 14.9198C16.6713 14.0428 16.3875 13.1961 15.9576 12.4218C15.0839 10.8801 13.7545 10.0964 11.9962 10.0964C10.4774 10.0964 9.28917 10.5534 8.47166 11.4557C7.29323 12.7565 7.06541 14.7604 7.22713 16.0861C7.55198 18.3464 8.42057 20.1445 9.95432 21.7514C10.0183 21.818 10.0683 21.8967 10.1013 21.983C10.1342 22.0693 10.1495 22.1614 10.1462 22.2537C10.1428 22.346 10.121 22.4367 10.0819 22.5204C10.0428 22.6041 9.98733 22.6791 9.9187 22.7409C9.78652 22.8607 9.61475 22.9275 9.43635 22.9284Z" fill="#888888"/>
<path d="M17.461 20.9152C15.9375 20.9152 14.6424 20.4933 13.606 19.6547C11.5238 17.9771 11.2903 15.2447 11.28 15.1294C11.2654 14.9401 11.3265 14.7528 11.45 14.6086C11.5734 14.4643 11.7491 14.3751 11.9384 14.3604C12.1277 14.3457 12.315 14.4069 12.4592 14.5303C12.6035 14.6538 12.6927 14.8295 12.7074 15.0188C12.7125 15.0591 12.9207 17.2941 14.5257 18.5813C15.4753 19.3397 16.7447 19.6407 18.3089 19.4649C18.4959 19.4422 18.6842 19.4945 18.8328 19.6102C18.9813 19.726 19.0779 19.8959 19.1016 20.0827C19.1118 20.175 19.1036 20.2684 19.0773 20.3575C19.0511 20.4465 19.0074 20.5295 18.9487 20.6015C18.8901 20.6735 18.8177 20.7331 18.7358 20.7768C18.6539 20.8205 18.5641 20.8475 18.4716 20.8561C18.1361 20.8953 17.7987 20.915 17.461 20.9152Z" fill="#888888"/>
<path d="M18.6646 2.28703C18.0703 1.90031 15.9628 0.75 12 0.75C7.84027 0.75 5.72761 2.02078 5.26027 2.34375C5.2294 2.3627 5.20051 2.38468 5.17402 2.40937C5.17122 2.41208 5.16758 2.41373 5.1637 2.41406C5.08907 2.47922 5.02919 2.55954 4.98805 2.64966C4.94691 2.73979 4.92545 2.83765 4.92511 2.93672C4.92639 3.02959 4.94599 3.12129 4.98277 3.20657C5.01956 3.29185 5.07281 3.36904 5.13948 3.4337C5.20615 3.49837 5.28492 3.54924 5.37128 3.58341C5.45765 3.61757 5.5499 3.63436 5.64277 3.63281C5.79161 3.63271 5.93686 3.58708 6.05902 3.50203C6.07917 3.48703 7.89745 2.15109 12.0014 2.15109C16.1053 2.15109 17.9334 3.48234 17.9531 3.49219C18.0779 3.58473 18.2294 3.6341 18.3848 3.63281C18.4777 3.63424 18.57 3.61729 18.6564 3.58295C18.7428 3.54861 18.8215 3.49755 18.8881 3.4327C18.9547 3.36785 19.0079 3.29049 19.0445 3.20505C19.0811 3.11962 19.1005 3.02779 19.1015 2.93484C19.1016 2.79562 19.06 2.65956 18.9821 2.54413C18.9043 2.4287 18.7937 2.33917 18.6646 2.28703Z" fill="#888888"/>
</svg>
