<svg width="24" height="24" viewBox="0 0 24 24" fill="none" xmlns="http://www.w3.org/2000/svg">
<path d="M9.07927 7.16437C9.14645 7.02991 9.25249 6.91873 9.38363 6.84527C9.51477 6.7718 9.66496 6.73944 9.81472 6.75237C9.96448 6.76531 10.1069 6.82294 10.2235 6.91781C10.3401 7.01267 10.4255 7.14038 10.4686 7.28437L12.1749 12.9731L13.5811 10.1644C13.6434 10.0398 13.7392 9.93506 13.8577 9.86185C13.9761 9.78864 14.1127 9.74986 14.2519 9.74986C14.3912 9.74986 14.5277 9.78864 14.6462 9.86185C14.7647 9.93506 14.8604 10.0398 14.9227 10.1644L16.2136 12.75H20.7493C21.4246 11.3578 21.7672 9.82772 21.75 8.28047C21.7205 5.36906 19.3847 3 16.5432 3C14.289 3 12.7932 4.38469 12 5.39062C11.2088 4.38328 9.71114 3 7.45692 3C4.61536 3 2.27958 5.36906 2.25005 8.28047C2.23793 9.28583 2.37908 10.2872 2.66864 11.25H7.03645L9.07927 7.16437Z" fill="#888888"/>
<path d="M15.0791 13.8354L14.2499 12.1769L12.6707 15.3354C12.6084 15.4599 12.5126 15.5646 12.3941 15.6378C12.2757 15.711 12.1391 15.7498 11.9999 15.7497C11.979 15.7497 11.9574 15.7488 11.9352 15.7469C11.7851 15.7345 11.6422 15.6771 11.5251 15.5823C11.4081 15.4875 11.3223 15.3596 11.279 15.2154L9.5727 9.52661L8.16645 12.3354C8.10446 12.4593 8.00936 12.5636 7.8917 12.6367C7.77404 12.7098 7.63843 12.749 7.49989 12.7497H3.25067C3.68817 13.6651 4.27052 14.566 4.9977 15.4526C5.87755 16.5251 7.4727 18.2397 11.1566 20.7405C11.405 20.9108 11.6992 21.0019 12.0004 21.0019C12.3015 21.0019 12.5957 20.9108 12.8441 20.7405C16.528 18.2397 18.1232 16.5251 19.003 15.4526C19.3199 15.0668 19.6172 14.6654 19.8936 14.2497H15.7499C15.6106 14.2498 15.4741 14.211 15.3557 14.1378C15.2372 14.0646 15.1414 13.9599 15.0791 13.8354Z" fill="#888888"/>
<path d="M21.7501 12.75H20.7493C20.5 13.2696 20.2141 13.7708 19.8939 14.25H21.7501C21.949 14.25 22.1398 14.171 22.2804 14.0303C22.4211 13.8897 22.5001 13.6989 22.5001 13.5C22.5001 13.3011 22.4211 13.1103 22.2804 12.9697C22.1398 12.829 21.949 12.75 21.7501 12.75Z" fill="#888888"/>
<path d="M2.25 11.25C2.05109 11.25 1.86032 11.329 1.71967 11.4697C1.57902 11.6103 1.5 11.8011 1.5 12C1.5 12.1989 1.57902 12.3897 1.71967 12.5303C1.86032 12.671 2.05109 12.75 2.25 12.75H3.25078C3.01884 12.2655 2.82422 11.7641 2.66859 11.25H2.25Z" fill="#888888"/>
</svg>
