<svg width="24" height="24" viewBox="0 0 24 24" fill="none" xmlns="http://www.w3.org/2000/svg">
<path d="M20.25 20.9996C20.1515 20.9998 20.0539 20.9804 19.9629 20.9427C19.8719 20.905 19.7893 20.8496 19.7198 20.7798L3.21983 4.27976C3.08512 4.13797 3.01112 3.94915 3.01363 3.75358C3.01613 3.55801 3.09493 3.37115 3.23323 3.23285C3.37154 3.09455 3.55839 3.01575 3.75396 3.01325C3.94953 3.01074 4.13835 3.08473 4.28014 3.21945L20.7801 19.7194C20.885 19.8243 20.9563 19.9579 20.9852 20.1034C21.0142 20.2488 20.9993 20.3996 20.9426 20.5366C20.8858 20.6736 20.7898 20.7907 20.6665 20.8731C20.5432 20.9555 20.3983 20.9995 20.25 20.9996Z" fill="#888888"/>
<path d="M20.2266 9.56223C20.185 9.40117 20.091 9.25851 19.9595 9.15668C19.828 9.05486 19.6663 8.99964 19.5 8.99973H14.3995L15.7219 1.76363C15.7242 1.74957 15.7266 1.73598 15.728 1.72191C15.7518 1.53428 15.7135 1.344 15.6189 1.18021C15.5243 1.01642 15.3786 0.888166 15.2042 0.815086C15.0297 0.742006 14.8361 0.728133 14.653 0.775592C14.4699 0.823051 14.3075 0.929225 14.1905 1.07785L9.85078 6.44316C9.82162 6.47924 9.80688 6.52485 9.80939 6.57117C9.8119 6.61749 9.83149 6.66123 9.86438 6.69394L16.9425 13.7721C16.9611 13.7907 16.9834 13.8052 17.0079 13.8146C17.0324 13.824 17.0587 13.8282 17.085 13.8268C17.1112 13.8255 17.1369 13.8186 17.1603 13.8066C17.1837 13.7947 17.2044 13.778 17.2209 13.7575L20.0709 10.2344C20.1476 10.1423 20.2015 10.0335 20.2286 9.9168C20.2556 9.80007 20.2549 9.67864 20.2266 9.56223Z" fill="#888888"/>
<path d="M14.1361 17.3061L7.05798 10.228C7.03941 10.2094 7.01715 10.195 6.99266 10.1856C6.96816 10.1762 6.94197 10.1721 6.91577 10.1735C6.88957 10.1748 6.86395 10.1817 6.84056 10.1936C6.81718 10.2055 6.79655 10.2221 6.78001 10.2425L3.92813 13.7647C3.85153 13.857 3.79764 13.966 3.77077 14.0829C3.74391 14.1998 3.74483 14.3213 3.77344 14.4378C3.81503 14.5989 3.90897 14.7415 4.0405 14.8434C4.17203 14.9452 4.33367 15.0004 4.50001 15.0003H9.60142L8.2847 22.2359V22.2411C8.2522 22.4297 8.28343 22.6237 8.37345 22.7925C8.46347 22.9613 8.60716 23.0954 8.78183 23.1735C8.95651 23.2516 9.15221 23.2692 9.33806 23.2237C9.5239 23.1782 9.6893 23.0721 9.80814 22.9222L14.1492 17.5569C14.1785 17.5209 14.1933 17.4753 14.1909 17.429C14.1884 17.3827 14.1689 17.3389 14.1361 17.3061Z" fill="#888888"/>
</svg>
