<svg width="24" height="24" viewBox="0 0 24 24" fill="none" xmlns="http://www.w3.org/2000/svg">
<path d="M20.25 20.9996C20.1515 20.9998 20.0539 20.9804 19.9629 20.9427C19.8719 20.905 19.7893 20.8496 19.7198 20.7798L3.21983 4.27976C3.08512 4.13797 3.01112 3.94915 3.01363 3.75358C3.01613 3.55801 3.09493 3.37115 3.23323 3.23285C3.37154 3.09455 3.55839 3.01575 3.75396 3.01325C3.94953 3.01074 4.13835 3.08473 4.28014 3.21945L20.7801 19.7194C20.885 19.8243 20.9563 19.9579 20.9852 20.1034C21.0142 20.2488 20.9993 20.3996 20.9426 20.5366C20.8858 20.6736 20.7898 20.7907 20.6665 20.8731C20.5432 20.9555 20.3983 20.9995 20.25 20.9996Z" fill="#888888"/>
<path d="M13.7972 3.95035L12.7622 9.61473C12.737 9.75223 12.7507 9.89404 12.8018 10.0242C12.8529 10.1543 12.9393 10.2675 13.0514 10.3511C13.1864 10.4497 13.3497 10.5018 13.5169 10.4997H17.9287L16.1301 12.7225C16.1011 12.7585 16.0863 12.804 16.0887 12.8502C16.0912 12.8964 16.1106 12.9401 16.1433 12.9728L16.9434 13.773C16.962 13.7916 16.9843 13.8061 17.0088 13.8155C17.0334 13.825 17.0596 13.8291 17.0859 13.8278C17.1121 13.8264 17.1378 13.8195 17.1612 13.8076C17.1847 13.7956 17.2053 13.7789 17.2219 13.7585L20.0719 10.2353C20.1485 10.143 20.2024 10.0341 20.2292 9.91718C20.2561 9.80028 20.2552 9.67871 20.2265 9.56223C20.185 9.40117 20.091 9.25851 19.9595 9.15668C19.828 9.05486 19.6663 8.99964 19.5 8.99973H14.3995L15.7219 1.76363C15.7242 1.74957 15.7265 1.73598 15.728 1.72191C15.7518 1.53428 15.7135 1.344 15.6189 1.18021C15.5243 1.01642 15.3786 0.888166 15.2042 0.815086C15.0297 0.742006 14.8361 0.728133 14.653 0.775592C14.4699 0.823051 14.3074 0.929225 14.1905 1.07785L9.85076 6.44316C9.82155 6.47918 9.80672 6.52476 9.80914 6.57107C9.81156 6.61739 9.83107 6.66117 9.86389 6.69394L10.664 7.49363C10.6826 7.51224 10.7049 7.52673 10.7294 7.53616C10.754 7.5456 10.7802 7.54977 10.8065 7.5484C10.8328 7.54703 10.8584 7.54015 10.8819 7.52821C10.9053 7.51627 10.9259 7.49954 10.9425 7.4791L13.7972 3.95035Z" fill="#888888"/>
<path d="M10.2084 20.0421L11.2397 14.3839C11.2647 14.2463 11.2508 14.1046 11.1995 13.9745C11.1482 13.8445 11.0616 13.7314 10.9495 13.6479C10.8145 13.5498 10.6514 13.4978 10.4845 13.4998H6.07357L7.87169 11.277C7.90077 11.241 7.91552 11.1955 7.9131 11.1493C7.91068 11.1031 7.89125 11.0594 7.85856 11.0267L7.05841 10.2265C7.03984 10.208 7.01758 10.1936 6.99309 10.1842C6.96859 10.1748 6.94239 10.1706 6.9162 10.172C6.89 10.1734 6.86438 10.1802 6.84099 10.1921C6.81761 10.204 6.79698 10.2207 6.78044 10.241L3.9281 13.7642C3.8515 13.8565 3.79761 13.9654 3.77074 14.0823C3.74388 14.1992 3.74479 14.3208 3.77341 14.4373C3.815 14.5983 3.90894 14.741 4.04047 14.8428C4.17199 14.9447 4.33364 14.9999 4.49998 14.9998H9.60137L8.28466 22.2354V22.2406C8.25216 22.4291 8.28339 22.6231 8.37341 22.792C8.46343 22.9608 8.60712 23.0948 8.78179 23.1729C8.95646 23.251 9.15217 23.2687 9.33801 23.2232C9.52386 23.1777 9.68925 23.0716 9.80809 22.9217L14.1492 17.5564C14.1784 17.5203 14.1932 17.4748 14.1908 17.4284C14.1884 17.3821 14.1689 17.3384 14.1361 17.3056L13.3359 16.5059C13.3173 16.4873 13.295 16.4728 13.2705 16.4634C13.246 16.4539 13.2197 16.4498 13.1934 16.4511C13.1672 16.4525 13.1415 16.4594 13.1181 16.4713C13.0947 16.4832 13.074 16.5 13.0575 16.5204L10.2084 20.0421Z" fill="#888888"/>
</svg>
