<svg width="24" height="24" viewBox="0 0 24 24" fill="none" xmlns="http://www.w3.org/2000/svg">
<path d="M21.2025 17.1094L15.3468 7.83375C15.1201 7.47389 14.9998 7.05721 15 6.63188V3H15.7293C16.1329 3 16.4793 2.68969 16.4995 2.28609C16.5044 2.18465 16.4886 2.08327 16.4532 1.98809C16.4177 1.89292 16.3633 1.80595 16.2932 1.73244C16.2231 1.65894 16.1388 1.60043 16.0454 1.56048C15.9521 1.52052 15.8515 1.49995 15.75 1.5H8.27106C7.86747 1.5 7.52106 1.81031 7.50091 2.21391C7.49602 2.31531 7.51177 2.41666 7.54721 2.5118C7.58265 2.60693 7.63704 2.69389 7.70707 2.76739C7.77711 2.84089 7.86134 2.8994 7.95466 2.93939C8.04798 2.97937 8.14844 2.99999 8.24997 3H8.99997V6.63188C9.00025 7.05715 8.8798 7.47377 8.65263 7.83328L2.79747 17.1094C2.45885 17.6362 2.26916 18.2448 2.24853 18.8707C2.22789 19.4966 2.37709 20.1164 2.68028 20.6644C3.30184 21.8058 4.51684 22.5 5.81856 22.5H18.1814C19.4831 22.5 20.6981 21.8058 21.3197 20.662C21.6224 20.1144 21.7713 19.495 21.7507 18.8696C21.7301 18.2441 21.5406 17.6359 21.2025 17.1094ZM9.92153 8.63437C10.2998 8.03501 10.5004 7.34065 10.5 6.63188V3.1875C10.5 3.13777 10.5197 3.09008 10.5549 3.05492C10.59 3.01975 10.6377 3 10.6875 3H13.3125C13.3622 3 13.4099 3.01975 13.4451 3.05492C13.4802 3.09008 13.5 3.13777 13.5 3.1875V6.63188C13.4997 7.34069 13.7004 8.03506 14.0789 8.63437L16.7882 12.9248C16.8241 12.9816 16.844 13.047 16.846 13.1141C16.8479 13.1812 16.8318 13.2476 16.7994 13.3064C16.7669 13.3651 16.7192 13.4141 16.6614 13.4482C16.6035 13.4822 16.5376 13.5001 16.4704 13.5H7.5295C7.4624 13.5 7.39652 13.4821 7.33873 13.448C7.28094 13.4139 7.23335 13.3649 7.20093 13.3062C7.16852 13.2474 7.15246 13.181 7.15443 13.114C7.15641 13.0469 7.17634 12.9816 7.21216 12.9248L9.92153 8.63437Z" fill="#888888"/>
</svg>
