<svg width="24" height="24" viewBox="0 0 24 24" fill="none" xmlns="http://www.w3.org/2000/svg">
<path d="M12 14.25C13.2426 14.25 14.25 13.2426 14.25 12C14.25 10.7574 13.2426 9.75 12 9.75C10.7574 9.75 9.75 10.7574 9.75 12C9.75 13.2426 10.7574 14.25 12 14.25Z" fill="#888888"/>
<path d="M22.3093 14.2462C22.7483 13.8142 23.0517 13.2634 23.1822 12.6615C23.3127 12.0596 23.2647 11.4326 23.044 10.8576C22.8233 10.2826 22.4395 9.78449 21.9398 9.42444C21.4401 9.06438 20.8462 8.85803 20.2308 8.83069C20.1844 8.82867 20.1396 8.81343 20.1016 8.78678C20.0635 8.76012 20.0339 8.72315 20.0162 8.68022C19.9986 8.63717 19.9936 8.59 20.0019 8.54425C20.0102 8.49849 20.0314 8.45606 20.063 8.42194C20.475 7.96649 20.7462 7.40149 20.844 6.79521C20.9417 6.18892 20.8618 5.56731 20.6139 5.00546C20.366 4.44362 19.9606 3.9656 19.4469 3.62916C18.9331 3.29272 18.3329 3.11227 17.7188 3.1096H17.7071C16.919 3.10946 16.1596 3.40504 15.579 3.93788C15.5448 3.96956 15.5023 3.99081 15.4564 3.99911C15.4106 4.00742 15.3633 4.00244 15.3202 3.98475C15.2773 3.96695 15.2403 3.93732 15.2136 3.89931C15.1869 3.8613 15.1715 3.81647 15.1693 3.77006C15.1335 2.95352 14.7839 2.18229 14.1934 1.61716C13.603 1.05202 12.8172 0.736572 11.9998 0.736572C11.1825 0.736572 10.3967 1.05202 9.80623 1.61716C9.21576 2.18229 8.86619 2.95352 8.83038 3.77006C8.82836 3.81647 8.81312 3.86133 8.78646 3.89936C8.75981 3.93739 8.72284 3.96702 8.67991 3.98475C8.6368 4.00244 8.58953 4.00742 8.54369 3.99911C8.49784 3.99081 8.45532 3.96956 8.42116 3.93788C7.84024 3.40418 7.08001 3.10822 6.29116 3.10866H6.28131C5.66787 3.11295 5.06873 3.29441 4.55598 3.63119C4.04323 3.96798 3.63872 4.44575 3.39111 5.00702C3.14351 5.5683 3.06336 6.18916 3.1603 6.79491C3.25725 7.40067 3.52716 7.96551 3.93756 8.42147C3.96916 8.45559 3.99035 8.49802 3.99865 8.54378C4.00696 8.58953 4.00203 8.6367 3.98444 8.67975C3.96671 8.72268 3.93708 8.75965 3.89905 8.78631C3.86101 8.81297 3.81615 8.8282 3.76975 8.83022C2.95822 8.87325 2.1941 9.22595 1.63488 9.81561C1.07565 10.4053 0.763916 11.187 0.763916 11.9997C0.763916 12.8124 1.07565 13.5941 1.63488 14.1837C2.1941 14.7734 2.95822 15.1261 3.76975 15.1691C3.81621 15.1714 3.86107 15.1868 3.89909 15.2136C3.9371 15.2405 3.96671 15.2775 3.98444 15.3205C4.00207 15.3637 4.00702 15.4109 3.99871 15.4567C3.99041 15.5026 3.9692 15.5451 3.93756 15.5793C3.52429 16.0334 3.25197 16.5979 3.15379 17.204C3.0556 17.8101 3.13578 18.4316 3.38456 18.993C3.63334 19.5543 4.03999 20.0312 4.55497 20.3656C5.06996 20.6999 5.67106 20.8773 6.28506 20.8762H6.29678C7.08134 20.8783 7.83862 20.5884 8.42116 20.0629C8.45528 20.0313 8.49771 20.0101 8.54347 20.0018C8.58922 19.9935 8.63639 19.9984 8.67944 20.016C8.72237 20.0337 8.75934 20.0634 8.78599 20.1014C8.81265 20.1394 8.82789 20.1843 8.82991 20.2307C8.87294 21.0422 9.22563 21.8063 9.8153 22.3656C10.405 22.9248 11.1867 23.2365 11.9994 23.2365C12.812 23.2365 13.5938 22.9248 14.1834 22.3656C14.7731 21.8063 15.1258 21.0422 15.1688 20.2307C15.171 20.1843 15.1864 20.1395 15.2131 20.1014C15.2399 20.0634 15.2768 20.0338 15.3198 20.016C15.3628 19.9984 15.41 19.9935 15.4557 20.0018C15.5015 20.0101 15.5439 20.0313 15.578 20.0629C16.1597 20.5893 16.9165 20.8804 17.701 20.8794H17.7127C18.3273 20.8819 18.9292 20.7052 19.445 20.3711C19.9608 20.037 20.368 19.5598 20.617 18.998C20.866 18.4361 20.946 17.8139 20.8471 17.2074C20.7482 16.6008 20.4748 16.0362 20.0602 15.5826C20.0286 15.5484 20.0074 15.5059 19.9991 15.46C19.9908 15.4142 19.9957 15.3669 20.0133 15.3238C20.0312 15.2809 20.0608 15.2439 20.0988 15.2172C20.1368 15.1905 20.1816 15.1751 20.228 15.1729C21.013 15.134 21.7552 14.8035 22.3093 14.2462ZM12.0001 15.7504C11.2584 15.7504 10.5334 15.5304 9.91668 15.1184C9.29999 14.7063 8.81935 14.1207 8.53552 13.4354C8.25169 12.7502 8.17743 11.9962 8.32212 11.2688C8.46681 10.5414 8.82397 9.87317 9.34841 9.34873C9.87286 8.82428 10.541 8.46713 11.2685 8.32243C11.9959 8.17774 12.7499 8.252 13.4351 8.53583C14.1204 8.81966 14.706 9.3003 15.1181 9.91699C15.5301 10.5337 15.7501 11.2587 15.7501 12.0004C15.7489 12.9946 15.3535 13.9478 14.6505 14.6508C13.9475 15.3538 12.9943 15.7493 12.0001 15.7504Z" fill="#888888"/>
</svg>
