<svg width="24" height="24" viewBox="0 0 24 24" fill="none" xmlns="http://www.w3.org/2000/svg">
<path d="M19.5 7.49959C19.5002 6.97355 19.3622 6.45669 19.0996 6.00085C18.837 5.54502 18.4592 5.16624 18.0041 4.90251C17.5489 4.63877 17.0324 4.49936 16.5063 4.49825C15.9803 4.49714 15.4632 4.63437 15.0069 4.89618C14.5507 5.15799 14.1713 5.53517 13.9068 5.98989C13.6423 6.44461 13.502 6.96088 13.5 7.48693C13.498 8.01297 13.6344 8.53029 13.8955 8.98699C14.1565 9.44369 14.5331 9.82373 14.9874 10.089C14.88 11.4521 14.0461 11.8233 11.4717 12.3587C10.6392 12.5312 9.78751 12.7079 9.00095 13.0116V7.096C9.57287 6.7658 10.0199 6.25611 10.2726 5.64598C10.5253 5.03584 10.5696 4.35937 10.3987 3.72147C10.2278 3.08357 9.85116 2.51989 9.32723 2.11786C8.8033 1.71584 8.16135 1.49792 7.50095 1.49792C6.84054 1.49792 6.1986 1.71584 5.67466 2.11786C5.15073 2.51989 4.77409 3.08357 4.60317 3.72147C4.43224 4.35937 4.47658 5.03584 4.72931 5.64598C4.98203 6.25611 5.42902 6.7658 6.00095 7.096V16.9032C5.42989 17.2329 4.98339 17.7417 4.7305 18.3507C4.47762 18.9597 4.43243 19.635 4.60194 20.2723C4.77145 20.9096 5.14621 21.4733 5.66825 21.8761C6.19029 22.279 6.83053 22.4987 7.48996 22.5011C8.14938 22.5036 8.79124 22.2887 9.31627 21.8897C9.8413 21.4907 10.2202 20.9299 10.3945 20.2939C10.5687 19.6579 10.5286 18.9822 10.2803 18.3713C10.0319 17.7605 9.58922 17.2484 9.02063 16.9144C9.13267 16.0707 9.77064 15.774 12.0797 15.2963C13.3655 15.0305 14.6944 14.7554 15.8194 14.033C17.1788 13.1621 17.9067 11.8402 17.9925 10.1007C18.4504 9.83808 18.8309 9.4593 19.0956 9.0026C19.3603 8.5459 19.4998 8.02745 19.5 7.49959ZM7.50001 2.99959C7.79668 2.99959 8.08669 3.08757 8.33336 3.25239C8.58004 3.41721 8.7723 3.65148 8.88583 3.92557C8.99936 4.19966 9.02907 4.50126 8.97119 4.79223C8.91331 5.0832 8.77045 5.35048 8.56067 5.56026C8.35089 5.77003 8.08362 5.9129 7.79265 5.97077C7.50167 6.02865 7.20007 5.99895 6.92598 5.88541C6.6519 5.77188 6.41763 5.57962 6.25281 5.33295C6.08798 5.08628 6.00001 4.79627 6.00001 4.49959C6.00001 4.10177 6.15805 3.72024 6.43935 3.43893C6.72065 3.15763 7.10219 2.99959 7.50001 2.99959ZM7.50001 20.9996C7.20334 20.9996 6.91333 20.9116 6.66665 20.7468C6.41998 20.582 6.22772 20.3477 6.11419 20.0736C6.00066 19.7995 5.97095 19.4979 6.02883 19.207C6.08671 18.916 6.22957 18.6487 6.43935 18.4389C6.64913 18.2292 6.9164 18.0863 7.20737 18.0284C7.49835 17.9705 7.79995 18.0002 8.07403 18.1138C8.34812 18.2273 8.58239 18.4196 8.74721 18.6662C8.91204 18.9129 9.00001 19.2029 9.00001 19.4996C9.00001 19.8974 8.84197 20.2789 8.56067 20.5603C8.27937 20.8416 7.89783 20.9996 7.50001 20.9996ZM16.5 8.99959C16.2033 8.99959 15.9133 8.91162 15.6667 8.7468C15.42 8.58198 15.2277 8.34771 15.1142 8.07362C15.0007 7.79953 14.971 7.49793 15.0288 7.20696C15.0867 6.91599 15.2296 6.64871 15.4394 6.43894C15.6491 6.22916 15.9164 6.08629 16.2074 6.02842C16.4983 5.97054 16.7999 6.00024 17.074 6.11378C17.3481 6.22731 17.5824 6.41957 17.7472 6.66624C17.912 6.91291 18 7.20292 18 7.49959C18 7.89742 17.842 8.27895 17.5607 8.56026C17.2794 8.84156 16.8978 8.99959 16.5 8.99959Z" fill="#888888"/>
</svg>
