<svg width="24" height="24" viewBox="0 0 24 24" fill="none" xmlns="http://www.w3.org/2000/svg">
<path d="M20.2875 9.91125C19.56 9.49781 18.6511 9.80437 18.2574 10.5525L16.3177 14.5092C16.2813 14.5841 16.2178 14.6424 16.1401 14.6723C16.0624 14.7021 15.9762 14.7013 15.8991 14.67C15.8379 14.6457 15.7856 14.6035 15.7487 14.549C15.7118 14.4945 15.6922 14.4302 15.6924 14.3644V3.375C15.6924 2.72297 15.09 2.25 14.4375 2.25C13.785 2.25 13.2188 2.72297 13.2188 3.375V10.7175C13.2203 10.8546 13.1684 10.987 13.0739 11.0864C12.9795 11.1858 12.85 11.2445 12.713 11.25C12.6444 11.2513 12.5763 11.2389 12.5126 11.2136C12.4489 11.1883 12.3909 11.1505 12.342 11.1025C12.2931 11.0545 12.2542 10.9972 12.2277 10.934C12.2012 10.8708 12.1875 10.8029 12.1875 10.7344V1.125C12.1875 0.472969 11.6747 0 11.0222 0C10.3697 0 9.84376 0.472969 9.84376 1.125V10.7175C9.84534 10.8546 9.79338 10.987 9.69894 11.0864C9.6045 11.1858 9.47501 11.2445 9.33798 11.25C9.26945 11.2513 9.20134 11.2389 9.13764 11.2136C9.07394 11.1883 9.01593 11.1505 8.967 11.1025C8.91807 11.0545 8.87921 10.9972 8.85268 10.934C8.82616 10.8708 8.8125 10.8029 8.81251 10.7344V2.625C8.81251 1.97297 8.24626 1.5 7.59376 1.5C6.94126 1.5 6.37501 2.01984 6.37501 2.67188V11.4675C6.37659 11.6046 6.32463 11.737 6.23019 11.8364C6.13575 11.9358 6.00626 11.9945 5.86923 12C5.8007 12.0013 5.73259 11.9889 5.66889 11.9636C5.60519 11.9383 5.54718 11.9005 5.49825 11.8525C5.44932 11.8045 5.41046 11.7472 5.38393 11.684C5.35741 11.6208 5.34375 11.5529 5.34376 11.4844V5.625C5.34376 4.97297 4.82439 4.5 4.17189 4.5C3.51939 4.5 2.99439 4.97906 3.00001 5.625V15.75C3.00001 21.2536 6.37501 24 10.5 24H11.25C15.375 24 16.6739 22.1437 17.625 19.875L20.8458 11.9531C21.1561 11.1094 21.0145 10.3242 20.2875 9.91125Z" fill="#888888"/>
</svg>
