<svg width="24" height="24" viewBox="0 0 24 24" fill="none" xmlns="http://www.w3.org/2000/svg">
<path d="M19.5862 21C19.4873 21.0001 19.3894 20.9805 19.2981 20.9426C19.2068 20.9046 19.1239 20.8489 19.0542 20.7788L1.90544 3.5288C1.7652 3.38769 1.68677 3.19666 1.68738 2.99773C1.688 2.79879 1.76761 2.60825 1.90872 2.46802C2.04982 2.32778 2.24085 2.24935 2.43979 2.24996C2.63872 2.25058 2.82926 2.33019 2.9695 2.4713L20.1178 19.7213C20.2222 19.8263 20.2932 19.96 20.3218 20.1053C20.3503 20.2506 20.3353 20.4012 20.2784 20.5379C20.2216 20.6747 20.1255 20.7916 20.0023 20.8738C19.8791 20.9561 19.7343 21 19.5862 21Z" fill="#888888"/>
<path d="M17.1056 3.74999C15.0389 3.74999 13.6083 4.91342 12.7749 5.8828C12.7485 5.9132 12.7159 5.93757 12.6792 5.95428C12.6426 5.97098 12.6028 5.97963 12.5625 5.97963C12.5223 5.97963 12.4825 5.97098 12.4458 5.95428C12.4092 5.93757 12.3766 5.9132 12.3502 5.8828C11.5167 4.91342 10.0857 3.74999 8.01941 3.74999C7.52725 3.74972 7.0377 3.82142 6.56628 3.9628L19.1817 16.6519C19.3224 16.4906 19.4489 16.3406 19.5633 16.2019C21.4383 13.9167 22.336 11.5711 22.3106 9.02999C22.283 6.11858 19.9472 3.74999 17.1056 3.74999Z" fill="#888888"/>
<path d="M3.23441 6.99103C2.96273 7.63671 2.81943 8.32914 2.81253 9.02962C2.78722 11.5707 3.68581 13.9163 5.55988 16.2015C6.43972 17.2735 8.03488 18.9882 11.7188 21.489C11.9673 21.659 12.2614 21.75 12.5625 21.75C12.8637 21.75 13.1578 21.659 13.4063 21.489C14.3602 20.8412 15.1735 20.2468 15.871 19.7021L3.23441 6.99103Z" fill="#888888"/>
</svg>
