<svg width="24" height="24" viewBox="0 0 24 24" fill="none" xmlns="http://www.w3.org/2000/svg">
<path d="M19.4858 20.0215C19.0761 16.4173 17.4313 14.9234 16.2299 13.834C15.3992 13.0779 14.9999 12.6846 14.9999 11.9998C14.9999 11.3243 15.3978 10.9385 16.2261 10.1979C17.4416 9.1118 19.1061 7.62398 19.4867 3.97102C19.5172 3.66412 19.4828 3.35425 19.3859 3.06146C19.289 2.76867 19.1318 2.49949 18.9242 2.27133C18.7027 2.02763 18.4325 1.83306 18.1311 1.70017C17.8297 1.56728 17.5038 1.49901 17.1744 1.49977H6.82534C6.4955 1.49874 6.16911 1.56687 5.86723 1.69976C5.56534 1.83266 5.29468 2.02737 5.07269 2.27133C4.86581 2.4998 4.70911 2.7691 4.61271 3.06186C4.51631 3.35461 4.48234 3.66432 4.513 3.97102C4.89222 7.61227 6.55066 9.0893 7.76144 10.1674C8.59769 10.9123 8.99987 11.3009 8.99987 11.9998C8.99987 12.7076 8.59675 13.1041 7.75769 13.863C6.56237 14.9459 4.92175 16.4285 4.51394 20.0215C4.48082 20.327 4.51256 20.636 4.60706 20.9285C4.70157 21.2209 4.85672 21.49 5.06237 21.7184C5.28483 21.9652 5.55681 22.1623 5.86057 22.297C6.16434 22.4316 6.49308 22.5007 6.82534 22.4998H17.1744C17.5067 22.5007 17.8354 22.4316 18.1392 22.297C18.4429 22.1623 18.7149 21.9652 18.9374 21.7184C19.143 21.49 19.2982 21.2209 19.3927 20.9285C19.4872 20.636 19.5189 20.327 19.4858 20.0215ZM16.0921 20.2498H7.92784C7.19659 20.2498 6.99034 19.406 7.50316 18.8829C8.74441 17.6248 11.2499 16.7238 11.2499 15.281V10.4998C11.2499 9.5693 9.46862 8.85914 8.36659 7.34977C8.18472 7.10086 8.203 6.74977 8.66519 6.74977H15.3557C15.7499 6.74977 15.8347 7.09805 15.6557 7.34742C14.5696 8.85914 12.7499 9.56461 12.7499 10.4998V15.281C12.7499 16.7121 15.3613 17.4841 16.5186 18.8843C16.985 19.4487 16.8219 20.2498 16.0921 20.2498Z" fill="#888888"/>
</svg>
