<svg width="24" height="24" viewBox="0 0 24 24" fill="none" xmlns="http://www.w3.org/2000/svg">
<path d="M8.57812 16.5C7.55437 16.4756 6.75 15.614 6.75 14.5903V12.9933C6.74994 12.9102 6.72228 12.8295 6.67138 12.7638C6.62047 12.6981 6.5492 12.6512 6.46875 12.6305C4.88672 12.2156 3.75 10.769 3.75 8.99998C3.75122 8.11732 4.06321 7.26327 4.63124 6.58767C5.19927 5.91207 5.98706 5.45806 6.85641 5.3053C6.93558 5.29216 7.00845 5.25397 7.06431 5.19635C7.12017 5.13872 7.15606 5.06469 7.16672 4.98514C7.32111 3.81256 7.89652 2.7361 8.78573 1.9563C9.67493 1.1765 10.8173 0.746551 12 0.746551C13.1827 0.746551 14.3251 1.1765 15.2143 1.9563C16.1035 2.7361 16.6789 3.81256 16.8333 4.98514C16.8439 5.06469 16.8798 5.13872 16.9357 5.19635C16.9915 5.25397 17.0644 5.29216 17.1436 5.3053C18.0687 5.46597 18.8999 5.96787 19.4729 6.71178C20.0458 7.45569 20.3188 8.38748 20.238 9.32297C20.1571 10.2585 19.7282 11.1296 19.0361 11.7641C18.344 12.3987 17.439 12.7505 16.5 12.75C15.686 12.7461 14.8991 12.4574 14.2758 11.9339C14.2106 11.8801 14.129 11.8501 14.0444 11.8489C13.9599 11.8477 13.8775 11.8754 13.8108 11.9273C13.2949 12.3351 12.6575 12.5586 12 12.5625C11.6542 12.5599 11.3103 12.5097 10.9781 12.4134C10.9223 12.3975 10.8636 12.3947 10.8065 12.4053C10.7494 12.4159 10.6956 12.4396 10.6492 12.4745C10.6029 12.5095 10.5653 12.5547 10.5394 12.6066C10.5135 12.6586 10.5 12.7158 10.5 12.7739V14.625C10.5001 14.8752 10.4501 15.1229 10.3529 15.3535C10.2558 15.5841 10.1135 15.7929 9.93436 15.9677C9.75525 16.1424 9.54298 16.2795 9.31006 16.3709C9.07714 16.4624 8.82827 16.5062 8.57812 16.5Z" fill="#888888"/>
<path d="M12.3465 14.0488C12.2528 14.056 12.1652 14.0981 12.101 14.1667C12.0369 14.2354 12.0008 14.3256 12 14.4196V14.6254C11.9991 15.3457 11.7681 16.0469 11.3406 16.6267C10.9132 17.2064 10.3118 17.6345 9.62395 17.8485C9.57415 17.8644 9.52824 17.8906 9.48915 17.9254C9.45007 17.9601 9.41869 18.0026 9.39701 18.0502C9.37534 18.0978 9.36386 18.1494 9.3633 18.2017C9.36275 18.254 9.37313 18.3058 9.39379 18.3538L11.3115 22.7976C11.3695 22.932 11.4656 23.0466 11.588 23.127C11.7103 23.2075 11.8536 23.2504 12 23.2504C12.1467 23.2502 12.2901 23.2071 12.4125 23.1262C12.5349 23.0454 12.6309 22.9305 12.6886 22.7957L16.1471 14.7262C16.1697 14.6733 16.18 14.616 16.1769 14.5586C16.1739 14.5012 16.1577 14.4453 16.1296 14.3951C16.1015 14.3449 16.0623 14.3019 16.0149 14.2693C15.9676 14.2368 15.9133 14.2155 15.8565 14.2073C15.2676 14.1279 14.6977 13.9439 14.1736 13.664C14.1225 13.6367 14.0656 13.6216 14.0076 13.62C13.9496 13.6183 13.8921 13.6302 13.8394 13.6546C13.3685 13.8719 12.8633 14.0054 12.3465 14.0488Z" fill="#888888"/>
</svg>
