<svg width="24" height="24" viewBox="0 0 24 24" fill="none" xmlns="http://www.w3.org/2000/svg">
<path d="M7.56325 11.3441C7.63077 11.2724 7.71176 11.2147 7.80159 11.1742C7.89143 11.1338 7.98834 11.1115 8.0868 11.1085C8.18527 11.1056 8.28335 11.122 8.37544 11.157C8.46754 11.1919 8.55185 11.2447 8.62356 11.3122C12.075 14.5635 15.5381 16.5416 19.6134 17.5499C20.1632 16.0499 20.212 14.399 19.7372 12.7883C19.1072 10.6513 17.64 8.78943 15.4954 7.40427C13.5811 6.16771 11.6676 5.84568 9.81653 5.53443C7.48122 5.14161 5.27528 4.77036 3.17012 2.54146C2.93575 2.29489 2.61653 2.19599 2.31137 2.27614C1.96262 2.36989 1.72872 2.64552 1.61669 3.10115C1.35419 4.16755 1.52294 7.1563 2.26122 10.3115C3.44669 15.3805 5.33856 17.9455 6.71716 19.2051C8.49841 20.8311 10.8243 21.7316 13.1357 21.7316C13.5714 21.7323 14.0066 21.7003 14.4375 21.636C16.3926 21.3397 18.0201 20.3577 18.9375 18.929C14.7426 17.8377 11.159 15.7626 7.59372 12.4058C7.52188 12.3382 7.46409 12.257 7.42367 12.167C7.38325 12.077 7.36099 11.9799 7.35816 11.8813C7.35533 11.7827 7.37198 11.6844 7.40718 11.5923C7.44237 11.5001 7.49541 11.4158 7.56325 11.3441Z" fill="#888888"/>
<path d="M21.9108 18.009C21.1219 17.8876 20.3578 17.7352 19.6139 17.551C19.461 17.9686 19.2707 18.3714 19.0453 18.7548C19.0111 18.8134 18.975 18.8715 18.938 18.9287C19.8428 19.1629 20.759 19.3507 21.683 19.4912C21.7813 19.5085 21.8821 19.5059 21.9794 19.4838C22.0768 19.4616 22.1687 19.4202 22.2498 19.362C22.3309 19.3039 22.3996 19.2301 22.4519 19.145C22.5041 19.06 22.5389 18.9653 22.5541 18.8667C22.5693 18.768 22.5646 18.6673 22.5404 18.5705C22.5162 18.4736 22.4728 18.3826 22.413 18.3027C22.3531 18.2228 22.2779 18.1557 22.1917 18.1053C22.1056 18.0548 22.0102 18.0221 21.9113 18.009H21.9108Z" fill="#888888"/>
</svg>
