<svg width="24" height="24" viewBox="0 0 24 24" fill="none" xmlns="http://www.w3.org/2000/svg">
<path d="M12 2.25C6.62391 2.25 2.25 6.62391 2.25 12C2.25 17.3761 6.62391 21.75 12 21.75C17.3761 21.75 21.75 17.3761 21.75 12C21.75 6.62391 17.3761 2.25 12 2.25ZM7.875 16.4062C7.6525 16.4062 7.43499 16.3403 7.24998 16.2167C7.06498 16.093 6.92078 15.9173 6.83564 15.7118C6.75049 15.5062 6.72821 15.28 6.77162 15.0618C6.81502 14.8435 6.92217 14.6431 7.0795 14.4858C7.23684 14.3284 7.43729 14.2213 7.65552 14.1779C7.87375 14.1345 8.09995 14.1567 8.30552 14.2419C8.51109 14.327 8.68679 14.4712 8.8104 14.6562C8.93402 14.8412 9 15.0587 9 15.2812C9 15.5796 8.88147 15.8658 8.6705 16.0767C8.45952 16.2877 8.17337 16.4062 7.875 16.4062ZM7.875 13.0781C7.6525 13.0781 7.43499 13.0121 7.24998 12.8885C7.06498 12.7649 6.92078 12.5892 6.83564 12.3836C6.75049 12.1781 6.72821 11.9519 6.77162 11.7336C6.81502 11.5154 6.92217 11.315 7.0795 11.1576C7.23684 11.0003 7.43729 10.8931 7.65552 10.8497C7.87375 10.8063 8.09995 10.8286 8.30552 10.9138C8.51109 10.9989 8.68679 11.1431 8.8104 11.3281C8.93402 11.5131 9 11.7306 9 11.9531C9 12.2515 8.88147 12.5376 8.6705 12.7486C8.45952 12.9596 8.17337 13.0781 7.875 13.0781ZM7.875 9.65625C7.6525 9.65625 7.43499 9.59027 7.24998 9.46665C7.06498 9.34304 6.92078 9.16734 6.83564 8.96177C6.75049 8.7562 6.72821 8.53 6.77162 8.31177C6.81502 8.09354 6.92217 7.89309 7.0795 7.73575C7.23684 7.57842 7.43729 7.47127 7.65552 7.42787C7.87375 7.38446 8.09995 7.40674 8.30552 7.49189C8.51109 7.57703 8.68679 7.72123 8.8104 7.90623C8.93402 8.09124 9 8.30875 9 8.53125C9 8.82962 8.88147 9.11577 8.6705 9.32675C8.45952 9.53772 8.17337 9.65625 7.875 9.65625ZM16.5 15.9844H10.5C10.3011 15.9844 10.1103 15.9054 9.96967 15.7647C9.82902 15.6241 9.75 15.4333 9.75 15.2344C9.75 15.0355 9.82902 14.8447 9.96967 14.704C10.1103 14.5634 10.3011 14.4844 10.5 14.4844H16.5C16.6989 14.4844 16.8897 14.5634 17.0303 14.704C17.171 14.8447 17.25 15.0355 17.25 15.2344C17.25 15.4333 17.171 15.6241 17.0303 15.7647C16.8897 15.9054 16.6989 15.9844 16.5 15.9844ZM16.5 12.6562H10.5C10.3011 12.6562 10.1103 12.5772 9.96967 12.4366C9.82902 12.2959 9.75 12.1052 9.75 11.9062C9.75 11.7073 9.82902 11.5166 9.96967 11.3759C10.1103 11.2353 10.3011 11.1562 10.5 11.1562H16.5C16.6989 11.1562 16.8897 11.2353 17.0303 11.3759C17.171 11.5166 17.25 11.7073 17.25 11.9062C17.25 12.1052 17.171 12.2959 17.0303 12.4366C16.8897 12.5772 16.6989 12.6562 16.5 12.6562ZM16.5 9.28125H10.5C10.3011 9.28125 10.1103 9.20223 9.96967 9.06158C9.82902 8.92093 9.75 8.73016 9.75 8.53125C9.75 8.33234 9.82902 8.14157 9.96967 8.00092C10.1103 7.86027 10.3011 7.78125 10.5 7.78125H16.5C16.6989 7.78125 16.8897 7.86027 17.0303 8.00092C17.171 8.14157 17.25 8.33234 17.25 8.53125C17.25 8.73016 17.171 8.92093 17.0303 9.06158C16.8897 9.20223 16.6989 9.28125 16.5 9.28125Z" fill="#888888"/>
</svg>
