<svg width="24" height="24" viewBox="0 0 24 24" fill="none" xmlns="http://www.w3.org/2000/svg">
<path d="M17.6606 1.5H6.49406C4.95328 1.5 4.5 2.6625 4.5 3.39422V21.1898C4.5 22.0144 4.94156 22.3205 5.19 22.4212C5.43844 22.522 6.12328 22.6087 6.53391 22.132C6.53391 22.132 11.8059 15.9966 11.8964 15.9056C12.0333 15.7683 12.0333 15.7683 12.1702 15.7683H15.5812C17.0147 15.7683 17.2448 14.7431 17.3948 14.1394C17.5191 13.6336 18.9173 6.45188 19.3847 4.17563C19.7409 2.4375 19.3003 1.5 17.6606 1.5ZM17.3948 14.1394C17.5191 13.6336 18.9173 6.45188 19.3847 4.17563L17.3948 14.1394ZM17.0011 4.53141L16.5323 6.95625C16.4766 7.22109 16.1442 7.5 15.8358 7.5H11.3395C10.8502 7.5 10.5 7.78781 10.5 8.27813V8.90859C10.5 9.39937 10.8525 9.74719 11.3438 9.74719H15.1805C15.5264 9.74719 15.8653 10.1273 15.7898 10.4972C15.7144 10.867 15.3638 12.6802 15.3211 12.8827C15.2784 13.0852 15.0473 13.432 14.6362 13.432H11.625C11.0766 13.432 10.9106 13.5042 10.5436 13.9617C10.1766 14.4192 6.87516 18.3956 6.87516 18.3956C6.84187 18.4341 6.80906 18.4228 6.80906 18.3811V4.49531C6.80906 4.18172 7.08094 3.81422 7.48781 3.81422H16.4475C16.5344 3.81611 16.6197 3.83742 16.6972 3.87658C16.7748 3.91574 16.8426 3.97176 16.8957 4.04053C16.9488 4.1093 16.9858 4.18908 17.004 4.27402C17.0223 4.35896 17.0213 4.4469 17.0011 4.53141Z" fill="#888888"/>
</svg>
