<svg width="24" height="24" viewBox="0 0 24 24" fill="none" xmlns="http://www.w3.org/2000/svg">
<path d="M2.27248 17.7532C4.14426 19.9509 6.64603 21.5204 9.4392 22.2495C11.9517 22.7645 14.5624 22.4818 16.9064 21.4409C18.0754 20.9031 19.1364 20.1565 20.0372 19.2377C20.0758 19.1718 20.0876 19.0935 20.0701 19.0191C20.0527 18.9447 20.0073 18.8798 19.9434 18.8379C19.8225 18.7933 19.6899 18.7925 19.5684 18.8355C17.8527 19.7269 16.0101 20.3489 14.1051 20.6796C12.1075 20.8999 10.0865 20.7597 8.13842 20.2657C6.14589 19.6057 4.26392 18.6498 2.55561 17.4302C2.51205 17.4161 2.46532 17.415 2.42117 17.4272C2.37702 17.4393 2.33739 17.4641 2.30718 17.4985C2.27696 17.5329 2.25749 17.5754 2.25115 17.6208C2.24482 17.6661 2.25191 17.7123 2.27154 17.7537L2.27248 17.7532Z" fill="#888888"/>
<path d="M18.1477 18.2085C18.9032 18.0618 19.6761 18.0266 20.4418 18.104L20.4732 18.1101C20.5938 18.1393 20.6979 18.2152 20.7627 18.3211C20.8275 18.427 20.8476 18.5542 20.8187 18.6749C20.6687 19.4205 20.4306 20.1456 20.1094 20.8349C20.1002 20.865 20.1031 20.8975 20.1177 20.9254C20.1323 20.9534 20.1573 20.9744 20.1873 20.984C20.2048 20.9895 20.2234 20.9908 20.2416 20.9877C20.2597 20.9847 20.2769 20.9775 20.2918 20.9666C20.7439 20.6032 21.1093 20.1436 21.3615 19.6213C21.6138 19.099 21.7465 18.527 21.7501 17.947C21.7614 17.8026 21.7186 17.6592 21.6301 17.5447C21.5415 17.4302 21.4135 17.3527 21.271 17.3273C20.1485 17.1339 18.9944 17.3745 18.0427 18.0004C18.0172 18.019 18 18.0469 17.995 18.0781C17.99 18.1093 17.9976 18.1412 18.016 18.1668C18.0308 18.1867 18.0515 18.2014 18.0751 18.2089C18.0988 18.2164 18.1242 18.2163 18.1477 18.2085Z" fill="#888888"/>
<path d="M14.2613 15.2311C13.8575 15.6781 13.4025 16.0762 12.9057 16.417C11.9579 16.9771 10.8804 17.2805 9.77961 17.2973C8.80622 17.2761 7.86389 16.9507 7.08476 16.3668C6.44821 15.7849 5.98981 15.0343 5.7628 14.2023C5.53578 13.3702 5.54947 12.4908 5.80226 11.6662C6.0449 10.9357 6.44471 10.2673 6.97356 9.708C7.5024 9.14871 8.14742 8.71214 8.8632 8.42903C10.4554 7.95062 12.1085 7.7051 13.771 7.70012V5.95356C13.7169 5.56749 13.537 5.21003 13.2593 4.9365C12.9815 4.66296 12.6213 4.48861 12.2344 4.44044C11.7391 4.37297 11.2347 4.439 10.7734 4.63169C10.4491 4.78427 10.1651 5.01078 9.94423 5.29303C9.72336 5.57527 9.57177 5.90538 9.50164 6.25684C9.44997 6.36552 9.36481 6.45476 9.25867 6.51145C9.15253 6.56815 9.03101 6.58932 8.91195 6.57184L6.52601 6.36091C6.41924 6.33204 6.32409 6.2707 6.25371 6.18538C6.18334 6.10005 6.14122 5.99497 6.1332 5.88466C6.32419 4.71743 6.93435 3.65995 7.84929 2.91044C9.06064 1.97278 10.5551 1.47549 12.0868 1.50044C13.506 1.51342 14.8863 1.96662 16.0369 2.79747C16.5127 3.19942 16.8898 3.70521 17.1393 4.27587C17.3888 4.84653 17.504 5.46684 17.476 6.08903V12.1317C17.5056 12.64 17.6329 13.1378 17.851 13.5979L18.5949 14.6868C18.6343 14.769 18.6547 14.8589 18.6547 14.95C18.6547 15.0411 18.6343 15.1311 18.5949 15.2132L16.3923 17.0747C16.3004 17.1246 16.1968 17.149 16.0923 17.1454C15.9877 17.1417 15.8861 17.1102 15.7979 17.054C15.2238 16.5014 14.7088 15.8904 14.2613 15.2311ZM13.7645 9.75466C13.0743 9.7408 12.3843 9.78612 11.702 9.89012C11.2897 9.98273 10.9021 10.1627 10.5654 10.4179C10.2287 10.6731 9.95066 10.9976 9.75008 11.3695C9.58461 11.7756 9.51167 12.2135 9.53657 12.6514C9.56146 13.0892 9.68355 13.516 9.89398 13.9007C10.1509 14.2218 10.5049 14.4509 10.903 14.5539C11.3011 14.657 11.7219 14.6283 12.1023 14.4722C12.5514 14.1841 12.9327 13.802 13.2197 13.3522C13.5067 12.9023 13.6925 12.3956 13.7645 11.8668V9.75466Z" fill="#888888"/>
</svg>
