<svg width="24" height="24" viewBox="0 0 24 24" fill="none" xmlns="http://www.w3.org/2000/svg">
<path d="M22.0997 9.12258V9.1193C22.0894 9.08367 22.0786 9.04805 22.0678 9.01242C22.0655 9.00352 22.0627 8.99461 22.0599 8.98618C22.0397 8.91867 22.0191 8.85117 21.9975 8.78414L21.9947 8.77477C21.8632 8.36616 21.7066 7.96603 21.526 7.57664C21.3509 7.19099 21.1489 6.81818 20.9213 6.46102C20.0422 5.04883 18.8417 3.86445 17.4178 3.00446C15.7833 2.01725 13.9095 1.49684 12 1.49977C11.6719 1.49977 11.3438 1.51571 11.0241 1.54664C9.89345 1.66571 7.98751 2.07211 6.44111 3.43008C12.0703 0.555706 19.591 4.01696 18.9511 10.4529C18.7233 12.7498 16.7733 14.3281 14.9578 14.5943C14.6349 14.6436 14.3067 14.647 13.9828 14.6041C9.54892 13.9877 9.82033 10.3535 11.1675 8.79961C9.38627 8.78836 8.00486 10.9929 8.67611 13.159C7.13158 10.2912 8.69251 5.79961 12.001 4.44024C8.11267 3.87774 4.46767 5.76211 3.29626 9.03727C3.43616 7.84011 3.71539 6.66339 4.1283 5.53102C4.1283 5.53102 2.00861 7.20633 1.57642 10.7295C1.56986 10.7838 1.56376 10.8382 1.55814 10.8931C1.5558 10.9118 1.55392 10.9306 1.55205 10.9498C1.53548 11.1138 1.52298 11.279 1.51455 11.4452C1.51455 11.4579 1.51455 11.4705 1.51455 11.4832C1.51126 11.5526 1.50845 11.6238 1.50658 11.6923V11.7509C1.50658 11.8334 1.5033 11.9159 1.5033 11.9988C1.5033 17.7977 6.20439 22.4988 12.0033 22.4988C17.8022 22.4988 22.5 17.7987 22.5 11.9998C22.5005 11.0268 22.3658 10.0585 22.0997 9.12258Z" fill="#888888"/>
</svg>
