<svg width="24" height="24" viewBox="0 0 24 24" fill="none" xmlns="http://www.w3.org/2000/svg">
<path d="M23.1596 13.1996L21.9793 9.53962C21.973 9.50594 21.9634 9.47297 21.9507 9.44118L19.5835 2.08462C19.5214 1.8955 19.401 1.73092 19.2396 1.61453C19.0781 1.49813 18.8839 1.43591 18.6849 1.43681C18.4864 1.43622 18.2929 1.49939 18.133 1.61703C17.973 1.73467 17.8551 1.90055 17.7966 2.09025L15.54 9.1004H8.41503L6.15659 2.08978C6.09833 1.90073 5.98107 1.7353 5.82199 1.61772C5.6629 1.50014 5.47035 1.43658 5.27253 1.43634H5.26738C5.06781 1.43702 4.8736 1.50089 4.71258 1.61879C4.55157 1.73668 4.43203 1.90255 4.37113 2.09259L2.00159 9.45572C2.00159 9.46228 1.99644 9.4679 1.99409 9.47447L0.792688 13.2001C0.704209 13.473 0.703863 13.7668 0.791698 14.0399C0.879533 14.313 1.05109 14.5515 1.28206 14.7217L11.6621 22.3346C11.7532 22.4013 11.8633 22.4369 11.9762 22.4364C12.0891 22.4358 12.1988 22.399 12.2893 22.3313L22.6711 14.7217C22.9021 14.5514 23.0737 14.3128 23.1613 14.0396C23.249 13.7664 23.2484 13.4725 23.1596 13.1996ZM7.64394 10.1757L10.5375 19.1645L3.59206 10.1757H7.64394ZM13.4189 19.1663L16.1935 10.5488L16.313 10.1738H20.3686L14.0846 18.3015L13.4189 19.1663ZM18.6938 2.77978L20.7268 9.09993H16.6571L18.6938 2.77978ZM15.195 10.1715L13.1794 16.4331L11.9766 20.1624L8.76284 10.1715H15.195ZM5.26269 2.77978L7.29988 9.09993H3.23441L5.26269 2.77978ZM1.90691 13.8549C1.85785 13.8187 1.82144 13.768 1.80284 13.71C1.78425 13.6519 1.78441 13.5895 1.80331 13.5315L2.69394 10.7659L9.23816 19.231L1.90691 13.8549ZM22.0472 13.8549L14.715 19.2287L14.7394 19.1963L21.2578 10.764L22.1485 13.5296C22.1676 13.5876 22.168 13.6502 22.1496 13.7084C22.1311 13.7666 22.0948 13.8176 22.0458 13.854" fill="#888888"/>
</svg>
