<svg width="24" height="24" viewBox="0 0 24 24" fill="none" xmlns="http://www.w3.org/2000/svg">
<path d="M22.3547 5.3434C22.1203 4.24699 21.5339 3.52559 20.4511 3.17449C19.3683 2.8234 17.408 2.96356 16.0392 3.96152C14.7835 4.87606 13.8708 6.51246 13.508 7.6309C13.4973 7.66412 13.4961 7.69966 13.5045 7.73352C13.5129 7.76739 13.5306 7.79823 13.5556 7.82259C13.5806 7.84694 13.6119 7.86384 13.646 7.87138C13.68 7.87892 13.7155 7.87681 13.7485 7.86527C14.2533 7.68715 14.7666 7.53246 15.3422 7.56293C16.0453 7.60043 16.4911 8.12543 16.5099 8.7484C16.5239 9.20731 16.5005 9.62449 16.3411 10.0459C15.8377 11.3903 15.0469 12.6925 14.1122 13.8311C13.9714 14.0004 13.8144 14.1557 13.6435 14.2946C13.1649 14.6832 12.7617 14.5806 12.4524 14.0509C12.1992 13.6154 12.0305 13.1659 11.8805 12.6878C11.2992 10.8282 11.0925 8.8984 10.7644 6.99152C10.6097 6.0784 10.4363 5.12731 9.92064 4.32621C9.37689 3.49231 8.57955 3.17402 7.57689 3.29496C6.88783 3.37934 5.84674 4.11481 5.3358 4.53199C5.3358 4.53199 2.7108 6.72902 1.50049 7.87652L2.49424 9.14215C2.49424 9.14215 3.33377 8.55668 3.78377 8.28481C4.05096 8.1259 4.36502 8.09309 4.59002 8.29418C4.80143 8.47699 5.04049 8.71606 5.16705 8.95512C5.43424 9.45621 5.69205 9.98074 5.85611 10.5193C6.47486 12.5945 7.0519 14.6743 7.62846 16.764C7.92377 17.8318 8.28002 18.8345 8.94096 19.7429C9.84611 20.9893 10.7977 21.2748 12.2653 20.7503C13.4564 20.3242 14.4502 19.5231 15.3591 18.6939C16.9111 17.2792 18.1303 15.6301 19.3678 13.9529C20.3246 12.6559 21.1167 11.3434 21.7777 9.87715C22.4297 8.42496 22.6875 6.90246 22.3547 5.3434Z" fill="#888888"/>
</svg>
