<svg width="24" height="24" viewBox="0 0 24 24" fill="none" xmlns="http://www.w3.org/2000/svg">
<path d="M5.91188 14.7703C5.9115 15.2065 5.78181 15.6328 5.5392 15.9954C5.29658 16.3579 4.95193 16.6403 4.54881 16.807C4.1457 16.9737 3.70222 17.0171 3.27443 16.9318C2.84665 16.8464 2.45376 16.6362 2.14544 16.3276C1.83712 16.019 1.62722 15.626 1.54225 15.1981C1.45729 14.7702 1.50108 14.3268 1.6681 13.9238C1.83511 13.5209 2.11786 13.1764 2.48058 12.9341C2.8433 12.6918 3.26972 12.5625 3.70594 12.5625H5.91188V14.7703Z" fill="#888888"/>
<path d="M7.0238 14.7712C7.0238 14.1862 7.25621 13.6251 7.66991 13.2114C8.0836 12.7977 8.64469 12.5653 9.22974 12.5653C9.81479 12.5653 10.3759 12.7977 10.7896 13.2114C11.2033 13.6251 11.4357 14.1862 11.4357 14.7712V20.295C11.4357 20.88 11.2033 21.4411 10.7896 21.8548C10.3759 22.2685 9.81479 22.5009 9.22974 22.5009C8.64469 22.5009 8.0836 22.2685 7.66991 21.8548C7.25621 21.4411 7.0238 20.88 7.0238 20.295V14.7712Z" fill="#888888"/>
<path d="M9.2297 5.91188C8.79348 5.9115 8.36717 5.78181 8.00466 5.5392C7.64214 5.29658 7.35969 4.95193 7.19302 4.54881C7.02634 4.1457 6.98292 3.70222 7.06825 3.27443C7.15358 2.84665 7.36382 2.45376 7.6724 2.14544C7.98098 1.83712 8.37405 1.62722 8.80191 1.54225C9.22976 1.45729 9.67321 1.50108 10.0762 1.6681C10.4792 1.83511 10.8236 2.11786 11.0659 2.48058C11.3082 2.8433 11.4375 3.26972 11.4375 3.70594V5.91188H9.2297Z" fill="#888888"/>
<path d="M9.22969 7.02393C9.81474 7.02393 10.3758 7.25634 10.7895 7.67003C11.2032 8.08372 11.4356 8.64481 11.4356 9.22986C11.4356 9.81491 11.2032 10.376 10.7895 10.7897C10.3758 11.2034 9.81474 11.4358 9.22969 11.4358H3.70594C3.12089 11.4358 2.5598 11.2034 2.1461 10.7897C1.73241 10.376 1.5 9.81491 1.5 9.22986C1.5 8.64481 1.73241 8.08372 2.1461 7.67003C2.5598 7.25634 3.12089 7.02393 3.70594 7.02393H9.22969Z" fill="#888888"/>
<path d="M18.0881 9.22884C18.0885 8.79263 18.2182 8.36632 18.4608 8.0038C18.7034 7.64128 19.0481 7.35884 19.4512 7.19216C19.8543 7.02549 20.2978 6.98207 20.7256 7.0674C21.1534 7.15272 21.5463 7.36297 21.8546 7.67155C22.1629 7.98013 22.3728 8.37319 22.4578 8.80105C22.5427 9.22891 22.4989 9.67235 22.3319 10.0753C22.1649 10.4783 21.8822 10.8227 21.5194 11.065C21.1567 11.3073 20.7303 11.4367 20.2941 11.4367H18.0881V9.22884Z" fill="#888888"/>
<path d="M16.9762 9.22969C16.9762 9.81474 16.7438 10.3758 16.3301 10.7895C15.9164 11.2032 15.3553 11.4356 14.7703 11.4356C14.1852 11.4356 13.6241 11.2032 13.2104 10.7895C12.7967 10.3758 12.5643 9.81474 12.5643 9.22969V3.70594C12.5643 3.12089 12.7967 2.5598 13.2104 2.1461C13.6241 1.73241 14.1852 1.5 14.7703 1.5C15.3553 1.5 15.9164 1.73241 16.3301 2.1461C16.7438 2.5598 16.9762 3.12089 16.9762 3.70594V9.22969Z" fill="#888888"/>
<path d="M14.7703 18.0873C15.2065 18.0877 15.6328 18.2173 15.9954 18.46C16.3579 18.7026 16.6403 19.0472 16.807 19.4503C16.9737 19.8535 17.0171 20.2969 16.9318 20.7247C16.8464 21.1525 16.6362 21.5454 16.3276 21.8537C16.019 22.162 15.626 22.3719 15.1981 22.4569C14.7702 22.5419 14.3268 22.4981 13.9238 22.3311C13.5209 22.164 13.1764 21.8813 12.9341 21.5186C12.6918 21.1559 12.5625 20.7294 12.5625 20.2932V18.0873H14.7703Z" fill="#888888"/>
<path d="M14.7703 16.9772C14.1852 16.9772 13.6241 16.7448 13.2104 16.3311C12.7967 15.9174 12.5643 15.3563 12.5643 14.7712C12.5643 14.1862 12.7967 13.6251 13.2104 13.2114C13.6241 12.7977 14.1852 12.5653 14.7703 12.5653H20.294C20.8791 12.5653 21.4402 12.7977 21.8539 13.2114C22.2675 13.6251 22.5 14.1862 22.5 14.7712C22.5 15.3563 22.2675 15.9174 21.8539 16.3311C21.4402 16.7448 20.8791 16.9772 20.294 16.9772H14.7703Z" fill="#888888"/>
</svg>
