<svg width="24" height="24" viewBox="0 0 24 24" fill="none" xmlns="http://www.w3.org/2000/svg">
<g clip-path="url(#clip0)">
<path d="M23.9896 15.3775C23.9207 14.8187 23.6376 14.3341 23.1459 13.9352C23.1398 13.9277 23.133 13.9208 23.1257 13.9145L23.1009 13.8967L23.0929 13.8911L22.8318 13.7036L22.8229 13.697L22.7896 13.6736C22.7774 13.6665 22.7644 13.661 22.7507 13.6572C21.9248 13.1655 20.5574 12.8209 18.4654 13.5592C17.9662 12.7192 17.9095 12.0461 18.2437 11.0148C18.3032 10.8353 18.2479 10.7167 18.0698 10.6398C17.7117 10.4875 17.2214 10.5653 16.8735 10.6572C16.7114 10.6994 16.6139 10.7912 16.5829 10.9305C16.3626 11.9617 15.7223 12.9039 15.1031 13.8133L15.0665 13.8667C14.6849 13.0577 14.7642 12.4309 15.0299 11.6458C15.0829 11.4892 15.0412 11.3852 14.8945 11.3073C14.4848 11.0959 13.8703 11.2412 13.6256 11.3134C13.3153 11.4039 12.9824 12.2425 12.6107 13.2466C12.517 13.4992 12.4363 13.7153 12.3881 13.8161C12.2732 14.0505 12.1635 14.3177 12.0473 14.6012C11.7848 15.243 11.489 15.9653 11.0662 16.4191C10.9124 16.0792 11.1543 15.5434 11.3892 15.0236C11.6671 14.4091 11.9296 13.8283 11.6273 13.4575C11.5795 13.3989 11.5202 13.3507 11.453 13.3158C11.3859 13.281 11.3123 13.2603 11.2368 13.255C11.1384 13.2475 11.0395 13.2636 10.9485 13.3019C10.9799 13.037 10.9813 12.828 10.904 12.5753C10.7934 12.2148 10.506 12.0128 10.1104 12.0236C9.20947 12.0498 8.44728 12.7211 7.96588 13.2798C7.64525 13.6548 6.93463 13.9408 6.31072 14.1916C6.06416 14.2961 5.82978 14.3898 5.63431 14.4836C5.32259 14.2202 4.9265 13.9544 4.50931 13.6736C3.33744 12.887 2.00947 11.995 1.96353 10.7856C1.8979 8.99922 3.93228 7.73218 5.70791 6.82797C7.05369 6.14359 8.22369 5.68984 9.28494 5.44187C10.7756 5.09359 12.0346 5.1639 13.0265 5.65C13.5693 5.91578 13.8234 6.49375 13.6621 7.08812C13.2403 8.63265 11.4923 9.69109 9.99744 10.1673C9.09697 10.4542 8.33056 10.5742 7.65369 10.5348C6.80525 10.4856 6.11244 10.06 5.81619 9.87859C5.76872 9.84618 5.71854 9.81795 5.66619 9.79422L5.65259 9.79093C5.62577 9.78426 5.59762 9.7851 5.57125 9.79337C5.54487 9.80164 5.52128 9.81701 5.50306 9.83781C5.44213 9.91047 5.46369 10.0253 5.48572 10.0834C5.774 10.8367 6.36931 11.3125 7.25478 11.4977C7.54457 11.5557 7.83956 11.5838 8.1351 11.5816C10.2074 11.5816 12.8517 10.3867 13.8229 9.40281C14.4853 8.7325 14.9676 8.04343 15.1673 6.85515C15.3759 5.61062 14.5321 4.74578 13.6724 4.34734C11.5832 3.38312 9.21041 3.76422 7.5876 4.25359C5.68916 4.82593 3.72509 5.86656 2.19978 7.10968C0.319154 8.64109 -0.360534 10.0628 0.178529 11.3402C0.732123 12.6494 2.08212 13.4683 3.38759 14.2605C3.80947 14.5159 4.21072 14.7592 4.57213 15.0105C4.46338 15.0634 4.35228 15.1173 4.23931 15.1712C3.14337 15.7023 1.90025 16.3 1.21072 17.2877C0.710091 18.0072 0.616341 18.7234 0.932279 19.4167C1.10103 19.7856 1.40103 20.0359 1.81775 20.1606C2.03452 20.222 2.25902 20.2519 2.48431 20.2492C3.29572 20.2492 4.18869 19.9211 4.67478 19.6178C5.53353 19.0787 6.08994 18.355 6.329 17.4667C6.54181 16.6764 6.49072 15.8912 6.18134 15.1905L7.23369 14.6598C6.72603 16.3473 7.1151 17.3552 7.5426 17.9111C7.7001 18.1159 7.98416 18.2392 8.3015 18.2448C8.61885 18.2505 8.91088 18.1309 9.07588 17.9275C9.38807 17.5408 9.61869 17.0884 9.83103 16.6361C9.81978 16.9314 9.83385 17.2305 9.93463 17.4841C10.0251 17.7123 10.1742 17.8637 10.3663 17.9219C10.5707 17.9842 10.8103 17.9317 11.0409 17.7742C12.0801 17.0631 12.7907 15.3564 13.3617 13.9844C13.4428 13.7894 13.5206 13.6019 13.596 13.4266C13.7373 13.9321 13.9338 14.4205 14.182 14.883C14.2373 14.9833 14.2326 15.0273 14.1576 15.1098C14.0446 15.2336 13.8871 15.3831 13.7203 15.5416C13.2149 16.0211 12.5859 16.6197 12.5015 17.1461C12.4687 17.357 12.614 17.5492 12.8395 17.5928C13.5178 17.7278 14.3348 17.5305 15.0257 17.0655C15.6539 16.6436 15.8901 16.0553 15.7289 15.3222C15.5728 14.6162 15.929 13.7397 16.7878 12.715C16.9284 13.3023 17.1159 13.7772 17.3746 14.193L17.3676 14.1986C16.7423 14.7447 15.8854 15.4923 16.0185 16.3994C16.0297 16.4856 16.0587 16.5686 16.1038 16.643C16.1488 16.7174 16.2089 16.7817 16.2801 16.8316C16.3562 16.883 16.4422 16.9181 16.5325 16.9347C16.6229 16.9513 16.7157 16.9491 16.8051 16.9281C17.624 16.7561 18.2404 16.4097 18.6885 15.8702C19.1367 15.3306 18.9731 14.7325 18.8221 14.2684C19.994 13.9506 21.0374 13.9586 22.0143 14.2919C22.5628 14.4794 22.956 14.7873 23.1829 15.2125C23.4684 15.7473 23.3142 16.2409 22.7474 16.6023C22.5735 16.7134 22.4896 16.7814 22.4845 16.8672C22.4833 16.8871 22.487 16.907 22.4951 16.9252C22.5033 16.9434 22.5157 16.9593 22.5314 16.9717C22.597 17.0256 22.7995 17.1194 23.2575 16.8311C23.6793 16.5662 23.9268 16.2058 23.9901 15.753C24.0028 15.6281 24.0027 15.5023 23.9896 15.3775ZM5.25228 16.5522L5.24759 16.6122C5.17447 17.2984 4.82572 17.8966 4.20931 18.3934C3.82212 18.7056 3.40166 18.8973 3.02572 18.9339C2.76322 18.9592 2.57244 18.9236 2.459 18.8275C2.37416 18.7558 2.32869 18.6484 2.31837 18.4994C2.2415 17.305 4.11462 16.1181 5.16884 15.7277C5.24408 15.9956 5.27231 16.2746 5.25228 16.5522ZM10.0499 13.1837C9.8765 14.1723 9.37072 16.0384 8.57572 16.7627C8.53775 16.7973 8.50588 16.8095 8.49135 16.8062C8.47681 16.803 8.46556 16.7856 8.45385 16.7594C8.18853 16.1444 8.2865 15.1056 8.68822 14.2895C8.99713 13.6605 9.43822 13.2437 9.93135 13.1177C9.95182 13.112 9.97293 13.109 9.99416 13.1087C10.0108 13.1076 10.0273 13.112 10.041 13.1214C10.0468 13.1306 10.0506 13.1409 10.0522 13.1516C10.0537 13.1624 10.0529 13.1733 10.0499 13.1837ZM13.9635 16.7875C13.814 16.9436 13.6092 16.9225 13.6574 16.8653L14.4187 16.0572C14.3573 16.3352 14.1759 16.5653 13.9635 16.7875ZM17.1215 16.0886C17.0491 16.1243 16.9708 16.1463 16.8904 16.1537C16.8689 15.7286 17.2809 15.25 17.6873 14.9308C17.7965 15.3742 17.5729 15.843 17.1215 16.0886Z" fill="#888888"/>
</g>
<defs>
<clipPath id="clip0">
<rect width="24" height="24" fill="white"/>
</clipPath>
</defs>
</svg>
