<svg width="24" height="24" viewBox="0 0 24 24" fill="none" xmlns="http://www.w3.org/2000/svg">
<path d="M17.8552 9.32782L19.8459 5.87923C19.8993 5.78665 19.9139 5.67673 19.8865 5.57344C19.8591 5.47016 19.7919 5.38192 19.6997 5.32798C19.6541 5.30123 19.6037 5.28379 19.5513 5.27667C19.499 5.26955 19.4458 5.27289 19.3947 5.28649C19.3436 5.30009 19.2958 5.32369 19.2539 5.35592C19.2121 5.38814 19.177 5.42835 19.1508 5.47423L17.1352 8.96735C15.5962 8.26423 13.8642 7.87282 12.0014 7.87282C10.1386 7.87282 8.40656 8.26469 6.86766 8.96735L4.85203 5.47423C4.79833 5.38173 4.71008 5.31436 4.6067 5.28693C4.50332 5.25951 4.39328 5.27427 4.30078 5.32798C4.20829 5.38168 4.14092 5.46993 4.11349 5.57331C4.08606 5.67669 4.10082 5.78673 4.15453 5.87923L6.14062 9.32782C2.70938 11.1859 0.383906 14.6608 0 18.7286H24C23.6161 14.6608 21.2906 11.1859 17.8552 9.32782ZM6.48984 15.3583C6.29089 15.3583 6.0964 15.2993 5.93097 15.1888C5.76555 15.0782 5.63662 14.9211 5.56048 14.7373C5.48434 14.5535 5.46442 14.3512 5.50324 14.1561C5.54205 13.961 5.63786 13.7817 5.77854 13.641C5.91922 13.5004 6.09846 13.4046 6.2936 13.3657C6.48873 13.3269 6.69099 13.3468 6.8748 13.423C7.05861 13.4991 7.21572 13.6281 7.32625 13.7935C7.43678 13.9589 7.49578 14.1534 7.49578 14.3524C7.49566 14.6191 7.38963 14.8749 7.20101 15.0635C7.01239 15.2521 6.7566 15.3582 6.48984 15.3583ZM17.5055 15.3583C17.3067 15.3575 17.1126 15.2977 16.9478 15.1867C16.7829 15.0757 16.6546 14.9183 16.5791 14.7344C16.5036 14.5505 16.4843 14.3484 16.5236 14.1535C16.5629 13.9587 16.659 13.7798 16.7999 13.6396C16.9407 13.4993 17.12 13.4039 17.315 13.3654C17.51 13.327 17.712 13.3471 17.8956 13.4234C18.0792 13.4997 18.236 13.6286 18.3464 13.7939C18.4567 13.9593 18.5156 14.1536 18.5156 14.3524C18.5156 14.4846 18.4894 14.6156 18.4387 14.7378C18.388 14.8599 18.3137 14.9709 18.22 15.0643C18.1264 15.1578 18.0152 15.2318 17.8929 15.2823C17.7707 15.3327 17.6396 15.3585 17.5073 15.3583H17.5055Z" fill="#888888"/>
</svg>
