<svg width="24" height="24" viewBox="0 0 24 24" fill="none" xmlns="http://www.w3.org/2000/svg">
<g clip-path="url(#clip0)">
<path d="M19.1564 13.9934C18.9615 13.9943 18.7707 13.9374 18.6082 13.8298C18.4457 13.7222 18.3188 13.5688 18.2436 13.389C18.1684 13.2092 18.1482 13.0111 18.1857 12.8199C18.2231 12.6286 18.3165 12.4528 18.454 12.3147C18.5914 12.1765 18.7668 12.0823 18.9579 12.0439C19.149 12.0056 19.3472 12.0248 19.5273 12.0992C19.7074 12.1735 19.8615 12.2997 19.9698 12.4617C20.0782 12.6236 20.1361 12.8142 20.1361 13.009C20.137 13.1382 20.1123 13.2662 20.0635 13.3858C20.0146 13.5053 19.9426 13.614 19.8515 13.7055C19.7604 13.797 19.652 13.8696 19.5327 13.919C19.4134 13.9684 19.2855 13.9937 19.1564 13.9934ZM14.3672 13.9934C14.1723 13.9943 13.9815 13.9374 13.819 13.8298C13.6565 13.7222 13.5296 13.5688 13.4544 13.389C13.3791 13.2092 13.359 13.0111 13.3964 12.8199C13.4339 12.6286 13.5273 12.4528 13.6647 12.3147C13.8022 12.1765 13.9776 12.0823 14.1687 12.0439C14.3598 12.0056 14.5579 12.0248 14.7381 12.0992C14.9182 12.1735 15.0722 12.2997 15.1806 12.4617C15.289 12.6236 15.3468 12.8142 15.3468 13.009C15.3478 13.1382 15.3232 13.2663 15.2744 13.3858C15.2256 13.5054 15.1535 13.6141 15.0624 13.7057C14.9713 13.7972 14.8629 13.8698 14.7436 13.9192C14.6243 13.9686 14.4963 13.9938 14.3672 13.9934ZM21.4964 19.565C23.0203 18.4723 24 16.834 24 14.9769C24 11.645 20.789 8.91357 16.762 8.91357C12.735 8.91357 9.52356 11.645 9.52356 14.9769C9.52356 18.3087 12.7345 21.0397 16.762 21.0397C17.5781 21.0397 18.3947 20.9304 19.102 20.7115C19.2187 20.6712 19.2651 20.6567 19.3195 20.6567C19.4538 20.6599 19.5851 20.6977 19.7006 20.7664L21.2812 21.695C21.3323 21.7218 21.3874 21.7403 21.4443 21.7498C21.501 21.746 21.5543 21.7217 21.5943 21.6815C21.6344 21.6414 21.6586 21.588 21.6623 21.5314C21.6587 21.4697 21.6465 21.4088 21.6262 21.3504C21.607 21.282 21.3918 20.6004 21.2812 20.1659C21.2711 20.1123 21.2659 20.0578 21.2657 20.0033C21.2664 19.9167 21.2881 19.8316 21.3289 19.7552C21.3697 19.6789 21.4285 19.6136 21.5001 19.565" fill="#888888"/>
<path d="M11.5373 8.36766C11.2331 8.36766 10.9414 8.24681 10.7263 8.0317C10.5112 7.81659 10.3903 7.52484 10.3903 7.22062C10.3903 6.91641 10.5112 6.62466 10.7263 6.40955C10.9414 6.19444 11.2331 6.07359 11.5373 6.07359C12.1359 6.07359 12.6802 6.61969 12.6802 7.22062C12.7345 7.82156 12.1903 8.36766 11.5373 8.36766ZM5.76891 8.36766C5.54195 8.36849 5.31984 8.30198 5.1307 8.17653C4.94156 8.05108 4.79388 7.87235 4.70637 7.66294C4.61885 7.45353 4.59542 7.22286 4.63905 7.00014C4.68268 6.77741 4.7914 6.57263 4.95146 6.41172C5.11152 6.25081 5.31572 6.141 5.53821 6.09618C5.7607 6.05137 5.99149 6.07357 6.20136 6.15997C6.41123 6.24638 6.59075 6.3931 6.7172 6.58157C6.84365 6.77004 6.91135 6.99179 6.91172 7.21875C6.91049 7.52186 6.78983 7.81226 6.5759 8.02698C6.36196 8.24171 6.072 8.36344 5.76891 8.36578V8.36766ZM8.65313 2.25C3.86391 2.25 0 5.47266 0 9.51562C0 11.7005 1.14281 13.6669 2.99297 14.978C3.15656 15.0863 3.1875 15.3281 3.1875 15.4219C3.19142 15.4934 3.1809 15.565 3.15656 15.6323C2.99297 16.1784 2.78437 17.0625 2.77547 17.1094C2.76656 17.1562 2.72109 17.2734 2.72109 17.3278C2.71877 17.3642 2.72421 17.4006 2.73703 17.4347C2.74985 17.4689 2.76977 17.4999 2.79548 17.5257C2.82118 17.5515 2.85208 17.5716 2.88612 17.5846C2.92017 17.5976 2.95659 17.6032 2.99297 17.6011C3.05135 17.5974 3.10775 17.5785 3.15656 17.5463L5.0625 16.4531C5.22609 16.3439 5.33484 16.3439 5.49797 16.3439C5.59131 16.3453 5.68361 16.3637 5.77031 16.3983C6.64078 16.6716 7.62047 16.7808 8.60016 16.7808H9.09C8.91157 16.1966 8.81981 15.5893 8.81766 14.9784C8.81766 11.3184 12.3553 8.36906 16.7091 8.36906H17.1989C16.5984 4.92656 13.0069 2.25 8.65313 2.25Z" fill="#888888"/>
</g>
<defs>
<clipPath id="clip0">
<rect width="24" height="24" fill="white"/>
</clipPath>
</defs>
</svg>
