<svg width="24" height="24" viewBox="0 0 24 24" fill="none" xmlns="http://www.w3.org/2000/svg">
<path d="M11.9766 0.703125C5.78906 0.703125 0.726562 5.76562 0.726562 11.9531C0.726562 18.1406 5.78906 23.2031 11.9766 23.2031C15.9797 23.2031 19.5141 21.0844 21.5062 17.9109C21.5444 17.8506 21.5614 17.7794 21.5546 17.7084C21.5479 17.6373 21.5177 17.5706 21.4689 17.5186C21.4201 17.4665 21.3554 17.4322 21.2849 17.4209C21.2145 17.4096 21.1423 17.4221 21.0797 17.4562C20.8054 17.6173 20.5166 17.7522 20.2172 17.8594C18.4922 18.45 17.5406 18.4734 16.3688 18.4219C15.0609 18.3656 13.4672 17.9156 12.3469 17.25C11.2266 16.5844 10.3078 15.6281 9.81094 14.7984C9.31406 13.9688 9.01406 12.9281 9.15 11.5969C9.28594 10.2375 10.5281 9.13125 11.9813 9.13125C13.5516 9.13125 14.8312 10.3781 14.8312 11.9484C14.8312 12.7453 14.4516 13.4344 13.9641 13.9875C13.8562 14.0859 13.6078 14.4422 14.2359 14.925C14.9813 15.4969 16.6547 15.7688 17.9813 15.7031C19.3078 15.6375 20.7516 15.1125 21.7406 14.0719C22.5281 13.2422 23.2313 11.9109 23.2313 10.4438C23.2266 4.57969 17.7891 0.703125 11.9766 0.703125Z" fill="#888888"/>
</svg>
