<svg width="24" height="24" viewBox="0 0 24 24" fill="none" xmlns="http://www.w3.org/2000/svg">
<path d="M11.3081 14.2469C10.59 13.7613 9.86716 13.2827 9.14904 12.7971C9.05529 12.7324 8.98826 12.7277 8.89122 12.7971L7.06873 14.0214C8.53123 14.995 11.4375 16.9366 11.4375 16.9366V14.4152C11.4375 14.358 11.3648 14.2849 11.3081 14.2469Z" fill="#888888"/>
<path d="M9.14482 11.2819C9.86951 10.8056 10.59 10.3234 11.3062 9.83531C11.3442 9.80486 11.3754 9.76692 11.398 9.72384C11.4205 9.68077 11.434 9.63351 11.4375 9.585V7.16156C11.4375 7.16156 8.53123 9.08906 7.06592 10.065C7.70811 10.4944 8.31607 10.9045 8.93061 11.3044C8.97842 11.3353 9.08998 11.3175 9.14482 11.2819Z" fill="#888888"/>
<path d="M12.6487 9.81282C13.3897 10.315 14.1339 10.8122 14.8814 11.3044C14.9093 11.3183 14.94 11.3255 14.9712 11.3255C15.0023 11.3255 15.033 11.3183 15.0609 11.3044L16.9247 10.0636L12.5625 7.14703V9.64782C12.5642 9.67989 12.5728 9.71121 12.5877 9.73968C12.6026 9.76814 12.6234 9.79308 12.6487 9.81282Z" fill="#888888"/>
<path d="M12.0989 10.7982C12.0638 10.782 12.0254 10.7743 11.9868 10.7757C11.9482 10.7771 11.9105 10.7875 11.8767 10.8061C11.6507 10.9467 11.4328 11.0967 11.2125 11.2444C10.8257 11.5036 10.0242 12.0413 10.0242 12.0413L11.8448 13.2535C11.8888 13.2804 11.9392 13.295 11.9908 13.2959C12.0424 13.2969 12.0933 13.284 12.1382 13.2586L13.9664 12.0399C13.9664 12.0399 12.3693 10.9777 12.0989 10.7982Z" fill="#888888"/>
<path d="M6.60938 11.1149V12.9716L7.99781 12.0416L6.60938 11.1149Z" fill="#888888"/>
<path d="M12 1.5C6.20109 1.5 1.5 6.20109 1.5 12C1.5 17.7989 6.20109 22.5 12 22.5C17.7989 22.5 22.5 17.7989 22.5 12C22.5 6.20109 17.7989 1.5 12 1.5ZM18.5156 13.9219C18.5156 14.1928 18.3914 14.3841 18.1636 14.5355C16.2352 15.8167 14.3088 17.1009 12.3844 18.3881C12.1102 18.5719 11.8608 18.5639 11.5875 18.3816C9.67594 17.1003 7.75984 15.8242 5.83922 14.5533C5.59969 14.3944 5.48344 14.1989 5.48344 13.9097V10.1719C5.48344 9.88406 5.60156 9.68719 5.84062 9.52875C7.75828 8.25703 9.68156 6.98063 11.5936 5.7C11.8664 5.51766 12.1134 5.5125 12.3877 5.69578C14.3108 6.98359 16.2367 8.26781 18.1655 9.54844C18.3848 9.69422 18.5147 9.87422 18.5147 10.1419L18.5156 13.9219Z" fill="#888888"/>
<path d="M14.8242 12.808C14.1182 13.2874 13.409 13.7615 12.6965 14.2302C12.5835 14.3043 12.561 14.3854 12.5624 14.5204V16.9269L16.9218 14.0207L15.1157 12.8076C15.0079 12.7321 14.9334 12.734 14.8242 12.808Z" fill="#888888"/>
<path d="M17.3438 12.9698V11.1126L15.9568 12.044L17.3438 12.9698Z" fill="#888888"/>
</svg>
