<svg width="24" height="24" viewBox="0 0 24 24" fill="none" xmlns="http://www.w3.org/2000/svg">
<path d="M12 1.5C6.225 1.5 1.5 6.225 1.5 12C1.5 17.775 6.225 22.5 12 22.5C17.775 22.5 22.5 17.775 22.5 12C22.5 6.225 17.775 1.5 12 1.5ZM8.14875 14.625C7.62262 14.642 7.10352 14.5005 6.65886 14.2187C6.21421 13.937 5.86453 13.528 5.65525 13.045C5.44596 12.562 5.38674 12.0272 5.48526 11.5101C5.58377 10.993 5.83549 10.5174 6.20772 10.1452C6.57994 9.77299 7.05549 9.52127 7.57259 9.42275C8.0897 9.32423 8.62448 9.38346 9.1075 9.59275C9.59052 9.80203 9.99945 10.1517 10.2812 10.5964C10.563 11.041 10.7045 11.5601 10.6875 12.0863C10.6659 12.7527 10.3915 13.386 9.92003 13.8575C9.44851 14.329 8.81522 14.6034 8.14875 14.625ZM16.0238 14.625C15.4976 14.642 14.9785 14.5005 14.5339 14.2187C14.0892 13.937 13.7395 13.528 13.5302 13.045C13.321 12.562 13.2617 12.0272 13.3603 11.5101C13.4588 10.993 13.7105 10.5174 14.0827 10.1452C14.4549 9.77299 14.9305 9.52127 15.4476 9.42275C15.9647 9.32423 16.4995 9.38346 16.9825 9.59275C17.4655 9.80203 17.8745 10.1517 18.1562 10.5964C18.438 11.041 18.5795 11.5601 18.5625 12.0863C18.5409 12.7527 18.2665 13.386 17.795 13.8575C17.3235 14.329 16.6902 14.6034 16.0238 14.625Z" fill="#888888"/>
</svg>
