<svg width="24" height="24" viewBox="0 0 24 24" fill="none" xmlns="http://www.w3.org/2000/svg">
<path d="M18.7392 9.51562C18.7017 8.71406 18.5845 7.89844 18.233 7.16719C18.0402 6.76258 17.7785 6.3946 17.4595 6.07969C17.1606 5.78359 16.825 5.52684 16.4611 5.31563C15.6595 4.8375 14.7033 4.51875 12.5048 3.8625C10.3064 3.20625 9 3 9 3V19.7953L12.7453 21C12.7453 21 12.75 11.6812 12.75 6.96094V6.78281C12.75 6.34687 13.1016 5.99531 13.5047 5.99531H13.5281C13.9266 5.99531 14.2547 6.34687 14.2547 6.78281V13.0312C14.7703 13.2797 15.6234 13.4672 16.2141 13.4578C16.606 13.4687 16.9939 13.3766 17.3391 13.1906C17.6953 12.9936 17.9929 12.7057 18.2016 12.3563C18.4343 11.9622 18.5917 11.5282 18.6656 11.0766C18.7533 10.5703 18.758 10.0406 18.7392 9.51562Z" fill="#888888"/>
<path d="M4.06269 16.7723C5.34707 16.3129 8.24863 15.3894 8.24863 15.3894V13.1769C8.24863 13.1769 4.66269 14.3394 3.03144 14.916C2.62832 15.0613 2.22051 15.1926 1.82676 15.3613C1.36738 15.5535 0.917381 15.7691 0.509569 16.0551C0.326609 16.1721 0.177835 16.3354 0.0783186 16.5285C0.0316736 16.6277 0.00555351 16.7353 0.00152599 16.8449C-0.00250153 16.9544 0.0156466 17.0636 0.0548811 17.166C0.148631 17.4051 0.326756 17.6019 0.528319 17.7566C0.893944 18.0332 1.32988 18.2019 1.76582 18.3285C3.10125 18.7718 4.50283 18.9827 5.90957 18.9519C6.58926 18.9426 7.59707 18.8629 8.25332 18.7457V16.7769C8.25332 16.7769 7.73769 16.8941 6.31738 17.3629C6.10176 17.4332 5.88613 17.5176 5.66113 17.5644C5.32811 17.6338 4.98879 17.6683 4.64863 17.6676C4.34394 17.6535 4.02988 17.6348 3.74394 17.5223C3.64082 17.4754 3.52832 17.4191 3.48613 17.3066C3.44863 17.2129 3.50019 17.1191 3.56582 17.0535C3.69707 16.9176 3.88457 16.8426 4.06269 16.7723Z" fill="#888888"/>
<path d="M24 16.2144C23.9953 15.9332 23.8266 15.6894 23.6297 15.5113C23.2969 15.216 22.8844 15.0285 22.4719 14.8785C22.2141 14.7894 22.0359 14.7238 21.7828 14.6441C20.6016 14.2598 19.35 14.1191 18.1125 14.1144C17.7375 14.1285 17.0297 14.1379 16.6594 14.1801C15.6328 14.2973 13.5047 14.9019 13.5047 14.9019V17.1894C13.5047 17.1894 16.6688 16.1769 18.0281 15.6988C18.4867 15.5501 18.9664 15.4772 19.4484 15.4832C19.7531 15.4926 20.0672 15.516 20.3578 15.6285C20.4609 15.6707 20.5687 15.7316 20.6156 15.8394C20.6578 15.9613 20.5734 16.0738 20.4797 16.1441C20.2594 16.3223 19.9781 16.3926 19.7203 16.491C17.7984 17.1707 13.5 18.5863 13.5 18.5863V20.7894C13.5 20.7894 18.9937 18.9332 21.5062 18.0332C21.9234 17.8785 22.3453 17.7473 22.7438 17.5457C23.1141 17.3582 23.4844 17.1426 23.7656 16.8285C23.9163 16.6594 23.9997 16.4409 24 16.2144Z" fill="#888888"/>
</svg>
