<svg width="24" height="24" viewBox="0 0 24 24" fill="none" xmlns="http://www.w3.org/2000/svg">
<path d="M23.25 5.1327C22.406 5.49943 21.513 5.74103 20.5992 5.84989C21.5595 5.28756 22.2817 4.39421 22.6303 3.33739C21.7224 3.86829 20.7307 4.24079 19.6978 4.43895C19.2629 3.9831 18.7397 3.62047 18.1603 3.37308C17.5808 3.12569 16.9571 2.99872 16.327 2.99989C13.7761 2.99989 11.7117 5.03426 11.7117 7.54207C11.7099 7.8909 11.7499 8.23869 11.8308 8.57801C10.0016 8.49226 8.2104 8.02563 6.57187 7.20797C4.93333 6.39032 3.48351 5.23965 2.31516 3.82957C1.90527 4.52057 1.6885 5.30897 1.6875 6.11239C1.6875 7.68739 2.50922 9.07957 3.75 9.8952C3.01487 9.87775 2.29481 9.68318 1.65094 9.32801V9.38426C1.65094 11.5874 3.24469 13.4202 5.35406 13.8374C4.9574 13.9431 4.54864 13.9967 4.13812 13.9968C3.84683 13.9973 3.5562 13.969 3.27047 13.9124C3.85687 15.7171 5.56359 17.0296 7.58531 17.0671C5.94252 18.3331 3.9256 19.0174 1.85156 19.0124C1.48341 19.0118 1.11561 18.9899 0.75 18.9468C2.85993 20.2941 5.31255 21.0067 7.81594 20.9999C16.3172 20.9999 20.9616 14.0764 20.9616 8.07176C20.9616 7.87489 20.9564 7.67801 20.947 7.48582C21.8485 6.8446 22.6283 6.04775 23.25 5.1327Z" fill="#888888"/>
</svg>
