<svg width="24" height="24" viewBox="0 0 24 24" fill="none" xmlns="http://www.w3.org/2000/svg">
<path d="M15.1875 12C14.8537 12 14.5275 12.099 14.25 12.2844C13.9725 12.4698 13.7562 12.7334 13.6285 13.0417C13.5007 13.3501 13.4673 13.6894 13.5324 14.0167C13.5975 14.3441 13.7583 14.6447 13.9943 14.8807C14.2303 15.1168 14.5309 15.2775 14.8583 15.3426C15.1856 15.4077 15.5249 15.3743 15.8333 15.2466C16.1416 15.1188 16.4052 14.9025 16.5906 14.625C16.776 14.3475 16.875 14.0213 16.875 13.6875C16.875 13.2399 16.6972 12.8107 16.3807 12.4943C16.0643 12.1778 15.6351 12 15.1875 12Z" fill="#888888"/>
<path d="M9.45852 15.2462C10.3196 14.8895 10.7284 13.9024 10.3718 13.0414C10.0151 12.1803 9.028 11.7714 8.16696 12.1281C7.30592 12.4847 6.89704 13.4719 7.25369 14.3329C7.61034 15.194 8.59748 15.6028 9.45852 15.2462Z" fill="#888888"/>
<path d="M23.2499 11.8955C23.2499 10.4334 22.0715 9.24422 20.6249 9.24422C20.0152 9.24417 19.4247 9.45742 18.9557 9.84703C17.3151 8.73281 15.1691 8.05078 12.8783 7.9125L13.9096 4.20938L17.0226 4.82812C17.1116 6.06938 18.1476 7.05422 19.3968 7.05422C20.7093 7.05422 21.7771 5.97609 21.7771 4.65375C21.7771 3.33141 20.6718 2.25 19.3593 2.25C18.4438 2.25 17.6572 2.77453 17.2569 3.59859L13.0382 2.76L11.5804 7.89375L11.3633 7.89984C8.99006 8.00344 6.75365 8.69344 5.046 9.84656C4.57713 9.45552 3.98544 9.24224 3.3749 9.24422C1.92694 9.24422 0.749904 10.4334 0.749904 11.8955C0.747837 12.3608 0.868572 12.8185 1.09992 13.2223C1.33127 13.626 1.66505 13.9616 2.06756 14.1952C2.03953 14.4024 2.02559 14.6113 2.02584 14.8205C2.031 16.6833 3.08006 18.4298 4.97897 19.7423C6.86053 21.0361 9.35193 21.75 11.9999 21.75C14.6479 21.75 17.1449 21.0361 19.0232 19.7395C20.923 18.427 21.9693 16.68 21.9693 14.8148C21.9688 14.6064 21.9557 14.3982 21.9299 14.1914C22.3326 13.9589 22.6668 13.6241 22.8986 13.2209C23.1304 12.8178 23.2516 12.3605 23.2499 11.8955ZM19.4062 3.51562C19.6287 3.51562 19.8462 3.58161 20.0312 3.70522C20.2162 3.82884 20.3604 4.00454 20.4455 4.21011C20.5307 4.41567 20.5529 4.64187 20.5095 4.8601C20.4661 5.07833 20.359 5.27879 20.2016 5.43612C20.0443 5.59345 19.8439 5.7006 19.6256 5.74401C19.4074 5.78742 19.1812 5.76514 18.9756 5.67999C18.7701 5.59484 18.5944 5.45065 18.4707 5.26564C18.3471 5.08064 18.2812 4.86313 18.2812 4.64062C18.2812 4.34226 18.3997 4.05611 18.6107 3.84513C18.8216 3.63415 19.1078 3.51562 19.4062 3.51562ZM2.0024 11.8955C2.00103 11.528 2.14545 11.1751 2.40398 10.914C2.66252 10.6529 3.01405 10.505 3.38147 10.5028C3.60424 10.5033 3.82348 10.5585 4.0199 10.6636C3.29334 11.3391 2.75756 12.0891 2.42287 12.8986C2.29017 12.7673 2.18472 12.6111 2.11256 12.439C2.0404 12.2668 2.00297 12.0821 2.0024 11.8955ZM18.3196 18.7031C16.6443 19.8558 14.4008 20.4909 12.0022 20.4909C9.60365 20.4909 7.35928 19.8567 5.68537 18.7031C4.1385 17.6348 3.2835 16.2534 3.2835 14.8125C3.28436 14.3759 3.36293 13.9429 3.51553 13.5338C3.78178 12.7959 4.27303 12.105 4.97569 11.4811C5.19522 11.2872 5.42626 11.1067 5.66756 10.9406L5.68162 10.9308L5.69287 10.9228C7.36725 9.77344 9.60787 9.14156 12.0027 9.14156C14.3976 9.14156 16.6387 9.77484 18.313 10.9228L18.3238 10.9308L18.3397 10.9425C18.5807 11.1079 18.8116 11.2876 19.0312 11.4806C19.7343 12.105 20.2255 12.7955 20.4918 13.5342C20.5884 13.8023 20.6561 14.08 20.6938 14.3625C20.7126 14.5125 20.722 14.6636 20.7219 14.8148C20.7215 16.2548 19.8683 17.6362 18.3196 18.7031ZM21.5821 12.8944C21.2479 12.0844 20.7121 11.3339 19.9851 10.6575C20.1823 10.5535 20.402 10.4994 20.6249 10.5C20.9923 10.5022 21.3438 10.6501 21.6022 10.9112C21.8607 11.1723 22.005 11.5253 22.0035 11.8927C22.0032 12.0794 21.9657 12.2641 21.8934 12.4363C21.8211 12.6084 21.7152 12.7644 21.5821 12.8953V12.8944Z" fill="#888888"/>
<path d="M15.1515 16.9791C15.1398 16.9908 13.9534 18.2011 12.0038 18.2105C10.0351 18.2011 8.89695 17.0278 8.84867 16.9791C8.81233 16.943 8.76322 16.9228 8.71203 16.9228C8.66085 16.9228 8.61174 16.943 8.57539 16.9791L7.9332 17.6105C7.91499 17.6286 7.90054 17.6501 7.89067 17.6737C7.88081 17.6974 7.87573 17.7229 7.87573 17.7485C7.87573 17.7742 7.88081 17.7996 7.89067 17.8233C7.90054 17.847 7.91499 17.8685 7.9332 17.8866C8.09258 18.0459 9.55977 19.4911 12.001 19.5014C14.4357 19.4911 15.9095 18.0459 16.0688 17.8866C16.0871 17.8684 16.1015 17.8469 16.1114 17.8232C16.1213 17.7994 16.1263 17.774 16.1263 17.7483C16.1263 17.7226 16.1213 17.6971 16.1114 17.6734C16.1015 17.6497 16.0871 17.6281 16.0688 17.61L15.4262 16.9786C15.3899 16.9427 15.341 16.9226 15.29 16.9226C15.239 16.9226 15.1901 16.9427 15.1538 16.9786L15.1515 16.9791Z" fill="#888888"/>
</svg>
