<svg width="24" height="24" viewBox="0 0 24 24" fill="none" xmlns="http://www.w3.org/2000/svg">
<path d="M23.2501 6.00287C23.2509 5.4249 23.0848 4.859 22.7717 4.37321C22.4585 3.88741 22.0118 3.50241 21.485 3.2645C20.9583 3.02658 20.3741 2.94589 19.8026 3.03211C19.2311 3.11833 18.6966 3.3678 18.2635 3.75053C18.0291 3.95735 17.8281 4.19929 17.6678 4.46771V4.47053C17.6425 4.51271 17.6185 4.55584 17.5951 4.59896L17.5839 4.62193C17.5642 4.65896 17.5459 4.69646 17.5281 4.73443C17.5225 4.74615 17.5173 4.75787 17.5121 4.76959C17.4967 4.80381 17.4817 4.83849 17.4676 4.87365C17.4615 4.88818 17.4559 4.90271 17.4503 4.91724C17.4376 4.95006 17.4254 4.98287 17.4137 5.01615L17.3968 5.06584C17.3865 5.09771 17.3767 5.13006 17.3673 5.1624C17.3617 5.18068 17.3565 5.19849 17.3518 5.21678C17.3429 5.24818 17.3354 5.28006 17.3279 5.31053C17.3232 5.32974 17.3185 5.34896 17.3143 5.36818C17.3078 5.40006 17.3017 5.4324 17.296 5.46193C17.2923 5.48162 17.2885 5.50131 17.2853 5.52099C17.2801 5.55381 17.2759 5.58709 17.2717 5.62037C17.2693 5.63959 17.2665 5.65881 17.2642 5.67849C17.2604 5.71459 17.2581 5.75068 17.2553 5.78724C17.2553 5.80412 17.2525 5.82099 17.2515 5.83787C17.2487 5.89131 17.2468 5.94474 17.2468 5.99912C17.2468 6.04599 17.2468 6.09287 17.2506 6.13693V6.16693C17.2531 6.21099 17.2564 6.25506 17.2604 6.29912L17.2632 6.32162C17.2675 6.36146 17.2721 6.40084 17.2782 6.43974C17.2782 6.44771 17.2782 6.45615 17.2815 6.46412C17.2881 6.50677 17.296 6.54896 17.3045 6.59115C17.3045 6.60146 17.3087 6.61131 17.3106 6.62162C17.319 6.66193 17.3284 6.70224 17.3387 6.74209C17.3387 6.74537 17.3387 6.74818 17.3387 6.75099C17.3495 6.79271 17.3612 6.83349 17.3739 6.87427L17.3837 6.90615C17.3964 6.94599 17.4095 6.9849 17.4235 7.02381C17.4264 7.03224 17.4296 7.04068 17.4329 7.04912C17.4456 7.0824 17.4587 7.11568 17.4723 7.14849C17.476 7.15834 17.4798 7.16771 17.484 7.17709C17.5 7.21412 17.5164 7.25115 17.5337 7.28771L17.5492 7.31912C17.5656 7.35193 17.582 7.38474 17.5993 7.41709C17.844 7.87183 18.2014 8.25613 18.6371 8.53318C18.7515 8.60626 18.8709 8.67126 18.9943 8.72771L19.0126 8.73615C19.0957 8.77365 19.1806 8.8074 19.2671 8.8374L19.3117 8.8524L19.382 8.87443C19.4031 8.88099 19.4242 8.88662 19.4457 8.89271L19.5357 8.91615L19.6168 8.9349L19.6707 8.94568L19.7565 8.96115L19.8006 8.96818C19.8428 8.97428 19.8854 8.9799 19.9281 8.98459L19.9642 8.98787C19.9984 8.99068 20.0331 8.99349 20.0678 8.99537L20.1081 8.99771C20.155 8.99771 20.199 9.00146 20.245 9.00146C20.2993 9.00146 20.3528 9.00146 20.4062 8.99677L20.4568 8.99302C20.4934 8.99021 20.5295 8.98787 20.5656 8.98412L20.6242 8.97662C20.657 8.9724 20.6903 8.96818 20.7231 8.96303L20.7821 8.95224C20.814 8.94662 20.8464 8.94053 20.8759 8.93396L20.9335 8.92037C20.9654 8.91287 20.9973 8.90537 21.0273 8.89646C21.0456 8.89178 21.0634 8.88662 21.0817 8.88099C21.114 8.87162 21.1464 8.86178 21.1782 8.85146L21.2279 8.83459C21.2612 8.82287 21.294 8.81068 21.3268 8.79802L21.3704 8.78068C21.4056 8.76662 21.4403 8.75162 21.4745 8.73615L21.5096 8.72021C21.5476 8.7024 21.5851 8.68412 21.6221 8.66443L21.6451 8.65318C21.6882 8.62974 21.7314 8.60631 21.7735 8.58052H21.7764C22.0469 8.42147 22.2911 8.22126 22.5001 7.98709C22.9841 7.43952 23.2509 6.73369 23.2501 6.00287Z" fill="#888888"/>
<path d="M17.4084 9.49359L12.4603 13.342C12.3287 13.4444 12.1667 13.4999 12 13.4999C11.8333 13.4999 11.6713 13.4444 11.5397 13.342L4.78969 8.09203C4.71038 8.03214 4.64377 7.95709 4.59372 7.87123C4.54367 7.78537 4.51118 7.69042 4.49815 7.5919C4.48511 7.49338 4.49179 7.39325 4.51778 7.29733C4.54378 7.20142 4.58858 7.11162 4.64958 7.03316C4.71058 6.95471 4.78656 6.88916 4.87312 6.84032C4.95967 6.79149 5.05506 6.76034 5.15376 6.74869C5.25245 6.73704 5.35248 6.74513 5.44802 6.77247C5.54357 6.79981 5.63272 6.84587 5.71031 6.90797L12 11.7998L16.4166 8.36484C15.9892 7.67351 15.7574 6.87922 15.7457 6.06656C15.7341 5.25389 15.9431 4.45329 16.3505 3.75H4.125C3.42904 3.75074 2.76179 4.02755 2.26967 4.51967C1.77755 5.01179 1.50074 5.67904 1.5 6.375V17.625C1.50074 18.321 1.77755 18.9882 2.26967 19.4803C2.76179 19.9725 3.42904 20.2493 4.125 20.25H19.875C20.571 20.2493 21.2382 19.9725 21.7303 19.4803C22.2225 18.9882 22.4993 18.321 22.5 17.625V9.89953C21.7105 10.3569 20.8004 10.563 19.8909 10.4904C18.9814 10.4179 18.1155 10.0702 17.4084 9.49359Z" fill="#888888"/>
</svg>
