<svg width="24" height="24" viewBox="0 0 24 24" fill="none" xmlns="http://www.w3.org/2000/svg">
<path d="M20.7188 2.25H16.5C16.2265 2.25 15.9642 2.35865 15.7708 2.55205C15.5774 2.74544 15.4688 3.00775 15.4688 3.28125C15.4688 3.55475 15.5774 3.81706 15.7708 4.01045C15.9642 4.20385 16.2265 4.3125 16.5 4.3125H18.2293L15.3985 7.14328C12.2021 4.66547 7.57036 4.89328 4.63879 7.82625C1.45879 11.0067 1.45879 16.1808 4.64067 19.3594C6.1714 20.8855 8.24476 21.7425 10.4063 21.7425C12.5678 21.7425 14.6412 20.8855 16.1719 19.3594C19.1049 16.4259 19.3327 11.7961 16.8549 8.59969L19.6875 5.77078V7.5C19.6875 7.7735 19.7962 8.03581 19.9896 8.2292C20.183 8.4226 20.4453 8.53125 20.7188 8.53125C20.9923 8.53125 21.2546 8.4226 21.448 8.2292C21.6414 8.03581 21.75 7.7735 21.75 7.5V3.28125C21.75 3.14582 21.7234 3.01172 21.6715 2.88661C21.6197 2.76149 21.5438 2.64781 21.448 2.55205C21.3522 2.45629 21.2386 2.38032 21.1134 2.3285C20.9883 2.27667 20.8542 2.25 20.7188 2.25ZM14.715 17.9025C13.5715 19.0437 12.0219 19.6846 10.4063 19.6846C8.79071 19.6846 7.24112 19.0437 6.09754 17.9025C3.72145 15.5269 3.72145 11.6606 6.09754 9.285C8.47364 6.90938 12.3394 6.90891 14.715 9.285C17.0907 11.6611 17.0911 15.5269 14.715 17.9025Z" fill="#888888"/>
</svg>
