<svg width="24" height="24" viewBox="0 0 24 24" fill="none" xmlns="http://www.w3.org/2000/svg">
<path d="M19.9688 0.75H16.5C16.2265 0.75 15.9642 0.858649 15.7708 1.05205C15.5774 1.24544 15.4688 1.50775 15.4688 1.78125C15.4688 2.05475 15.5774 2.31706 15.7708 2.51045C15.9642 2.70385 16.2265 2.8125 16.5 2.8125H17.4792L15.7402 4.55109C15.046 3.74091 14.1847 3.0906 13.2155 2.64483C12.2462 2.19907 11.1919 1.96843 10.125 1.96875C6.04125 1.96875 2.71875 5.29125 2.71875 9.375C2.71875 13.1091 5.49656 16.2056 9.09375 16.7091V18.4688H7.78125C7.50775 18.4688 7.24544 18.5774 7.05205 18.7708C6.85865 18.9642 6.75 19.2265 6.75 19.5C6.75 19.7735 6.85865 20.0358 7.05205 20.2292C7.24544 20.4226 7.50775 20.5312 7.78125 20.5312H9.09375V22.2188C9.09375 22.4923 9.2024 22.7546 9.3958 22.948C9.58919 23.1413 9.8515 23.25 10.125 23.25C10.3985 23.25 10.6608 23.1413 10.8542 22.948C11.0476 22.7546 11.1562 22.4923 11.1562 22.2188V20.5312H12.4688C12.7423 20.5312 13.0046 20.4226 13.198 20.2292C13.3913 20.0358 13.5 19.7735 13.5 19.5C13.5 19.2265 13.3913 18.9642 13.198 18.7708C13.0046 18.5774 12.7423 18.4688 12.4688 18.4688H11.1562V16.7091C14.7534 16.2056 17.5312 13.1091 17.5312 9.375C17.5318 8.32546 17.308 7.28792 16.875 6.33187L18.9375 4.26938V5.25C18.9375 5.5235 19.0462 5.78581 19.2395 5.9792C19.4329 6.1726 19.6952 6.28125 19.9688 6.28125C20.2423 6.28125 20.5046 6.1726 20.698 5.9792C20.8913 5.78581 21 5.5235 21 5.25V1.78125C21 1.50775 20.8913 1.24544 20.698 1.05205C20.5046 0.858649 20.2423 0.75 19.9688 0.75ZM10.125 14.7188C9.06811 14.7188 8.03495 14.4053 7.15617 13.8182C6.2774 13.231 5.59247 12.3964 5.18802 11.42C4.78356 10.4435 4.67774 9.36907 4.88393 8.33249C5.09012 7.2959 5.59906 6.34373 6.3464 5.5964C7.09374 4.84906 8.0459 4.34012 9.08249 4.13393C10.1191 3.92774 11.1935 4.03356 12.17 4.43802C13.1464 4.84247 13.981 5.5274 14.5682 6.40617C15.1553 7.28495 15.4688 8.31811 15.4688 9.375C15.4671 10.7918 14.9036 12.15 13.9018 13.1518C12.9 14.1536 11.5418 14.7171 10.125 14.7188Z" fill="#888888"/>
</svg>
