<svg width="24" height="24" viewBox="0 0 24 24" fill="none" xmlns="http://www.w3.org/2000/svg">
<path d="M20.153 8.16891L19.3809 6.82875C19.2849 6.66186 19.1265 6.53996 18.9406 6.48985C18.7546 6.43974 18.5564 6.46554 18.3895 6.56156L13.7775 9.23344C13.7489 9.24997 13.7164 9.25863 13.6833 9.25856C13.6503 9.25849 13.6178 9.24968 13.5893 9.23302C13.5607 9.21636 13.5371 9.19246 13.5207 9.16372C13.5044 9.13498 13.496 9.10243 13.4963 9.06937L13.5 3.75C13.5 3.55109 13.421 3.36032 13.2803 3.21967C13.1397 3.07902 12.9489 3 12.75 3H11.25C11.0511 3 10.8603 3.07902 10.7197 3.21967C10.579 3.36032 10.5 3.55109 10.5 3.75L10.5033 9.07359C10.5036 9.10665 10.4951 9.1392 10.4788 9.16793C10.4625 9.19667 10.4388 9.22058 10.4103 9.23724C10.3817 9.2539 10.3493 9.26271 10.3162 9.26278C10.2831 9.26285 10.2507 9.25419 10.222 9.23766L5.61 6.56578C5.4431 6.46976 5.24489 6.44396 5.05897 6.49407C4.87305 6.54417 4.71464 6.66608 4.61859 6.83297L3.84703 8.17359C3.7994 8.256 3.76851 8.347 3.75613 8.44137C3.74376 8.53575 3.75015 8.63163 3.77493 8.72353C3.79971 8.81543 3.8424 8.90153 3.90054 8.97689C3.95869 9.05224 4.03114 9.11537 4.11375 9.16266L8.73047 11.8383C8.75866 11.8548 8.78204 11.8785 8.79829 11.9068C8.81454 11.9352 8.82308 11.9673 8.82308 12C8.82308 12.0327 8.81454 12.0648 8.79829 12.0932C8.78204 12.1215 8.75866 12.1452 8.73047 12.1617L4.11375 14.8373C3.94804 14.9339 3.8271 15.0919 3.77717 15.2771C3.72723 15.4622 3.75234 15.6596 3.84703 15.8264L4.61906 17.1666C4.71511 17.3335 4.87351 17.4554 5.05944 17.5055C5.24536 17.5556 5.44357 17.5298 5.61047 17.4338L10.2225 14.7619C10.2511 14.7453 10.2836 14.7367 10.3167 14.7368C10.3497 14.7368 10.3822 14.7456 10.4107 14.7623C10.4393 14.7789 10.4629 14.8029 10.4793 14.8316C10.4956 14.8603 10.504 14.8929 10.5038 14.9259L10.5 20.25C10.5 20.4489 10.579 20.6397 10.7197 20.7803C10.8603 20.921 11.0511 21 11.25 21H12.75C12.9489 21 13.1397 20.921 13.2803 20.7803C13.421 20.6397 13.5 20.4489 13.5 20.25L13.4967 14.9217C13.4964 14.8887 13.5049 14.8561 13.5212 14.8274C13.5375 14.7986 13.5612 14.7747 13.5897 14.7581C13.6183 14.7414 13.6507 14.7326 13.6838 14.7325C13.7169 14.7325 13.7493 14.7411 13.778 14.7577L18.39 17.4295C18.5569 17.5256 18.7551 17.5513 18.941 17.5012C19.127 17.4511 19.2854 17.3292 19.3814 17.1623L20.1534 15.8222C20.2011 15.7398 20.232 15.6488 20.2443 15.5544C20.2567 15.46 20.2503 15.3641 20.2255 15.2722C20.2008 15.1804 20.1581 15.0943 20.0999 15.0189C20.0418 14.9435 19.9693 14.8804 19.8867 14.8331L15.27 12.1575C15.2418 12.141 15.2184 12.1173 15.2022 12.089C15.1859 12.0606 15.1774 12.0285 15.1774 11.9958C15.1774 11.9631 15.1859 11.931 15.2022 11.9026C15.2184 11.8742 15.2418 11.8506 15.27 11.8341L19.8867 9.15844C20.0528 9.06207 20.1739 8.90394 20.2238 8.71855C20.2737 8.53317 20.2482 8.33558 20.153 8.16891V8.16891Z" stroke="#888888" stroke-linecap="round" stroke-linejoin="round"/>
</svg>
