<svg width="24" height="24" viewBox="0 0 24 24" fill="none" xmlns="http://www.w3.org/2000/svg">
<path d="M12.75 21.75H11.25C10.8522 21.75 10.4706 21.592 10.1893 21.3107C9.90804 21.0294 9.75 20.6478 9.75 20.25L9.75235 16.2272C9.7524 16.1943 9.74377 16.1619 9.72733 16.1333C9.71089 16.1048 9.68723 16.0811 9.65872 16.0646C9.63021 16.0481 9.59785 16.0394 9.56492 16.0394C9.53198 16.0394 9.49962 16.0481 9.4711 16.0645L5.98641 18.083C5.64751 18.2786 5.24477 18.3316 4.86677 18.2304C4.48878 18.1291 4.16648 17.8818 3.97079 17.543L3.19735 16.2005L3.19454 16.1958C3.00411 15.857 2.95419 15.4571 3.05552 15.0819C3.15685 14.7068 3.40133 14.3863 3.73641 14.1895L7.23375 12.1622C7.26217 12.1457 7.28575 12.122 7.30215 12.0936C7.31854 12.0651 7.32717 12.0328 7.32717 12C7.32717 11.9672 7.31854 11.9349 7.30215 11.9064C7.28575 11.878 7.26217 11.8543 7.23375 11.8378L3.73969 9.81234C3.57146 9.71587 3.42394 9.58712 3.30561 9.43348C3.18728 9.27983 3.10047 9.10432 3.05016 8.91703C2.99985 8.72974 2.98704 8.53435 3.01246 8.3421C3.03788 8.14984 3.10103 7.9645 3.19829 7.79672L3.96891 6.45844C4.06629 6.28925 4.19626 6.14106 4.35132 6.02246C4.50637 5.90385 4.68341 5.8172 4.87219 5.7675C5.05882 5.71742 5.25354 5.70488 5.44505 5.73063C5.63655 5.75638 5.82104 5.8199 5.98782 5.9175L9.4711 7.93313C9.49962 7.94959 9.53198 7.95826 9.56492 7.95825C9.59785 7.95823 9.63021 7.94955 9.65872 7.93306C9.68723 7.91657 9.71089 7.89286 9.72733 7.86432C9.74377 7.83577 9.7524 7.80341 9.75235 7.77047L9.75 3.75C9.75 3.35218 9.90804 2.97064 10.1893 2.68934C10.4706 2.40804 10.8522 2.25 11.25 2.25H12.75C13.1478 2.25 13.5294 2.40804 13.8107 2.68934C14.092 2.97064 14.25 3.35218 14.25 3.75V7.76813C14.25 7.80106 14.2586 7.83343 14.275 7.86197C14.2915 7.89051 14.3151 7.91422 14.3436 7.93071C14.3721 7.9472 14.4045 7.95589 14.4374 7.9559C14.4704 7.95591 14.5027 7.94725 14.5313 7.93078L18.0159 5.91234C18.3549 5.71707 18.7575 5.66426 19.1354 5.7655C19.5133 5.86673 19.8356 6.11375 20.0316 6.45234L20.8045 7.79484L20.8074 7.79906C21 8.13816 21.0507 8.53966 20.9485 8.91601C20.8463 9.29236 20.5994 9.61304 20.2617 9.80813L16.7681 11.8331C16.7397 11.8496 16.7161 11.8733 16.6997 11.9017C16.6833 11.9302 16.6747 11.9625 16.6747 11.9953C16.6747 12.0282 16.6833 12.0604 16.6997 12.0889C16.7161 12.1174 16.7397 12.141 16.7681 12.1575L20.2617 14.1825C20.43 14.279 20.5775 14.4077 20.6958 14.5614C20.8142 14.715 20.901 14.8905 20.9513 15.0778C21.0017 15.265 21.0146 15.4604 20.9892 15.6527C20.9638 15.8449 20.9008 16.0303 20.8036 16.1981L20.033 17.5364C19.9356 17.7056 19.8056 17.8538 19.6506 17.9724C19.4955 18.091 19.3185 18.1776 19.1297 18.2273C18.9431 18.2774 18.7483 18.29 18.5568 18.2642C18.3653 18.2385 18.1808 18.1749 18.0141 18.0773L14.5308 16.0617C14.5023 16.0453 14.47 16.0366 14.4371 16.0366C14.4042 16.0366 14.3719 16.0452 14.3434 16.0617C14.3149 16.0781 14.2912 16.1017 14.2747 16.1302C14.2583 16.1587 14.2496 16.191 14.2495 16.2239L14.25 20.25C14.25 20.6478 14.092 21.0294 13.8107 21.3107C13.5294 21.592 13.1478 21.75 12.75 21.75Z" fill="#888888"/>
</svg>
