<svg width="24" height="24" viewBox="0 0 24 24" fill="none" xmlns="http://www.w3.org/2000/svg">
<path d="M21 12C21 7.03125 16.9688 3 12 3C7.03125 3 3 7.03125 3 12C3 16.9688 7.03125 21 12 21C16.9688 21 21 16.9688 21 12Z" stroke="#888888" stroke-miterlimit="10"/>
<path d="M10.5 17.25H13.5" stroke="#888888" stroke-linecap="round" stroke-linejoin="round"/>
<path d="M15.75 10.5143V11.6355C15.75 13.4833 13.8478 14.9861 12 14.9861C10.1522 14.9861 8.25 13.4833 8.25 11.6355V10.5143" stroke="#888888" stroke-linecap="round" stroke-linejoin="round"/>
<path d="M12 15V17.25" stroke="#888888" stroke-linecap="round" stroke-linejoin="round"/>
<path d="M14.25 8.25C14.25 7.00736 13.2426 6 12 6C10.7574 6 9.75 7.00736 9.75 8.25V11.25C9.75 12.4926 10.7574 13.5 12 13.5C13.2426 13.5 14.25 12.4926 14.25 11.25V8.25Z" fill="#888888"/>
</svg>
