<svg width="24" height="24" viewBox="0 0 24 24" fill="none" xmlns="http://www.w3.org/2000/svg">
<path d="M12 2.25C6.62391 2.25 2.25 6.62391 2.25 12C2.25 17.3761 6.62391 21.75 12 21.75C17.3761 21.75 21.75 17.3761 21.75 12C21.75 6.62391 17.3761 2.25 12 2.25ZM12 6C12.5962 6.00173 13.1675 6.23934 13.5891 6.66092C14.0107 7.0825 14.2483 7.6538 14.25 8.25V11.25C14.2499 11.3711 14.2401 11.4919 14.2205 11.6114C14.2175 11.6288 14.2097 11.645 14.198 11.6581C14.1862 11.6713 14.171 11.6808 14.1541 11.6857C14.1371 11.6906 14.1192 11.6906 14.1022 11.6858C14.0853 11.6809 14.0701 11.6714 14.0583 11.6583L10.1011 7.30547C10.0738 7.27558 10.0569 7.23764 10.0529 7.19734C10.0489 7.15703 10.0581 7.11652 10.0791 7.08187C10.2798 6.75212 10.5619 6.47946 10.8982 6.29002C11.2346 6.10058 11.614 6.00072 12 6ZM13.5 18H10.5211C10.1175 18 9.77109 17.6897 9.75094 17.2861C9.74605 17.1847 9.76181 17.0833 9.79724 16.9882C9.83268 16.8931 9.88707 16.8061 9.9571 16.7326C10.0271 16.6591 10.1114 16.6006 10.2047 16.5606C10.298 16.5206 10.3985 16.5 10.5 16.5H11.25V15.6684C10.3972 15.5152 9.60078 15.1369 8.94328 14.5725C8.01281 13.7733 7.5 12.7303 7.5 11.6353V10.5C7.49939 10.3998 7.51898 10.3005 7.5576 10.208C7.59623 10.1155 7.6531 10.0318 7.72481 9.96178C7.79652 9.89178 7.8816 9.83694 7.97498 9.80056C8.06836 9.76417 8.16811 9.74697 8.26828 9.75C8.46624 9.75791 8.65334 9.84259 8.78993 9.98609C8.92652 10.1296 9.00186 10.3206 9 10.5187V11.6353C9 12.8381 10.3125 14.2359 12 14.2359C12.0783 14.2359 12.158 14.2317 12.2372 14.2247C12.2658 14.2221 12.2947 14.2262 12.3215 14.2367C12.3482 14.2472 12.3722 14.2638 12.3914 14.2852L13.3791 15.3722C13.3897 15.3839 13.3972 15.398 13.401 15.4134C13.4047 15.4288 13.4044 15.4448 13.4003 15.4601C13.3961 15.4753 13.3881 15.4893 13.3771 15.5006C13.3661 15.512 13.3525 15.5204 13.3373 15.525C13.1448 15.5854 12.9487 15.6333 12.75 15.6684V16.5H13.4789C13.8825 16.5 14.2289 16.8103 14.2491 17.2139C14.2539 17.3153 14.2382 17.4167 14.2028 17.5118C14.1673 17.6069 14.1129 17.6939 14.0429 17.7674C13.9729 17.8409 13.8886 17.8994 13.7953 17.9394C13.702 17.9794 13.6015 18 13.5 18ZM9.84891 11.4886L11.558 13.3688C11.5648 13.3761 11.5692 13.3854 11.5704 13.3954C11.5715 13.4053 11.5695 13.4154 11.5645 13.4241C11.5595 13.4328 11.5519 13.4397 11.5427 13.4438C11.5335 13.4478 11.5232 13.4488 11.5134 13.4466C11.0603 13.3443 10.6496 13.1049 10.3372 12.7611C10.0248 12.4172 9.82583 11.9856 9.76734 11.5247C9.76632 11.5148 9.76844 11.5049 9.77341 11.4963C9.77838 11.4878 9.78594 11.481 9.795 11.477C9.80406 11.473 9.81416 11.4719 9.82384 11.474C9.83353 11.4761 9.8423 11.4812 9.84891 11.4886ZM17.0044 17.1019C16.8572 17.2356 16.6629 17.3054 16.4642 17.2959C16.2655 17.2865 16.0788 17.1984 15.945 17.0513L6.945 7.2075C6.81403 7.05987 6.74653 6.86656 6.75713 6.66949C6.76773 6.47242 6.85558 6.28747 7.00164 6.15474C7.14769 6.02201 7.34017 5.9522 7.53736 5.96043C7.73454 5.96867 7.92053 6.0543 8.055 6.19875L17.055 16.0425C17.1888 16.1897 17.2586 16.384 17.2491 16.5827C17.2396 16.7813 17.1516 16.9681 17.0044 17.1019ZM16.5 11.6353C16.4971 12.3137 16.3033 12.9776 15.9408 13.5511C15.9332 13.5635 15.9228 13.574 15.9104 13.5818C15.8981 13.5895 15.8841 13.5942 15.8695 13.5956C15.855 13.597 15.8404 13.5949 15.8268 13.5896C15.8132 13.5843 15.801 13.576 15.7913 13.5652L14.8917 12.5761C14.8682 12.5502 14.8523 12.5182 14.846 12.4837C14.8397 12.4492 14.8432 12.4137 14.8561 12.3811C14.9505 12.1438 14.9993 11.8907 15 11.6353V10.5197C14.9982 10.3374 15.0617 10.1605 15.179 10.0209C15.2962 9.88126 15.4595 9.78818 15.6394 9.75844C16.1025 9.68906 16.5 10.0636 16.5 10.5141V11.6353Z" fill="#888888"/>
</svg>
