<svg width="24" height="24" viewBox="0 0 24 24" fill="none" xmlns="http://www.w3.org/2000/svg">
<path fill-rule="evenodd" clip-rule="evenodd" d="M3.96967 2.46967C4.26256 2.17678 4.73744 2.17678 5.03033 2.46967L20.7803 18.2197C21.0732 18.5126 21.0732 18.9874 20.7803 19.2803C20.4874 19.5732 20.0126 19.5732 19.7197 19.2803L3.96967 3.53033C3.67678 3.23744 3.67678 2.76256 3.96967 2.46967Z" fill="#888888"/>
<path d="M18.7499 11.2496V9.77066C18.7499 9.36707 18.4396 9.02066 18.036 9.0005C17.9346 8.99562 17.8333 9.01137 17.7381 9.04681C17.643 9.08225 17.556 9.13663 17.4825 9.20667C17.409 9.27671 17.3505 9.36094 17.3105 9.45426C17.2706 9.54758 17.2499 9.64804 17.2499 9.74957V11.2496C17.2501 11.634 17.208 12.0172 17.1243 12.3924C17.1209 12.4077 17.1214 12.4236 17.1257 12.4387C17.1301 12.4537 17.1381 12.4675 17.1491 12.4786L18.2081 13.5375C18.2192 13.5487 18.2329 13.5568 18.248 13.5612C18.2631 13.5657 18.279 13.5662 18.2944 13.5628C18.3098 13.5595 18.324 13.5523 18.3359 13.542C18.3477 13.5317 18.3568 13.5185 18.3623 13.5038C18.6194 12.7801 18.7506 12.0176 18.7499 11.2496Z" fill="#888888"/>
<path d="M12 16.4996C10.609 16.4951 9.27621 15.9406 8.29261 14.957C7.309 13.9734 6.75445 12.6406 6.75 11.2496V9.77066C6.75 9.36707 6.43969 9.02066 6.0361 9.0005C5.93469 8.99562 5.83334 9.01137 5.73821 9.04681C5.64307 9.08225 5.55611 9.13663 5.48261 9.20667C5.40911 9.27671 5.3506 9.36094 5.31062 9.45426C5.27063 9.54757 5.25001 9.64804 5.25 9.74957V11.2496C5.25 14.7183 7.87969 17.5833 11.25 17.9578V20.2496H9.0211C8.6175 20.2496 8.2711 20.5599 8.25094 20.9635C8.24606 21.0649 8.26181 21.1662 8.29725 21.2614C8.33269 21.3565 8.38707 21.4435 8.45711 21.517C8.52714 21.5905 8.61138 21.649 8.70469 21.6889C8.79801 21.7289 8.89848 21.7496 9.00001 21.7496H14.9789C15.3825 21.7496 15.7289 21.4393 15.7491 21.0357C15.754 20.9343 15.7382 20.8329 15.7028 20.7378C15.6673 20.6426 15.6129 20.5557 15.5429 20.4822C15.4729 20.4087 15.3886 20.3502 15.2953 20.3102C15.202 20.2702 15.1015 20.2496 15 20.2496H12.75V17.9578C13.6037 17.8628 14.4312 17.6047 15.1875 17.1975C15.2132 17.1836 15.2352 17.1638 15.2519 17.1398C15.2686 17.1159 15.2794 17.0883 15.2835 17.0594C15.2877 17.0305 15.285 17.001 15.2758 16.9733C15.2665 16.9456 15.2509 16.9205 15.2302 16.8999L14.3677 16.0378C14.3471 16.0174 14.3207 16.0038 14.2921 15.9989C14.2634 15.994 14.234 15.9981 14.2078 16.0107C13.5166 16.3335 12.7629 16.5004 12 16.4996Z" fill="#888888"/>
<path d="M12.0535 2.25026C11.4167 2.23858 10.7876 2.38995 10.2258 2.68999C9.66403 2.99003 9.18835 3.42876 8.84396 3.96448C8.82072 4.00055 8.81056 4.04349 8.81517 4.08614C8.81978 4.1288 8.83887 4.16858 8.86927 4.19886L15.5902 10.9221C15.6033 10.9352 15.6201 10.9441 15.6382 10.9476C15.6564 10.9512 15.6752 10.9493 15.6923 10.9422C15.7094 10.9351 15.724 10.923 15.7343 10.9076C15.7446 10.8922 15.7501 10.8741 15.75 10.8556V6.04292C15.75 3.98464 14.1094 2.27839 12.0535 2.25026Z" fill="#888888"/>
<path d="M8.40984 10.0785C8.39671 10.0655 8.37999 10.0566 8.36182 10.053C8.34364 10.0495 8.32481 10.0514 8.30771 10.0585C8.29061 10.0656 8.276 10.0776 8.26573 10.093C8.25546 10.1085 8.24999 10.1266 8.25 10.1451V11.2035C8.25068 12.2027 8.6457 13.1612 9.34922 13.8707C9.81056 14.3504 10.3933 14.6961 11.0355 14.871C11.6776 15.0459 12.3552 15.0435 12.9961 14.864C13.0119 14.8595 13.0262 14.851 13.0377 14.8393C13.0492 14.8275 13.0573 14.813 13.0614 14.7971C13.0655 14.7812 13.0653 14.7645 13.0609 14.7487C13.0566 14.7329 13.0481 14.7185 13.0364 14.707L8.40984 10.0785Z" fill="#888888"/>
</svg>
