<svg width="24" height="24" viewBox="0 0 24 24" fill="none" xmlns="http://www.w3.org/2000/svg">
<path d="M8.61704 22.5003C8.07195 22.4994 7.54108 22.3263 7.10016 22.0058C6.75984 21.7599 6.48268 21.4368 6.29143 21.0631C6.10019 20.6893 6.00031 20.2755 6.00001 19.8556C5.99878 19.3621 6.15259 18.8806 6.43973 18.4791C6.72687 18.0777 7.13283 17.7766 7.60032 17.6183L9.98438 16.8158C10.1356 16.7642 10.2668 16.6663 10.3594 16.5359C10.4519 16.4056 10.5011 16.2495 10.5 16.0897V4.31282C10.4993 3.97859 10.6099 3.65364 10.8144 3.38925C11.0189 3.12485 11.3056 2.93606 11.6292 2.85266L16.71 1.5336C16.8624 1.4941 17.0218 1.49001 17.1761 1.52166C17.3303 1.55332 17.4752 1.61986 17.5998 1.7162C17.7243 1.81254 17.8251 1.93611 17.8945 2.07745C17.9639 2.21878 18 2.37412 18 2.53157V5.2386C18.0009 5.57386 17.8898 5.89981 17.6842 6.16469C17.4787 6.42957 17.1906 6.6182 16.8656 6.70063L12.5695 7.78485C12.4055 7.82754 12.2604 7.92375 12.1572 8.05825C12.054 8.19276 11.9987 8.35784 12 8.52735V19.8753C12.0013 20.3491 11.8536 20.8114 11.5779 21.1967C11.3022 21.582 10.9123 21.8709 10.4634 22.0227L9.45704 22.3616C9.18645 22.4532 8.90272 22.5001 8.61704 22.5003Z" fill="#888888"/>
</svg>
