<svg width="24" height="24" viewBox="0 0 24 24" fill="none" xmlns="http://www.w3.org/2000/svg">
<path d="M19.7737 1.75084C19.6253 1.6365 19.4524 1.55811 19.2686 1.52184C19.0848 1.48556 18.8951 1.49239 18.7143 1.54178L9.37122 4.05334C9.04703 4.14042 8.76097 4.33275 8.55801 4.60012C8.35504 4.86748 8.24669 5.19472 8.24997 5.53038V16.1241C8.24997 16.4401 8.04559 16.7129 7.72918 16.8193L7.72356 16.8216L5.28606 17.6654C4.35371 17.9771 3.74996 18.8429 3.74996 19.8699C3.74655 20.2876 3.84371 20.7001 4.03323 21.0723C4.22276 21.4446 4.49908 21.7658 4.83887 22.0088C5.27644 22.3267 5.80319 22.4983 6.34403 22.4991C6.62697 22.4986 6.90797 22.4522 7.17606 22.3618L7.19387 22.3557L8.21762 21.9835C8.66171 21.8352 9.04826 21.5517 9.32306 21.1727C9.59787 20.7936 9.74715 20.3381 9.74997 19.8699V9.93241C9.74997 9.59069 9.97356 9.31319 10.32 9.226L10.3298 9.22319L18.5156 7.03694C18.5432 7.0298 18.5722 7.02907 18.6002 7.03481C18.6281 7.04055 18.6544 7.05261 18.677 7.07007C18.6997 7.08752 18.718 7.10991 18.7306 7.13553C18.7433 7.16115 18.7499 7.18931 18.75 7.21788V13.8708C18.75 14.1872 18.5507 14.4512 18.2292 14.559L18.2175 14.5632L15.832 15.4121C15.3681 15.5647 14.9648 15.8609 14.6804 16.2579C14.3959 16.6549 14.2452 17.132 14.25 17.6204C14.2458 18.0394 14.3425 18.4532 14.5321 18.8269C14.7216 19.2006 14.9983 19.5231 15.3389 19.7673C15.6723 20.0083 16.0588 20.1654 16.4658 20.2254C16.8728 20.2853 17.2883 20.2464 17.677 20.1118L17.6939 20.1062L18.7176 19.7335C19.1617 19.5853 19.5482 19.3019 19.823 18.9229C20.0978 18.544 20.2471 18.0885 20.25 17.6204V2.71787C20.251 2.5308 20.2085 2.34605 20.1258 2.17822C20.0432 2.01039 19.9226 1.86408 19.7737 1.75084Z" fill="#888888"/>
</svg>
