<svg width="24" height="24" viewBox="0 0 24 24" fill="none" xmlns="http://www.w3.org/2000/svg">
<path d="M12 2.25C6.62391 2.25 2.25 6.62391 2.25 12C2.25 17.3761 6.62391 21.75 12 21.75C17.3761 21.75 21.75 17.3761 21.75 12C21.75 6.62391 17.3761 2.25 12 2.25ZM12 18C11.0203 18 10.2413 17.5847 10.1367 16.7072C10.1339 16.681 10.1367 16.6544 10.1449 16.6294C10.1531 16.6043 10.1665 16.5812 10.1842 16.5617C10.2019 16.5421 10.2235 16.5265 10.2476 16.5159C10.2717 16.5053 10.2978 16.4999 10.3242 16.5H13.6734C13.7001 16.4998 13.7264 16.5053 13.7508 16.5161C13.7751 16.5269 13.7969 16.5427 13.8147 16.5626C13.8324 16.5825 13.8457 16.6059 13.8537 16.6313C13.8617 16.6567 13.8641 16.6836 13.8609 16.71C13.7414 17.5711 12.9694 18 12 18ZM16.5938 15.75H7.40625C6.85125 15.75 6.5625 15.0469 6.88172 14.6719C7.64719 13.7653 8.18812 13.3842 8.18812 10.8844C8.18812 8.59359 9.39469 7.78078 10.3912 7.38422C10.4598 7.35564 10.5217 7.31301 10.5728 7.25908C10.6239 7.20515 10.6631 7.14111 10.688 7.07109C10.8609 6.49688 11.3503 6 12 6C12.6497 6 13.1381 6.49687 13.3125 7.07156C13.3375 7.14157 13.3769 7.20558 13.428 7.2595C13.4792 7.31342 13.5411 7.35606 13.6097 7.38469C14.6039 7.78031 15.8128 8.59453 15.8128 10.8848C15.8128 13.3847 16.3533 13.7658 17.1188 14.6723C17.4347 15.0469 17.1455 15.75 16.5938 15.75Z" fill="#888888"/>
</svg>
