<svg width="24" height="24" viewBox="0 0 24 24" fill="none" xmlns="http://www.w3.org/2000/svg">
<path d="M21.0001 21.7506C20.9016 21.7507 20.804 21.7314 20.713 21.6937C20.622 21.6559 20.5394 21.6006 20.4699 21.5307L2.46994 3.53074C2.33522 3.38894 2.26123 3.20013 2.26373 3.00456C2.26624 2.80899 2.34504 2.62213 2.48334 2.48383C2.62164 2.34553 2.8085 2.26673 3.00407 2.26422C3.19964 2.26172 3.38845 2.33571 3.53025 2.47043L21.5303 20.4704C21.6351 20.5753 21.7064 20.7089 21.7354 20.8544C21.7643 20.9998 21.7494 21.1505 21.6927 21.2875C21.6359 21.4245 21.5399 21.5417 21.4166 21.6241C21.2933 21.7065 21.1484 21.7505 21.0001 21.7506Z" fill="#888888"/>
<path d="M20.6288 15.9989C20.551 15.9052 20.4746 15.8114 20.3996 15.7209C19.3683 14.4736 18.7444 13.7208 18.7444 10.1897C18.7444 8.36156 18.3071 6.86156 17.445 5.73656C16.8094 4.90547 15.9502 4.275 14.8177 3.80906C14.8031 3.80096 14.7901 3.79032 14.7793 3.77766C14.3719 2.41359 13.2572 1.5 12 1.5C10.7429 1.5 9.62864 2.41359 9.22129 3.77625C9.21042 3.78845 9.19759 3.79875 9.18333 3.80672C8.82862 3.95178 8.48571 4.12417 8.1577 4.32234C8.10922 4.3519 8.06809 4.39208 8.0374 4.43985C8.00671 4.48762 7.98727 4.54173 7.98055 4.59811C7.97382 4.65449 7.97998 4.71166 7.99857 4.76531C8.01716 4.81895 8.04769 4.86768 8.08786 4.90781L20.3588 17.1769C20.414 17.2321 20.4851 17.2688 20.5621 17.2817C20.6391 17.2946 20.7182 17.2831 20.7884 17.2489C20.8586 17.2147 20.9164 17.1594 20.9536 17.0908C20.9909 17.0222 21.0058 16.9436 20.9963 16.8661C20.9601 16.5476 20.8325 16.2464 20.6288 15.9989Z" fill="#888888"/>
<path d="M5.25672 10.1877C5.25672 13.7202 4.63375 14.473 3.60157 15.719C3.52657 15.8094 3.45016 15.9013 3.37235 15.9969C3.17135 16.2393 3.044 16.5342 3.00537 16.8467C2.96674 17.1593 3.01845 17.4763 3.15438 17.7604C3.4436 18.3697 4.06 18.748 4.7636 18.748H14.6627C14.7369 18.7481 14.8094 18.7261 14.8712 18.6849C14.9329 18.6437 14.981 18.5851 15.0094 18.5166C15.0378 18.448 15.0452 18.3726 15.0307 18.2998C15.0162 18.227 14.9805 18.1601 14.928 18.1077L5.92797 9.1077C5.87736 9.05725 5.81339 9.02232 5.7436 9.007C5.6738 8.99169 5.60108 8.99664 5.534 9.02126C5.46692 9.04589 5.40827 9.08917 5.36496 9.146C5.32165 9.20284 5.29548 9.27087 5.28953 9.34208C5.26766 9.61364 5.25672 9.89551 5.25672 10.1877Z" fill="#888888"/>
<path d="M12 22.5C12.6774 22.4994 13.342 22.3156 13.9233 21.9679C14.5046 21.6202 14.981 21.1217 15.3019 20.5252C15.317 20.4966 15.3245 20.4646 15.3236 20.4322C15.3227 20.3999 15.3134 20.3684 15.2967 20.3407C15.28 20.313 15.2564 20.2901 15.2283 20.2742C15.2001 20.2583 15.1683 20.25 15.136 20.25H8.86504C8.83266 20.2499 8.8008 20.2582 8.77257 20.274C8.74434 20.2899 8.72069 20.3128 8.70394 20.3405C8.68718 20.3682 8.67789 20.3997 8.67696 20.4321C8.67603 20.4645 8.6835 20.4965 8.69863 20.5252C9.01951 21.1216 9.49581 21.6201 10.077 21.9678C10.6583 22.3155 11.3228 22.4994 12 22.5Z" fill="#888888"/>
</svg>
