<svg width="24" height="24" viewBox="0 0 24 24" fill="none" xmlns="http://www.w3.org/2000/svg">
<path d="M12.1359 2.25017C6.65243 2.17611 2.17587 6.65267 2.24993 12.1361C2.32305 17.395 6.60509 21.677 11.864 21.7502C17.3484 21.8252 21.824 17.3486 21.749 11.8652C21.6768 6.60533 17.3948 2.3233 12.1359 2.25017ZM20.1093 11.2464L15.7462 11.2417C15.7248 11.2417 15.7042 11.2344 15.6875 11.221C15.6709 11.2076 15.6594 11.189 15.6548 11.1681C15.4683 10.3541 15.0156 9.62554 14.3685 9.09767C14.3521 9.08434 14.3406 9.06582 14.336 9.04514C14.3314 9.02445 14.3339 9.00282 14.3432 8.98377L16.2801 5.07299C16.2859 5.06113 16.2941 5.05063 16.3042 5.04217C16.3144 5.03372 16.3262 5.02749 16.3389 5.02391C16.3516 5.02033 16.3649 5.01946 16.3779 5.02138C16.391 5.02329 16.4035 5.02794 16.4146 5.03502C17.4655 5.70187 18.352 6.59759 19.008 7.65523C19.6641 8.71288 20.0726 9.90511 20.2031 11.1428C20.2044 11.1559 20.203 11.1692 20.199 11.1817C20.1949 11.1943 20.1882 11.2058 20.1793 11.2156C20.1705 11.2254 20.1597 11.2332 20.1476 11.2385C20.1355 11.2438 20.1225 11.2465 20.1093 11.2464ZM9.7593 12.2055C9.7171 11.7449 9.81787 11.2825 10.0479 10.8812C10.2779 10.4799 10.626 10.1593 11.0448 9.96295C11.4636 9.76661 11.9328 9.70412 12.3884 9.78397C12.8439 9.86382 13.2638 10.0821 13.5909 10.4092C13.918 10.7363 14.1363 11.1562 14.2161 11.6118C14.296 12.0673 14.2335 12.5365 14.0372 12.9553C13.8408 13.3741 13.5202 13.7222 13.1189 13.9522C12.7176 14.1822 12.2552 14.283 11.7946 14.2408C11.271 14.1928 10.7807 13.963 10.4089 13.5912C10.0371 13.2194 9.80728 12.7291 9.7593 12.2055ZM7.7179 5.07299L9.65618 8.98377C9.66545 9.00282 9.668 9.02445 9.6634 9.04514C9.65881 9.06582 9.64734 9.08434 9.63087 9.09767C8.98339 9.62539 8.53043 10.354 8.34368 11.1681C8.33901 11.1894 8.32711 11.2083 8.31 11.2218C8.2929 11.2352 8.27167 11.2422 8.24993 11.2417L3.8868 11.2464C3.87362 11.2465 3.86057 11.2438 3.8485 11.2385C3.83643 11.2332 3.82562 11.2254 3.81677 11.2156C3.80793 11.2058 3.80124 11.1943 3.79715 11.1817C3.79307 11.1692 3.79167 11.1559 3.79305 11.1428C3.92354 9.90511 4.33205 8.71288 4.98807 7.65523C5.64408 6.59759 6.53064 5.70187 7.58149 5.03502C7.59269 5.02761 7.60535 5.0227 7.61861 5.0206C7.63187 5.01851 7.64542 5.01929 7.65835 5.02289C7.67129 5.02649 7.6833 5.03283 7.69357 5.04147C7.70384 5.05011 7.71214 5.06086 7.7179 5.07299ZM7.70055 18.917L10.3401 15.4441C10.353 15.4271 10.3714 15.4151 10.3921 15.41C10.4128 15.4049 10.4346 15.407 10.454 15.416C10.9399 15.6365 11.4673 15.7506 12.0009 15.7506C12.5345 15.7506 13.0619 15.6365 13.5477 15.416C13.5671 15.407 13.5889 15.4049 13.6096 15.41C13.6303 15.4151 13.6487 15.4271 13.6616 15.4441L16.3012 18.917C16.3092 18.9275 16.3149 18.9394 16.3179 18.9522C16.321 18.965 16.3213 18.9782 16.3189 18.9911C16.3166 19.004 16.3115 19.0163 16.3041 19.0271C16.2967 19.0379 16.287 19.0471 16.2759 19.0539C14.9875 19.8364 13.5091 20.2502 12.0018 20.2502C10.4945 20.2502 9.01607 19.8364 7.72774 19.0539C7.71642 19.0472 7.70664 19.0382 7.69903 19.0274C7.69143 19.0167 7.68617 19.0045 7.68361 18.9916C7.68104 18.9786 7.68123 18.9653 7.68415 18.9525C7.68707 18.9397 7.69266 18.9276 7.70055 18.917Z" fill="#888888"/>
</svg>
