<svg width="24" height="24" viewBox="0 0 24 24" fill="none" xmlns="http://www.w3.org/2000/svg">
<path d="M12 21C16.9706 21 21 16.9706 21 12C21 7.02944 16.9706 3 12 3C7.02944 3 3 7.02944 3 12C3 16.9706 7.02944 21 12 21Z" stroke="#888888" stroke-miterlimit="10" stroke-linecap="round"/>
<path d="M12 15C13.6569 15 15 13.6569 15 12C15 10.3431 13.6569 9 12 9C10.3431 9 9 10.3431 9 12C9 13.6569 10.3431 15 12 15Z" stroke="#888888" stroke-miterlimit="10"/>
<path d="M10.5 9L8.01562 3.98438" stroke="#888888" stroke-miterlimit="10" stroke-linecap="round"/>
<path d="M13.5 9L15.9844 3.98438" stroke="#888888" stroke-miterlimit="10" stroke-linecap="round"/>
<path d="M15.3539 11.9915L20.9512 11.9976" stroke="#888888" stroke-miterlimit="10" stroke-linecap="round"/>
<path d="M14.0199 14.6781L17.4066 19.134" stroke="#888888" stroke-miterlimit="10" stroke-linecap="round"/>
<path d="M8.64604 11.9915L3.04871 11.9976" stroke="#888888" stroke-miterlimit="10" stroke-linecap="round"/>
<path d="M9.9801 14.6781L6.59338 19.134" stroke="#888888" stroke-miterlimit="10" stroke-linecap="round"/>
</svg>
