<svg width="24" height="24" viewBox="0 0 24 24" fill="none" xmlns="http://www.w3.org/2000/svg">
<path d="M12 21.75C6.62391 21.75 2.25 17.3761 2.25 12C2.25 6.62391 6.62391 2.25 12 2.25C17.3761 2.25 21.75 6.62391 21.75 12C21.75 17.3761 17.3761 21.75 12 21.75ZM12 3.75C7.45312 3.75 3.75 7.45312 3.75 12C3.75 16.5469 7.45312 20.25 12 20.25C16.5469 20.25 20.25 16.5492 20.25 12C20.25 7.45078 16.5492 3.75 12 3.75Z" fill="#888888"/>
<path d="M15.1721 13.6875C14.3564 13.6875 13.5685 13.3256 12.953 12.6689C12.3442 12.0086 11.9802 11.1595 11.9217 10.2633C11.8528 9.29297 12.1505 8.4 12.7599 7.74984C13.3693 7.09969 14.221 6.75 15.1721 6.75C16.1161 6.75 16.9707 7.10719 17.5782 7.75594C18.1857 8.40469 18.4908 9.30281 18.4219 10.2642C18.3623 11.1599 17.9985 12.0083 17.3907 12.6689C16.7747 13.3256 15.9872 13.6875 15.1721 13.6875Z" fill="#888888"/>
<path d="M7.67907 13.8448C6.28407 13.8448 5.05735 12.5553 4.94485 10.9699C4.88719 10.1581 5.13938 9.4076 5.65594 8.85681C6.17251 8.30603 6.885 8.01306 7.6786 8.01306C8.47219 8.01306 9.18422 8.31494 9.6975 8.86338C10.2108 9.41181 10.4709 10.1674 10.4123 10.9728C10.298 12.5557 9.07172 13.8448 7.67907 13.8448Z" fill="#888888"/>
<path d="M19.7049 16.6536C19.6304 16.4333 19.449 16.1984 19.0852 15.9758C17.9855 15.304 16.6327 14.9487 15.1721 14.9487C13.7391 14.9487 12.3488 15.319 11.2566 15.9917C10.0261 16.7497 9.19927 17.855 8.86598 19.1876C8.78723 19.5012 8.67239 20.0848 8.7952 20.4115C10.7661 21.161 12.9374 21.1954 14.931 20.5087C16.9246 19.822 18.6141 18.4578 19.7054 16.6536H19.7049Z" fill="#888888"/>
<path d="M7.67021 18.8145C8.00161 17.4921 8.70708 16.3896 9.80161 15.4981C9.85336 15.4554 9.8927 15.3996 9.91555 15.3365C9.93839 15.2734 9.94391 15.2054 9.93151 15.1395C9.91911 15.0736 9.88925 15.0122 9.84505 14.9617C9.80085 14.9112 9.74392 14.8736 9.6802 14.8526C9.1177 14.6731 8.47552 14.577 7.67911 14.577C6.56255 14.577 5.37708 14.8793 4.48505 15.4287C4.23192 15.5848 3.98349 15.6448 3.79224 15.6982C4.56008 17.3953 5.83345 18.8137 7.43817 19.7595L7.52208 19.7529C7.54043 19.436 7.59004 19.1216 7.67021 18.8145Z" fill="#888888"/>
</svg>
