<svg width="24" height="24" viewBox="0 0 24 24" fill="none" xmlns="http://www.w3.org/2000/svg">
<g clip-path="url(#clip0)">
<path d="M0 8.25V15.75C0 16.5456 0.316071 17.3087 0.87868 17.8713C1.44129 18.4339 2.20435 18.75 3 18.75H21C21.7956 18.75 22.5587 18.4339 23.1213 17.8713C23.6839 17.3087 24 16.5456 24 15.75V8.25C24 7.45435 23.6839 6.69129 23.1213 6.12868C22.5587 5.56607 21.7956 5.25 21 5.25H3C2.20435 5.25 1.44129 5.56607 0.87868 6.12868C0.316071 6.69129 0 7.45435 0 8.25H0ZM21 6.75C21.3978 6.75 21.7794 6.90804 22.0607 7.18934C22.342 7.47064 22.5 7.85218 22.5 8.25V15.75C22.5 16.1478 22.342 16.5294 22.0607 16.8107C21.7794 17.092 21.3978 17.25 21 17.25H3C2.60218 17.25 2.22064 17.092 1.93934 16.8107C1.65804 16.5294 1.5 16.1478 1.5 15.75V15.218C1.49974 15.1454 1.52067 15.0744 1.56022 15.0136C1.59978 14.9528 1.65624 14.9049 1.72266 14.8758C1.99075 14.7593 2.21898 14.5671 2.37929 14.3226C2.53959 14.0782 2.625 13.7923 2.625 13.5V10.5C2.625 10.2077 2.53959 9.92177 2.37929 9.67735C2.21898 9.43294 1.99075 9.24068 1.72266 9.12422C1.65624 9.09508 1.59978 9.04717 1.56022 8.98638C1.52067 8.92558 1.49974 8.85456 1.5 8.78203V8.25C1.5 7.85218 1.65804 7.47064 1.93934 7.18934C2.22064 6.90804 2.60218 6.75 3 6.75H21Z" fill="#888888"/>
<path d="M2.25001 8.25C2.24948 8.33641 2.26907 8.42176 2.30723 8.4993C2.34538 8.57683 2.40106 8.64442 2.46985 8.69672C2.75069 8.90609 2.97876 9.17814 3.1359 9.49121C3.29304 9.80428 3.37492 10.1497 3.37501 10.5V13.5C3.37492 13.8503 3.29304 14.1957 3.1359 14.5088C2.97876 14.8219 2.75069 15.0939 2.46985 15.3033C2.40106 15.3556 2.34538 15.4232 2.30723 15.5007C2.26907 15.5782 2.24948 15.6636 2.25001 15.75C2.25001 15.9489 2.32903 16.1397 2.46968 16.2803C2.61033 16.421 2.8011 16.5 3.00001 16.5H21C21.1989 16.5 21.3897 16.421 21.5303 16.2803C21.671 16.1397 21.75 15.9489 21.75 15.75V8.25C21.75 8.05109 21.671 7.86032 21.5303 7.71967C21.3897 7.57902 21.1989 7.5 21 7.5H3.00001C2.8011 7.5 2.61033 7.57902 2.46968 7.71967C2.32903 7.86032 2.25001 8.05109 2.25001 8.25Z" fill="#888888"/>
<path d="M0 8.25V15.75C0 16.5456 0.316071 17.3087 0.87868 17.8713C1.44129 18.4339 2.20435 18.75 3 18.75H21C21.7956 18.75 22.5587 18.4339 23.1213 17.8713C23.6839 17.3087 24 16.5456 24 15.75V8.25C24 7.45435 23.6839 6.69129 23.1213 6.12868C22.5587 5.56607 21.7956 5.25 21 5.25H3C2.20435 5.25 1.44129 5.56607 0.87868 6.12868C0.316071 6.69129 0 7.45435 0 8.25H0ZM21 6.75C21.3978 6.75 21.7794 6.90804 22.0607 7.18934C22.342 7.47064 22.5 7.85218 22.5 8.25V15.75C22.5 16.1478 22.342 16.5294 22.0607 16.8107C21.7794 17.092 21.3978 17.25 21 17.25H3C2.60218 17.25 2.22064 17.092 1.93934 16.8107C1.65804 16.5294 1.5 16.1478 1.5 15.75V15.218C1.49974 15.1454 1.52067 15.0744 1.56022 15.0136C1.59978 14.9528 1.65624 14.9049 1.72266 14.8758C1.99075 14.7593 2.21898 14.5671 2.37929 14.3226C2.53959 14.0782 2.625 13.7923 2.625 13.5V10.5C2.625 10.2077 2.53959 9.92177 2.37929 9.67735C2.21898 9.43294 1.99075 9.24068 1.72266 9.12422C1.65624 9.09508 1.59978 9.04717 1.56022 8.98638C1.52067 8.92558 1.49974 8.85456 1.5 8.78203V8.25C1.5 7.85218 1.65804 7.47064 1.93934 7.18934C2.22064 6.90804 2.60218 6.75 3 6.75H21Z" fill="#888888"/>
</g>
<defs>
<clipPath id="clip0">
<rect width="24" height="24" fill="white"/>
</clipPath>
</defs>
</svg>
