<svg width="24" height="24" viewBox="0 0 24 24" fill="none" xmlns="http://www.w3.org/2000/svg">
<path d="M20.7104 3.17953C17.9738 2.09672 14.8735 1.5 11.9794 1.5C9.00007 1.5 5.89507 2.08734 3.23445 3.15281C2.28288 3.53859 2.11929 4.21875 2.28335 4.72594L2.47413 5.20312C2.51156 5.29657 2.56742 5.38153 2.63838 5.45293C2.70934 5.52434 2.79395 5.58072 2.88716 5.61873C2.98037 5.65675 3.08029 5.6756 3.18094 5.67418C3.2816 5.67276 3.38094 5.65109 3.47304 5.61047C3.97929 5.38734 4.59476 5.11641 4.73867 5.05828C6.80163 4.20188 9.3146 3.75 12.0001 3.75C14.694 3.75 17.0668 4.18313 19.2544 5.07422C19.4616 5.15859 19.9519 5.37516 20.4812 5.61141C20.5731 5.65246 20.6723 5.67459 20.773 5.67648C20.8736 5.67837 20.9736 5.65998 21.067 5.62241C21.1604 5.58483 21.2452 5.52884 21.3165 5.45778C21.3878 5.38671 21.4441 5.30202 21.4819 5.20875L21.6563 4.78125L21.6723 4.73906C21.834 4.26047 21.6788 3.56484 20.7104 3.17953Z" fill="#888888"/>
<path d="M19.1803 6.60281C17.047 5.74359 14.4225 5.25 11.9793 5.25C9.51405 5.25162 7.07048 5.7108 4.77277 6.60422C4.74793 6.61406 4.67621 6.64547 4.57168 6.69234C4.48131 6.73285 4.39985 6.79085 4.33201 6.863C4.26417 6.93515 4.21129 7.02002 4.17643 7.11272C4.14156 7.20542 4.1254 7.3041 4.12888 7.40307C4.13236 7.50205 4.1554 7.59935 4.19668 7.68937C4.38418 8.09766 4.63824 8.65406 4.92324 9.27797C6.4659 12.6562 9.33793 18.9375 10.6528 21.6562C10.7746 21.9099 10.9658 22.1238 11.2042 22.2731C11.4427 22.4225 11.7186 22.5011 12 22.5C12.2818 22.5011 12.5581 22.4221 12.7968 22.2723C13.0355 22.1224 13.2267 21.9078 13.3481 21.6534L13.3509 21.6473L19.7868 7.69875C19.8294 7.60747 19.8531 7.50853 19.8565 7.40786C19.8598 7.3072 19.8428 7.20689 19.8064 7.11297C19.77 7.01906 19.715 6.93346 19.6447 6.86134C19.5744 6.78922 19.4903 6.73205 19.3973 6.69328C19.2914 6.64875 19.2168 6.61781 19.1864 6.60562L19.1803 6.60281ZM9.09746 10.4967C8.79311 10.5166 8.48995 10.4432 8.22838 10.2863C7.96682 10.1294 7.75929 9.89656 7.63346 9.61873C7.50763 9.3409 7.46949 9.03131 7.52411 8.73125C7.57874 8.43118 7.72353 8.1549 7.9392 7.93924C8.15486 7.72357 8.43115 7.57878 8.73121 7.52415C9.03127 7.46953 9.34086 7.50767 9.61869 7.6335C9.89652 7.75933 10.1294 7.96686 10.2863 8.22842C10.4431 8.48998 10.5165 8.79315 10.4967 9.0975C10.473 9.46081 10.318 9.80311 10.0605 10.0606C9.80307 10.318 9.46078 10.473 9.09746 10.4967ZM12.0975 16.4967C11.7931 16.5166 11.4899 16.4432 11.2284 16.2863C10.9668 16.1294 10.7593 15.8966 10.6335 15.6187C10.5076 15.3409 10.4695 15.0313 10.5241 14.7312C10.5787 14.4312 10.7235 14.1549 10.9392 13.9392C11.1549 13.7236 11.4311 13.5788 11.7312 13.5242C12.0313 13.4695 12.3409 13.5077 12.6187 13.6335C12.8965 13.7593 13.1294 13.9669 13.2863 14.2284C13.4431 14.49 13.5165 14.7931 13.4967 15.0975C13.473 15.4608 13.318 15.8031 13.0605 16.0606C12.8031 16.318 12.4608 16.473 12.0975 16.4967ZM15.0975 11.2467C14.7931 11.2666 14.4899 11.1932 14.2284 11.0363C13.9668 10.8794 13.7593 10.6466 13.6335 10.3687C13.5076 10.0909 13.4695 9.78131 13.5241 9.48125C13.5787 9.18118 13.7235 8.9049 13.9392 8.68924C14.1549 8.47357 14.4311 8.32878 14.7312 8.27415C15.0313 8.21953 15.3409 8.25767 15.6187 8.3835C15.8965 8.50933 16.1294 8.71686 16.2863 8.97842C16.4431 9.23998 16.5165 9.54315 16.4967 9.8475C16.473 10.2108 16.318 10.5531 16.0605 10.8106C15.8031 11.068 15.4608 11.223 15.0975 11.2467Z" fill="#888888"/>
</svg>
