<svg width="24" height="24" viewBox="0 0 24 24" fill="none" xmlns="http://www.w3.org/2000/svg">
<path d="M1.43948 10.7561L10.2928 5.45927C10.5118 5.326 10.7626 5.254 11.0189 5.25079C11.2753 5.24757 11.5278 5.31326 11.7501 5.44099C11.9913 5.58144 12.191 5.78323 12.329 6.02585C12.467 6.26848 12.5383 6.54329 12.5357 6.8224V10.5279L21.007 5.45786C21.226 5.3246 21.4768 5.2526 21.7332 5.24938C21.9895 5.24616 22.242 5.31185 22.4643 5.43958C22.7055 5.58004 22.9053 5.78182 23.0432 6.02445C23.1812 6.26707 23.2525 6.54189 23.25 6.82099V17.1804C23.2527 17.4596 23.1814 17.7345 23.0434 17.9772C22.9054 18.2199 22.7056 18.4218 22.4643 18.5622C22.242 18.69 21.9895 18.7557 21.7332 18.7524C21.4768 18.7492 21.226 18.6772 21.007 18.544L12.5357 13.4716V17.1785C12.5388 17.458 12.4677 17.7333 12.3297 17.9764C12.1917 18.2195 11.9917 18.4216 11.7501 18.5622C11.5278 18.69 11.2753 18.7557 11.0189 18.7524C10.7626 18.7492 10.5118 18.6772 10.2928 18.544L1.43948 13.2471C1.22902 13.1152 1.0555 12.9321 0.935216 12.7148C0.814934 12.4975 0.751831 12.2532 0.751831 12.0049C0.751831 11.7565 0.814934 11.5123 0.935216 11.295C1.0555 11.0777 1.22902 10.8945 1.43948 10.7627V10.7561Z" fill="#888888"/>
</svg>
