<svg width="24" height="24" viewBox="0 0 24 24" fill="none" xmlns="http://www.w3.org/2000/svg">
<path d="M21.8906 2.11863C21.6963 1.92206 21.4648 1.76611 21.2096 1.65989C20.9544 1.55366 20.6806 1.49927 20.4042 1.49988H14.6419C14.2639 1.50059 13.9014 1.65033 13.6331 1.9166L2.11358 13.4338C1.72051 13.8277 1.49976 14.3614 1.49976 14.9179C1.49976 15.4743 1.72051 16.008 2.11358 16.4019L7.59796 21.8863C7.99193 22.2795 8.52584 22.5004 9.08249 22.5004C9.63914 22.5004 10.173 22.2795 10.567 21.8863L22.0819 10.3738C22.3487 10.1059 22.4989 9.74357 22.5 9.36551V3.59988C22.5017 3.32491 22.4487 3.05235 22.3441 2.79805C22.2395 2.54375 22.0853 2.3128 21.8906 2.11863ZM18 7.49988C17.7033 7.49988 17.4133 7.41191 17.1666 7.24709C16.92 7.08226 16.7277 6.848 16.6142 6.57391C16.5006 6.29982 16.4709 5.99822 16.5288 5.70725C16.5867 5.41628 16.7296 5.149 16.9393 4.93922C17.1491 4.72944 17.4164 4.58658 17.7074 4.5287C17.9983 4.47083 18.2999 4.50053 18.574 4.61406C18.8481 4.72759 19.0824 4.91985 19.2472 5.16653C19.412 5.4132 19.5 5.70321 19.5 5.99988C19.5 6.39771 19.342 6.77924 19.0606 7.06054C18.7793 7.34185 18.3978 7.49988 18 7.49988Z" fill="#888888"/>
</svg>
