<svg width="24" height="24" viewBox="0 0 24 24" fill="none" xmlns="http://www.w3.org/2000/svg">
<g clip-path="url(#clip0)">
<path d="M12 13.6875C12.932 13.6875 13.6875 12.932 13.6875 12C13.6875 11.068 12.932 10.3125 12 10.3125C11.068 10.3125 10.3125 11.068 10.3125 12C10.3125 12.932 11.068 13.6875 12 13.6875Z" fill="#888888"/>
<path d="M8.91747 16.0198C8.77172 16.02 8.6276 15.9892 8.49461 15.9296C8.36161 15.87 8.24277 15.7828 8.14591 15.6739C7.24629 14.6615 6.74939 13.3542 6.74939 11.9998C6.74939 10.6455 7.24629 9.33818 8.14591 8.32577C8.23513 8.22189 8.34415 8.13682 8.4666 8.07552C8.58904 8.01422 8.72248 7.97793 8.8591 7.96875C8.99573 7.95957 9.13282 7.9777 9.26236 8.02207C9.39191 8.06643 9.51132 8.13616 9.61364 8.22717C9.71595 8.31819 9.79911 8.42867 9.85827 8.55216C9.91743 8.67566 9.9514 8.8097 9.9582 8.94647C9.965 9.08323 9.94449 9.21999 9.89788 9.34874C9.85126 9.4775 9.77947 9.59568 9.68669 9.6964C9.12275 10.3312 8.81126 11.1509 8.81126 12.0001C8.81126 12.8492 9.12275 13.6689 9.68669 14.3037C9.81865 14.4523 9.90487 14.6358 9.935 14.8322C9.96513 15.0286 9.93788 15.2295 9.85652 15.4108C9.77517 15.5921 9.64317 15.746 9.47641 15.8541C9.30965 15.9621 9.11523 16.0197 8.91654 16.0198H8.91747Z" fill="#888888"/>
<path d="M15.0825 16.0198C14.8838 16.0197 14.6894 15.9621 14.5226 15.8541C14.3559 15.746 14.2239 15.5921 14.1425 15.4108C14.0611 15.2295 14.0339 15.0286 14.064 14.8322C14.0941 14.6358 14.1804 14.4523 14.3123 14.3037C14.8763 13.6689 15.1878 12.8492 15.1878 12.0001C15.1878 11.1509 14.8763 10.3312 14.3123 9.69639C14.2196 9.59568 14.1478 9.4775 14.1011 9.34874C14.0545 9.21998 14.034 9.08323 14.0408 8.94647C14.0476 8.8097 14.0816 8.67566 14.1408 8.55216C14.1999 8.42867 14.2831 8.31819 14.3854 8.22717C14.4877 8.13616 14.6071 8.06643 14.7367 8.02207C14.8662 7.9777 15.0033 7.95957 15.1399 7.96875C15.2766 7.97793 15.41 8.01422 15.5324 8.07552C15.6549 8.13682 15.7639 8.22189 15.8531 8.32577C16.7527 9.33818 17.2496 10.6455 17.2496 11.9998C17.2496 13.3542 16.7527 14.6615 15.8531 15.6739C15.7564 15.7827 15.6377 15.8698 15.5048 15.9294C15.372 15.989 15.2281 16.0198 15.0825 16.0198Z" fill="#888888"/>
<path d="M6.52923 18.4078C6.38777 18.408 6.24781 18.3789 6.11811 18.3224C5.98841 18.266 5.87176 18.1833 5.77548 18.0797C4.23342 16.43 3.37561 14.2561 3.37561 11.9979C3.37561 9.7397 4.23342 7.56581 5.77548 5.9161C5.86778 5.81634 5.97889 5.73581 6.10241 5.67914C6.22594 5.62247 6.35945 5.59077 6.49527 5.58587C6.63109 5.58098 6.76654 5.60297 6.89383 5.6506C7.02111 5.69823 7.13773 5.77055 7.23698 5.8634C7.33622 5.95625 7.41613 6.0678 7.47212 6.19164C7.52811 6.31548 7.55906 6.44916 7.56321 6.58501C7.56735 6.72085 7.5446 6.85617 7.49627 6.98319C7.44794 7.11022 7.37498 7.22643 7.28158 7.32516C6.09687 8.59279 5.43785 10.2631 5.43785 11.9981C5.43785 13.7332 6.09687 15.4035 7.28158 16.6711C7.41845 16.8179 7.50948 17.0015 7.54352 17.1994C7.57755 17.3972 7.55311 17.6007 7.47318 17.7848C7.39325 17.969 7.26131 18.1258 7.09355 18.236C6.92579 18.3463 6.72951 18.4052 6.52876 18.4055L6.52923 18.4078Z" fill="#888888"/>
<path d="M17.4707 18.409C17.27 18.4087 17.0737 18.3498 16.9059 18.2396C16.7382 18.1293 16.6062 17.9725 16.5263 17.7884C16.4464 17.6042 16.4219 17.4008 16.456 17.2029C16.49 17.0051 16.581 16.8215 16.7179 16.6746C17.9026 15.407 18.5616 13.7367 18.5616 12.0017C18.5616 10.2666 17.9026 8.59633 16.7179 7.3287C16.6245 7.22997 16.5515 7.11376 16.5032 6.98673C16.4549 6.85971 16.4321 6.72439 16.4363 6.58855C16.4404 6.4527 16.4714 6.31902 16.5274 6.19518C16.5833 6.07134 16.6633 5.95979 16.7625 5.86694C16.8617 5.77409 16.9784 5.70177 17.1057 5.65414C17.2329 5.60651 17.3684 5.58452 17.5042 5.58941C17.64 5.59431 17.7735 5.62601 17.8971 5.68268C18.0206 5.73935 18.1317 5.81988 18.224 5.91964C19.7661 7.56935 20.6239 9.74324 20.6239 12.0014C20.6239 14.2596 19.7661 16.4335 18.224 18.0832C18.1276 18.1864 18.0109 18.2685 17.8813 18.3246C17.7517 18.3806 17.6119 18.4094 17.4707 18.409Z" fill="#888888"/>
<path d="M20.1094 20.5315C19.9103 20.5314 19.7155 20.4738 19.5485 20.3655C19.3815 20.2571 19.2494 20.1028 19.1681 19.921C19.0869 19.7393 19.06 19.5379 19.0907 19.3412C19.1214 19.1445 19.2084 18.9609 19.3411 18.8126C21.0135 16.9375 21.9377 14.5128 21.9377 12.0002C21.9377 9.48771 21.0135 7.06298 19.3411 5.18789C19.1645 4.98327 19.0754 4.71752 19.0927 4.44781C19.1101 4.1781 19.2327 3.926 19.4341 3.74575C19.6355 3.56551 19.8996 3.47152 20.1695 3.48401C20.4395 3.49651 20.6938 3.6145 20.8777 3.81258C22.8884 6.06584 23.9997 8.98024 23.9997 12.0002C23.9997 15.0202 22.8884 17.9346 20.8777 20.1879C20.781 20.296 20.6626 20.3824 20.5302 20.4416C20.3978 20.5008 20.2544 20.5315 20.1094 20.5315Z" fill="#888888"/>
<path d="M3.89066 20.5315C3.74546 20.5318 3.60184 20.5013 3.46925 20.4421C3.33667 20.3828 3.21814 20.2962 3.12144 20.1879C1.11068 17.9346 -0.000610352 15.0202 -0.000610352 12.0002C-0.000610352 8.98024 1.11068 6.06584 3.12144 3.81258C3.30531 3.6145 3.55959 3.49651 3.82957 3.48401C4.09955 3.47152 4.36365 3.56551 4.56503 3.74575C4.76641 3.926 4.88898 4.1781 4.90637 4.44781C4.92376 4.71752 4.83457 4.98327 4.65801 5.18789C2.98564 7.06298 2.06143 9.48771 2.06143 12.0002C2.06143 14.5128 2.98564 16.9375 4.65801 18.8126C4.7907 18.9609 4.87765 19.1444 4.90838 19.341C4.93911 19.5376 4.91229 19.7389 4.83118 19.9206C4.75006 20.1023 4.6181 20.2567 4.45122 20.3651C4.28433 20.4735 4.08965 20.5313 3.89066 20.5315Z" fill="#888888"/>
</g>
<defs>
<clipPath id="clip0">
<rect width="24" height="24" fill="white"/>
</clipPath>
</defs>
</svg>
