<svg width="24" height="24" viewBox="0 0 24 24" fill="none" xmlns="http://www.w3.org/2000/svg">
<path d="M12 2.25C6.62391 2.25 2.25 6.62437 2.25 12C2.25 17.3841 6.61594 21.75 12 21.75C17.3761 21.75 21.75 17.3761 21.75 12C21.75 6.61547 17.3845 2.25 12 2.25ZM12 16.9219C10.8314 16.9219 9.71064 16.4576 8.88431 15.6313C8.05798 14.805 7.59375 13.6842 7.59375 12.5156C7.59375 11.347 8.05798 10.2263 8.88431 9.39994C9.71064 8.5736 10.8314 8.10938 12 8.10938H12.1973L11.5359 7.44844C11.4129 7.32536 11.3437 7.15843 11.3437 6.98438C11.3437 6.81032 11.4129 6.64339 11.5359 6.52031C11.659 6.39724 11.8259 6.32809 12 6.32809C12.1741 6.32809 12.341 6.39724 12.4641 6.52031L14.3391 8.39531C14.4 8.45625 14.4484 8.5286 14.4813 8.60822C14.5143 8.68785 14.5313 8.77319 14.5313 8.85938C14.5313 8.94556 14.5143 9.0309 14.4813 9.11053C14.4484 9.19015 14.4 9.2625 14.3391 9.32344L12.4641 11.1984C12.341 11.3215 12.1741 11.3907 12 11.3907C11.8259 11.3907 11.659 11.3215 11.5359 11.1984C11.4129 11.0754 11.3437 10.9084 11.3437 10.7344C11.3437 10.5603 11.4129 10.3934 11.5359 10.2703L12.3797 9.42656C12.2681 9.42188 12.1406 9.42188 12 9.42188C11.3881 9.42188 10.79 9.60332 10.2812 9.94327C9.77244 10.2832 9.37591 10.7664 9.14175 11.3317C8.90759 11.897 8.84632 12.5191 8.9657 13.1192C9.08507 13.7193 9.37972 14.2706 9.81239 14.7032C10.2451 15.1359 10.7963 15.4306 11.3964 15.5499C11.9966 15.6693 12.6186 15.608 13.1839 15.3739C13.7492 15.1397 14.2324 14.7432 14.5724 14.2344C14.9123 13.7257 15.0938 13.1275 15.0938 12.5156C15.0938 12.3416 15.1629 12.1747 15.286 12.0516C15.409 11.9285 15.576 11.8594 15.75 11.8594C15.924 11.8594 16.091 11.9285 16.214 12.0516C16.3371 12.1747 16.4062 12.3416 16.4062 12.5156C16.4049 13.6838 15.9402 14.8038 15.1142 15.6298C14.2881 16.4558 13.1682 16.9205 12 16.9219Z" fill="#888888"/>
</svg>
