<svg width="24" height="24" viewBox="0 0 24 24" fill="none" xmlns="http://www.w3.org/2000/svg">
<path fill-rule="evenodd" clip-rule="evenodd" d="M7.41643 6.92163C8.77313 6.0151 10.3682 5.53125 11.9999 5.53125C13.0483 5.53125 13.7843 5.56665 14.2987 5.62371C14.7742 5.67646 15.1703 5.75673 15.4415 5.92093C15.5877 6.00945 15.821 6.19839 15.881 6.53362C15.9412 6.86986 15.785 7.11753 15.6984 7.22537C15.6081 7.33795 15.5078 7.40978 15.4561 7.44413C15.4258 7.46428 15.3989 7.48018 15.3783 7.49171C15.3679 7.49757 15.3586 7.50257 15.3507 7.50667C15.3483 7.50795 15.346 7.50916 15.3438 7.51028C15.3425 7.51095 15.3412 7.5116 15.34 7.51222C15.3383 7.51304 15.3368 7.51382 15.3354 7.51454L15.3333 7.51558L15.3323 7.51607C15.3318 7.51631 15.3313 7.51655 14.9999 6.84375L15.3313 7.51655C14.9597 7.69959 14.5101 7.54675 14.3271 7.17518C14.3208 7.16242 14.3149 7.14958 14.3094 7.13665C14.2576 7.12931 14.1991 7.12186 14.1333 7.11457C13.6969 7.06616 13.0225 7.03125 11.9999 7.03125C10.6649 7.03125 9.35981 7.42713 8.24978 8.16883C7.13975 8.91053 6.27459 9.96474 5.7637 11.1981C5.2528 12.4315 5.11913 13.7887 5.37958 15.0981C5.64003 16.4075 6.28291 17.6102 7.22691 18.5542C8.17092 19.4982 9.37365 20.1411 10.683 20.4016C11.9924 20.662 13.3496 20.5283 14.583 20.0174C15.8164 19.5065 16.8706 18.6414 17.6123 17.5313C18.354 16.4213 18.7499 15.1163 18.7499 13.7812C18.7499 13.367 19.0857 13.0312 19.4999 13.0312C19.9141 13.0312 20.2499 13.367 20.2499 13.7812C20.2499 15.4129 19.766 17.008 18.8595 18.3647C17.953 19.7214 16.6645 20.7788 15.157 21.4033C13.6495 22.0277 11.9907 22.1911 10.3904 21.8727C8.79004 21.5544 7.32003 20.7687 6.16625 19.6149C5.01247 18.4611 4.22673 16.9911 3.9084 15.3907C3.59008 13.7904 3.75345 12.1316 4.37788 10.6241C5.0023 9.11662 6.05972 7.82815 7.41643 6.92163Z" fill="#888888"/>
<path fill-rule="evenodd" clip-rule="evenodd" d="M11.4697 2.18842C11.7626 1.89553 12.2374 1.89553 12.5303 2.18842L16.2803 5.93842C16.5732 6.23131 16.5732 6.70619 16.2803 6.99908L12.5303 10.7491C12.2374 11.042 11.7626 11.042 11.4697 10.7491C11.1768 10.4562 11.1768 9.98131 11.4697 9.68842L14.6893 6.46875L11.4697 3.24908C11.1768 2.95619 11.1768 2.48131 11.4697 2.18842Z" fill="#888888"/>
</svg>
