<svg width="24" height="24" viewBox="0 0 24 24" fill="none" xmlns="http://www.w3.org/2000/svg">
<path d="M19.4247 4.5751C18.4514 3.59221 17.2936 2.81131 16.0176 2.27725C14.7416 1.7432 13.3727 1.46652 11.9895 1.46312C10.6062 1.45971 9.23597 1.72965 7.95739 2.25741C6.6788 2.78518 5.51709 3.56038 4.539 4.53847C3.56091 5.51656 2.78572 6.67826 2.25795 7.95685C1.73018 9.23544 1.46025 10.6057 1.46365 11.9889C1.46706 13.3722 1.74374 14.7411 2.27779 16.0171C2.81184 17.293 3.59275 18.4509 4.57564 19.4242C5.5489 20.4071 6.70678 21.188 7.98276 21.722C9.25873 22.2561 10.6277 22.5327 12.0109 22.5361C13.3941 22.5396 14.7644 22.2696 16.043 21.7419C17.3215 21.2141 18.4832 20.4389 19.4613 19.4608C20.4394 18.4827 21.2146 17.321 21.7424 16.0424C22.2702 14.7638 22.5401 13.3936 22.5367 12.0103C22.5333 10.6271 22.2566 9.25819 21.7226 7.98222C21.1885 6.70625 20.4076 5.54837 19.4247 4.5751ZM8.62517 9.74963C8.84767 9.74963 9.06518 9.81561 9.25019 9.93923C9.43519 10.0628 9.57939 10.2385 9.66454 10.4441C9.74968 10.6497 9.77196 10.8759 9.72855 11.0941C9.68515 11.3123 9.578 11.5128 9.42067 11.6701C9.26333 11.8275 9.06288 11.9346 8.84465 11.978C8.62642 12.0214 8.40022 11.9991 8.19465 11.914C7.98908 11.8289 7.81338 11.6847 7.68977 11.4997C7.56615 11.3146 7.50017 11.0971 7.50017 10.8746C7.4998 10.7268 7.52865 10.5803 7.58505 10.4437C7.64146 10.307 7.72431 10.1829 7.82885 10.0783C7.93339 9.97377 8.05755 9.89092 8.19421 9.83451C8.33087 9.77811 8.47733 9.74926 8.62517 9.74963ZM7.51564 16.7729C8.07814 14.8839 9.86876 13.4996 11.9978 13.4996C14.1269 13.4996 15.9175 14.8839 16.4842 16.7729C16.5001 16.8291 16.5026 16.8883 16.4915 16.9456C16.4805 17.003 16.4562 17.057 16.4206 17.1033C16.385 17.1496 16.3391 17.1869 16.2865 17.2123C16.2339 17.2377 16.1761 17.2505 16.1177 17.2496H7.8822C7.8238 17.2505 7.766 17.2377 7.71341 17.2123C7.66082 17.1869 7.61489 17.1496 7.57929 17.1033C7.54369 17.057 7.51939 17.003 7.50834 16.9456C7.49729 16.8883 7.49979 16.8291 7.51564 16.7729ZM15.3752 11.9996C15.1527 11.9996 14.9352 11.9337 14.7502 11.81C14.5651 11.6864 14.421 11.5107 14.3358 11.3052C14.2507 11.0996 14.2284 10.8734 14.2718 10.6552C14.3152 10.4369 14.4223 10.2365 14.5797 10.0791C14.737 9.92181 14.9375 9.81466 15.1557 9.77125C15.3739 9.72784 15.6001 9.75012 15.8057 9.83527C16.0113 9.92042 16.187 10.0646 16.3106 10.2496C16.4342 10.4346 16.5002 10.6521 16.5002 10.8746C16.5005 11.0225 16.4717 11.1689 16.4153 11.3056C16.3589 11.4423 16.276 11.5664 16.1715 11.671C16.067 11.7755 15.9428 11.8583 15.8061 11.9148C15.6695 11.9712 15.523 12 15.3752 11.9996Z" fill="#888888"/>
</svg>
