<svg width="24" height="24" viewBox="0 0 24 24" fill="none" xmlns="http://www.w3.org/2000/svg">
<path d="M21.8409 5.61358L18.3862 2.1589C18.1778 1.94929 17.9299 1.78312 17.6568 1.66999C17.3837 1.55686 17.0909 1.49902 16.7953 1.49983H4.5C3.70435 1.49983 2.94129 1.8159 2.37868 2.37851C1.81607 2.94112 1.5 3.70418 1.5 4.49983V19.4998C1.5 20.2955 1.81607 21.0585 2.37868 21.6212C2.94129 22.1838 3.70435 22.4998 4.5 22.4998H19.5C20.2956 22.4998 21.0587 22.1838 21.6213 21.6212C22.1839 21.0585 22.5 20.2955 22.5 19.4998V7.20452C22.5008 6.90893 22.443 6.61611 22.3298 6.34303C22.2167 6.06994 22.0505 5.82201 21.8409 5.61358ZM5.625 5.24983H13.875C13.9745 5.24983 14.0698 5.28934 14.1402 5.35967C14.2105 5.42999 14.25 5.52538 14.25 5.62483V7.87483C14.25 7.97429 14.2105 8.06967 14.1402 8.14C14.0698 8.21032 13.9745 8.24983 13.875 8.24983H5.625C5.52554 8.24983 5.43016 8.21032 5.35983 8.14C5.28951 8.06967 5.25 7.97429 5.25 7.87483V5.62483C5.25 5.52538 5.28951 5.42999 5.35983 5.35967C5.43016 5.28934 5.52554 5.24983 5.625 5.24983ZM12.1758 20.2456C11.4199 20.2811 10.6711 20.0871 10.0275 19.6891C9.38395 19.2911 8.87586 18.7078 8.56997 18.0157C8.26409 17.3236 8.17473 16.5552 8.31363 15.8113C8.45254 15.0675 8.81321 14.3831 9.34826 13.8481C9.8833 13.313 10.5677 12.9524 11.3115 12.8135C12.0553 12.6746 12.8238 12.7639 13.5158 13.0698C14.2079 13.3757 14.7913 13.8838 15.1893 14.5273C15.5873 15.1709 15.7813 15.9198 15.7458 16.6756C15.7014 17.6081 15.311 18.4906 14.6509 19.1507C13.9907 19.8108 13.1083 20.2012 12.1758 20.2456Z" fill="#888888"/>
<path d="M12 18.75C13.2426 18.75 14.25 17.7426 14.25 16.5C14.25 15.2574 13.2426 14.25 12 14.25C10.7574 14.25 9.75 15.2574 9.75 16.5C9.75 17.7426 10.7574 18.75 12 18.75Z" fill="#888888"/>
</svg>
