<svg width="24" height="24" viewBox="0 0 24 24" fill="none" xmlns="http://www.w3.org/2000/svg">
<path d="M12 2.25C6.62391 2.25 2.25 6.62391 2.25 12C2.25 17.3761 6.62391 21.75 12 21.75C17.3761 21.75 21.75 17.3761 21.75 12C21.75 6.62391 17.3761 2.25 12 2.25ZM10.125 17.25H8.8125C8.26568 17.2494 7.74144 17.0319 7.35478 16.6452C6.96812 16.2586 6.75062 15.7343 6.75 15.1875V13.875C6.75 13.6761 6.82902 13.4853 6.96967 13.3447C7.11032 13.204 7.30109 13.125 7.5 13.125C7.69891 13.125 7.88968 13.204 8.03033 13.3447C8.17098 13.4853 8.25 13.6761 8.25 13.875V15.1875C8.25 15.3367 8.30926 15.4798 8.41475 15.5852C8.52024 15.6907 8.66332 15.75 8.8125 15.75H10.125C10.3239 15.75 10.5147 15.829 10.6553 15.9697C10.796 16.1103 10.875 16.3011 10.875 16.5C10.875 16.6989 10.796 16.8897 10.6553 17.0303C10.5147 17.171 10.3239 17.25 10.125 17.25ZM10.125 8.25H8.8125C8.66332 8.25 8.52024 8.30926 8.41475 8.41475C8.30926 8.52024 8.25 8.66332 8.25 8.8125V10.125C8.25 10.3239 8.17098 10.5147 8.03033 10.6553C7.88968 10.796 7.69891 10.875 7.5 10.875C7.30109 10.875 7.11032 10.796 6.96967 10.6553C6.82902 10.5147 6.75 10.3239 6.75 10.125V8.8125C6.75062 8.26568 6.96812 7.74144 7.35478 7.35478C7.74144 6.96812 8.26568 6.75062 8.8125 6.75H10.125C10.3239 6.75 10.5147 6.82902 10.6553 6.96967C10.796 7.11032 10.875 7.30109 10.875 7.5C10.875 7.69891 10.796 7.88968 10.6553 8.03033C10.5147 8.17098 10.3239 8.25 10.125 8.25ZM17.25 15.1875C17.2494 15.7343 17.0319 16.2586 16.6452 16.6452C16.2586 17.0319 15.7343 17.2494 15.1875 17.25H13.875C13.6761 17.25 13.4853 17.171 13.3447 17.0303C13.204 16.8897 13.125 16.6989 13.125 16.5C13.125 16.3011 13.204 16.1103 13.3447 15.9697C13.4853 15.829 13.6761 15.75 13.875 15.75H15.1875C15.3367 15.75 15.4798 15.6907 15.5852 15.5852C15.6907 15.4798 15.75 15.3367 15.75 15.1875V13.875C15.75 13.6761 15.829 13.4853 15.9697 13.3447C16.1103 13.204 16.3011 13.125 16.5 13.125C16.6989 13.125 16.8897 13.204 17.0303 13.3447C17.171 13.4853 17.25 13.6761 17.25 13.875V15.1875ZM17.25 10.125C17.25 10.3239 17.171 10.5147 17.0303 10.6553C16.8897 10.796 16.6989 10.875 16.5 10.875C16.3011 10.875 16.1103 10.796 15.9697 10.6553C15.829 10.5147 15.75 10.3239 15.75 10.125V8.8125C15.75 8.66332 15.6907 8.52024 15.5852 8.41475C15.4798 8.30926 15.3367 8.25 15.1875 8.25H13.875C13.6761 8.25 13.4853 8.17098 13.3447 8.03033C13.204 7.88968 13.125 7.69891 13.125 7.5C13.125 7.30109 13.204 7.11032 13.3447 6.96967C13.4853 6.82902 13.6761 6.75 13.875 6.75H15.1875C15.7343 6.75062 16.2586 6.96812 16.6452 7.35478C17.0319 7.74144 17.2494 8.26568 17.25 8.8125V10.125Z" fill="#888888"/>
</svg>
