<svg width="24" height="24" viewBox="0 0 24 24" fill="none" xmlns="http://www.w3.org/2000/svg">
<path d="M21 12C21 7.03125 16.9688 3 12 3C7.03125 3 3 7.03125 3 12C3 16.9688 7.03125 21 12 21C16.9688 21 21 16.9688 21 12Z" stroke="#888888" stroke-miterlimit="10"/>
<path d="M13.875 16.5H15.1875C15.5356 16.5 15.8694 16.3617 16.1156 16.1156C16.3617 15.8694 16.5 15.5356 16.5 15.1875V13.875" stroke="#888888" stroke-linecap="round" stroke-linejoin="round"/>
<path d="M16.5 10.125V8.8125C16.5 8.4644 16.3617 8.13056 16.1156 7.88442C15.8694 7.63828 15.5356 7.5 15.1875 7.5H13.875" stroke="#888888" stroke-linecap="round" stroke-linejoin="round"/>
<path d="M10.125 16.5H8.8125C8.4644 16.5 8.13056 16.3617 7.88442 16.1156C7.63828 15.8694 7.5 15.5356 7.5 15.1875V13.875" stroke="#888888" stroke-linecap="round" stroke-linejoin="round"/>
<path d="M7.5 10.125V8.8125C7.5 8.4644 7.63828 8.13056 7.88442 7.88442C8.13056 7.63828 8.4644 7.5 8.8125 7.5H10.125" stroke="#888888" stroke-linecap="round" stroke-linejoin="round"/>
</svg>
