<svg width="24" height="24" viewBox="0 0 24 24" fill="none" xmlns="http://www.w3.org/2000/svg">
<path d="M12 17.2506C11.8694 17.2506 11.7412 17.2165 11.6278 17.1517L5.0625 13.3993C5.00545 13.3664 4.94074 13.3491 4.87486 13.3491C4.80899 13.3491 4.74428 13.3665 4.68726 13.3995C4.63024 13.4324 4.58291 13.4799 4.55003 13.537C4.51716 13.594 4.4999 13.6588 4.5 13.7246V17.2506C4.49989 17.3844 4.53561 17.5159 4.60344 17.6313C4.67128 17.7467 4.76877 17.8418 4.88578 17.9068L11.6358 21.6568C11.7472 21.7187 11.8725 21.7512 12 21.7512C12.1275 21.7512 12.2528 21.7187 12.3642 21.6568L19.1142 17.9068C19.2312 17.8418 19.3287 17.7467 19.3966 17.6313C19.4644 17.5159 19.5001 17.3844 19.5 17.2506V13.7246C19.5001 13.6588 19.4828 13.594 19.45 13.537C19.4171 13.4799 19.3698 13.4324 19.3127 13.3995C19.2557 13.3665 19.191 13.3491 19.1251 13.3491C19.0593 13.3491 18.9945 13.3664 18.9375 13.3993L12.3722 17.1517C12.2588 17.2165 12.1306 17.2506 12 17.2506Z" fill="#888888"/>
<path d="M23.2464 8.93052C23.2464 8.93052 23.2464 8.92677 23.2464 8.92536C23.2343 8.80648 23.1939 8.69221 23.1287 8.59209C23.0634 8.49196 22.9752 8.40887 22.8714 8.34974L12.3714 2.34974C12.258 2.28495 12.1297 2.25087 11.9992 2.25087C11.8686 2.25087 11.7404 2.28495 11.627 2.34974L1.12701 8.34974C1.01225 8.41535 0.916876 8.51012 0.85054 8.62446C0.784205 8.7388 0.749268 8.86864 0.749268 9.00083C0.749268 9.13302 0.784205 9.26286 0.85054 9.3772C0.916876 9.49154 1.01225 9.58631 1.12701 9.65192L11.627 15.6519C11.7404 15.7167 11.8686 15.7508 11.9992 15.7508C12.1297 15.7508 12.258 15.7167 12.3714 15.6519L21.6095 10.3733C21.6238 10.3651 21.64 10.3608 21.6565 10.3608C21.673 10.3608 21.6892 10.3651 21.7034 10.3734C21.7177 10.3817 21.7295 10.3936 21.7377 10.4079C21.7459 10.4222 21.7502 10.4384 21.7501 10.4549V17.2297C21.7501 17.6333 22.0604 17.9797 22.464 17.9999C22.5654 18.0048 22.6668 17.989 22.7619 17.9536C22.8571 17.9181 22.944 17.8638 23.0175 17.7937C23.091 17.7237 23.1495 17.6395 23.1895 17.5461C23.2295 17.4528 23.2501 17.3524 23.2501 17.2508V9.00083C23.2501 8.97734 23.2488 8.95388 23.2464 8.93052Z" fill="#888888"/>
</svg>
