<svg width="24" height="24" viewBox="0 0 24 24" fill="none" xmlns="http://www.w3.org/2000/svg">
<path d="M22.3402 10.6424L22.3327 10.6392L2.31328 2.33573C2.1449 2.26525 1.96167 2.23761 1.77999 2.25528C1.59831 2.27295 1.42384 2.33537 1.27219 2.43698C1.11197 2.54196 0.980359 2.68513 0.889207 2.85361C0.798055 3.02208 0.750218 3.21058 0.75 3.40213V8.7126C0.750089 8.97447 0.841528 9.2281 1.00856 9.42978C1.17558 9.63147 1.40774 9.76856 1.665 9.81745L12.5836 11.8364C12.6265 11.8445 12.6652 11.8673 12.6931 11.901C12.7209 11.9346 12.7362 11.9769 12.7362 12.0206C12.7362 12.0642 12.7209 12.1065 12.6931 12.1402C12.6652 12.1738 12.6265 12.1967 12.5836 12.2048L1.66547 14.2237C1.40828 14.2725 1.17614 14.4094 1.00903 14.6109C0.841932 14.8124 0.750328 15.0658 0.75 15.3276V20.639C0.749876 20.8219 0.795166 21.002 0.881807 21.1631C0.968448 21.3242 1.09373 21.4612 1.24641 21.562C1.43006 21.684 1.6456 21.7492 1.86609 21.7495C2.01938 21.7493 2.1711 21.7186 2.31234 21.659L22.3313 13.4029L22.3402 13.3987C22.6096 13.2829 22.8392 13.0906 23.0006 12.8457C23.1619 12.6007 23.2479 12.3139 23.2479 12.0206C23.2479 11.7273 23.1619 11.4404 23.0006 11.1955C22.8392 10.9505 22.6096 10.7583 22.3402 10.6424Z" fill="#888888"/>
</svg>
