<svg width="24" height="24" viewBox="0 0 24 24" fill="none" xmlns="http://www.w3.org/2000/svg">
<path d="M12 20.0621C9.54609 20.0621 6.77859 19.5178 4.59703 18.6089C3.79688 18.2719 3.11156 17.7268 2.55141 17.2964C2.52362 17.2752 2.49044 17.2621 2.45562 17.2588C2.42081 17.2554 2.38574 17.2618 2.35438 17.2773C2.32302 17.2928 2.29663 17.3168 2.27818 17.3465C2.25974 17.3762 2.24998 17.4105 2.25 17.4455V18.0352C2.25 19.351 3.35109 20.5299 5.35031 21.3549C7.13859 22.0931 9.50016 22.4996 12 22.4996C14.4998 22.4996 16.8609 22.0931 18.6497 21.3549C20.6489 20.5308 21.75 19.351 21.75 18.0352V17.4455C21.75 17.4105 21.7403 17.3762 21.7218 17.3465C21.7034 17.3168 21.677 17.2928 21.6456 17.2773C21.6143 17.2618 21.5792 17.2554 21.5444 17.2588C21.5096 17.2621 21.4764 17.2752 21.4486 17.2964C20.8884 17.7263 20.2031 18.2719 19.4025 18.6089C17.2209 19.5178 14.4539 20.0621 12 20.0621Z" fill="#888888"/>
<path d="M21.75 5.93016C21.712 4.63406 20.6166 3.47391 18.6562 2.65594C16.8628 1.91063 14.5003 1.5 12 1.5C9.49969 1.5 7.13719 1.91063 5.34797 2.65594C3.38953 3.47203 2.29406 4.62984 2.25422 5.92266L2.25 6.75C2.25 7.05047 2.49375 7.5225 2.93578 7.90922C3.4575 8.36531 4.23188 8.81531 5.17547 9.20906C7.18313 10.0481 9.73453 10.5469 12 10.5469C14.2655 10.5469 16.8169 10.0463 18.8245 9.20719C19.7681 8.81344 20.5425 8.36344 21.0642 7.90734C21.5063 7.52297 21.75 7.05094 21.75 6.75V5.93016Z" fill="#888888"/>
<path d="M19.4025 10.5932C17.2214 11.5039 14.4539 12.0463 12 12.0463C9.5461 12.0463 6.7786 11.5039 4.59704 10.5932C3.79689 10.258 3.11157 9.71237 2.55142 9.28065C2.5235 9.2593 2.49015 9.24623 2.45517 9.24291C2.42018 9.2396 2.38497 9.24619 2.35354 9.26193C2.32212 9.27766 2.29575 9.30191 2.27745 9.33191C2.25914 9.36191 2.24963 9.39645 2.25001 9.43159V10.8744C2.25001 11.1749 2.49376 11.5532 2.93579 11.9399C3.45751 12.3964 4.23189 12.846 5.17548 13.2402C7.18314 14.0779 9.73454 14.5775 12 14.5775C14.2655 14.5775 16.8169 14.0769 18.8245 13.2383C19.7681 12.8441 20.5425 12.3946 21.0642 11.938C21.5063 11.5527 21.75 11.1749 21.75 10.8744V9.43159C21.75 9.39661 21.7403 9.36232 21.7218 9.3326C21.7034 9.30287 21.677 9.2789 21.6456 9.26339C21.6143 9.24789 21.5792 9.24146 21.5444 9.24484C21.5096 9.24822 21.4764 9.26128 21.4486 9.28253C20.8884 9.71237 20.2031 10.258 19.4025 10.5932Z" fill="#888888"/>
<path d="M19.4025 14.6245C17.2209 15.5344 14.4539 16.0777 12 16.0777C9.5461 16.0777 6.7786 15.5344 4.59703 14.6245C3.79688 14.2884 3.11157 13.7428 2.55141 13.312C2.52356 13.2907 2.49029 13.2777 2.45539 13.2743C2.42049 13.271 2.38535 13.2775 2.35396 13.2931C2.32257 13.3087 2.29619 13.3328 2.27781 13.3627C2.25944 13.3926 2.2498 13.427 2.25 13.462V14.8589C2.25 15.1594 2.49375 15.5372 2.93532 15.9234C3.45703 16.38 4.23188 16.8295 5.17547 17.2238C7.18313 18.0614 9.73406 18.562 12 18.562C14.2659 18.562 16.8169 18.0614 18.8245 17.2228C19.7681 16.8286 20.5425 16.3791 21.0642 15.9225C21.5063 15.5358 21.75 15.1575 21.75 14.8589V13.462C21.75 13.4271 21.7403 13.3928 21.7218 13.363C21.7034 13.3333 21.677 13.3093 21.6456 13.2938C21.6143 13.2783 21.5792 13.2719 21.5444 13.2753C21.5096 13.2787 21.4764 13.2917 21.4486 13.313C20.8884 13.7428 20.2031 14.2884 19.4025 14.6245Z" fill="#888888"/>
</svg>
