<svg width="24" height="24" viewBox="0 0 24 24" fill="none" xmlns="http://www.w3.org/2000/svg">
<path fill-rule="evenodd" clip-rule="evenodd" d="M8.00482 3.76152C9.24369 3.16604 10.6009 2.85764 11.9755 2.85926C17.0266 2.8595 21.125 6.9464 21.125 11.99V13.3869C21.125 13.6406 20.9968 13.877 20.7843 14.0154C20.5717 14.1538 20.3036 14.1754 20.0717 14.0728L5.1026 7.45267C4.88993 7.35862 4.73291 7.17123 4.67753 6.94538C4.62215 6.71953 4.67466 6.48077 4.81969 6.29899C5.67708 5.22442 6.76581 4.35707 8.00482 3.76152ZM11.9741 4.35926C10.825 4.35784 9.69033 4.61564 8.65464 5.11346C7.91797 5.46755 7.24485 5.93659 6.65967 6.50115L19.625 12.2352V11.99C19.625 7.77789 16.2012 4.35926 11.975 4.35926L11.9741 4.35926ZM3.59985 9.86051C4.01407 9.86051 4.34985 10.1963 4.34985 10.6105V12.0074C4.34985 16.2247 7.77184 19.6404 11.9997 19.6405C13.1461 19.6387 14.2777 19.3812 15.3121 18.8868C16.3467 18.3923 17.2579 17.6731 17.9794 16.7818C18.24 16.4598 18.7123 16.4101 19.0342 16.6707C19.3562 16.9313 19.4059 17.4035 19.1453 17.7255C18.2835 18.7903 17.1949 19.6494 15.9589 20.2402C14.723 20.8309 13.3708 21.1385 12.0009 21.1405L11.9999 21.1405C6.94654 21.1405 2.84985 17.0563 2.84985 12.0074V10.6105C2.84985 10.1963 3.18564 9.86051 3.59985 9.86051Z" fill="#888888"/>
<path fill-rule="evenodd" clip-rule="evenodd" d="M3.03217 9.40717C3.32047 9.11887 3.78628 9.11369 4.08091 9.39552L6.23716 11.458C6.53649 11.7443 6.54704 12.2191 6.26072 12.5184C5.97441 12.8177 5.49966 12.8283 5.20033 12.542L3.57415 10.9865L2.03033 12.5303C1.73744 12.8232 1.26256 12.8232 0.96967 12.5303C0.676777 12.2374 0.676777 11.7626 0.96967 11.4697L3.03217 9.40717Z" fill="#888888"/>
<path fill-rule="evenodd" clip-rule="evenodd" d="M17.7393 11.4816C18.0256 11.1822 18.5003 11.1717 18.7997 11.458L20.4258 13.0135L21.9697 11.4696C22.2626 11.1767 22.7374 11.1767 23.0303 11.4696C23.3232 11.7625 23.3232 12.2374 23.0303 12.5303L20.9678 14.5928C20.6795 14.8811 20.2137 14.8863 19.9191 14.6045L17.7628 12.542C17.4635 12.2556 17.453 11.7809 17.7393 11.4816Z" fill="#888888"/>
</svg>
