<svg width="24" height="24" viewBox="0 0 24 24" fill="none" xmlns="http://www.w3.org/2000/svg">
<path d="M5.04185 11.7188C4.94242 11.5466 4.77868 11.4209 4.58661 11.3694C4.39455 11.3179 4.18989 11.3447 4.01763 11.4441L1.68747 12.788C1.46934 12.913 1.27879 13.0809 1.12733 13.2816C0.975872 13.4823 0.866638 13.7116 0.806221 13.9557C0.689961 14.4396 0.766445 14.9497 1.0195 15.3783L1.22388 15.7317C1.47268 16.162 1.88211 16.4758 2.36219 16.6043C2.84228 16.7328 3.35374 16.6655 3.78419 16.4171L6.11248 15.075C6.19785 15.0258 6.27269 14.9603 6.33273 14.8822C6.39276 14.804 6.43682 14.7149 6.46237 14.6197C6.48792 14.5245 6.49447 14.4253 6.48165 14.3276C6.46883 14.2299 6.43688 14.1357 6.38763 14.0503L5.04185 11.7188Z" fill="#888888"/>
<path d="M17.9456 20.6619L13.5338 11.9056C13.523 11.8842 13.5209 11.8595 13.5278 11.8366C13.5347 11.8137 13.5501 11.7943 13.5708 11.7823L13.9599 11.5578C14.0452 11.5086 14.12 11.443 14.18 11.3649C14.24 11.2867 14.284 11.1975 14.3095 11.1024C14.335 11.0072 14.3415 10.908 14.3287 10.8103C14.3158 10.7126 14.2838 10.6184 14.2346 10.5331L12.0066 6.67389C11.9574 6.58852 11.8919 6.51368 11.8137 6.45364C11.7356 6.39361 11.6464 6.34955 11.5513 6.324C11.4561 6.29845 11.3568 6.2919 11.2591 6.30472C11.1614 6.31754 11.0672 6.34949 10.9819 6.39873L6.93284 8.73311C6.71909 8.85557 6.53176 9.01922 6.38169 9.21458C6.23163 9.40994 6.12182 9.63314 6.05862 9.87123C6.01563 10.0199 5.994 10.174 5.9944 10.3287C5.99721 10.685 6.42565 11.3928 6.84377 12.1231C7.2933 12.9083 7.74565 13.7112 8.07846 13.9114C8.29034 14.0389 8.6644 14.1411 8.97893 14.1411H9.0183L5.30018 22.1848C5.25875 22.2743 5.23536 22.371 5.23134 22.4694C5.22731 22.5679 5.24274 22.6662 5.27673 22.7587C5.31072 22.8512 5.36261 22.9361 5.42944 23.0086C5.49626 23.081 5.57671 23.1396 5.66618 23.1809C5.75565 23.2223 5.85239 23.2456 5.95087 23.2495C6.04935 23.2534 6.14764 23.2379 6.24011 23.2038C6.33259 23.1697 6.41743 23.1177 6.48981 23.0508C6.56218 22.9839 6.62066 22.9034 6.6619 22.8139L11.0531 13.3147C11.0855 13.2444 11.1389 13.1859 11.206 13.1473L12.1064 12.628C12.1175 12.6216 12.1297 12.6176 12.1424 12.6162C12.155 12.6148 12.1679 12.6159 12.1801 12.6196C12.1923 12.6233 12.2036 12.6294 12.2133 12.6376C12.2231 12.6458 12.231 12.6559 12.2367 12.6673L16.606 21.3392C16.6955 21.5169 16.8519 21.6517 17.0408 21.714C17.2297 21.7763 17.4357 21.7611 17.6133 21.6715C17.791 21.582 17.9258 21.4256 17.9881 21.2367C18.0504 21.0478 18.0352 20.8419 17.9456 20.6642V20.6619Z" fill="#888888"/>
<path d="M22.9786 5.42604L20.8167 1.68823C20.5672 1.25864 20.1577 0.945355 19.6778 0.816923C19.1979 0.688492 18.6866 0.755366 18.2559 1.00292L13.8806 3.52385C13.6668 3.64623 13.4794 3.80985 13.3293 4.00523C13.1793 4.2006 13.0695 4.42384 13.0064 4.66198C12.9443 4.86275 12.924 5.07415 12.9469 5.28307C13.0284 5.87463 13.5562 6.70807 14.1848 7.80917C14.8214 8.92151 15.54 10.1754 15.9159 10.4468C16.2337 10.6715 16.6133 10.7922 17.0025 10.7923C17.3303 10.7924 17.6524 10.7061 17.9362 10.542L22.3125 8.01963C22.5302 7.89491 22.7204 7.72747 22.8718 7.52738C23.0231 7.32729 23.1325 7.09867 23.1933 6.85526C23.3104 6.36907 23.2334 5.85637 22.9786 5.42604Z" fill="#888888"/>
</svg>
