<svg width="24" height="24" viewBox="0 0 24 24" fill="none" xmlns="http://www.w3.org/2000/svg">
<path d="M12 21.75C17.3848 21.75 21.75 17.3848 21.75 12C21.75 6.61522 17.3848 2.25 12 2.25C6.61522 2.25 2.25 6.61522 2.25 12C2.25 17.3848 6.61522 21.75 12 21.75Z" stroke="#888888" stroke-linecap="round" stroke-linejoin="round"/>
<path d="M21.6295 12.7238C21.3909 12.7411 21.2433 12.75 21 12.75C15.615 12.75 11.25 8.385 11.25 3C11.25 2.74828 11.2594 2.59266 11.2781 2.34375" stroke="#888888" stroke-linecap="round" stroke-linejoin="round"/>
<path d="M2.32739 11.2762C2.32739 11.2762 2.75817 11.25 3.00005 11.25C8.38505 11.25 12.75 15.615 12.75 21C12.75 21.2522 12.7215 21.6562 12.7215 21.6562" stroke="#888888" stroke-linecap="round" stroke-linejoin="round"/>
</svg>
