<svg width="24" height="24" viewBox="0 0 24 24" fill="none" xmlns="http://www.w3.org/2000/svg">
<path d="M13.7157 19.1154L8.09069 4.11539C8.01699 3.9188 7.88505 3.7494 7.7125 3.6298C7.53995 3.51021 7.33501 3.44614 7.12506 3.44614C6.91512 3.44614 6.71018 3.51021 6.53763 3.6298C6.36508 3.7494 6.23313 3.9188 6.15944 4.11539L0.534438 19.1154C0.441404 19.3708 0.452993 19.6527 0.566683 19.8996C0.680373 20.1465 0.886968 20.3386 1.14153 20.434C1.39609 20.5294 1.67802 20.5204 1.926 20.409C2.17397 20.2976 2.36793 20.0928 2.46569 19.8391L4.16069 15.3194C4.16736 15.3016 4.17933 15.2862 4.195 15.2753C4.21066 15.2644 4.22927 15.2585 4.24834 15.2585H10.0018C10.0209 15.2585 10.0395 15.2644 10.0551 15.2753C10.0708 15.2862 10.0828 15.3016 10.0894 15.3194L11.7844 19.8391C11.8822 20.0928 12.0762 20.2976 12.3241 20.409C12.5721 20.5204 12.854 20.5294 13.1086 20.434C13.3632 20.3386 13.5698 20.1465 13.6834 19.8996C13.7971 19.6527 13.8087 19.3708 13.7157 19.1154ZM5.00444 13.0685L7.03741 7.64742C7.04415 7.62963 7.05615 7.61432 7.07181 7.60351C7.08747 7.5927 7.10604 7.58691 7.12506 7.58691C7.14409 7.58691 7.16266 7.5927 7.17832 7.60351C7.19397 7.61432 7.20597 7.62963 7.21272 7.64742L9.24569 13.0694C9.25098 13.0836 9.25277 13.0989 9.2509 13.1139C9.24903 13.1289 9.24355 13.1432 9.23494 13.1556C9.22633 13.1681 9.21484 13.1782 9.20144 13.1853C9.18805 13.1923 9.17316 13.196 9.15803 13.196H5.09209C5.07697 13.196 5.06208 13.1923 5.04868 13.1853C5.03529 13.1782 5.0238 13.1681 5.01519 13.1556C5.00658 13.1432 5.0011 13.1289 4.99923 13.1139C4.99736 13.0989 4.99914 13.0836 5.00444 13.0694V13.0685Z" fill="#888888"/>
<path d="M18.7861 7.94453C16.8305 7.93046 15.0792 9.06343 14.333 10.8227C14.2261 11.0744 14.2235 11.3583 14.3259 11.6119C14.4283 11.8655 14.6273 12.0681 14.8791 12.175C15.1308 12.2819 15.4147 12.2844 15.6683 12.182C15.9219 12.0796 16.1245 11.8807 16.2314 11.6289C16.6477 10.6497 17.6269 10.0145 18.7308 10.007C20.2458 9.99671 21.4688 11.2492 21.4688 12.7656C21.4688 12.7839 21.4617 12.8014 21.449 12.8145C21.4363 12.8276 21.419 12.8353 21.4008 12.8359C20.3733 12.8645 19.1545 12.933 18.067 13.0609C15.5006 13.3628 13.9688 14.762 13.9688 16.8039C13.9688 17.8909 14.3794 18.8664 15.1252 19.5545C15.825 20.1991 16.7812 20.5539 17.8125 20.5539C19.2656 20.5539 20.5167 20.1789 21.4659 19.4655H21.4688C21.4682 19.6009 21.4943 19.7351 21.5455 19.8604C21.5968 19.9858 21.6723 20.0998 21.7676 20.196C21.863 20.2921 21.9763 20.3686 22.1012 20.421C22.2261 20.4733 22.3601 20.5006 22.4955 20.5012C22.631 20.5018 22.7652 20.4757 22.8905 20.4244C23.0159 20.3731 23.1299 20.2976 23.2261 20.2023C23.3222 20.1069 23.3987 19.9936 23.451 19.8687C23.5034 19.7438 23.5307 19.6098 23.5312 19.4744V12.7712C23.5312 10.1378 21.4219 7.96375 18.7861 7.94453ZM17.8125 18.4914C16.9908 18.4914 16.0312 18.0494 16.0312 16.8039C16.0312 16.3037 16.2108 15.9536 16.6139 15.6681C17.0062 15.3902 17.6077 15.1919 18.308 15.1094C19.298 14.9927 20.4089 14.9284 21.3614 14.8998C21.3741 14.8998 21.3867 14.9024 21.3984 14.9074C21.4101 14.9124 21.4206 14.9197 21.4294 14.9289C21.4382 14.9381 21.445 14.949 21.4494 14.961C21.4538 14.9729 21.4558 14.9856 21.4552 14.9983C21.3281 17.3477 20.1309 18.4914 17.8125 18.4914Z" fill="#888888"/>
</svg>
