<svg width="24" height="24" viewBox="0 0 24 24" fill="none" xmlns="http://www.w3.org/2000/svg">
<path d="M9 2.52375C9 2.52375 9.75 2.25 12 2.25C14.25 2.25 15.4688 3 16.5 3.75H19.5C20.2956 3.75 21.0587 4.06607 21.6213 4.62868C22.1839 5.19129 22.5 5.95435 22.5 6.75V9C22.5 9.79565 22.1839 10.5587 21.6213 11.1213C21.0587 11.6839 20.2956 12 19.5 12H18.0938C17.8362 12.0014 17.5832 12.0684 17.3588 12.1948C17.1343 12.3211 16.9457 12.5025 16.8108 12.7219C16.8108 12.7219 16.4062 13.6027 15.1875 15.7134C13.9688 17.8242 11.625 21 11.25 21.75C9.89062 21.75 9.23438 20.7188 9.65625 19.5136C10.1381 18.1359 10.7677 16.9645 10.9434 15.4313C10.9688 15.2072 10.7963 14.8688 10.5684 14.8688L4.5 14.3906" stroke="#888888" stroke-linecap="round" stroke-linejoin="round"/>
<path d="M4.5 11.2969L8.25 11.3906C9.1875 11.4769 9.75 11.9719 9.75 12.7969C9.75 13.6219 9.09375 14.1488 8.25 14.2031L4.5 14.3906C3.675 14.3906 3 13.6219 3 12.7969V12.7889C3.00211 12.3925 3.16107 12.013 3.44215 11.7334C3.72322 11.4538 4.10355 11.2969 4.5 11.2969V11.2969Z" stroke="#888888" stroke-miterlimit="10"/>
<path d="M3 8.25L8.25 8.34375C9.09375 8.38312 9.75 8.92547 9.75 9.75C9.75 10.5755 9.09375 11.1028 8.25 11.1562L3 11.25C2.60256 11.2488 2.22174 11.0903 1.94071 10.8093C1.65967 10.5283 1.50124 10.1474 1.5 9.75V9.75C1.50124 9.35256 1.65967 8.97174 1.94071 8.69071C2.22174 8.40967 2.60256 8.25124 3 8.25Z" stroke="#888888" stroke-miterlimit="10"/>
<path d="M5.25 2.25L8.25 2.39062C9.23438 2.47688 9.75 2.925 9.75 3.75C9.75 4.575 9.075 5.15625 8.25 5.15625L5.25 5.25C4.85252 5.24889 4.47163 5.09049 4.19057 4.80943C3.90951 4.52837 3.75111 4.14748 3.75 3.75V3.75C3.75111 3.35252 3.90951 2.97163 4.19057 2.69057C4.47163 2.40951 4.85252 2.25111 5.25 2.25V2.25Z" stroke="#888888" stroke-miterlimit="10"/>
<path d="M3.75 5.25L8.25 5.34375C9.14062 5.38312 9.75 5.925 9.75 6.75C9.75 7.575 9.14062 8.10188 8.25 8.15625L3.75 8.25C3.35252 8.24889 2.97163 8.09049 2.69057 7.80943C2.40951 7.52837 2.25111 7.14748 2.25 6.75V6.75C2.25111 6.35252 2.40951 5.97163 2.69057 5.69057C2.97163 5.40951 3.35252 5.25111 3.75 5.25V5.25Z" stroke="#888888" stroke-miterlimit="10"/>
</svg>
