<svg width="24" height="24" viewBox="0 0 24 24" fill="none" xmlns="http://www.w3.org/2000/svg">
<path d="M21.4688 1.5H18.2813C18.0077 1.5 17.7454 1.60865 17.552 1.80205C17.3587 1.99544 17.25 2.25775 17.25 2.53125C17.25 2.80475 17.3587 3.06706 17.552 3.26045C17.7454 3.45385 18.0077 3.5625 18.2813 3.5625H18.9792L16.1869 6.35484C14.9765 5.45483 13.5083 4.96879 12 4.96879C10.4917 4.96879 9.0235 5.45483 7.81313 6.35484L7.45828 6L8.69813 4.76063C8.79391 4.66484 8.86989 4.55113 8.92173 4.42599C8.97356 4.30084 9.00024 4.16671 9.00024 4.03125C9.00024 3.89579 8.97356 3.76166 8.92173 3.63652C8.86989 3.51137 8.79391 3.39766 8.69813 3.30188C8.60234 3.20609 8.48863 3.13011 8.36349 3.07828C8.23834 3.02644 8.10421 2.99976 7.96875 2.99976C7.69518 2.99976 7.43282 3.10843 7.23938 3.30188L6 4.54172L5.02078 3.5625H5.71875C5.99225 3.5625 6.25456 3.45385 6.44795 3.26045C6.64135 3.06706 6.75 2.80475 6.75 2.53125C6.75 2.25775 6.64135 1.99544 6.44795 1.80205C6.25456 1.60865 5.99225 1.5 5.71875 1.5H2.53125C2.25775 1.5 1.99544 1.60865 1.80205 1.80205C1.60865 1.99544 1.5 2.25775 1.5 2.53125V5.71875C1.5 5.99225 1.60865 6.25456 1.80205 6.44795C1.99544 6.64135 2.25775 6.75 2.53125 6.75C2.80475 6.75 3.06706 6.64135 3.26045 6.44795C3.45385 6.25456 3.5625 5.99225 3.5625 5.71875V5.02078L4.54172 6L3.30328 7.23844C3.20545 7.33373 3.12752 7.4475 3.07401 7.57315C3.02051 7.6988 2.99249 7.83383 2.99159 7.97039C2.99069 8.10696 3.01693 8.24234 3.06877 8.36869C3.12062 8.49503 3.19705 8.60982 3.29361 8.70639C3.39018 8.80295 3.50497 8.87938 3.63132 8.93123C3.75766 8.98307 3.89304 9.00931 4.02961 9.00841C4.16618 9.00751 4.3012 8.9795 4.42685 8.92599C4.5525 8.87248 4.66627 8.79455 4.76156 8.69672L6 7.45828L6.35484 7.81313C5.45331 9.02271 4.96709 10.4914 4.96875 12C4.96875 15.877 8.12297 19.0313 12 19.0313C13.5114 19.0329 14.9826 18.545 16.1934 17.6405L17.2969 18.7453L16.0528 19.9894C15.8594 20.1828 15.7507 20.4452 15.7507 20.7188C15.7507 20.9923 15.8594 21.2547 16.0528 21.4481C16.2463 21.6416 16.5086 21.7502 16.7822 21.7502C17.0558 21.7502 17.3181 21.6416 17.5116 21.4481L18.7533 20.2059L20.7394 22.1972C20.9326 22.3909 21.1948 22.4999 21.4684 22.5002C21.7419 22.5006 22.0044 22.3923 22.1981 22.1991C22.3918 22.0059 22.5008 21.7436 22.5012 21.4701C22.5015 21.1965 22.3932 20.934 22.2 20.7403L20.2111 18.75L21.4481 17.513C21.6416 17.3195 21.7502 17.0572 21.7502 16.7836C21.7502 16.51 21.6416 16.2477 21.4481 16.0542C21.2547 15.8608 20.9923 15.7521 20.7188 15.7521C20.4452 15.7521 20.1828 15.8608 19.9894 16.0542L18.7542 17.2894L17.6503 16.1822C18.548 14.9719 19.0322 13.5048 19.0313 11.998C19.0304 10.4911 18.5443 9.02462 17.6452 7.81547L20.4375 5.02078V5.71875C20.4375 5.99225 20.5462 6.25456 20.7395 6.44795C20.9329 6.64135 21.1952 6.75 21.4688 6.75C21.7423 6.75 22.0046 6.64135 22.198 6.44795C22.3914 6.25456 22.5 5.99225 22.5 5.71875V2.53125C22.5 2.25775 22.3914 1.99544 22.198 1.80205C22.0046 1.60865 21.7423 1.5 21.4688 1.5ZM7.03125 12C7.03125 11.0173 7.32266 10.0566 7.86864 9.23951C8.41461 8.4224 9.19062 7.78555 10.0985 7.40947C11.0065 7.0334 12.0055 6.935 12.9694 7.12672C13.9332 7.31844 14.8185 7.79167 15.5134 8.48656C16.2083 9.18146 16.6816 10.0668 16.8733 11.0306C17.065 11.9945 16.9666 12.9935 16.5905 13.9015C16.2145 14.8094 15.5776 15.5854 14.7605 16.1314C13.9434 16.6773 12.9827 16.9688 12 16.9688C10.6827 16.9673 9.41971 16.4433 8.48821 15.5118C7.55671 14.5803 7.03274 13.3173 7.03125 12Z" fill="#888888"/>
</svg>
