<svg width="24" height="24" viewBox="0 0 24 24" fill="none" xmlns="http://www.w3.org/2000/svg">
<path d="M19.4246 5.32602C17.7122 3.60351 15.4518 2.53341 13.0342 2.30071C12.9606 2.29305 12.8908 2.26403 12.8335 2.21722C12.7762 2.17041 12.7339 2.10786 12.7117 2.03727C12.6674 1.88271 12.574 1.74676 12.4456 1.64998C12.3173 1.5532 12.1609 1.50085 12.0001 1.50085C11.8393 1.50085 11.6829 1.5532 11.5545 1.64998C11.4262 1.74676 11.3328 1.88271 11.2885 2.03727C11.2663 2.10786 11.224 2.17041 11.1667 2.21722C11.1094 2.26403 11.0396 2.29305 10.966 2.30071C8.37666 2.55696 5.97466 3.76552 4.22571 5.6921C2.47676 7.61868 1.50545 10.126 1.5001 12.7281C1.49807 12.8561 1.52805 12.9826 1.58731 13.0962C1.64658 13.2097 1.73325 13.3067 1.83947 13.3782C1.98364 13.4725 2.15585 13.5142 2.32717 13.4965C2.49849 13.4787 2.65848 13.4025 2.78025 13.2807C3.23589 12.8252 3.85362 12.5691 4.49787 12.5686C5.14213 12.5681 5.76027 12.8232 6.21666 13.2779C6.28563 13.3481 6.3678 13.4041 6.45845 13.4425C6.5491 13.4809 6.64644 13.501 6.74489 13.5016C6.84333 13.5023 6.94093 13.4835 7.03208 13.4463C7.12323 13.4091 7.20614 13.3543 7.27603 13.2849C7.77421 12.7891 8.43383 12.4886 9.13487 12.4381C9.83591 12.3876 10.5318 12.5905 11.0959 13.0098C11.1438 13.0458 11.1827 13.0924 11.2094 13.146C11.2362 13.1996 11.2501 13.2588 11.2501 13.3187V20.229C11.2501 20.6321 10.9407 20.979 10.5381 20.9996C10.4365 21.0048 10.335 20.9892 10.2396 20.9539C10.1442 20.9186 10.0571 20.8642 9.98336 20.7942C9.90965 20.7241 9.85097 20.6398 9.81087 20.5463C9.77077 20.4529 9.75009 20.3522 9.7501 20.2506C9.75011 20.1509 9.73027 20.0523 9.69173 19.9604C9.6532 19.8685 9.59673 19.7852 9.52564 19.7154C9.45455 19.6455 9.37026 19.5906 9.27769 19.5537C9.18512 19.5168 9.08613 19.4987 8.9865 19.5006C8.56463 19.5081 8.24119 19.8807 8.25057 20.3021C8.26457 20.8846 8.50368 21.4389 8.91771 21.8489C9.33173 22.2588 9.88847 22.4924 10.471 22.5006C11.731 22.5165 12.7501 21.4726 12.7501 20.2126V13.3187C12.7501 13.2588 12.764 13.1996 12.7908 13.146C12.8175 13.0924 12.8564 13.0458 12.9043 13.0098C13.4676 12.5911 14.1623 12.3882 14.8624 12.4379C15.5624 12.4876 16.2215 12.7866 16.7199 13.2807C16.8606 13.4213 17.0513 13.5002 17.2501 13.5002C17.4489 13.5002 17.6396 13.4213 17.7803 13.2807C18.2365 12.8248 18.8551 12.5688 19.5001 12.5688C20.1451 12.5688 20.7637 12.8248 21.2199 13.2807C21.3382 13.3989 21.4925 13.4743 21.6585 13.4948C21.8244 13.5152 21.9925 13.4796 22.1359 13.3937C22.249 13.3237 22.3421 13.2255 22.4059 13.1087C22.4698 12.992 22.5022 12.8606 22.5001 12.7276C22.5008 11.352 22.2294 9.98991 21.7016 8.71964C21.1738 7.44937 20.3999 6.29604 19.4246 5.32602Z" fill="#888888"/>
</svg>
