<svg width="24" height="24" viewBox="0 0 24 24" fill="none" xmlns="http://www.w3.org/2000/svg">
<path d="M21.75 18.0176C21.54 18.0174 21.3324 17.9732 21.1406 17.8877C21.096 17.8679 21.0535 17.8437 21.0136 17.8156L17.1366 15.0865C16.9399 14.9481 16.7795 14.7644 16.6687 14.551C16.5579 14.3376 16.5001 14.1007 16.5 13.8602V10.1384C16.5001 9.89791 16.5579 9.661 16.6687 9.44758C16.7795 9.23417 16.9399 9.05052 17.1366 8.91211L21.0136 6.18305C21.0535 6.15485 21.096 6.13067 21.1406 6.11086C21.369 6.00933 21.6191 5.96647 21.8683 5.98618C22.1174 6.00589 22.3577 6.08754 22.5673 6.22371C22.7769 6.35989 22.9491 6.54627 23.0683 6.76593C23.1875 6.98559 23.25 7.23156 23.25 7.48149V16.5171C23.25 16.9149 23.092 17.2965 22.8107 17.5778C22.5294 17.8591 22.1478 18.0171 21.75 18.0171V18.0176Z" fill="#888888"/>
<path d="M12.5625 18.75H3.9375C3.09239 18.7491 2.28214 18.413 1.68456 17.8154C1.08697 17.2179 0.750869 16.4076 0.75 15.5625V8.4375C0.750869 7.59239 1.08697 6.78214 1.68456 6.18456C2.28214 5.58697 3.09239 5.25087 3.9375 5.25H12.585C13.4241 5.25099 14.2286 5.58477 14.8219 6.1781C15.4152 6.77144 15.749 7.57589 15.75 8.415V15.5625C15.7491 16.4076 15.413 17.2179 14.8154 17.8154C14.2179 18.413 13.4076 18.7491 12.5625 18.75Z" fill="#888888"/>
</svg>
