<svg width="24" height="24" viewBox="0 0 24 24" fill="none" xmlns="http://www.w3.org/2000/svg">
<path d="M12.375 19.5089C12.1352 19.5087 11.9017 19.4316 11.7089 19.289L11.678 19.2651L7.39078 15.7495H4.125C3.82663 15.7495 3.54048 15.6309 3.3295 15.42C3.11853 15.209 3 14.9228 3 14.6245V9.37494C3 9.07657 3.11853 8.79043 3.3295 8.57945C3.54048 8.36847 3.82663 8.24994 4.125 8.24994H7.38984L11.677 4.73432L11.708 4.71041C11.8756 4.587 12.0741 4.51251 12.2815 4.49522C12.489 4.47793 12.6971 4.51852 12.8828 4.61248C13.0686 4.70643 13.2246 4.85007 13.3335 5.02741C13.4425 5.20475 13.5001 5.40884 13.5 5.61697V18.3829C13.5 18.6813 13.3815 18.9674 13.1705 19.1784C12.9595 19.3894 12.6734 19.5079 12.375 19.5079V19.5089Z" fill="#888888"/>
<path d="M16.5001 15.7493C16.3722 15.7493 16.2464 15.7165 16.1347 15.6541C16.023 15.5917 15.9292 15.5018 15.8621 15.3929C15.7949 15.284 15.7568 15.1598 15.7512 15.032C15.7456 14.9042 15.7728 14.7771 15.8302 14.6628C16.2751 13.7768 16.5006 12.8815 16.5006 11.9993C16.5006 11.0918 16.2821 10.2218 15.8326 9.34011C15.7465 9.16344 15.7331 8.96001 15.7955 8.77361C15.8578 8.5872 15.9908 8.43272 16.1659 8.3434C16.341 8.25407 16.5441 8.23705 16.7317 8.29599C16.9192 8.35493 17.076 8.48512 17.1685 8.65855C17.7282 9.75683 18.0001 10.8495 18.0001 11.9993C18.0001 13.1164 17.7188 14.239 17.1704 15.3359C17.108 15.4602 17.0123 15.5647 16.8939 15.6377C16.7755 15.7107 16.6392 15.7493 16.5001 15.7493Z" fill="#888888"/>
<path d="M18.7499 18.0007C18.6182 18.0008 18.4888 17.9662 18.3747 17.9004C18.2606 17.8346 18.1658 17.74 18.0999 17.6259C18.034 17.5119 17.9993 17.3825 17.9993 17.2508C17.9992 17.1191 18.0339 16.9897 18.0997 16.8757C18.9843 15.3311 19.4999 14.0374 19.4999 12.0007C19.4999 9.93254 18.9871 8.64817 18.1016 7.12801C18.0102 6.95661 17.9889 6.75643 18.0421 6.56962C18.0954 6.38281 18.219 6.22394 18.387 6.12645C18.555 6.02896 18.7543 6.00046 18.9429 6.04694C19.1315 6.09342 19.2947 6.21127 19.3982 6.37567C20.3868 8.07067 20.9999 9.60442 20.9999 12.0007C20.9999 14.3613 20.3877 15.9025 19.4005 17.6257C19.3346 17.7398 19.2398 17.8346 19.1255 17.9005C19.0113 17.9663 18.8817 18.0008 18.7499 18.0007Z" fill="#888888"/>
</svg>
