<svg width="24" height="24" viewBox="0 0 24 24" fill="none" xmlns="http://www.w3.org/2000/svg">
<path d="M10.875 19.5C10.6354 19.5 10.402 19.4231 10.2094 19.2807C10.1987 19.2732 10.1883 19.2652 10.1784 19.2567L5.895 15.75H2.625C2.32663 15.75 2.04048 15.6315 1.8295 15.4205C1.61853 15.2095 1.5 14.9234 1.5 14.625V9.37503C1.5 9.07666 1.61853 8.79051 1.8295 8.57954C2.04048 8.36856 2.32663 8.25003 2.625 8.25003H5.89453L10.1775 4.74331C10.1874 4.73483 10.1977 4.72685 10.2084 4.71941C10.376 4.59618 10.5744 4.52181 10.7817 4.50455C10.9889 4.4873 11.1969 4.52783 11.3825 4.62166C11.5681 4.71548 11.7241 4.85893 11.8331 5.03605C11.9421 5.21318 11.9999 5.41705 12 5.62503V18.375C12 18.6734 11.8815 18.9595 11.6705 19.1705C11.4595 19.3815 11.1734 19.5 10.875 19.5Z" fill="#888888"/>
<path d="M15.0001 15.7493C14.8721 15.7493 14.7463 15.7165 14.6345 15.6541C14.5228 15.5917 14.4289 15.5017 14.3617 15.3928C14.2946 15.2838 14.2565 15.1595 14.2509 15.0316C14.2454 14.9038 14.2727 14.7766 14.3302 14.6623C14.7751 13.7778 15.0005 12.881 15.0005 11.9993C15.0005 11.0909 14.7821 10.2209 14.3326 9.34011C14.2465 9.16344 14.2331 8.96001 14.2955 8.77361C14.3578 8.5872 14.4908 8.43272 14.6659 8.3434C14.841 8.25407 15.0441 8.23705 15.2316 8.29599C15.4191 8.35493 15.576 8.48512 15.6685 8.65855C16.2277 9.75496 16.5001 10.8481 16.5001 11.9993C16.5001 13.1178 16.2188 14.2404 15.6704 15.3364C15.6079 15.4606 15.5121 15.565 15.3938 15.6379C15.2754 15.7108 15.1391 15.7494 15.0001 15.7493Z" fill="#888888"/>
<path d="M17.2499 17.9996C17.1183 17.9996 16.9889 17.965 16.8749 17.8991C16.7608 17.8333 16.6661 17.7387 16.6003 17.6246C16.5344 17.5106 16.4998 17.3813 16.4998 17.2496C16.4997 17.1179 16.5344 16.9886 16.6002 16.8746C17.4866 15.3319 17.9999 14.0391 17.9999 11.9996C17.9999 9.9291 17.4876 8.64519 16.6021 7.12738C16.505 6.95574 16.4794 6.75275 16.5309 6.56237C16.5823 6.37199 16.7067 6.20954 16.877 6.11019C17.0474 6.01084 17.25 5.98258 17.4411 6.03153C17.6321 6.08049 17.7962 6.20272 17.8977 6.37175C18.8868 8.06722 19.4999 9.60003 19.4999 11.9996C19.4999 14.3635 18.8877 15.9038 17.9001 17.6246C17.8342 17.7387 17.7394 17.8334 17.6253 17.8992C17.5112 17.9651 17.3817 17.9997 17.2499 17.9996Z" fill="#888888"/>
<path d="M19.5001 20.2498C19.365 20.2497 19.2325 20.2131 19.1165 20.1439C19.0005 20.0747 18.9053 19.9755 18.8411 19.8568C18.7768 19.738 18.7458 19.604 18.7513 19.4691C18.7568 19.3342 18.7987 19.2032 18.8724 19.0901C20.1493 17.1312 21.0001 15.176 21.0001 11.9998C21.0001 8.88258 20.1479 6.9082 18.8677 4.90336C18.8147 4.82026 18.7786 4.72753 18.7615 4.63047C18.7443 4.53341 18.7464 4.43392 18.7677 4.33768C18.789 4.24144 18.829 4.15034 18.8855 4.06957C18.942 3.9888 19.0139 3.91995 19.097 3.86695C19.1801 3.81395 19.2728 3.77784 19.3699 3.76067C19.4669 3.74351 19.5664 3.74563 19.6626 3.76692C19.7589 3.7882 19.85 3.82823 19.9308 3.88473C20.0115 3.94122 20.0804 4.01307 20.1334 4.09617C21.5537 6.32273 22.5001 8.51883 22.5001 11.9998C22.5001 15.0349 21.8129 17.3262 20.1282 19.9095C20.0601 20.0139 19.967 20.0998 19.8573 20.1592C19.7476 20.2186 19.6248 20.2498 19.5001 20.2498Z" fill="#888888"/>
</svg>
