<svg width="24" height="24" viewBox="0 0 24 24" fill="none" xmlns="http://www.w3.org/2000/svg">
<path fill-rule="evenodd" clip-rule="evenodd" d="M2.46967 3.21967C2.76256 2.92678 3.23744 2.92678 3.53033 3.21967L20.0303 19.7197C20.3232 20.0126 20.3232 20.4874 20.0303 20.7803C19.7374 21.0732 19.2626 21.0732 18.9697 20.7803L2.46967 4.28033C2.17678 3.98744 2.17678 3.51256 2.46967 3.21967Z" fill="#888888"/>
<path d="M11.4061 4.63389C11.219 4.53294 11.007 4.48736 10.7949 4.50246C10.5828 4.51757 10.3794 4.59275 10.2085 4.7192L10.1775 4.74311L8.84067 5.83764C8.80012 5.87082 8.76696 5.91213 8.74335 5.95891C8.71974 6.00569 8.70619 6.0569 8.70359 6.10923C8.70098 6.16157 8.70937 6.21387 8.72822 6.26276C8.74707 6.31166 8.77596 6.35606 8.81302 6.3931L11.3597 8.93982C11.4122 8.99232 11.479 9.02809 11.5518 9.04258C11.6246 9.05707 11.7 9.04965 11.7686 9.02124C11.8371 8.99283 11.8957 8.94472 11.9369 8.883C11.9781 8.82128 12.0001 8.74872 12 8.67451V5.65154C12.0021 5.4441 11.948 5.23996 11.8435 5.06078C11.7389 4.88161 11.5878 4.73409 11.4061 4.63389Z" fill="#888888"/>
<path d="M11.7811 15.7167L4.53234 8.46984C4.39176 8.32917 4.20106 8.25009 4.00219 8.25H2.625C2.32663 8.25 2.04048 8.36853 1.8295 8.5795C1.61853 8.79048 1.5 9.07663 1.5 9.375V14.625C1.5 14.9234 1.61853 15.2095 1.8295 15.4205C2.04048 15.6315 2.32663 15.75 2.625 15.75H5.895L10.2075 19.2802C10.3806 19.4086 10.5871 19.4844 10.8022 19.4985C11.0172 19.5125 11.2318 19.4642 11.4202 19.3594C11.5981 19.258 11.7456 19.1108 11.8476 18.9332C11.9495 18.7556 12.0021 18.554 12 18.3492V16.2464C12 16.0478 11.9213 15.8573 11.7811 15.7167Z" fill="#888888"/>
<path d="M16.4999 11.9997C16.4999 10.8485 16.2275 9.75583 15.6679 8.65896C15.6235 8.57055 15.562 8.49179 15.4871 8.42722C15.4122 8.36266 15.3252 8.31355 15.2312 8.28274C15.1372 8.25192 15.038 8.24001 14.9394 8.24768C14.8408 8.25535 14.7446 8.28246 14.6565 8.32744C14.5684 8.37242 14.4901 8.43438 14.426 8.50976C14.362 8.58514 14.3135 8.67245 14.2833 8.76666C14.2531 8.86086 14.2419 8.96011 14.2502 9.05868C14.2586 9.15725 14.2863 9.25319 14.3319 9.34099C14.7814 10.2213 14.9999 11.0913 14.9999 11.9997C14.9999 12.1247 14.995 12.2518 14.9854 12.3808C14.9813 12.4346 14.989 12.4886 15.0078 12.5392C15.0265 12.5897 15.056 12.6357 15.0941 12.6738L15.7672 13.3469C15.8158 13.3956 15.8769 13.43 15.9438 13.4464C16.0107 13.4627 16.0808 13.4603 16.1464 13.4394C16.212 13.4185 16.2705 13.38 16.3157 13.3281C16.3609 13.2761 16.3909 13.2127 16.4024 13.1449C16.4669 12.7666 16.4996 12.3835 16.4999 11.9997Z" fill="#888888"/>
<path d="M19.4999 11.9996C19.4999 9.6005 18.8868 8.06722 17.8978 6.37175C17.7962 6.20272 17.6321 6.08049 17.4411 6.03153C17.25 5.98258 17.0474 6.01084 16.877 6.11019C16.7067 6.20954 16.5823 6.37199 16.5309 6.56237C16.4794 6.75275 16.505 6.95574 16.6021 7.12738C17.4876 8.64519 17.9999 9.9291 17.9999 11.9996C17.9999 13.1166 17.8457 14.0096 17.5607 14.8425C17.5378 14.9089 17.534 14.9804 17.5498 15.0489C17.5655 15.1173 17.6002 15.18 17.6498 15.2297L18.2343 15.8152C18.2785 15.8594 18.3331 15.8919 18.393 15.9097C18.453 15.9275 18.5164 15.93 18.5776 15.917C18.6387 15.904 18.6957 15.8759 18.7432 15.8353C18.7908 15.7947 18.8274 15.7428 18.8498 15.6844C19.2656 14.6133 19.4999 13.4649 19.4999 11.9996Z" fill="#888888"/>
<path d="M22.5001 11.9997C22.5001 8.51924 21.5536 6.32268 20.1324 4.09611C20.0254 3.92828 19.856 3.80984 19.6617 3.76686C19.4673 3.72387 19.2638 3.75986 19.096 3.8669C18.9282 3.97394 18.8097 4.14326 18.7667 4.33763C18.7237 4.53199 18.7597 4.73547 18.8668 4.9033C20.1479 6.90815 21.0001 8.88252 21.0001 11.9997C21.0001 14.1649 20.6049 15.7624 19.9486 17.1808C19.9165 17.2503 19.9064 17.328 19.9197 17.4034C19.9331 17.4788 19.9692 17.5484 20.0232 17.6027L20.5819 18.1614C20.6242 18.2044 20.6761 18.2365 20.7334 18.2551C20.7907 18.2737 20.8517 18.2782 20.9111 18.2683C20.9705 18.2584 21.0266 18.2343 21.0748 18.198C21.1229 18.1618 21.1616 18.1145 21.1876 18.0602C22.1063 16.1669 22.5001 14.2966 22.5001 11.9997Z" fill="#888888"/>
</svg>
