<svg width="24" height="24" viewBox="0 0 24 24" fill="none" xmlns="http://www.w3.org/2000/svg">
<path d="M12.4275 2.81731C12.3747 2.75564 12.3092 2.70613 12.2354 2.67219C12.1617 2.63824 12.0814 2.62067 12.0002 2.62067C11.919 2.62067 11.8388 2.63824 11.7651 2.67219C11.6913 2.70613 11.6258 2.75564 11.573 2.81731C10.0889 4.55309 5.25 10.554 5.25 14.9992C5.25 19.1415 7.85812 21.7492 12 21.7492C16.1419 21.7492 18.75 19.1415 18.75 14.9992C18.75 10.554 13.9111 4.55309 12.4275 2.81731ZM12.75 19.3117C12.6599 19.3119 12.5711 19.2904 12.491 19.2492C12.4109 19.2079 12.3419 19.148 12.2898 19.0744C12.2377 19.0009 12.2041 18.916 12.1916 18.8268C12.1792 18.7375 12.1884 18.6466 12.2184 18.5617C12.2568 18.4509 12.3291 18.3549 12.4252 18.2876C12.5212 18.2203 12.636 18.185 12.7533 18.1867C13.4978 18.1851 14.2114 17.8886 14.7379 17.3621C15.2644 16.8356 15.5609 16.122 15.5625 15.3775C15.5608 15.2602 15.5961 15.1454 15.6634 15.0494C15.7308 14.9533 15.8267 14.881 15.9375 14.8426C16.0224 14.8126 16.1134 14.8034 16.2026 14.8158C16.2918 14.8283 16.3768 14.8619 16.4503 14.914C16.5238 14.9661 16.5837 15.0351 16.625 15.1152C16.6663 15.1953 16.6877 15.2841 16.6875 15.3742C16.6864 16.4181 16.2712 17.419 15.533 18.1572C14.7948 18.8954 13.7939 19.3106 12.75 19.3117Z" fill="#888888"/>
</svg>
