<svg width="24" height="24" viewBox="0 0 24 24" fill="none" xmlns="http://www.w3.org/2000/svg">
<path d="M16.2493 14.2632C15.0823 13.2258 13.5753 12.6528 12.0139 12.6528C10.4525 12.6528 8.94545 13.2258 7.77849 14.2632C7.67988 14.3485 7.59921 14.4526 7.54116 14.5693C7.48311 14.6861 7.44883 14.8132 7.44033 14.9433C7.43182 15.0735 7.44926 15.204 7.49161 15.3273C7.53397 15.4506 7.60041 15.5643 7.68707 15.6618C7.77373 15.7592 7.87889 15.8384 7.99643 15.8949C8.11398 15.9514 8.24157 15.9839 8.37179 15.9906C8.50202 15.9974 8.63228 15.9781 8.75502 15.9341C8.87776 15.8901 8.99053 15.8221 9.08677 15.7341C9.89331 15.0173 10.9348 14.6213 12.0139 14.6213C13.0929 14.6213 14.1345 15.0173 14.941 15.7341C15.1362 15.9076 15.3923 15.9964 15.653 15.9811C15.9137 15.9658 16.1576 15.8475 16.3311 15.6523C16.5046 15.4571 16.5934 15.201 16.5781 14.9403C16.5627 14.6796 16.4445 14.4357 16.2493 14.2622V14.2632Z" fill="#888888"/>
<path d="M12.013 8.61146C9.3701 8.60782 6.82528 9.61234 4.89741 11.4202C4.7998 11.5077 4.72063 11.6137 4.66454 11.7321C4.60845 11.8506 4.57658 11.979 4.57079 12.1099C4.56499 12.2408 4.5854 12.3716 4.6308 12.4945C4.67621 12.6175 4.7457 12.7301 4.83521 12.8258C4.92471 12.9215 5.03243 12.9984 5.15203 13.0519C5.27164 13.1055 5.40074 13.1346 5.53175 13.1376C5.66276 13.1406 5.79304 13.1174 5.91497 13.0693C6.0369 13.0213 6.148 12.9494 6.24178 12.8579C7.80716 11.3944 9.87008 10.5802 12.013 10.5802C14.156 10.5802 16.2189 11.3944 17.7843 12.8579C17.8781 12.9494 17.9892 13.0213 18.1111 13.0693C18.233 13.1174 18.3633 13.1406 18.4943 13.1376C18.6253 13.1346 18.7544 13.1055 18.874 13.0519C18.9936 12.9984 19.1013 12.9215 19.1909 12.8258C19.2804 12.7301 19.3499 12.6175 19.3953 12.4945C19.4407 12.3716 19.4611 12.2408 19.4553 12.1099C19.4495 11.979 19.4176 11.8506 19.3615 11.7321C19.3054 11.6137 19.2263 11.5077 19.1287 11.4202C17.2008 9.61234 14.656 8.60782 12.013 8.61146Z" fill="#888888"/>
<path d="M21.6564 8.24279C19.0025 5.87484 15.5701 4.56616 12.0133 4.56616C8.45653 4.56616 5.0241 5.87484 2.37017 8.24279C2.27043 8.32799 2.18872 8.43227 2.12985 8.54949C2.07098 8.66672 2.03613 8.79453 2.02735 8.92541C2.01858 9.0563 2.03605 9.18762 2.07874 9.31165C2.12144 9.43569 2.18849 9.54994 2.27597 9.64769C2.36344 9.74545 2.46957 9.82473 2.58812 9.88089C2.70668 9.93704 2.83525 9.96894 2.96631 9.97469C3.09736 9.98045 3.22824 9.95996 3.35126 9.91442C3.47428 9.86888 3.58696 9.79921 3.68267 9.70951C5.97562 7.66453 8.94067 6.53442 12.0131 6.53442C15.0854 6.53442 18.0505 7.66453 20.3434 9.70951C20.5381 9.88356 20.7939 9.97316 21.0546 9.95861C21.3152 9.94406 21.5595 9.82655 21.7335 9.63193C21.9076 9.43731 21.9972 9.18151 21.9826 8.92083C21.9681 8.66013 21.8506 8.4159 21.6559 8.24185L21.6564 8.24279Z" fill="#888888"/>
<path d="M12.0132 19.9409C12.8416 19.9409 13.5132 19.2693 13.5132 18.4409C13.5132 17.6125 12.8416 16.9409 12.0132 16.9409C11.1848 16.9409 10.5132 17.6125 10.5132 18.4409C10.5132 19.2693 11.1848 19.9409 12.0132 19.9409Z" fill="#888888"/>
</svg>
